M48
; DRILL file {KiCad 7.0.6} date Fri Jul 28 20:13:54 2023
; FORMAT={-:-/ absolute / inch / decimal}
; #@! TF.CreationDate,2023-07-28T20:13:54+05:30
; #@! TF.GenerationSoftware,Kicad,Pcbnew,7.0.6
; #@! TF.FileFunction,Plated,1,2,PTH
FMAT,2
INCH
; #@! TA.AperFunction,Plated,PTH,ComponentDrill
T1C0.0276
%
G90
G05
T1
X5.0134Y-3.937
X5.1418Y-3.522
X5.1418Y-4.352
X5.2134Y-3.937
X5.315Y-3.622
X5.315Y-4.252
X5.4512Y-4.7008
X5.4906Y-3.1733
X5.5512Y-4.5276
X5.5906Y-3.3465
X5.9055Y-3.0618
X5.9055Y-3.2618
X5.9055Y-4.6063
X5.9055Y-4.8063
X6.2205Y-4.5276
X6.2492Y-3.3543
X6.3205Y-4.7008
X6.3492Y-3.1811
X6.4882Y-3.5933
X6.4882Y-4.2807
X6.5929Y-3.937
X6.6614Y-3.4933
X6.6614Y-4.3807
X6.7929Y-3.937
T0
M30
