%TF.GenerationSoftware,KiCad,Pcbnew,7.0.6*%
%TF.CreationDate,2023-07-28T20:13:56+05:30*%
%TF.ProjectId,circular board,63697263-756c-4617-9220-626f6172642e,rev?*%
%TF.SameCoordinates,Original*%
%TF.FileFunction,Copper,L1,Top*%
%TF.FilePolarity,Positive*%
%FSLAX46Y46*%
G04 Gerber Fmt 4.6, Leading zero omitted, Abs format (unit mm)*
G04 Created by KiCad (PCBNEW 7.0.6) date 2023-07-28 20:13:56*
%MOMM*%
%LPD*%
G01*
G04 APERTURE LIST*
G04 Aperture macros list*
%AMHorizOval*
0 Thick line with rounded ends*
0 $1 width*
0 $2 $3 position (X,Y) of the first rounded end (center of the circle)*
0 $4 $5 position (X,Y) of the second rounded end (center of the circle)*
0 Add line between two ends*
20,1,$1,$2,$3,$4,$5,0*
0 Add two circle primitives to create the rounded ends*
1,1,$1,$2,$3*
1,1,$1,$4,$5*%
G04 Aperture macros list end*
%TA.AperFunction,ComponentPad*%
%ADD10HorizOval,1.400000X0.000000X0.000000X0.000000X0.000000X0*%
%TD*%
%TA.AperFunction,ComponentPad*%
%ADD11C,1.400000*%
%TD*%
%TA.AperFunction,ComponentPad*%
%ADD12HorizOval,1.400000X0.000000X0.000000X0.000000X0.000000X0*%
%TD*%
%TA.AperFunction,ComponentPad*%
%ADD13O,1.400000X1.400000*%
%TD*%
%TA.AperFunction,ComponentPad*%
%ADD14HorizOval,1.400000X0.000000X0.000000X0.000000X0.000000X0*%
%TD*%
%TA.AperFunction,ComponentPad*%
%ADD15HorizOval,1.400000X0.000000X0.000000X0.000000X0.000000X0*%
%TD*%
%TA.AperFunction,ComponentPad*%
%ADD16HorizOval,1.400000X0.000000X0.000000X0.000000X0.000000X0*%
%TD*%
%TA.AperFunction,ComponentPad*%
%ADD17HorizOval,1.400000X0.000000X0.000000X0.000000X0.000000X0*%
%TD*%
%TA.AperFunction,ComponentPad*%
%ADD18HorizOval,1.400000X0.000000X0.000000X0.000000X0.000000X0*%
%TD*%
%TA.AperFunction,ComponentPad*%
%ADD19HorizOval,1.400000X0.000000X0.000000X0.000000X0.000000X0*%
%TD*%
%TA.AperFunction,Conductor*%
%ADD20C,0.250000*%
%TD*%
G04 APERTURE END LIST*
D10*
%TO.P,R12,2*%
%TO.N,Net-(R11-Pad2)*%
X139460000Y-80600591D03*
D11*
%TO.P,R12,1*%
%TO.N,Net-(R10-Pad1)*%
X142000000Y-85000000D03*
%TD*%
D12*
%TO.P,R11,2*%
%TO.N,Net-(R11-Pad2)*%
X130600591Y-89460000D03*
D11*
%TO.P,R11,1*%
%TO.N,Net-(R10-Pad1)*%
X135000000Y-92000000D03*
%TD*%
D13*
%TO.P,R10,2*%
%TO.N,Net-(R1-Pad2)*%
X127340000Y-100000000D03*
D11*
%TO.P,R10,1*%
%TO.N,Net-(R10-Pad1)*%
X132420000Y-100000000D03*
%TD*%
D14*
%TO.P,R9,2*%
%TO.N,Net-(R1-Pad2)*%
X130600591Y-110540000D03*
D11*
%TO.P,R9,1*%
%TO.N,Net-(R10-Pad1)*%
X135000000Y-108000000D03*
%TD*%
D15*
%TO.P,R8,2*%
%TO.N,Net-(R1-Pad2)*%
X138460000Y-119399409D03*
D11*
%TO.P,R8,1*%
%TO.N,Net-(R10-Pad1)*%
X141000000Y-115000000D03*
%TD*%
D13*
%TO.P,R7,2*%
%TO.N,Net-(R1-Pad2)*%
X150000000Y-122080000D03*
D11*
%TO.P,R7,1*%
%TO.N,Net-(R10-Pad1)*%
X150000000Y-117000000D03*
%TD*%
D16*
%TO.P,R6,2*%
%TO.N,Net-(R1-Pad2)*%
X160540000Y-119399409D03*
D11*
%TO.P,R6,1*%
%TO.N,Net-(R10-Pad1)*%
X158000000Y-115000000D03*
%TD*%
D17*
%TO.P,R5,2*%
%TO.N,Net-(R1-Pad2)*%
X169199705Y-111270000D03*
D11*
%TO.P,R5,1*%
%TO.N,Net-(R10-Pad1)*%
X164800296Y-108730000D03*
%TD*%
D13*
%TO.P,R4,2*%
%TO.N,Net-(R1-Pad2)*%
X172540000Y-100000000D03*
D11*
%TO.P,R4,1*%
%TO.N,Net-(R10-Pad1)*%
X167460000Y-100000000D03*
%TD*%
D18*
%TO.P,R3,2*%
%TO.N,Net-(R1-Pad2)*%
X169199705Y-88730000D03*
D11*
%TO.P,R3,1*%
%TO.N,Net-(R10-Pad1)*%
X164800296Y-91270000D03*
%TD*%
D19*
%TO.P,R2,2*%
%TO.N,Net-(R1-Pad2)*%
X161270000Y-80800296D03*
D11*
%TO.P,R2,1*%
%TO.N,Net-(R1-Pad1)*%
X158730000Y-85199705D03*
%TD*%
D13*
%TO.P,R1,2*%
%TO.N,Net-(R1-Pad2)*%
X150000000Y-77770000D03*
D11*
%TO.P,R1,1*%
%TO.N,Net-(R1-Pad1)*%
X150000000Y-82850000D03*
%TD*%
D20*
%TO.N,Net-(R11-Pad2)*%
X131682682Y-85317335D02*
G75*
G03*
X130600591Y-87929704I2612318J-2612365D01*
G01*
X137929704Y-80600579D02*
G75*
G03*
X135317326Y-81682673I-4J-3694421D01*
G01*
%TO.N,Net-(R10-Pad1)*%
X135912160Y-100912174D02*
G75*
G03*
X133710000Y-100000000I-2202160J-2202126D01*
G01*
X162752273Y-113999987D02*
G75*
G03*
X164200443Y-113400147I27J2047987D01*
G01*
X141999996Y-116000004D02*
G75*
G03*
X144414213Y-117000000I2414204J2414204D01*
G01*
X164800297Y-95459601D02*
G75*
G03*
X166130148Y-98670148I4540403J1D01*
G01*
X135353555Y-107646448D02*
G75*
G03*
X135000000Y-108500000I853545J-853552D01*
G01*
X159707106Y-114000003D02*
G75*
G03*
X158500000Y-114500000I-6J-1707097D01*
G01*
X150500002Y-117499998D02*
G75*
G03*
X149292893Y-117000000I-1207102J-1207102D01*
G01*
X136497956Y-95922047D02*
G75*
G03*
X137000000Y-94710000I-1212056J1212047D01*
G01*
X136999997Y-94710000D02*
G75*
G03*
X136497954Y-93497954I-1714097J0D01*
G01*
X150499998Y-117500002D02*
G75*
G03*
X151707106Y-118000000I1207102J1207102D01*
G01*
X153000000Y-118000007D02*
G75*
G03*
X156414213Y-116585786I0J4828407D01*
G01*
X136999994Y-103414213D02*
G75*
G03*
X136000000Y-101000000I-3414194J13D01*
G01*
X136000004Y-107000004D02*
G75*
G03*
X137000000Y-104585786I-2414204J2414204D01*
G01*
X166130148Y-107400148D02*
G75*
G03*
X167460000Y-104189601I-3210548J3210548D01*
G01*
X164200450Y-113400154D02*
G75*
G03*
X164800296Y-111951977I-1448150J1448154D01*
G01*
X134999999Y-108500000D02*
G75*
G03*
X135353554Y-109353552I1207101J0D01*
G01*
%TO.N,Net-(R1-Pad2)*%
X160805148Y-119399433D02*
G75*
G03*
X160352512Y-119586896I-48J-640067D01*
G01*
X142039991Y-122040009D02*
G75*
G03*
X141943431Y-122000000I-96591J-96591D01*
G01*
X172769991Y-99769991D02*
G75*
G03*
X173000000Y-99214730I-555291J555291D01*
G01*
X156021428Y-123917992D02*
G75*
G03*
X156000000Y-123969704I51672J-51708D01*
G01*
X150959987Y-123040013D02*
G75*
G03*
X153277645Y-124000000I2317613J2317613D01*
G01*
X130600607Y-112570295D02*
G75*
G03*
X132036226Y-116036226I4901593J-5D01*
G01*
X159754863Y-79285137D02*
G75*
G03*
X156096961Y-77770000I-3657863J-3657863D01*
G01*
X172770009Y-99770009D02*
G75*
G03*
X172540000Y-100325269I555291J-555291D01*
G01*
X160805148Y-119399446D02*
G75*
G03*
X161257783Y-119211921I-48J640146D01*
G01*
X155969704Y-124000000D02*
G75*
G03*
X156000000Y-123969704I-4J30300D01*
G01*
X140728454Y-121667873D02*
G75*
G03*
X141530295Y-122000000I801846J801873D01*
G01*
X126669993Y-100669993D02*
G75*
G03*
X126000000Y-102287523I1617507J-1617507D01*
G01*
X171634989Y-110364989D02*
G75*
G03*
X172540000Y-108180136I-2184889J2184889D01*
G01*
X172999996Y-95217509D02*
G75*
G03*
X171099852Y-90630147I-6487496J9D01*
G01*
X142040009Y-122039991D02*
G75*
G03*
X142136568Y-122080000I96591J96591D01*
G01*
X134317314Y-118317338D02*
G75*
G03*
X136929704Y-119399409I2612386J2612438D01*
G01*
X169964852Y-111269974D02*
G75*
G03*
X171271040Y-110728959I48J1847174D01*
G01*
X126000004Y-103639704D02*
G75*
G03*
X127626136Y-107565545I5551996J4D01*
G01*
%TO.N,Net-(R1-Pad1)*%
X150000004Y-84858787D02*
G75*
G03*
X150099852Y-85099852I340896J-13D01*
G01*
X150099846Y-85099858D02*
G75*
G03*
X150340917Y-85199705I241054J241058D01*
G01*
%TO.N,Net-(R10-Pad1)*%
X135000000Y-92000000D02*
X142000000Y-85000000D01*
%TO.N,Net-(R11-Pad2)*%
X130600591Y-87929704D02*
X130600591Y-89460000D01*
X131682673Y-85317326D02*
X135317326Y-81682673D01*
X137929704Y-80600591D02*
X139460000Y-80600591D01*
%TO.N,Net-(R10-Pad1)*%
X136497954Y-93497954D02*
X135000000Y-92000000D01*
X136497954Y-95922045D02*
X132420000Y-100000000D01*
X137000000Y-103414213D02*
X137000000Y-104585786D01*
X133710000Y-100000000D02*
X132420000Y-100000000D01*
X135912167Y-100912167D02*
X136000000Y-101000000D01*
X135353553Y-107646446D02*
X136000000Y-107000000D01*
%TO.N,Net-(R1-Pad2)*%
X126670000Y-100670000D02*
X127340000Y-100000000D01*
X127626136Y-107565545D02*
X130600591Y-110540000D01*
X126000000Y-102287523D02*
X126000000Y-103639704D01*
%TO.N,Net-(R10-Pad1)*%
X141000000Y-115000000D02*
X135353553Y-109353553D01*
%TO.N,Net-(R1-Pad2)*%
X130600591Y-112570295D02*
X130600591Y-110540000D01*
X132036226Y-116036226D02*
X134317326Y-118317326D01*
X136929704Y-119399409D02*
X138460000Y-119399409D01*
%TO.N,Net-(R10-Pad1)*%
X142000000Y-116000000D02*
X141000000Y-115000000D01*
X144414213Y-117000000D02*
X149292893Y-117000000D01*
%TO.N,Net-(R1-Pad2)*%
X141943431Y-122000000D02*
X141530295Y-122000000D01*
X150000000Y-122080000D02*
X142136568Y-122080000D01*
X140728459Y-121667868D02*
X138460000Y-119399409D01*
X150960000Y-123040000D02*
X150000000Y-122080000D01*
X153277645Y-124000000D02*
X155969704Y-124000000D01*
X160352512Y-119586896D02*
X156021422Y-123917986D01*
%TO.N,Net-(R10-Pad1)*%
X151707106Y-118000000D02*
X153000000Y-118000000D01*
X156414213Y-116585786D02*
X158000000Y-115000000D01*
%TO.N,Net-(R1-Pad2)*%
X169199705Y-111270000D02*
X161257783Y-119211921D01*
%TO.N,Net-(R10-Pad1)*%
X158500000Y-114500000D02*
X158000000Y-115000000D01*
X162752273Y-114000000D02*
X159707106Y-114000000D01*
X164800296Y-108730000D02*
X164800296Y-111951977D01*
X164800296Y-108730000D02*
X166130148Y-107400148D01*
X167460000Y-104189601D02*
X167460000Y-100000000D01*
%TO.N,Net-(R1-Pad2)*%
X169199705Y-111270000D02*
X169964852Y-111270000D01*
X171634999Y-110364999D02*
X171271040Y-110728959D01*
X172540000Y-100325269D02*
X172540000Y-108180136D01*
X169199705Y-88730000D02*
X171099852Y-90630147D01*
X173000000Y-99214730D02*
X173000000Y-95217509D01*
%TO.N,Net-(R10-Pad1)*%
X166130148Y-98670148D02*
X167460000Y-100000000D01*
X164800296Y-95459601D02*
X164800296Y-91270000D01*
%TO.N,Net-(R1-Pad2)*%
X169199705Y-88730000D02*
X161270000Y-80800296D01*
X159754852Y-79285148D02*
X161270000Y-80800296D01*
X156096961Y-77770000D02*
X150000000Y-77770000D01*
%TO.N,Net-(R1-Pad1)*%
X150000000Y-84858787D02*
X150000000Y-82850000D01*
X150340917Y-85199705D02*
X158730000Y-85199705D01*
%TD*%
M02*
