%TF.GenerationSoftware,KiCad,Pcbnew,7.0.6*%
%TF.CreationDate,2023-07-24T19:37:20+05:30*%
%TF.ProjectId,LM324,4c4d3332-342e-46b6-9963-61645f706362,rev?*%
%TF.SameCoordinates,Original*%
%TF.FileFunction,Legend,Top*%
%TF.FilePolarity,Positive*%
%FSLAX46Y46*%
G04 Gerber Fmt 4.6, Leading zero omitted, Abs format (unit mm)*
G04 Created by KiCad (PCBNEW 7.0.6) date 2023-07-24 19:37:20*
%MOMM*%
%LPD*%
G01*
G04 APERTURE LIST*
%ADD10C,0.150000*%
%ADD11C,0.120000*%
G04 APERTURE END LIST*
D10*
X156724819Y-85851904D02*
X157534342Y-85851904D01*
X157534342Y-85851904D02*
X157629580Y-85804285D01*
X157629580Y-85804285D02*
X157677200Y-85756666D01*
X157677200Y-85756666D02*
X157724819Y-85661428D01*
X157724819Y-85661428D02*
X157724819Y-85470952D01*
X157724819Y-85470952D02*
X157677200Y-85375714D01*
X157677200Y-85375714D02*
X157629580Y-85328095D01*
X157629580Y-85328095D02*
X157534342Y-85280476D01*
X157534342Y-85280476D02*
X156724819Y-85280476D01*
X157724819Y-84280476D02*
X157724819Y-84851904D01*
X157724819Y-84566190D02*
X156724819Y-84566190D01*
X156724819Y-84566190D02*
X156867676Y-84661428D01*
X156867676Y-84661428D02*
X156962914Y-84756666D01*
X156962914Y-84756666D02*
X157010533Y-84851904D01*
X125084819Y-114466666D02*
X124608628Y-114799999D01*
X125084819Y-115038094D02*
X124084819Y-115038094D01*
X124084819Y-115038094D02*
X124084819Y-114657142D01*
X124084819Y-114657142D02*
X124132438Y-114561904D01*
X124132438Y-114561904D02*
X124180057Y-114514285D01*
X124180057Y-114514285D02*
X124275295Y-114466666D01*
X124275295Y-114466666D02*
X124418152Y-114466666D01*
X124418152Y-114466666D02*
X124513390Y-114514285D01*
X124513390Y-114514285D02*
X124561009Y-114561904D01*
X124561009Y-114561904D02*
X124608628Y-114657142D01*
X124608628Y-114657142D02*
X124608628Y-115038094D01*
X125084819Y-113990475D02*
X125084819Y-113799999D01*
X125084819Y-113799999D02*
X125037200Y-113704761D01*
X125037200Y-113704761D02*
X124989580Y-113657142D01*
X124989580Y-113657142D02*
X124846723Y-113561904D01*
X124846723Y-113561904D02*
X124656247Y-113514285D01*
X124656247Y-113514285D02*
X124275295Y-113514285D01*
X124275295Y-113514285D02*
X124180057Y-113561904D01*
X124180057Y-113561904D02*
X124132438Y-113609523D01*
X124132438Y-113609523D02*
X124084819Y-113704761D01*
X124084819Y-113704761D02*
X124084819Y-113895237D01*
X124084819Y-113895237D02*
X124132438Y-113990475D01*
X124132438Y-113990475D02*
X124180057Y-114038094D01*
X124180057Y-114038094D02*
X124275295Y-114085713D01*
X124275295Y-114085713D02*
X124513390Y-114085713D01*
X124513390Y-114085713D02*
X124608628Y-114038094D01*
X124608628Y-114038094D02*
X124656247Y-113990475D01*
X124656247Y-113990475D02*
X124703866Y-113895237D01*
X124703866Y-113895237D02*
X124703866Y-113704761D01*
X124703866Y-113704761D02*
X124656247Y-113609523D01*
X124656247Y-113609523D02*
X124608628Y-113561904D01*
X124608628Y-113561904D02*
X124513390Y-113514285D01*
X125084819Y-89066666D02*
X124608628Y-89399999D01*
X125084819Y-89638094D02*
X124084819Y-89638094D01*
X124084819Y-89638094D02*
X124084819Y-89257142D01*
X124084819Y-89257142D02*
X124132438Y-89161904D01*
X124132438Y-89161904D02*
X124180057Y-89114285D01*
X124180057Y-89114285D02*
X124275295Y-89066666D01*
X124275295Y-89066666D02*
X124418152Y-89066666D01*
X124418152Y-89066666D02*
X124513390Y-89114285D01*
X124513390Y-89114285D02*
X124561009Y-89161904D01*
X124561009Y-89161904D02*
X124608628Y-89257142D01*
X124608628Y-89257142D02*
X124608628Y-89638094D01*
X124513390Y-88495237D02*
X124465771Y-88590475D01*
X124465771Y-88590475D02*
X124418152Y-88638094D01*
X124418152Y-88638094D02*
X124322914Y-88685713D01*
X124322914Y-88685713D02*
X124275295Y-88685713D01*
X124275295Y-88685713D02*
X124180057Y-88638094D01*
X124180057Y-88638094D02*
X124132438Y-88590475D01*
X124132438Y-88590475D02*
X124084819Y-88495237D01*
X124084819Y-88495237D02*
X124084819Y-88304761D01*
X124084819Y-88304761D02*
X124132438Y-88209523D01*
X124132438Y-88209523D02*
X124180057Y-88161904D01*
X124180057Y-88161904D02*
X124275295Y-88114285D01*
X124275295Y-88114285D02*
X124322914Y-88114285D01*
X124322914Y-88114285D02*
X124418152Y-88161904D01*
X124418152Y-88161904D02*
X124465771Y-88209523D01*
X124465771Y-88209523D02*
X124513390Y-88304761D01*
X124513390Y-88304761D02*
X124513390Y-88495237D01*
X124513390Y-88495237D02*
X124561009Y-88590475D01*
X124561009Y-88590475D02*
X124608628Y-88638094D01*
X124608628Y-88638094D02*
X124703866Y-88685713D01*
X124703866Y-88685713D02*
X124894342Y-88685713D01*
X124894342Y-88685713D02*
X124989580Y-88638094D01*
X124989580Y-88638094D02*
X125037200Y-88590475D01*
X125037200Y-88590475D02*
X125084819Y-88495237D01*
X125084819Y-88495237D02*
X125084819Y-88304761D01*
X125084819Y-88304761D02*
X125037200Y-88209523D01*
X125037200Y-88209523D02*
X124989580Y-88161904D01*
X124989580Y-88161904D02*
X124894342Y-88114285D01*
X124894342Y-88114285D02*
X124703866Y-88114285D01*
X124703866Y-88114285D02*
X124608628Y-88161904D01*
X124608628Y-88161904D02*
X124561009Y-88209523D01*
X124561009Y-88209523D02*
X124513390Y-88304761D01*
X157313333Y-109844819D02*
X156980000Y-109368628D01*
X156741905Y-109844819D02*
X156741905Y-108844819D01*
X156741905Y-108844819D02*
X157122857Y-108844819D01*
X157122857Y-108844819D02*
X157218095Y-108892438D01*
X157218095Y-108892438D02*
X157265714Y-108940057D01*
X157265714Y-108940057D02*
X157313333Y-109035295D01*
X157313333Y-109035295D02*
X157313333Y-109178152D01*
X157313333Y-109178152D02*
X157265714Y-109273390D01*
X157265714Y-109273390D02*
X157218095Y-109321009D01*
X157218095Y-109321009D02*
X157122857Y-109368628D01*
X157122857Y-109368628D02*
X156741905Y-109368628D01*
X157646667Y-108844819D02*
X158313333Y-108844819D01*
X158313333Y-108844819D02*
X157884762Y-109844819D01*
X175884819Y-40806666D02*
X175408628Y-41139999D01*
X175884819Y-41378094D02*
X174884819Y-41378094D01*
X174884819Y-41378094D02*
X174884819Y-40997142D01*
X174884819Y-40997142D02*
X174932438Y-40901904D01*
X174932438Y-40901904D02*
X174980057Y-40854285D01*
X174980057Y-40854285D02*
X175075295Y-40806666D01*
X175075295Y-40806666D02*
X175218152Y-40806666D01*
X175218152Y-40806666D02*
X175313390Y-40854285D01*
X175313390Y-40854285D02*
X175361009Y-40901904D01*
X175361009Y-40901904D02*
X175408628Y-40997142D01*
X175408628Y-40997142D02*
X175408628Y-41378094D01*
X174884819Y-39949523D02*
X174884819Y-40139999D01*
X174884819Y-40139999D02*
X174932438Y-40235237D01*
X174932438Y-40235237D02*
X174980057Y-40282856D01*
X174980057Y-40282856D02*
X175122914Y-40378094D01*
X175122914Y-40378094D02*
X175313390Y-40425713D01*
X175313390Y-40425713D02*
X175694342Y-40425713D01*
X175694342Y-40425713D02*
X175789580Y-40378094D01*
X175789580Y-40378094D02*
X175837200Y-40330475D01*
X175837200Y-40330475D02*
X175884819Y-40235237D01*
X175884819Y-40235237D02*
X175884819Y-40044761D01*
X175884819Y-40044761D02*
X175837200Y-39949523D01*
X175837200Y-39949523D02*
X175789580Y-39901904D01*
X175789580Y-39901904D02*
X175694342Y-39854285D01*
X175694342Y-39854285D02*
X175456247Y-39854285D01*
X175456247Y-39854285D02*
X175361009Y-39901904D01*
X175361009Y-39901904D02*
X175313390Y-39949523D01*
X175313390Y-39949523D02*
X175265771Y-40044761D01*
X175265771Y-40044761D02*
X175265771Y-40235237D01*
X175265771Y-40235237D02*
X175313390Y-40330475D01*
X175313390Y-40330475D02*
X175361009Y-40378094D01*
X175361009Y-40378094D02*
X175456247Y-40425713D01*
X159853333Y-64124819D02*
X159520000Y-63648628D01*
X159281905Y-64124819D02*
X159281905Y-63124819D01*
X159281905Y-63124819D02*
X159662857Y-63124819D01*
X159662857Y-63124819D02*
X159758095Y-63172438D01*
X159758095Y-63172438D02*
X159805714Y-63220057D01*
X159805714Y-63220057D02*
X159853333Y-63315295D01*
X159853333Y-63315295D02*
X159853333Y-63458152D01*
X159853333Y-63458152D02*
X159805714Y-63553390D01*
X159805714Y-63553390D02*
X159758095Y-63601009D01*
X159758095Y-63601009D02*
X159662857Y-63648628D01*
X159662857Y-63648628D02*
X159281905Y-63648628D01*
X160758095Y-63124819D02*
X160281905Y-63124819D01*
X160281905Y-63124819D02*
X160234286Y-63601009D01*
X160234286Y-63601009D02*
X160281905Y-63553390D01*
X160281905Y-63553390D02*
X160377143Y-63505771D01*
X160377143Y-63505771D02*
X160615238Y-63505771D01*
X160615238Y-63505771D02*
X160710476Y-63553390D01*
X160710476Y-63553390D02*
X160758095Y-63601009D01*
X160758095Y-63601009D02*
X160805714Y-63696247D01*
X160805714Y-63696247D02*
X160805714Y-63934342D01*
X160805714Y-63934342D02*
X160758095Y-64029580D01*
X160758095Y-64029580D02*
X160710476Y-64077200D01*
X160710476Y-64077200D02*
X160615238Y-64124819D01*
X160615238Y-64124819D02*
X160377143Y-64124819D01*
X160377143Y-64124819D02*
X160281905Y-64077200D01*
X160281905Y-64077200D02*
X160234286Y-64029580D01*
X142073333Y-35844819D02*
X141740000Y-35368628D01*
X141501905Y-35844819D02*
X141501905Y-34844819D01*
X141501905Y-34844819D02*
X141882857Y-34844819D01*
X141882857Y-34844819D02*
X141978095Y-34892438D01*
X141978095Y-34892438D02*
X142025714Y-34940057D01*
X142025714Y-34940057D02*
X142073333Y-35035295D01*
X142073333Y-35035295D02*
X142073333Y-35178152D01*
X142073333Y-35178152D02*
X142025714Y-35273390D01*
X142025714Y-35273390D02*
X141978095Y-35321009D01*
X141978095Y-35321009D02*
X141882857Y-35368628D01*
X141882857Y-35368628D02*
X141501905Y-35368628D01*
X142406667Y-34844819D02*
X143025714Y-34844819D01*
X143025714Y-34844819D02*
X142692381Y-35225771D01*
X142692381Y-35225771D02*
X142835238Y-35225771D01*
X142835238Y-35225771D02*
X142930476Y-35273390D01*
X142930476Y-35273390D02*
X142978095Y-35321009D01*
X142978095Y-35321009D02*
X143025714Y-35416247D01*
X143025714Y-35416247D02*
X143025714Y-35654342D01*
X143025714Y-35654342D02*
X142978095Y-35749580D01*
X142978095Y-35749580D02*
X142930476Y-35797200D01*
X142930476Y-35797200D02*
X142835238Y-35844819D01*
X142835238Y-35844819D02*
X142549524Y-35844819D01*
X142549524Y-35844819D02*
X142454286Y-35797200D01*
X142454286Y-35797200D02*
X142406667Y-35749580D01*
X111593333Y-120004819D02*
X111260000Y-119528628D01*
X111021905Y-120004819D02*
X111021905Y-119004819D01*
X111021905Y-119004819D02*
X111402857Y-119004819D01*
X111402857Y-119004819D02*
X111498095Y-119052438D01*
X111498095Y-119052438D02*
X111545714Y-119100057D01*
X111545714Y-119100057D02*
X111593333Y-119195295D01*
X111593333Y-119195295D02*
X111593333Y-119338152D01*
X111593333Y-119338152D02*
X111545714Y-119433390D01*
X111545714Y-119433390D02*
X111498095Y-119481009D01*
X111498095Y-119481009D02*
X111402857Y-119528628D01*
X111402857Y-119528628D02*
X111021905Y-119528628D01*
X111974286Y-119100057D02*
X112021905Y-119052438D01*
X112021905Y-119052438D02*
X112117143Y-119004819D01*
X112117143Y-119004819D02*
X112355238Y-119004819D01*
X112355238Y-119004819D02*
X112450476Y-119052438D01*
X112450476Y-119052438D02*
X112498095Y-119100057D01*
X112498095Y-119100057D02*
X112545714Y-119195295D01*
X112545714Y-119195295D02*
X112545714Y-119290533D01*
X112545714Y-119290533D02*
X112498095Y-119433390D01*
X112498095Y-119433390D02*
X111926667Y-120004819D01*
X111926667Y-120004819D02*
X112545714Y-120004819D01*
X156384761Y-38724819D02*
X156051428Y-38248628D01*
X155813333Y-38724819D02*
X155813333Y-37724819D01*
X155813333Y-37724819D02*
X156194285Y-37724819D01*
X156194285Y-37724819D02*
X156289523Y-37772438D01*
X156289523Y-37772438D02*
X156337142Y-37820057D01*
X156337142Y-37820057D02*
X156384761Y-37915295D01*
X156384761Y-37915295D02*
X156384761Y-38058152D01*
X156384761Y-38058152D02*
X156337142Y-38153390D01*
X156337142Y-38153390D02*
X156289523Y-38201009D01*
X156289523Y-38201009D02*
X156194285Y-38248628D01*
X156194285Y-38248628D02*
X155813333Y-38248628D01*
X157337142Y-38724819D02*
X156765714Y-38724819D01*
X157051428Y-38724819D02*
X157051428Y-37724819D01*
X157051428Y-37724819D02*
X156956190Y-37867676D01*
X156956190Y-37867676D02*
X156860952Y-37962914D01*
X156860952Y-37962914D02*
X156765714Y-38010533D01*
X158194285Y-38724819D02*
X158194285Y-38201009D01*
X158194285Y-38201009D02*
X158146666Y-38105771D01*
X158146666Y-38105771D02*
X158051428Y-38058152D01*
X158051428Y-38058152D02*
X157860952Y-38058152D01*
X157860952Y-38058152D02*
X157765714Y-38105771D01*
X158194285Y-38677200D02*
X158099047Y-38724819D01*
X158099047Y-38724819D02*
X157860952Y-38724819D01*
X157860952Y-38724819D02*
X157765714Y-38677200D01*
X157765714Y-38677200D02*
X157718095Y-38581961D01*
X157718095Y-38581961D02*
X157718095Y-38486723D01*
X157718095Y-38486723D02*
X157765714Y-38391485D01*
X157765714Y-38391485D02*
X157860952Y-38343866D01*
X157860952Y-38343866D02*
X158099047Y-38343866D01*
X158099047Y-38343866D02*
X158194285Y-38296247D01*
X159194285Y-38724819D02*
X158622857Y-38724819D01*
X158908571Y-38724819D02*
X158908571Y-37724819D01*
X158908571Y-37724819D02*
X158813333Y-37867676D01*
X158813333Y-37867676D02*
X158718095Y-37962914D01*
X158718095Y-37962914D02*
X158622857Y-38010533D01*
X129373333Y-51424819D02*
X129040000Y-50948628D01*
X128801905Y-51424819D02*
X128801905Y-50424819D01*
X128801905Y-50424819D02*
X129182857Y-50424819D01*
X129182857Y-50424819D02*
X129278095Y-50472438D01*
X129278095Y-50472438D02*
X129325714Y-50520057D01*
X129325714Y-50520057D02*
X129373333Y-50615295D01*
X129373333Y-50615295D02*
X129373333Y-50758152D01*
X129373333Y-50758152D02*
X129325714Y-50853390D01*
X129325714Y-50853390D02*
X129278095Y-50901009D01*
X129278095Y-50901009D02*
X129182857Y-50948628D01*
X129182857Y-50948628D02*
X128801905Y-50948628D01*
X130325714Y-51424819D02*
X129754286Y-51424819D01*
X130040000Y-51424819D02*
X130040000Y-50424819D01*
X130040000Y-50424819D02*
X129944762Y-50567676D01*
X129944762Y-50567676D02*
X129849524Y-50662914D01*
X129849524Y-50662914D02*
X129754286Y-50710533D01*
X111426666Y-80504819D02*
X111426666Y-81219104D01*
X111426666Y-81219104D02*
X111379047Y-81361961D01*
X111379047Y-81361961D02*
X111283809Y-81457200D01*
X111283809Y-81457200D02*
X111140952Y-81504819D01*
X111140952Y-81504819D02*
X111045714Y-81504819D01*
X111807619Y-80504819D02*
X112426666Y-80504819D01*
X112426666Y-80504819D02*
X112093333Y-80885771D01*
X112093333Y-80885771D02*
X112236190Y-80885771D01*
X112236190Y-80885771D02*
X112331428Y-80933390D01*
X112331428Y-80933390D02*
X112379047Y-80981009D01*
X112379047Y-80981009D02*
X112426666Y-81076247D01*
X112426666Y-81076247D02*
X112426666Y-81314342D01*
X112426666Y-81314342D02*
X112379047Y-81409580D01*
X112379047Y-81409580D02*
X112331428Y-81457200D01*
X112331428Y-81457200D02*
X112236190Y-81504819D01*
X112236190Y-81504819D02*
X111950476Y-81504819D01*
X111950476Y-81504819D02*
X111855238Y-81457200D01*
X111855238Y-81457200D02*
X111807619Y-81409580D01*
X78406666Y-91124819D02*
X78406666Y-91839104D01*
X78406666Y-91839104D02*
X78359047Y-91981961D01*
X78359047Y-91981961D02*
X78263809Y-92077200D01*
X78263809Y-92077200D02*
X78120952Y-92124819D01*
X78120952Y-92124819D02*
X78025714Y-92124819D01*
X78835238Y-91220057D02*
X78882857Y-91172438D01*
X78882857Y-91172438D02*
X78978095Y-91124819D01*
X78978095Y-91124819D02*
X79216190Y-91124819D01*
X79216190Y-91124819D02*
X79311428Y-91172438D01*
X79311428Y-91172438D02*
X79359047Y-91220057D01*
X79359047Y-91220057D02*
X79406666Y-91315295D01*
X79406666Y-91315295D02*
X79406666Y-91410533D01*
X79406666Y-91410533D02*
X79359047Y-91553390D01*
X79359047Y-91553390D02*
X78787619Y-92124819D01*
X78787619Y-92124819D02*
X79406666Y-92124819D01*
X185084819Y-53673333D02*
X185799104Y-53673333D01*
X185799104Y-53673333D02*
X185941961Y-53720952D01*
X185941961Y-53720952D02*
X186037200Y-53816190D01*
X186037200Y-53816190D02*
X186084819Y-53959047D01*
X186084819Y-53959047D02*
X186084819Y-54054285D01*
X186084819Y-52673333D02*
X186084819Y-53244761D01*
X186084819Y-52959047D02*
X185084819Y-52959047D01*
X185084819Y-52959047D02*
X185227676Y-53054285D01*
X185227676Y-53054285D02*
X185322914Y-53149523D01*
X185322914Y-53149523D02*
X185370533Y-53244761D01*
X199898095Y-120914819D02*
X199898095Y-119914819D01*
X199898095Y-120391009D02*
X200469523Y-120391009D01*
X200469523Y-120914819D02*
X200469523Y-119914819D01*
X201374285Y-120248152D02*
X201374285Y-120914819D01*
X201136190Y-119867200D02*
X200898095Y-120581485D01*
X200898095Y-120581485D02*
X201517142Y-120581485D01*
X72898095Y-29474819D02*
X72898095Y-28474819D01*
X72898095Y-28951009D02*
X73469523Y-28951009D01*
X73469523Y-29474819D02*
X73469523Y-28474819D01*
X73850476Y-28474819D02*
X74469523Y-28474819D01*
X74469523Y-28474819D02*
X74136190Y-28855771D01*
X74136190Y-28855771D02*
X74279047Y-28855771D01*
X74279047Y-28855771D02*
X74374285Y-28903390D01*
X74374285Y-28903390D02*
X74421904Y-28951009D01*
X74421904Y-28951009D02*
X74469523Y-29046247D01*
X74469523Y-29046247D02*
X74469523Y-29284342D01*
X74469523Y-29284342D02*
X74421904Y-29379580D01*
X74421904Y-29379580D02*
X74374285Y-29427200D01*
X74374285Y-29427200D02*
X74279047Y-29474819D01*
X74279047Y-29474819D02*
X73993333Y-29474819D01*
X73993333Y-29474819D02*
X73898095Y-29427200D01*
X73898095Y-29427200D02*
X73850476Y-29379580D01*
X72898095Y-120914819D02*
X72898095Y-119914819D01*
X72898095Y-120391009D02*
X73469523Y-120391009D01*
X73469523Y-120914819D02*
X73469523Y-119914819D01*
X73898095Y-120010057D02*
X73945714Y-119962438D01*
X73945714Y-119962438D02*
X74040952Y-119914819D01*
X74040952Y-119914819D02*
X74279047Y-119914819D01*
X74279047Y-119914819D02*
X74374285Y-119962438D01*
X74374285Y-119962438D02*
X74421904Y-120010057D01*
X74421904Y-120010057D02*
X74469523Y-120105295D01*
X74469523Y-120105295D02*
X74469523Y-120200533D01*
X74469523Y-120200533D02*
X74421904Y-120343390D01*
X74421904Y-120343390D02*
X73850476Y-120914819D01*
X73850476Y-120914819D02*
X74469523Y-120914819D01*
X199898095Y-29974819D02*
X199898095Y-28974819D01*
X199898095Y-29451009D02*
X200469523Y-29451009D01*
X200469523Y-29974819D02*
X200469523Y-28974819D01*
X201469523Y-29974819D02*
X200898095Y-29974819D01*
X201183809Y-29974819D02*
X201183809Y-28974819D01*
X201183809Y-28974819D02*
X201088571Y-29117676D01*
X201088571Y-29117676D02*
X200993333Y-29212914D01*
X200993333Y-29212914D02*
X200898095Y-29260533D01*
X177633333Y-83139580D02*
X177585714Y-83187200D01*
X177585714Y-83187200D02*
X177442857Y-83234819D01*
X177442857Y-83234819D02*
X177347619Y-83234819D01*
X177347619Y-83234819D02*
X177204762Y-83187200D01*
X177204762Y-83187200D02*
X177109524Y-83091961D01*
X177109524Y-83091961D02*
X177061905Y-82996723D01*
X177061905Y-82996723D02*
X177014286Y-82806247D01*
X177014286Y-82806247D02*
X177014286Y-82663390D01*
X177014286Y-82663390D02*
X177061905Y-82472914D01*
X177061905Y-82472914D02*
X177109524Y-82377676D01*
X177109524Y-82377676D02*
X177204762Y-82282438D01*
X177204762Y-82282438D02*
X177347619Y-82234819D01*
X177347619Y-82234819D02*
X177442857Y-82234819D01*
X177442857Y-82234819D02*
X177585714Y-82282438D01*
X177585714Y-82282438D02*
X177633333Y-82330057D01*
X178490476Y-82568152D02*
X178490476Y-83234819D01*
X178252381Y-82187200D02*
X178014286Y-82901485D01*
X178014286Y-82901485D02*
X178633333Y-82901485D01*
X131913333Y-60279580D02*
X131865714Y-60327200D01*
X131865714Y-60327200D02*
X131722857Y-60374819D01*
X131722857Y-60374819D02*
X131627619Y-60374819D01*
X131627619Y-60374819D02*
X131484762Y-60327200D01*
X131484762Y-60327200D02*
X131389524Y-60231961D01*
X131389524Y-60231961D02*
X131341905Y-60136723D01*
X131341905Y-60136723D02*
X131294286Y-59946247D01*
X131294286Y-59946247D02*
X131294286Y-59803390D01*
X131294286Y-59803390D02*
X131341905Y-59612914D01*
X131341905Y-59612914D02*
X131389524Y-59517676D01*
X131389524Y-59517676D02*
X131484762Y-59422438D01*
X131484762Y-59422438D02*
X131627619Y-59374819D01*
X131627619Y-59374819D02*
X131722857Y-59374819D01*
X131722857Y-59374819D02*
X131865714Y-59422438D01*
X131865714Y-59422438D02*
X131913333Y-59470057D01*
X132246667Y-59374819D02*
X132865714Y-59374819D01*
X132865714Y-59374819D02*
X132532381Y-59755771D01*
X132532381Y-59755771D02*
X132675238Y-59755771D01*
X132675238Y-59755771D02*
X132770476Y-59803390D01*
X132770476Y-59803390D02*
X132818095Y-59851009D01*
X132818095Y-59851009D02*
X132865714Y-59946247D01*
X132865714Y-59946247D02*
X132865714Y-60184342D01*
X132865714Y-60184342D02*
X132818095Y-60279580D01*
X132818095Y-60279580D02*
X132770476Y-60327200D01*
X132770476Y-60327200D02*
X132675238Y-60374819D01*
X132675238Y-60374819D02*
X132389524Y-60374819D01*
X132389524Y-60374819D02*
X132294286Y-60327200D01*
X132294286Y-60327200D02*
X132246667Y-60279580D01*
X157513333Y-47579580D02*
X157465714Y-47627200D01*
X157465714Y-47627200D02*
X157322857Y-47674819D01*
X157322857Y-47674819D02*
X157227619Y-47674819D01*
X157227619Y-47674819D02*
X157084762Y-47627200D01*
X157084762Y-47627200D02*
X156989524Y-47531961D01*
X156989524Y-47531961D02*
X156941905Y-47436723D01*
X156941905Y-47436723D02*
X156894286Y-47246247D01*
X156894286Y-47246247D02*
X156894286Y-47103390D01*
X156894286Y-47103390D02*
X156941905Y-46912914D01*
X156941905Y-46912914D02*
X156989524Y-46817676D01*
X156989524Y-46817676D02*
X157084762Y-46722438D01*
X157084762Y-46722438D02*
X157227619Y-46674819D01*
X157227619Y-46674819D02*
X157322857Y-46674819D01*
X157322857Y-46674819D02*
X157465714Y-46722438D01*
X157465714Y-46722438D02*
X157513333Y-46770057D01*
X157894286Y-46770057D02*
X157941905Y-46722438D01*
X157941905Y-46722438D02*
X158037143Y-46674819D01*
X158037143Y-46674819D02*
X158275238Y-46674819D01*
X158275238Y-46674819D02*
X158370476Y-46722438D01*
X158370476Y-46722438D02*
X158418095Y-46770057D01*
X158418095Y-46770057D02*
X158465714Y-46865295D01*
X158465714Y-46865295D02*
X158465714Y-46960533D01*
X158465714Y-46960533D02*
X158418095Y-47103390D01*
X158418095Y-47103390D02*
X157846667Y-47674819D01*
X157846667Y-47674819D02*
X158465714Y-47674819D01*
X91273333Y-47579580D02*
X91225714Y-47627200D01*
X91225714Y-47627200D02*
X91082857Y-47674819D01*
X91082857Y-47674819D02*
X90987619Y-47674819D01*
X90987619Y-47674819D02*
X90844762Y-47627200D01*
X90844762Y-47627200D02*
X90749524Y-47531961D01*
X90749524Y-47531961D02*
X90701905Y-47436723D01*
X90701905Y-47436723D02*
X90654286Y-47246247D01*
X90654286Y-47246247D02*
X90654286Y-47103390D01*
X90654286Y-47103390D02*
X90701905Y-46912914D01*
X90701905Y-46912914D02*
X90749524Y-46817676D01*
X90749524Y-46817676D02*
X90844762Y-46722438D01*
X90844762Y-46722438D02*
X90987619Y-46674819D01*
X90987619Y-46674819D02*
X91082857Y-46674819D01*
X91082857Y-46674819D02*
X91225714Y-46722438D01*
X91225714Y-46722438D02*
X91273333Y-46770057D01*
X92225714Y-47674819D02*
X91654286Y-47674819D01*
X91940000Y-47674819D02*
X91940000Y-46674819D01*
X91940000Y-46674819D02*
X91844762Y-46817676D01*
X91844762Y-46817676D02*
X91749524Y-46912914D01*
X91749524Y-46912914D02*
X91654286Y-46960533D01*
D11*
%TO.C,U1*%
X156270000Y-82440000D02*
X138370000Y-82440000D01*
X156270000Y-87740000D02*
X156270000Y-86090000D01*
X138370000Y-82440000D02*
X138370000Y-87740000D01*
X138370000Y-87740000D02*
X156270000Y-87740000D01*
X156270000Y-84090000D02*
X156270000Y-82440000D01*
X156270000Y-84090000D02*
G75*
G03*
X156270000Y-86090000I0J-1000000D01*
G01*
%TO.C,R9*%
X128370000Y-111030000D02*
X125630000Y-111030000D01*
X127000000Y-107720000D02*
X127000000Y-111030000D01*
X125630000Y-111030000D02*
X125630000Y-117570000D01*
X128370000Y-117570000D02*
X128370000Y-111030000D01*
X125630000Y-117570000D02*
X128370000Y-117570000D01*
X127000000Y-120880000D02*
X127000000Y-117570000D01*
%TO.C,R8*%
X128370000Y-85630000D02*
X125630000Y-85630000D01*
X127000000Y-82320000D02*
X127000000Y-85630000D01*
X125630000Y-85630000D02*
X125630000Y-92170000D01*
X128370000Y-92170000D02*
X128370000Y-85630000D01*
X125630000Y-92170000D02*
X128370000Y-92170000D01*
X127000000Y-95480000D02*
X127000000Y-92170000D01*
%TO.C,R7*%
X160750000Y-113130000D02*
X160750000Y-110390000D01*
X164060000Y-111760000D02*
X160750000Y-111760000D01*
X160750000Y-110390000D02*
X154210000Y-110390000D01*
X154210000Y-113130000D02*
X160750000Y-113130000D01*
X154210000Y-110390000D02*
X154210000Y-113130000D01*
X150900000Y-111760000D02*
X154210000Y-111760000D01*
%TO.C,R6*%
X179170000Y-37370000D02*
X176430000Y-37370000D01*
X177800000Y-34060000D02*
X177800000Y-37370000D01*
X176430000Y-37370000D02*
X176430000Y-43910000D01*
X179170000Y-43910000D02*
X179170000Y-37370000D01*
X176430000Y-43910000D02*
X179170000Y-43910000D01*
X177800000Y-47220000D02*
X177800000Y-43910000D01*
%TO.C,R5*%
X163290000Y-67410000D02*
X163290000Y-64670000D01*
X166600000Y-66040000D02*
X163290000Y-66040000D01*
X163290000Y-64670000D02*
X156750000Y-64670000D01*
X156750000Y-67410000D02*
X163290000Y-67410000D01*
X156750000Y-64670000D02*
X156750000Y-67410000D01*
X153440000Y-66040000D02*
X156750000Y-66040000D01*
%TO.C,R3*%
X138970000Y-31650000D02*
X138970000Y-34390000D01*
X135660000Y-33020000D02*
X138970000Y-33020000D01*
X138970000Y-34390000D02*
X145510000Y-34390000D01*
X145510000Y-31650000D02*
X138970000Y-31650000D01*
X145510000Y-34390000D02*
X145510000Y-31650000D01*
X148820000Y-33020000D02*
X145510000Y-33020000D01*
%TO.C,R2*%
X115030000Y-123290000D02*
X115030000Y-120550000D01*
X118340000Y-121920000D02*
X115030000Y-121920000D01*
X115030000Y-120550000D02*
X108490000Y-120550000D01*
X108490000Y-123290000D02*
X115030000Y-123290000D01*
X108490000Y-120550000D02*
X108490000Y-123290000D01*
X105180000Y-121920000D02*
X108490000Y-121920000D01*
%TO.C,R1a1*%
X160750000Y-42010000D02*
X160750000Y-39270000D01*
X164060000Y-40640000D02*
X160750000Y-40640000D01*
X160750000Y-39270000D02*
X154210000Y-39270000D01*
X154210000Y-42010000D02*
X160750000Y-42010000D01*
X154210000Y-39270000D02*
X154210000Y-42010000D01*
X150900000Y-40640000D02*
X154210000Y-40640000D01*
%TO.C,R1*%
X132810000Y-54710000D02*
X132810000Y-51970000D01*
X136120000Y-53340000D02*
X132810000Y-53340000D01*
X132810000Y-51970000D02*
X126270000Y-51970000D01*
X126270000Y-54710000D02*
X132810000Y-54710000D01*
X126270000Y-51970000D02*
X126270000Y-54710000D01*
X122960000Y-53340000D02*
X126270000Y-53340000D01*
%TO.C,J3*%
X110430000Y-85090000D02*
X110430000Y-87690000D01*
X113090000Y-85090000D02*
X113090000Y-87690000D01*
X110430000Y-85090000D02*
X113090000Y-85090000D01*
X111760000Y-82490000D02*
X113090000Y-82490000D01*
X113090000Y-82490000D02*
X113090000Y-83820000D01*
X110430000Y-87690000D02*
X113090000Y-87690000D01*
%TO.C,J2*%
X80070000Y-87630000D02*
X80070000Y-85030000D01*
X77410000Y-87630000D02*
X77410000Y-85030000D01*
X80070000Y-87630000D02*
X77410000Y-87630000D01*
X78740000Y-90230000D02*
X77410000Y-90230000D01*
X77410000Y-90230000D02*
X77410000Y-88900000D01*
X80070000Y-85030000D02*
X77410000Y-85030000D01*
%TO.C,J1*%
X194370000Y-54670000D02*
X194370000Y-52010000D01*
X189230000Y-54670000D02*
X194370000Y-54670000D01*
X187960000Y-54670000D02*
X186630000Y-54670000D01*
X189230000Y-52010000D02*
X194370000Y-52010000D01*
X186630000Y-54670000D02*
X186630000Y-53340000D01*
X189230000Y-54670000D02*
X189230000Y-52010000D01*
%TO.C,C4*%
X171380000Y-93120000D02*
X172280000Y-94020000D01*
X171380000Y-84680000D02*
X172280000Y-83780000D01*
X188860000Y-88900000D02*
X186920000Y-88900000D01*
X166740000Y-88900000D02*
X168680000Y-88900000D01*
X186920000Y-83780000D02*
X186920000Y-94020000D01*
X168680000Y-94020000D02*
X170480000Y-94020000D01*
X170480000Y-94020000D02*
X171380000Y-93120000D01*
X172280000Y-94020000D02*
X186920000Y-94020000D01*
X168680000Y-83780000D02*
X170480000Y-83780000D01*
X166580000Y-86300000D02*
X168380000Y-86300000D01*
X168680000Y-83780000D02*
X168680000Y-94020000D01*
X172280000Y-83780000D02*
X186920000Y-83780000D01*
X170480000Y-83780000D02*
X171380000Y-84680000D01*
X167480000Y-85400000D02*
X167480000Y-87200000D01*
%TO.C,C3*%
X125660000Y-70260000D02*
X126560000Y-71160000D01*
X125660000Y-61820000D02*
X126560000Y-60920000D01*
X143140000Y-66040000D02*
X141200000Y-66040000D01*
X121020000Y-66040000D02*
X122960000Y-66040000D01*
X141200000Y-60920000D02*
X141200000Y-71160000D01*
X122960000Y-71160000D02*
X124760000Y-71160000D01*
X124760000Y-71160000D02*
X125660000Y-70260000D01*
X126560000Y-71160000D02*
X141200000Y-71160000D01*
X122960000Y-60920000D02*
X124760000Y-60920000D01*
X120860000Y-63440000D02*
X122660000Y-63440000D01*
X122960000Y-60920000D02*
X122960000Y-71160000D01*
X126560000Y-60920000D02*
X141200000Y-60920000D01*
X124760000Y-60920000D02*
X125660000Y-61820000D01*
X121760000Y-62540000D02*
X121760000Y-64340000D01*
%TO.C,C2*%
X151260000Y-57560000D02*
X152160000Y-58460000D01*
X151260000Y-49120000D02*
X152160000Y-48220000D01*
X168740000Y-53340000D02*
X166800000Y-53340000D01*
X146620000Y-53340000D02*
X148560000Y-53340000D01*
X166800000Y-48220000D02*
X166800000Y-58460000D01*
X148560000Y-58460000D02*
X150360000Y-58460000D01*
X150360000Y-58460000D02*
X151260000Y-57560000D01*
X152160000Y-58460000D02*
X166800000Y-58460000D01*
X148560000Y-48220000D02*
X150360000Y-48220000D01*
X146460000Y-50740000D02*
X148260000Y-50740000D01*
X148560000Y-48220000D02*
X148560000Y-58460000D01*
X152160000Y-48220000D02*
X166800000Y-48220000D01*
X150360000Y-48220000D02*
X151260000Y-49120000D01*
X147360000Y-49840000D02*
X147360000Y-51640000D01*
%TO.C,C1*%
X85020000Y-57560000D02*
X85920000Y-58460000D01*
X85020000Y-49120000D02*
X85920000Y-48220000D01*
X102500000Y-53340000D02*
X100560000Y-53340000D01*
X80380000Y-53340000D02*
X82320000Y-53340000D01*
X100560000Y-48220000D02*
X100560000Y-58460000D01*
X82320000Y-58460000D02*
X84120000Y-58460000D01*
X84120000Y-58460000D02*
X85020000Y-57560000D01*
X85920000Y-58460000D02*
X100560000Y-58460000D01*
X82320000Y-48220000D02*
X84120000Y-48220000D01*
X80220000Y-50740000D02*
X82020000Y-50740000D01*
X82320000Y-48220000D02*
X82320000Y-58460000D01*
X85920000Y-48220000D02*
X100560000Y-48220000D01*
X84120000Y-48220000D02*
X85020000Y-49120000D01*
X81120000Y-49840000D02*
X81120000Y-51640000D01*
%TD*%
M02*
