%TF.GenerationSoftware,KiCad,Pcbnew,7.0.6*%
%TF.CreationDate,2023-07-24T14:12:13+05:30*%
%TF.ProjectId,Class1,436c6173-7331-42e6-9b69-6361645f7063,rev?*%
%TF.SameCoordinates,Original*%
%TF.FileFunction,Legend,Top*%
%TF.FilePolarity,Positive*%
%FSLAX46Y46*%
G04 Gerber Fmt 4.6, Leading zero omitted, Abs format (unit mm)*
G04 Created by KiCad (PCBNEW 7.0.6) date 2023-07-24 14:12:13*
%MOMM*%
%LPD*%
G01*
G04 APERTURE LIST*
%ADD10C,0.150000*%
%ADD11C,0.120000*%
G04 APERTURE END LIST*
D10*
X156718095Y-69614819D02*
X156718095Y-68614819D01*
X156718095Y-69091009D02*
X157289523Y-69091009D01*
X157289523Y-69614819D02*
X157289523Y-68614819D01*
X157718095Y-68710057D02*
X157765714Y-68662438D01*
X157765714Y-68662438D02*
X157860952Y-68614819D01*
X157860952Y-68614819D02*
X158099047Y-68614819D01*
X158099047Y-68614819D02*
X158194285Y-68662438D01*
X158194285Y-68662438D02*
X158241904Y-68710057D01*
X158241904Y-68710057D02*
X158289523Y-68805295D01*
X158289523Y-68805295D02*
X158289523Y-68900533D01*
X158289523Y-68900533D02*
X158241904Y-69043390D01*
X158241904Y-69043390D02*
X157670476Y-69614819D01*
X157670476Y-69614819D02*
X158289523Y-69614819D01*
X131318095Y-105174819D02*
X131318095Y-104174819D01*
X131318095Y-104651009D02*
X131889523Y-104651009D01*
X131889523Y-105174819D02*
X131889523Y-104174819D01*
X132794285Y-104508152D02*
X132794285Y-105174819D01*
X132556190Y-104127200D02*
X132318095Y-104841485D01*
X132318095Y-104841485D02*
X132937142Y-104841485D01*
X150484819Y-91606666D02*
X150008628Y-91939999D01*
X150484819Y-92178094D02*
X149484819Y-92178094D01*
X149484819Y-92178094D02*
X149484819Y-91797142D01*
X149484819Y-91797142D02*
X149532438Y-91701904D01*
X149532438Y-91701904D02*
X149580057Y-91654285D01*
X149580057Y-91654285D02*
X149675295Y-91606666D01*
X149675295Y-91606666D02*
X149818152Y-91606666D01*
X149818152Y-91606666D02*
X149913390Y-91654285D01*
X149913390Y-91654285D02*
X149961009Y-91701904D01*
X149961009Y-91701904D02*
X150008628Y-91797142D01*
X150008628Y-91797142D02*
X150008628Y-92178094D01*
X150484819Y-90654285D02*
X150484819Y-91225713D01*
X150484819Y-90939999D02*
X149484819Y-90939999D01*
X149484819Y-90939999D02*
X149627676Y-91035237D01*
X149627676Y-91035237D02*
X149722914Y-91130475D01*
X149722914Y-91130475D02*
X149770533Y-91225713D01*
X131318095Y-69614819D02*
X131318095Y-68614819D01*
X131318095Y-69091009D02*
X131889523Y-69091009D01*
X131889523Y-69614819D02*
X131889523Y-68614819D01*
X132889523Y-69614819D02*
X132318095Y-69614819D01*
X132603809Y-69614819D02*
X132603809Y-68614819D01*
X132603809Y-68614819D02*
X132508571Y-68757676D01*
X132508571Y-68757676D02*
X132413333Y-68852914D01*
X132413333Y-68852914D02*
X132318095Y-68900533D01*
X137691905Y-80314819D02*
X137691905Y-79314819D01*
X137691905Y-79314819D02*
X137930000Y-79314819D01*
X137930000Y-79314819D02*
X138072857Y-79362438D01*
X138072857Y-79362438D02*
X138168095Y-79457676D01*
X138168095Y-79457676D02*
X138215714Y-79552914D01*
X138215714Y-79552914D02*
X138263333Y-79743390D01*
X138263333Y-79743390D02*
X138263333Y-79886247D01*
X138263333Y-79886247D02*
X138215714Y-80076723D01*
X138215714Y-80076723D02*
X138168095Y-80171961D01*
X138168095Y-80171961D02*
X138072857Y-80267200D01*
X138072857Y-80267200D02*
X137930000Y-80314819D01*
X137930000Y-80314819D02*
X137691905Y-80314819D01*
X139215714Y-80314819D02*
X138644286Y-80314819D01*
X138930000Y-80314819D02*
X138930000Y-79314819D01*
X138930000Y-79314819D02*
X138834762Y-79457676D01*
X138834762Y-79457676D02*
X138739524Y-79552914D01*
X138739524Y-79552914D02*
X138644286Y-79600533D01*
X156718095Y-105174819D02*
X156718095Y-104174819D01*
X156718095Y-104651009D02*
X157289523Y-104651009D01*
X157289523Y-105174819D02*
X157289523Y-104174819D01*
X157670476Y-104174819D02*
X158289523Y-104174819D01*
X158289523Y-104174819D02*
X157956190Y-104555771D01*
X157956190Y-104555771D02*
X158099047Y-104555771D01*
X158099047Y-104555771D02*
X158194285Y-104603390D01*
X158194285Y-104603390D02*
X158241904Y-104651009D01*
X158241904Y-104651009D02*
X158289523Y-104746247D01*
X158289523Y-104746247D02*
X158289523Y-104984342D01*
X158289523Y-104984342D02*
X158241904Y-105079580D01*
X158241904Y-105079580D02*
X158194285Y-105127200D01*
X158194285Y-105127200D02*
X158099047Y-105174819D01*
X158099047Y-105174819D02*
X157813333Y-105174819D01*
X157813333Y-105174819D02*
X157718095Y-105127200D01*
X157718095Y-105127200D02*
X157670476Y-105079580D01*
X136826666Y-93204819D02*
X136826666Y-93919104D01*
X136826666Y-93919104D02*
X136779047Y-94061961D01*
X136779047Y-94061961D02*
X136683809Y-94157200D01*
X136683809Y-94157200D02*
X136540952Y-94204819D01*
X136540952Y-94204819D02*
X136445714Y-94204819D01*
X137826666Y-94204819D02*
X137255238Y-94204819D01*
X137540952Y-94204819D02*
X137540952Y-93204819D01*
X137540952Y-93204819D02*
X137445714Y-93347676D01*
X137445714Y-93347676D02*
X137350476Y-93442914D01*
X137350476Y-93442914D02*
X137255238Y-93490533D01*
D11*
%TO.C,R1*%
X152400000Y-98020000D02*
X152400000Y-94710000D01*
X151030000Y-94710000D02*
X153770000Y-94710000D01*
X153770000Y-94710000D02*
X153770000Y-88170000D01*
X151030000Y-88170000D02*
X151030000Y-94710000D01*
X153770000Y-88170000D02*
X151030000Y-88170000D01*
X152400000Y-84860000D02*
X152400000Y-88170000D01*
%TO.C,D1*%
X135870000Y-82275000D02*
X135870000Y-85365000D01*
X141419999Y-83820462D02*
G75*
G03*
X135870001Y-82275170I-2989999J462D01*
G01*
X135870000Y-85364830D02*
G75*
G03*
X141420000Y-83819538I2560000J1544830D01*
G01*
X140930000Y-83820000D02*
G75*
G03*
X140930000Y-83820000I-2500000J0D01*
G01*
%TO.C,J1*%
X135830000Y-97790000D02*
X135830000Y-100390000D01*
X135830000Y-97790000D02*
X138490000Y-97790000D01*
X135830000Y-100390000D02*
X138490000Y-100390000D01*
X137160000Y-95190000D02*
X138490000Y-95190000D01*
X138490000Y-95190000D02*
X138490000Y-96520000D01*
X138490000Y-97790000D02*
X138490000Y-100390000D01*
%TD*%
M02*
