%TF.GenerationSoftware,KiCad,Pcbnew,7.0.6*%
%TF.CreationDate,2023-07-27T06:48:48+05:30*%
%TF.ProjectId,LED_circular,4c45445f-6369-4726-9375-6c61722e6b69,rev?*%
%TF.SameCoordinates,Original*%
%TF.FileFunction,Legend,Top*%
%TF.FilePolarity,Positive*%
%FSLAX46Y46*%
G04 Gerber Fmt 4.6, Leading zero omitted, Abs format (unit mm)*
G04 Created by KiCad (PCBNEW 7.0.6) date 2023-07-27 06:48:48*
%MOMM*%
%LPD*%
G01*
G04 APERTURE LIST*
%ADD10C,0.150000*%
%ADD11C,0.120000*%
G04 APERTURE END LIST*
D10*
X138180914Y-143201314D02*
X137196107Y-143027666D01*
X137196107Y-143027666D02*
X137237451Y-142793188D01*
X137237451Y-142793188D02*
X137309154Y-142660770D01*
X137309154Y-142660770D02*
X137419483Y-142583517D01*
X137419483Y-142583517D02*
X137521543Y-142553159D01*
X137521543Y-142553159D02*
X137717395Y-142539339D01*
X137717395Y-142539339D02*
X137858081Y-142564146D01*
X137858081Y-142564146D02*
X138037395Y-142644118D01*
X138037395Y-142644118D02*
X138122917Y-142707551D01*
X138122917Y-142707551D02*
X138200170Y-142817880D01*
X138200170Y-142817880D02*
X138222259Y-142966836D01*
X138222259Y-142966836D02*
X138180914Y-143201314D01*
X137772445Y-141678680D02*
X138428983Y-141794446D01*
X137355935Y-141847007D02*
X138018024Y-142205519D01*
X138018024Y-142205519D02*
X138125521Y-141595876D01*
X137518596Y-141198737D02*
X137634361Y-140542199D01*
X137634361Y-140542199D02*
X138544749Y-141137907D01*
X153686623Y-142165742D02*
X154671430Y-141992094D01*
X154671430Y-141992094D02*
X154712775Y-142226572D01*
X154712775Y-142226572D02*
X154690686Y-142375528D01*
X154690686Y-142375528D02*
X154613433Y-142485857D01*
X154613433Y-142485857D02*
X154527911Y-142549290D01*
X154527911Y-142549290D02*
X154348597Y-142629262D01*
X154348597Y-142629262D02*
X154207911Y-142654069D01*
X154207911Y-142654069D02*
X154012059Y-142640249D01*
X154012059Y-142640249D02*
X153909999Y-142609891D01*
X153909999Y-142609891D02*
X153799670Y-142532638D01*
X153799670Y-142532638D02*
X153727967Y-142400220D01*
X153727967Y-142400220D02*
X153686623Y-142165742D01*
X154591230Y-143456845D02*
X153934691Y-143572610D01*
X154925050Y-143156215D02*
X154180271Y-143045771D01*
X154180271Y-143045771D02*
X154287768Y-143655414D01*
X154033919Y-144135358D02*
X154066995Y-144322940D01*
X154066995Y-144322940D02*
X154130428Y-144408462D01*
X154130428Y-144408462D02*
X154185593Y-144447089D01*
X154185593Y-144447089D02*
X154342818Y-144516073D01*
X154342818Y-144516073D02*
X154538669Y-144529893D01*
X154538669Y-144529893D02*
X154913834Y-144463741D01*
X154913834Y-144463741D02*
X154999356Y-144400308D01*
X154999356Y-144400308D02*
X155037983Y-144345143D01*
X155037983Y-144345143D02*
X155068341Y-144243083D01*
X155068341Y-144243083D02*
X155035265Y-144055501D01*
X155035265Y-144055501D02*
X154971831Y-143969978D01*
X154971831Y-143969978D02*
X154916667Y-143931352D01*
X154916667Y-143931352D02*
X154814606Y-143900994D01*
X154814606Y-143900994D02*
X154580128Y-143942339D01*
X154580128Y-143942339D02*
X154494606Y-144005772D01*
X154494606Y-144005772D02*
X154455979Y-144060937D01*
X154455979Y-144060937D02*
X154425622Y-144162997D01*
X154425622Y-144162997D02*
X154458698Y-144350579D01*
X154458698Y-144350579D02*
X154522131Y-144436102D01*
X154522131Y-144436102D02*
X154577296Y-144474728D01*
X154577296Y-144474728D02*
X154679356Y-144505086D01*
X115552400Y-71373876D02*
X116195187Y-70607832D01*
X116195187Y-70607832D02*
X116377579Y-70760876D01*
X116377579Y-70760876D02*
X116456405Y-70889182D01*
X116456405Y-70889182D02*
X116468143Y-71023356D01*
X116468143Y-71023356D02*
X116443404Y-71126922D01*
X116443404Y-71126922D02*
X116357446Y-71303444D01*
X116357446Y-71303444D02*
X116265620Y-71412879D01*
X116265620Y-71412879D02*
X116106706Y-71528183D01*
X116106706Y-71528183D02*
X116009009Y-71570531D01*
X116009009Y-71570531D02*
X115874835Y-71582269D01*
X115874835Y-71582269D02*
X115734791Y-71526921D01*
X115734791Y-71526921D02*
X115552400Y-71373876D01*
X116888275Y-71189402D02*
X117362493Y-71587318D01*
X117362493Y-71587318D02*
X116862273Y-71664882D01*
X116862273Y-71664882D02*
X116971708Y-71756708D01*
X116971708Y-71756708D02*
X117014056Y-71854405D01*
X117014056Y-71854405D02*
X117019925Y-71921492D01*
X117019925Y-71921492D02*
X116995186Y-72025057D01*
X116995186Y-72025057D02*
X116842141Y-72207449D01*
X116842141Y-72207449D02*
X116744445Y-72249797D01*
X116744445Y-72249797D02*
X116677358Y-72255666D01*
X116677358Y-72255666D02*
X116573792Y-72230926D01*
X116573792Y-72230926D02*
X116354922Y-72047273D01*
X116354922Y-72047273D02*
X116312575Y-71949577D01*
X116312575Y-71949577D02*
X116306705Y-71882489D01*
X118019103Y-72138279D02*
X117873189Y-72015843D01*
X117873189Y-72015843D02*
X117769624Y-71991103D01*
X117769624Y-71991103D02*
X117702537Y-71996973D01*
X117702537Y-71996973D02*
X117537753Y-72045190D01*
X117537753Y-72045190D02*
X117378839Y-72160494D01*
X117378839Y-72160494D02*
X117133968Y-72452320D01*
X117133968Y-72452320D02*
X117109228Y-72555886D01*
X117109228Y-72555886D02*
X117115097Y-72622973D01*
X117115097Y-72622973D02*
X117157445Y-72720669D01*
X117157445Y-72720669D02*
X117303358Y-72843105D01*
X117303358Y-72843105D02*
X117406924Y-72867845D01*
X117406924Y-72867845D02*
X117474011Y-72861975D01*
X117474011Y-72861975D02*
X117571707Y-72819628D01*
X117571707Y-72819628D02*
X117724752Y-72637236D01*
X117724752Y-72637236D02*
X117749492Y-72533671D01*
X117749492Y-72533671D02*
X117743622Y-72466583D01*
X117743622Y-72466583D02*
X117701274Y-72368887D01*
X117701274Y-72368887D02*
X117555361Y-72246451D01*
X117555361Y-72246451D02*
X117451796Y-72221712D01*
X117451796Y-72221712D02*
X117384708Y-72227581D01*
X117384708Y-72227581D02*
X117287012Y-72269929D01*
X121185714Y-104774819D02*
X121185714Y-103774819D01*
X121185714Y-103774819D02*
X121423809Y-103774819D01*
X121423809Y-103774819D02*
X121566666Y-103822438D01*
X121566666Y-103822438D02*
X121661904Y-103917676D01*
X121661904Y-103917676D02*
X121709523Y-104012914D01*
X121709523Y-104012914D02*
X121757142Y-104203390D01*
X121757142Y-104203390D02*
X121757142Y-104346247D01*
X121757142Y-104346247D02*
X121709523Y-104536723D01*
X121709523Y-104536723D02*
X121661904Y-104631961D01*
X121661904Y-104631961D02*
X121566666Y-104727200D01*
X121566666Y-104727200D02*
X121423809Y-104774819D01*
X121423809Y-104774819D02*
X121185714Y-104774819D01*
X122138095Y-103870057D02*
X122185714Y-103822438D01*
X122185714Y-103822438D02*
X122280952Y-103774819D01*
X122280952Y-103774819D02*
X122519047Y-103774819D01*
X122519047Y-103774819D02*
X122614285Y-103822438D01*
X122614285Y-103822438D02*
X122661904Y-103870057D01*
X122661904Y-103870057D02*
X122709523Y-103965295D01*
X122709523Y-103965295D02*
X122709523Y-104060533D01*
X122709523Y-104060533D02*
X122661904Y-104203390D01*
X122661904Y-104203390D02*
X122090476Y-104774819D01*
X122090476Y-104774819D02*
X122709523Y-104774819D01*
X123042857Y-103774819D02*
X123661904Y-103774819D01*
X123661904Y-103774819D02*
X123328571Y-104155771D01*
X123328571Y-104155771D02*
X123471428Y-104155771D01*
X123471428Y-104155771D02*
X123566666Y-104203390D01*
X123566666Y-104203390D02*
X123614285Y-104251009D01*
X123614285Y-104251009D02*
X123661904Y-104346247D01*
X123661904Y-104346247D02*
X123661904Y-104584342D01*
X123661904Y-104584342D02*
X123614285Y-104679580D01*
X123614285Y-104679580D02*
X123566666Y-104727200D01*
X123566666Y-104727200D02*
X123471428Y-104774819D01*
X123471428Y-104774819D02*
X123185714Y-104774819D01*
X123185714Y-104774819D02*
X123090476Y-104727200D01*
X123090476Y-104727200D02*
X123042857Y-104679580D01*
X190821408Y-88781769D02*
X190479388Y-87842076D01*
X190479388Y-87842076D02*
X190703125Y-87760643D01*
X190703125Y-87760643D02*
X190853653Y-87756530D01*
X190853653Y-87756530D02*
X190975721Y-87813451D01*
X190975721Y-87813451D02*
X191053042Y-87886659D01*
X191053042Y-87886659D02*
X191162936Y-88049361D01*
X191162936Y-88049361D02*
X191211796Y-88183603D01*
X191211796Y-88183603D02*
X191232195Y-88378879D01*
X191232195Y-88378879D02*
X191220021Y-88484660D01*
X191220021Y-88484660D02*
X191163100Y-88606728D01*
X191163100Y-88606728D02*
X191045145Y-88700335D01*
X191045145Y-88700335D02*
X190821408Y-88781769D01*
X191866554Y-87337189D02*
X191419081Y-87500056D01*
X191419081Y-87500056D02*
X191537200Y-87963815D01*
X191537200Y-87963815D02*
X191565661Y-87902781D01*
X191565661Y-87902781D02*
X191638869Y-87825461D01*
X191638869Y-87825461D02*
X191862605Y-87744027D01*
X191862605Y-87744027D02*
X191968386Y-87756201D01*
X191968386Y-87756201D02*
X192029420Y-87784662D01*
X192029420Y-87784662D02*
X192106741Y-87857870D01*
X192106741Y-87857870D02*
X192188174Y-88081606D01*
X192188174Y-88081606D02*
X192176000Y-88187387D01*
X192176000Y-88187387D02*
X192147540Y-88248421D01*
X192147540Y-88248421D02*
X192074332Y-88325742D01*
X192074332Y-88325742D02*
X191850596Y-88407175D01*
X191850596Y-88407175D02*
X191744814Y-88395001D01*
X191744814Y-88395001D02*
X191683780Y-88366541D01*
X192700794Y-88097728D02*
X192879783Y-88032582D01*
X192879783Y-88032582D02*
X192952991Y-87955261D01*
X192952991Y-87955261D02*
X192981451Y-87894227D01*
X192981451Y-87894227D02*
X193022086Y-87727412D01*
X193022086Y-87727412D02*
X193001686Y-87532136D01*
X193001686Y-87532136D02*
X192871393Y-87174158D01*
X192871393Y-87174158D02*
X192794072Y-87100950D01*
X192794072Y-87100950D02*
X192733038Y-87072490D01*
X192733038Y-87072490D02*
X192627257Y-87060316D01*
X192627257Y-87060316D02*
X192448268Y-87125463D01*
X192448268Y-87125463D02*
X192375060Y-87202783D01*
X192375060Y-87202783D02*
X192346600Y-87263817D01*
X192346600Y-87263817D02*
X192334426Y-87369598D01*
X192334426Y-87369598D02*
X192415859Y-87593335D01*
X192415859Y-87593335D02*
X192493180Y-87666542D01*
X192493180Y-87666542D02*
X192554214Y-87695003D01*
X192554214Y-87695003D02*
X192659995Y-87707177D01*
X192659995Y-87707177D02*
X192838984Y-87642030D01*
X192838984Y-87642030D02*
X192912192Y-87564710D01*
X192912192Y-87564710D02*
X192940652Y-87503676D01*
X192940652Y-87503676D02*
X192952826Y-87397895D01*
X143261905Y-100524819D02*
X143261905Y-99524819D01*
X143261905Y-99524819D02*
X143500000Y-99524819D01*
X143500000Y-99524819D02*
X143642857Y-99572438D01*
X143642857Y-99572438D02*
X143738095Y-99667676D01*
X143738095Y-99667676D02*
X143785714Y-99762914D01*
X143785714Y-99762914D02*
X143833333Y-99953390D01*
X143833333Y-99953390D02*
X143833333Y-100096247D01*
X143833333Y-100096247D02*
X143785714Y-100286723D01*
X143785714Y-100286723D02*
X143738095Y-100381961D01*
X143738095Y-100381961D02*
X143642857Y-100477200D01*
X143642857Y-100477200D02*
X143500000Y-100524819D01*
X143500000Y-100524819D02*
X143261905Y-100524819D01*
X144690476Y-99858152D02*
X144690476Y-100524819D01*
X144452381Y-99477200D02*
X144214286Y-100191485D01*
X144214286Y-100191485D02*
X144833333Y-100191485D01*
X116442282Y-129484738D02*
X115799494Y-128718694D01*
X115799494Y-128718694D02*
X115981886Y-128565649D01*
X115981886Y-128565649D02*
X116121929Y-128510300D01*
X116121929Y-128510300D02*
X116256104Y-128522039D01*
X116256104Y-128522039D02*
X116353800Y-128564387D01*
X116353800Y-128564387D02*
X116512714Y-128679691D01*
X116512714Y-128679691D02*
X116604541Y-128789126D01*
X116604541Y-128789126D02*
X116690498Y-128965648D01*
X116690498Y-128965648D02*
X116715238Y-129069214D01*
X116715238Y-129069214D02*
X116703499Y-129203388D01*
X116703499Y-129203388D02*
X116624673Y-129331693D01*
X116624673Y-129331693D02*
X116442282Y-129484738D01*
X117108106Y-128055774D02*
X117536631Y-128566470D01*
X116680843Y-127916992D02*
X116957585Y-128617211D01*
X116957585Y-128617211D02*
X117431803Y-128219295D01*
X117837672Y-127443595D02*
X118266197Y-127954291D01*
X117410409Y-127304813D02*
X117687151Y-128005032D01*
X117687151Y-128005032D02*
X118161369Y-127607116D01*
X139312907Y-127226575D02*
X138446882Y-126726575D01*
X138446882Y-126726575D02*
X138565930Y-126520379D01*
X138565930Y-126520379D02*
X138678598Y-126420470D01*
X138678598Y-126420470D02*
X138808695Y-126385611D01*
X138808695Y-126385611D02*
X138914983Y-126391991D01*
X138914983Y-126391991D02*
X139103750Y-126445989D01*
X139103750Y-126445989D02*
X139227468Y-126517418D01*
X139227468Y-126517418D02*
X139368616Y-126653895D01*
X139368616Y-126653895D02*
X139427285Y-126742754D01*
X139427285Y-126742754D02*
X139462144Y-126872851D01*
X139462144Y-126872851D02*
X139431955Y-127020379D01*
X139431955Y-127020379D02*
X139312907Y-127226575D01*
X140074812Y-125906918D02*
X139789098Y-126401789D01*
X139931955Y-126154353D02*
X139065930Y-125654353D01*
X139065930Y-125654353D02*
X139142029Y-125808261D01*
X139142029Y-125808261D02*
X139176888Y-125938358D01*
X139176888Y-125938358D02*
X139170508Y-126044646D01*
X140312907Y-125494524D02*
X140408146Y-125329567D01*
X140408146Y-125329567D02*
X140414525Y-125223279D01*
X140414525Y-125223279D02*
X140397096Y-125158230D01*
X140397096Y-125158230D02*
X140320997Y-125004323D01*
X140320997Y-125004323D02*
X140179849Y-124867846D01*
X140179849Y-124867846D02*
X139849935Y-124677370D01*
X139849935Y-124677370D02*
X139743646Y-124670990D01*
X139743646Y-124670990D02*
X139678598Y-124688420D01*
X139678598Y-124688420D02*
X139589739Y-124747089D01*
X139589739Y-124747089D02*
X139494501Y-124912046D01*
X139494501Y-124912046D02*
X139488121Y-125018334D01*
X139488121Y-125018334D02*
X139505551Y-125083383D01*
X139505551Y-125083383D02*
X139564220Y-125172241D01*
X139564220Y-125172241D02*
X139770417Y-125291289D01*
X139770417Y-125291289D02*
X139876705Y-125297669D01*
X139876705Y-125297669D02*
X139941754Y-125280239D01*
X139941754Y-125280239D02*
X140030612Y-125221570D01*
X140030612Y-125221570D02*
X140125850Y-125056612D01*
X140125850Y-125056612D02*
X140132230Y-124950324D01*
X140132230Y-124950324D02*
X140114800Y-124885276D01*
X140114800Y-124885276D02*
X140056131Y-124796417D01*
X136572806Y-74760679D02*
X137438831Y-74260679D01*
X137438831Y-74260679D02*
X137557879Y-74466875D01*
X137557879Y-74466875D02*
X137588068Y-74614403D01*
X137588068Y-74614403D02*
X137553208Y-74744500D01*
X137553208Y-74744500D02*
X137494539Y-74833359D01*
X137494539Y-74833359D02*
X137353392Y-74969836D01*
X137353392Y-74969836D02*
X137229674Y-75041265D01*
X137229674Y-75041265D02*
X137040907Y-75095263D01*
X137040907Y-75095263D02*
X136934619Y-75101643D01*
X136934619Y-75101643D02*
X136804521Y-75066784D01*
X136804521Y-75066784D02*
X136691853Y-74966875D01*
X136691853Y-74966875D02*
X136572806Y-74760679D01*
X137832543Y-75133084D02*
X137897592Y-75150514D01*
X137897592Y-75150514D02*
X137986450Y-75209183D01*
X137986450Y-75209183D02*
X138105498Y-75415379D01*
X138105498Y-75415379D02*
X138111878Y-75521667D01*
X138111878Y-75521667D02*
X138094448Y-75586716D01*
X138094448Y-75586716D02*
X138035779Y-75675575D01*
X138035779Y-75675575D02*
X137953300Y-75723194D01*
X137953300Y-75723194D02*
X137805773Y-75753383D01*
X137805773Y-75753383D02*
X137025187Y-75544226D01*
X137025187Y-75544226D02*
X137334711Y-76080336D01*
X138115297Y-76289494D02*
X138108917Y-76183206D01*
X138108917Y-76183206D02*
X138126347Y-76118157D01*
X138126347Y-76118157D02*
X138185016Y-76029299D01*
X138185016Y-76029299D02*
X138226255Y-76005489D01*
X138226255Y-76005489D02*
X138332543Y-75999109D01*
X138332543Y-75999109D02*
X138397592Y-76016539D01*
X138397592Y-76016539D02*
X138486450Y-76075208D01*
X138486450Y-76075208D02*
X138581688Y-76240165D01*
X138581688Y-76240165D02*
X138588068Y-76346454D01*
X138588068Y-76346454D02*
X138570638Y-76411502D01*
X138570638Y-76411502D02*
X138511969Y-76500361D01*
X138511969Y-76500361D02*
X138470730Y-76524170D01*
X138470730Y-76524170D02*
X138364442Y-76530550D01*
X138364442Y-76530550D02*
X138299393Y-76513120D01*
X138299393Y-76513120D02*
X138210535Y-76454451D01*
X138210535Y-76454451D02*
X138115297Y-76289494D01*
X138115297Y-76289494D02*
X138026438Y-76230825D01*
X138026438Y-76230825D02*
X137961389Y-76213395D01*
X137961389Y-76213395D02*
X137855101Y-76219775D01*
X137855101Y-76219775D02*
X137690144Y-76315013D01*
X137690144Y-76315013D02*
X137631475Y-76403871D01*
X137631475Y-76403871D02*
X137614045Y-76468920D01*
X137614045Y-76468920D02*
X137620425Y-76575208D01*
X137620425Y-76575208D02*
X137715663Y-76740165D01*
X137715663Y-76740165D02*
X137804521Y-76798834D01*
X137804521Y-76798834D02*
X137869570Y-76816264D01*
X137869570Y-76816264D02*
X137975858Y-76809885D01*
X137975858Y-76809885D02*
X138140815Y-76714646D01*
X138140815Y-76714646D02*
X138199485Y-76625788D01*
X138199485Y-76625788D02*
X138216914Y-76560739D01*
X138216914Y-76560739D02*
X138210535Y-76454451D01*
X155361905Y-104164819D02*
X155361905Y-103164819D01*
X155361905Y-103164819D02*
X155600000Y-103164819D01*
X155600000Y-103164819D02*
X155742857Y-103212438D01*
X155742857Y-103212438D02*
X155838095Y-103307676D01*
X155838095Y-103307676D02*
X155885714Y-103402914D01*
X155885714Y-103402914D02*
X155933333Y-103593390D01*
X155933333Y-103593390D02*
X155933333Y-103736247D01*
X155933333Y-103736247D02*
X155885714Y-103926723D01*
X155885714Y-103926723D02*
X155838095Y-104021961D01*
X155838095Y-104021961D02*
X155742857Y-104117200D01*
X155742857Y-104117200D02*
X155600000Y-104164819D01*
X155600000Y-104164819D02*
X155361905Y-104164819D01*
X156314286Y-103260057D02*
X156361905Y-103212438D01*
X156361905Y-103212438D02*
X156457143Y-103164819D01*
X156457143Y-103164819D02*
X156695238Y-103164819D01*
X156695238Y-103164819D02*
X156790476Y-103212438D01*
X156790476Y-103212438D02*
X156838095Y-103260057D01*
X156838095Y-103260057D02*
X156885714Y-103355295D01*
X156885714Y-103355295D02*
X156885714Y-103450533D01*
X156885714Y-103450533D02*
X156838095Y-103593390D01*
X156838095Y-103593390D02*
X156266667Y-104164819D01*
X156266667Y-104164819D02*
X156885714Y-104164819D01*
X175075991Y-109024749D02*
X175575991Y-108158724D01*
X175575991Y-108158724D02*
X175782187Y-108277772D01*
X175782187Y-108277772D02*
X175882096Y-108390440D01*
X175882096Y-108390440D02*
X175916955Y-108520537D01*
X175916955Y-108520537D02*
X175910575Y-108626825D01*
X175910575Y-108626825D02*
X175856577Y-108815592D01*
X175856577Y-108815592D02*
X175785148Y-108939310D01*
X175785148Y-108939310D02*
X175648671Y-109080458D01*
X175648671Y-109080458D02*
X175559812Y-109139127D01*
X175559812Y-109139127D02*
X175429715Y-109173986D01*
X175429715Y-109173986D02*
X175282187Y-109143797D01*
X175282187Y-109143797D02*
X175075991Y-109024749D01*
X176395648Y-109786654D02*
X175900777Y-109500940D01*
X176148213Y-109643797D02*
X176648213Y-108777772D01*
X176648213Y-108777772D02*
X176494305Y-108853871D01*
X176494305Y-108853871D02*
X176364208Y-108888730D01*
X176364208Y-108888730D02*
X176257920Y-108882350D01*
X177184324Y-109087296D02*
X177720435Y-109396819D01*
X177720435Y-109396819D02*
X177241283Y-109560067D01*
X177241283Y-109560067D02*
X177365001Y-109631496D01*
X177365001Y-109631496D02*
X177423670Y-109720354D01*
X177423670Y-109720354D02*
X177441100Y-109785403D01*
X177441100Y-109785403D02*
X177434720Y-109891691D01*
X177434720Y-109891691D02*
X177315673Y-110097888D01*
X177315673Y-110097888D02*
X177226814Y-110156557D01*
X177226814Y-110156557D02*
X177161765Y-110173986D01*
X177161765Y-110173986D02*
X177055477Y-110167607D01*
X177055477Y-110167607D02*
X176808042Y-110024749D01*
X176808042Y-110024749D02*
X176749372Y-109935891D01*
X176749372Y-109935891D02*
X176731943Y-109870842D01*
X164998671Y-77919054D02*
X164132646Y-77419054D01*
X164132646Y-77419054D02*
X164251693Y-77212857D01*
X164251693Y-77212857D02*
X164364361Y-77112949D01*
X164364361Y-77112949D02*
X164494459Y-77078089D01*
X164494459Y-77078089D02*
X164600747Y-77084469D01*
X164600747Y-77084469D02*
X164789514Y-77138468D01*
X164789514Y-77138468D02*
X164913232Y-77209896D01*
X164913232Y-77209896D02*
X165054379Y-77346374D01*
X165054379Y-77346374D02*
X165113048Y-77435232D01*
X165113048Y-77435232D02*
X165147908Y-77565330D01*
X165147908Y-77565330D02*
X165117719Y-77712857D01*
X165117719Y-77712857D02*
X164998671Y-77919054D01*
X165075228Y-76643596D02*
X164986370Y-76702265D01*
X164986370Y-76702265D02*
X164921321Y-76719695D01*
X164921321Y-76719695D02*
X164815033Y-76713315D01*
X164815033Y-76713315D02*
X164773793Y-76689506D01*
X164773793Y-76689506D02*
X164715124Y-76600647D01*
X164715124Y-76600647D02*
X164697694Y-76535599D01*
X164697694Y-76535599D02*
X164704074Y-76429311D01*
X164704074Y-76429311D02*
X164799312Y-76264353D01*
X164799312Y-76264353D02*
X164888171Y-76205684D01*
X164888171Y-76205684D02*
X164953219Y-76188254D01*
X164953219Y-76188254D02*
X165059508Y-76194634D01*
X165059508Y-76194634D02*
X165100747Y-76218444D01*
X165100747Y-76218444D02*
X165159416Y-76307302D01*
X165159416Y-76307302D02*
X165176846Y-76372351D01*
X165176846Y-76372351D02*
X165170466Y-76478639D01*
X165170466Y-76478639D02*
X165075228Y-76643596D01*
X165075228Y-76643596D02*
X165068848Y-76749884D01*
X165068848Y-76749884D02*
X165086278Y-76814933D01*
X165086278Y-76814933D02*
X165144947Y-76903792D01*
X165144947Y-76903792D02*
X165309904Y-76999030D01*
X165309904Y-76999030D02*
X165416192Y-77005409D01*
X165416192Y-77005409D02*
X165481241Y-76987980D01*
X165481241Y-76987980D02*
X165570100Y-76929311D01*
X165570100Y-76929311D02*
X165665338Y-76764353D01*
X165665338Y-76764353D02*
X165671717Y-76658065D01*
X165671717Y-76658065D02*
X165654288Y-76593016D01*
X165654288Y-76593016D02*
X165595619Y-76504158D01*
X165595619Y-76504158D02*
X165430661Y-76408920D01*
X165430661Y-76408920D02*
X165324373Y-76402540D01*
X165324373Y-76402540D02*
X165259324Y-76419970D01*
X165259324Y-76419970D02*
X165170466Y-76478639D01*
X142937807Y-144080045D02*
X141953000Y-143906397D01*
X141953000Y-143906397D02*
X141994344Y-143671919D01*
X141994344Y-143671919D02*
X142066047Y-143539501D01*
X142066047Y-143539501D02*
X142176376Y-143462248D01*
X142176376Y-143462248D02*
X142278436Y-143431890D01*
X142278436Y-143431890D02*
X142474288Y-143418070D01*
X142474288Y-143418070D02*
X142614974Y-143442877D01*
X142614974Y-143442877D02*
X142794288Y-143522849D01*
X142794288Y-143522849D02*
X142879810Y-143586282D01*
X142879810Y-143586282D02*
X142957063Y-143696611D01*
X142957063Y-143696611D02*
X142979152Y-143845567D01*
X142979152Y-143845567D02*
X142937807Y-144080045D01*
X142529338Y-142557411D02*
X143185876Y-142673177D01*
X142112828Y-142725738D02*
X142774917Y-143084250D01*
X142774917Y-143084250D02*
X142882414Y-142474607D01*
X142738894Y-141917411D02*
X142675461Y-142002933D01*
X142675461Y-142002933D02*
X142620296Y-142041560D01*
X142620296Y-142041560D02*
X142518236Y-142071917D01*
X142518236Y-142071917D02*
X142471340Y-142063648D01*
X142471340Y-142063648D02*
X142385818Y-142000215D01*
X142385818Y-142000215D02*
X142347192Y-141945050D01*
X142347192Y-141945050D02*
X142316834Y-141842990D01*
X142316834Y-141842990D02*
X142349910Y-141655408D01*
X142349910Y-141655408D02*
X142413343Y-141569885D01*
X142413343Y-141569885D02*
X142468508Y-141531259D01*
X142468508Y-141531259D02*
X142570568Y-141500901D01*
X142570568Y-141500901D02*
X142617464Y-141509170D01*
X142617464Y-141509170D02*
X142702986Y-141572604D01*
X142702986Y-141572604D02*
X142741612Y-141627768D01*
X142741612Y-141627768D02*
X142771970Y-141729828D01*
X142771970Y-141729828D02*
X142738894Y-141917411D01*
X142738894Y-141917411D02*
X142769252Y-142019471D01*
X142769252Y-142019471D02*
X142807879Y-142074635D01*
X142807879Y-142074635D02*
X142893401Y-142138069D01*
X142893401Y-142138069D02*
X143080983Y-142171145D01*
X143080983Y-142171145D02*
X143183044Y-142140787D01*
X143183044Y-142140787D02*
X143238208Y-142102161D01*
X143238208Y-142102161D02*
X143301642Y-142016638D01*
X143301642Y-142016638D02*
X143334717Y-141829056D01*
X143334717Y-141829056D02*
X143304360Y-141726996D01*
X143304360Y-141726996D02*
X143265733Y-141671831D01*
X143265733Y-141671831D02*
X143180211Y-141608398D01*
X143180211Y-141608398D02*
X142992628Y-141575322D01*
X142992628Y-141575322D02*
X142890568Y-141605679D01*
X142890568Y-141605679D02*
X142835404Y-141644306D01*
X142835404Y-141644306D02*
X142771970Y-141729828D01*
X149583333Y-95737319D02*
X149250000Y-95261128D01*
X149011905Y-95737319D02*
X149011905Y-94737319D01*
X149011905Y-94737319D02*
X149392857Y-94737319D01*
X149392857Y-94737319D02*
X149488095Y-94784938D01*
X149488095Y-94784938D02*
X149535714Y-94832557D01*
X149535714Y-94832557D02*
X149583333Y-94927795D01*
X149583333Y-94927795D02*
X149583333Y-95070652D01*
X149583333Y-95070652D02*
X149535714Y-95165890D01*
X149535714Y-95165890D02*
X149488095Y-95213509D01*
X149488095Y-95213509D02*
X149392857Y-95261128D01*
X149392857Y-95261128D02*
X149011905Y-95261128D01*
X150535714Y-95737319D02*
X149964286Y-95737319D01*
X150250000Y-95737319D02*
X150250000Y-94737319D01*
X150250000Y-94737319D02*
X150154762Y-94880176D01*
X150154762Y-94880176D02*
X150059524Y-94975414D01*
X150059524Y-94975414D02*
X149964286Y-95023033D01*
X155361905Y-99274819D02*
X155361905Y-98274819D01*
X155361905Y-98274819D02*
X155600000Y-98274819D01*
X155600000Y-98274819D02*
X155742857Y-98322438D01*
X155742857Y-98322438D02*
X155838095Y-98417676D01*
X155838095Y-98417676D02*
X155885714Y-98512914D01*
X155885714Y-98512914D02*
X155933333Y-98703390D01*
X155933333Y-98703390D02*
X155933333Y-98846247D01*
X155933333Y-98846247D02*
X155885714Y-99036723D01*
X155885714Y-99036723D02*
X155838095Y-99131961D01*
X155838095Y-99131961D02*
X155742857Y-99227200D01*
X155742857Y-99227200D02*
X155600000Y-99274819D01*
X155600000Y-99274819D02*
X155361905Y-99274819D01*
X156885714Y-99274819D02*
X156314286Y-99274819D01*
X156600000Y-99274819D02*
X156600000Y-98274819D01*
X156600000Y-98274819D02*
X156504762Y-98417676D01*
X156504762Y-98417676D02*
X156409524Y-98512914D01*
X156409524Y-98512914D02*
X156314286Y-98560533D01*
X124815679Y-114241367D02*
X124315679Y-113375342D01*
X124315679Y-113375342D02*
X124521875Y-113256294D01*
X124521875Y-113256294D02*
X124669403Y-113226105D01*
X124669403Y-113226105D02*
X124799500Y-113260965D01*
X124799500Y-113260965D02*
X124888359Y-113319634D01*
X124888359Y-113319634D02*
X125024836Y-113460781D01*
X125024836Y-113460781D02*
X125096265Y-113584499D01*
X125096265Y-113584499D02*
X125150263Y-113773266D01*
X125150263Y-113773266D02*
X125156643Y-113879554D01*
X125156643Y-113879554D02*
X125121784Y-114009652D01*
X125121784Y-114009652D02*
X125021875Y-114122320D01*
X125021875Y-114122320D02*
X124815679Y-114241367D01*
X125188084Y-112981630D02*
X125205514Y-112916581D01*
X125205514Y-112916581D02*
X125264183Y-112827723D01*
X125264183Y-112827723D02*
X125470379Y-112708675D01*
X125470379Y-112708675D02*
X125576667Y-112702295D01*
X125576667Y-112702295D02*
X125641716Y-112719725D01*
X125641716Y-112719725D02*
X125730575Y-112778394D01*
X125730575Y-112778394D02*
X125778194Y-112860873D01*
X125778194Y-112860873D02*
X125808383Y-113008400D01*
X125808383Y-113008400D02*
X125599226Y-113788986D01*
X125599226Y-113788986D02*
X126135336Y-113479462D01*
X126012870Y-112505439D02*
X126030300Y-112440391D01*
X126030300Y-112440391D02*
X126088969Y-112351532D01*
X126088969Y-112351532D02*
X126295165Y-112232485D01*
X126295165Y-112232485D02*
X126401454Y-112226105D01*
X126401454Y-112226105D02*
X126466502Y-112243535D01*
X126466502Y-112243535D02*
X126555361Y-112302204D01*
X126555361Y-112302204D02*
X126602980Y-112384682D01*
X126602980Y-112384682D02*
X126633169Y-112532210D01*
X126633169Y-112532210D02*
X126424012Y-113312796D01*
X126424012Y-113312796D02*
X126960123Y-113003272D01*
X161950220Y-60394108D02*
X161010528Y-60052088D01*
X161010528Y-60052088D02*
X161091961Y-59828352D01*
X161091961Y-59828352D02*
X161185568Y-59710397D01*
X161185568Y-59710397D02*
X161307636Y-59653475D01*
X161307636Y-59653475D02*
X161413418Y-59641301D01*
X161413418Y-59641301D02*
X161608693Y-59661701D01*
X161608693Y-59661701D02*
X161742935Y-59710561D01*
X161742935Y-59710561D02*
X161905637Y-59820455D01*
X161905637Y-59820455D02*
X161978845Y-59897775D01*
X161978845Y-59897775D02*
X162035767Y-60019843D01*
X162035767Y-60019843D02*
X162031654Y-60170372D01*
X162031654Y-60170372D02*
X161950220Y-60394108D01*
X161425756Y-59189716D02*
X161397295Y-59128682D01*
X161397295Y-59128682D02*
X161385121Y-59022901D01*
X161385121Y-59022901D02*
X161466555Y-58799165D01*
X161466555Y-58799165D02*
X161543875Y-58725957D01*
X161543875Y-58725957D02*
X161604909Y-58697496D01*
X161604909Y-58697496D02*
X161710690Y-58685322D01*
X161710690Y-58685322D02*
X161800185Y-58717895D01*
X161800185Y-58717895D02*
X161918140Y-58811503D01*
X161918140Y-58811503D02*
X162259667Y-59543910D01*
X162259667Y-59543910D02*
X162471394Y-58962196D01*
X162634261Y-58514723D02*
X162699407Y-58335734D01*
X162699407Y-58335734D02*
X162687233Y-58229953D01*
X162687233Y-58229953D02*
X162658773Y-58168919D01*
X162658773Y-58168919D02*
X162557104Y-58030564D01*
X162557104Y-58030564D02*
X162394402Y-57920670D01*
X162394402Y-57920670D02*
X162036424Y-57790377D01*
X162036424Y-57790377D02*
X161930643Y-57802551D01*
X161930643Y-57802551D02*
X161869609Y-57831011D01*
X161869609Y-57831011D02*
X161792288Y-57904219D01*
X161792288Y-57904219D02*
X161727141Y-58083208D01*
X161727141Y-58083208D02*
X161739315Y-58188989D01*
X161739315Y-58188989D02*
X161767776Y-58250023D01*
X161767776Y-58250023D02*
X161840984Y-58327344D01*
X161840984Y-58327344D02*
X162064720Y-58408777D01*
X162064720Y-58408777D02*
X162170501Y-58396603D01*
X162170501Y-58396603D02*
X162231535Y-58368143D01*
X162231535Y-58368143D02*
X162308856Y-58294935D01*
X162308856Y-58294935D02*
X162374003Y-58115946D01*
X162374003Y-58115946D02*
X162361829Y-58010165D01*
X162361829Y-58010165D02*
X162333368Y-57949131D01*
X162333368Y-57949131D02*
X162260160Y-57871810D01*
X105285714Y-100884819D02*
X105285714Y-99884819D01*
X105285714Y-99884819D02*
X105523809Y-99884819D01*
X105523809Y-99884819D02*
X105666666Y-99932438D01*
X105666666Y-99932438D02*
X105761904Y-100027676D01*
X105761904Y-100027676D02*
X105809523Y-100122914D01*
X105809523Y-100122914D02*
X105857142Y-100313390D01*
X105857142Y-100313390D02*
X105857142Y-100456247D01*
X105857142Y-100456247D02*
X105809523Y-100646723D01*
X105809523Y-100646723D02*
X105761904Y-100741961D01*
X105761904Y-100741961D02*
X105666666Y-100837200D01*
X105666666Y-100837200D02*
X105523809Y-100884819D01*
X105523809Y-100884819D02*
X105285714Y-100884819D01*
X106714285Y-100218152D02*
X106714285Y-100884819D01*
X106476190Y-99837200D02*
X106238095Y-100551485D01*
X106238095Y-100551485D02*
X106857142Y-100551485D01*
X107428571Y-99884819D02*
X107523809Y-99884819D01*
X107523809Y-99884819D02*
X107619047Y-99932438D01*
X107619047Y-99932438D02*
X107666666Y-99980057D01*
X107666666Y-99980057D02*
X107714285Y-100075295D01*
X107714285Y-100075295D02*
X107761904Y-100265771D01*
X107761904Y-100265771D02*
X107761904Y-100503866D01*
X107761904Y-100503866D02*
X107714285Y-100694342D01*
X107714285Y-100694342D02*
X107666666Y-100789580D01*
X107666666Y-100789580D02*
X107619047Y-100837200D01*
X107619047Y-100837200D02*
X107523809Y-100884819D01*
X107523809Y-100884819D02*
X107428571Y-100884819D01*
X107428571Y-100884819D02*
X107333333Y-100837200D01*
X107333333Y-100837200D02*
X107285714Y-100789580D01*
X107285714Y-100789580D02*
X107238095Y-100694342D01*
X107238095Y-100694342D02*
X107190476Y-100503866D01*
X107190476Y-100503866D02*
X107190476Y-100265771D01*
X107190476Y-100265771D02*
X107238095Y-100075295D01*
X107238095Y-100075295D02*
X107285714Y-99980057D01*
X107285714Y-99980057D02*
X107333333Y-99932438D01*
X107333333Y-99932438D02*
X107428571Y-99884819D01*
X118874862Y-67523779D02*
X119517649Y-66757735D01*
X119517649Y-66757735D02*
X119700041Y-66910779D01*
X119700041Y-66910779D02*
X119778867Y-67039085D01*
X119778867Y-67039085D02*
X119790605Y-67173259D01*
X119790605Y-67173259D02*
X119765866Y-67276825D01*
X119765866Y-67276825D02*
X119679908Y-67453347D01*
X119679908Y-67453347D02*
X119588082Y-67562782D01*
X119588082Y-67562782D02*
X119429168Y-67678086D01*
X119429168Y-67678086D02*
X119331471Y-67720434D01*
X119331471Y-67720434D02*
X119197297Y-67732172D01*
X119197297Y-67732172D02*
X119057253Y-67676824D01*
X119057253Y-67676824D02*
X118874862Y-67523779D01*
X120210737Y-67339305D02*
X120684955Y-67737221D01*
X120684955Y-67737221D02*
X120184735Y-67814785D01*
X120184735Y-67814785D02*
X120294170Y-67906611D01*
X120294170Y-67906611D02*
X120336518Y-68004308D01*
X120336518Y-68004308D02*
X120342387Y-68071395D01*
X120342387Y-68071395D02*
X120317648Y-68174960D01*
X120317648Y-68174960D02*
X120164603Y-68357352D01*
X120164603Y-68357352D02*
X120066907Y-68399700D01*
X120066907Y-68399700D02*
X119999820Y-68405569D01*
X119999820Y-68405569D02*
X119896254Y-68380829D01*
X119896254Y-68380829D02*
X119677384Y-68197176D01*
X119677384Y-68197176D02*
X119635037Y-68099480D01*
X119635037Y-68099480D02*
X119629167Y-68032392D01*
X121378043Y-68318790D02*
X121013260Y-68012701D01*
X121013260Y-68012701D02*
X120670692Y-68346875D01*
X120670692Y-68346875D02*
X120737779Y-68341006D01*
X120737779Y-68341006D02*
X120841345Y-68365745D01*
X120841345Y-68365745D02*
X121023736Y-68518790D01*
X121023736Y-68518790D02*
X121066084Y-68616486D01*
X121066084Y-68616486D02*
X121071954Y-68683574D01*
X121071954Y-68683574D02*
X121047214Y-68787139D01*
X121047214Y-68787139D02*
X120894169Y-68969531D01*
X120894169Y-68969531D02*
X120796473Y-69011878D01*
X120796473Y-69011878D02*
X120729386Y-69017748D01*
X120729386Y-69017748D02*
X120625820Y-68993008D01*
X120625820Y-68993008D02*
X120443429Y-68839963D01*
X120443429Y-68839963D02*
X120401081Y-68742267D01*
X120401081Y-68742267D02*
X120395212Y-68675180D01*
X176285714Y-101134819D02*
X176285714Y-100134819D01*
X176285714Y-100134819D02*
X176523809Y-100134819D01*
X176523809Y-100134819D02*
X176666666Y-100182438D01*
X176666666Y-100182438D02*
X176761904Y-100277676D01*
X176761904Y-100277676D02*
X176809523Y-100372914D01*
X176809523Y-100372914D02*
X176857142Y-100563390D01*
X176857142Y-100563390D02*
X176857142Y-100706247D01*
X176857142Y-100706247D02*
X176809523Y-100896723D01*
X176809523Y-100896723D02*
X176761904Y-100991961D01*
X176761904Y-100991961D02*
X176666666Y-101087200D01*
X176666666Y-101087200D02*
X176523809Y-101134819D01*
X176523809Y-101134819D02*
X176285714Y-101134819D01*
X177809523Y-101134819D02*
X177238095Y-101134819D01*
X177523809Y-101134819D02*
X177523809Y-100134819D01*
X177523809Y-100134819D02*
X177428571Y-100277676D01*
X177428571Y-100277676D02*
X177333333Y-100372914D01*
X177333333Y-100372914D02*
X177238095Y-100420533D01*
X178190476Y-100230057D02*
X178238095Y-100182438D01*
X178238095Y-100182438D02*
X178333333Y-100134819D01*
X178333333Y-100134819D02*
X178571428Y-100134819D01*
X178571428Y-100134819D02*
X178666666Y-100182438D01*
X178666666Y-100182438D02*
X178714285Y-100230057D01*
X178714285Y-100230057D02*
X178761904Y-100325295D01*
X178761904Y-100325295D02*
X178761904Y-100420533D01*
X178761904Y-100420533D02*
X178714285Y-100563390D01*
X178714285Y-100563390D02*
X178142857Y-101134819D01*
X178142857Y-101134819D02*
X178761904Y-101134819D01*
X141390475Y-56188369D02*
X142375282Y-56014721D01*
X142375282Y-56014721D02*
X142416627Y-56249199D01*
X142416627Y-56249199D02*
X142394538Y-56398155D01*
X142394538Y-56398155D02*
X142317285Y-56508484D01*
X142317285Y-56508484D02*
X142231763Y-56571917D01*
X142231763Y-56571917D02*
X142052449Y-56651889D01*
X142052449Y-56651889D02*
X141911763Y-56676696D01*
X141911763Y-56676696D02*
X141715911Y-56662876D01*
X141715911Y-56662876D02*
X141613851Y-56632518D01*
X141613851Y-56632518D02*
X141503522Y-56555265D01*
X141503522Y-56555265D02*
X141431819Y-56422847D01*
X141431819Y-56422847D02*
X141390475Y-56188369D01*
X142532393Y-56905737D02*
X142639889Y-57515380D01*
X142639889Y-57515380D02*
X142206842Y-57253263D01*
X142206842Y-57253263D02*
X142231648Y-57393949D01*
X142231648Y-57393949D02*
X142201291Y-57496010D01*
X142201291Y-57496010D02*
X142162664Y-57551174D01*
X142162664Y-57551174D02*
X142077142Y-57614608D01*
X142077142Y-57614608D02*
X141842664Y-57655953D01*
X141842664Y-57655953D02*
X141740604Y-57625595D01*
X141740604Y-57625595D02*
X141685439Y-57586968D01*
X141685439Y-57586968D02*
X141622006Y-57501446D01*
X141622006Y-57501446D02*
X141572392Y-57220072D01*
X141572392Y-57220072D02*
X141602749Y-57118012D01*
X141602749Y-57118012D02*
X141641376Y-57062848D01*
X142612250Y-57907083D02*
X142667414Y-57945710D01*
X142667414Y-57945710D02*
X142730848Y-58031232D01*
X142730848Y-58031232D02*
X142772193Y-58265710D01*
X142772193Y-58265710D02*
X142741835Y-58367770D01*
X142741835Y-58367770D02*
X142703208Y-58422935D01*
X142703208Y-58422935D02*
X142617686Y-58486368D01*
X142617686Y-58486368D02*
X142523895Y-58502906D01*
X142523895Y-58502906D02*
X142374939Y-58480817D01*
X142374939Y-58480817D02*
X141712964Y-58017298D01*
X141712964Y-58017298D02*
X141820461Y-58626941D01*
X171178200Y-83186766D02*
X170678200Y-82320740D01*
X170678200Y-82320740D02*
X170884397Y-82201693D01*
X170884397Y-82201693D02*
X171031924Y-82171503D01*
X171031924Y-82171503D02*
X171162022Y-82206363D01*
X171162022Y-82206363D02*
X171250880Y-82265032D01*
X171250880Y-82265032D02*
X171387358Y-82406180D01*
X171387358Y-82406180D02*
X171458786Y-82529898D01*
X171458786Y-82529898D02*
X171512785Y-82718664D01*
X171512785Y-82718664D02*
X171519165Y-82824953D01*
X171519165Y-82824953D02*
X171484305Y-82955050D01*
X171484305Y-82955050D02*
X171384397Y-83067718D01*
X171384397Y-83067718D02*
X171178200Y-83186766D01*
X172085465Y-82662956D02*
X172250422Y-82567718D01*
X172250422Y-82567718D02*
X172309091Y-82478860D01*
X172309091Y-82478860D02*
X172326521Y-82413811D01*
X172326521Y-82413811D02*
X172337571Y-82242474D01*
X172337571Y-82242474D02*
X172283572Y-82053707D01*
X172283572Y-82053707D02*
X172093096Y-81723793D01*
X172093096Y-81723793D02*
X172004238Y-81665124D01*
X172004238Y-81665124D02*
X171939189Y-81647694D01*
X171939189Y-81647694D02*
X171832901Y-81654074D01*
X171832901Y-81654074D02*
X171667944Y-81749312D01*
X171667944Y-81749312D02*
X171609274Y-81838170D01*
X171609274Y-81838170D02*
X171591845Y-81903219D01*
X171591845Y-81903219D02*
X171598224Y-82009507D01*
X171598224Y-82009507D02*
X171717272Y-82215704D01*
X171717272Y-82215704D02*
X171806130Y-82274373D01*
X171806130Y-82274373D02*
X171871179Y-82291802D01*
X171871179Y-82291802D02*
X171977467Y-82285423D01*
X171977467Y-82285423D02*
X172142425Y-82190185D01*
X172142425Y-82190185D02*
X172201094Y-82101326D01*
X172201094Y-82101326D02*
X172218523Y-82036277D01*
X172218523Y-82036277D02*
X172212144Y-81929989D01*
X105285715Y-95884819D02*
X105285715Y-94884819D01*
X105285715Y-94884819D02*
X105523810Y-94884819D01*
X105523810Y-94884819D02*
X105666667Y-94932438D01*
X105666667Y-94932438D02*
X105761905Y-95027676D01*
X105761905Y-95027676D02*
X105809524Y-95122914D01*
X105809524Y-95122914D02*
X105857143Y-95313390D01*
X105857143Y-95313390D02*
X105857143Y-95456247D01*
X105857143Y-95456247D02*
X105809524Y-95646723D01*
X105809524Y-95646723D02*
X105761905Y-95741961D01*
X105761905Y-95741961D02*
X105666667Y-95837200D01*
X105666667Y-95837200D02*
X105523810Y-95884819D01*
X105523810Y-95884819D02*
X105285715Y-95884819D01*
X106190477Y-94884819D02*
X106809524Y-94884819D01*
X106809524Y-94884819D02*
X106476191Y-95265771D01*
X106476191Y-95265771D02*
X106619048Y-95265771D01*
X106619048Y-95265771D02*
X106714286Y-95313390D01*
X106714286Y-95313390D02*
X106761905Y-95361009D01*
X106761905Y-95361009D02*
X106809524Y-95456247D01*
X106809524Y-95456247D02*
X106809524Y-95694342D01*
X106809524Y-95694342D02*
X106761905Y-95789580D01*
X106761905Y-95789580D02*
X106714286Y-95837200D01*
X106714286Y-95837200D02*
X106619048Y-95884819D01*
X106619048Y-95884819D02*
X106333334Y-95884819D01*
X106333334Y-95884819D02*
X106238096Y-95837200D01*
X106238096Y-95837200D02*
X106190477Y-95789580D01*
X107285715Y-95884819D02*
X107476191Y-95884819D01*
X107476191Y-95884819D02*
X107571429Y-95837200D01*
X107571429Y-95837200D02*
X107619048Y-95789580D01*
X107619048Y-95789580D02*
X107714286Y-95646723D01*
X107714286Y-95646723D02*
X107761905Y-95456247D01*
X107761905Y-95456247D02*
X107761905Y-95075295D01*
X107761905Y-95075295D02*
X107714286Y-94980057D01*
X107714286Y-94980057D02*
X107666667Y-94932438D01*
X107666667Y-94932438D02*
X107571429Y-94884819D01*
X107571429Y-94884819D02*
X107380953Y-94884819D01*
X107380953Y-94884819D02*
X107285715Y-94932438D01*
X107285715Y-94932438D02*
X107238096Y-94980057D01*
X107238096Y-94980057D02*
X107190477Y-95075295D01*
X107190477Y-95075295D02*
X107190477Y-95313390D01*
X107190477Y-95313390D02*
X107238096Y-95408628D01*
X107238096Y-95408628D02*
X107285715Y-95456247D01*
X107285715Y-95456247D02*
X107380953Y-95503866D01*
X107380953Y-95503866D02*
X107571429Y-95503866D01*
X107571429Y-95503866D02*
X107666667Y-95456247D01*
X107666667Y-95456247D02*
X107714286Y-95408628D01*
X107714286Y-95408628D02*
X107761905Y-95313390D01*
X123460575Y-136369011D02*
X122594550Y-135869011D01*
X122594550Y-135869011D02*
X122713598Y-135662815D01*
X122713598Y-135662815D02*
X122826266Y-135562906D01*
X122826266Y-135562906D02*
X122956363Y-135528047D01*
X122956363Y-135528047D02*
X123062651Y-135534427D01*
X123062651Y-135534427D02*
X123251418Y-135588425D01*
X123251418Y-135588425D02*
X123375136Y-135659854D01*
X123375136Y-135659854D02*
X123516284Y-135796331D01*
X123516284Y-135796331D02*
X123574953Y-135885190D01*
X123574953Y-135885190D02*
X123609812Y-136015287D01*
X123609812Y-136015287D02*
X123579623Y-136162815D01*
X123579623Y-136162815D02*
X123460575Y-136369011D01*
X123597511Y-134798499D02*
X124174861Y-135131832D01*
X123148549Y-134814219D02*
X123648091Y-135377559D01*
X123648091Y-135377559D02*
X123957615Y-134841448D01*
X123808836Y-133765807D02*
X123570741Y-134178200D01*
X123570741Y-134178200D02*
X123959324Y-134457534D01*
X123959324Y-134457534D02*
X123941894Y-134392486D01*
X123941894Y-134392486D02*
X123948274Y-134286197D01*
X123948274Y-134286197D02*
X124067322Y-134080001D01*
X124067322Y-134080001D02*
X124156180Y-134021332D01*
X124156180Y-134021332D02*
X124221229Y-134003902D01*
X124221229Y-134003902D02*
X124327517Y-134010282D01*
X124327517Y-134010282D02*
X124533714Y-134129329D01*
X124533714Y-134129329D02*
X124592383Y-134218188D01*
X124592383Y-134218188D02*
X124609812Y-134283237D01*
X124609812Y-134283237D02*
X124603433Y-134389525D01*
X124603433Y-134389525D02*
X124484385Y-134595721D01*
X124484385Y-134595721D02*
X124395527Y-134654390D01*
X124395527Y-134654390D02*
X124330478Y-134671820D01*
X132122806Y-77048243D02*
X132988831Y-76548243D01*
X132988831Y-76548243D02*
X133107879Y-76754439D01*
X133107879Y-76754439D02*
X133138068Y-76901967D01*
X133138068Y-76901967D02*
X133103208Y-77032064D01*
X133103208Y-77032064D02*
X133044539Y-77120923D01*
X133044539Y-77120923D02*
X132903392Y-77257400D01*
X132903392Y-77257400D02*
X132779674Y-77328829D01*
X132779674Y-77328829D02*
X132590907Y-77382827D01*
X132590907Y-77382827D02*
X132484619Y-77389207D01*
X132484619Y-77389207D02*
X132354521Y-77354348D01*
X132354521Y-77354348D02*
X132241853Y-77254439D01*
X132241853Y-77254439D02*
X132122806Y-77048243D01*
X133382543Y-77420648D02*
X133447592Y-77438078D01*
X133447592Y-77438078D02*
X133536450Y-77496747D01*
X133536450Y-77496747D02*
X133655498Y-77702943D01*
X133655498Y-77702943D02*
X133661878Y-77809231D01*
X133661878Y-77809231D02*
X133644448Y-77874280D01*
X133644448Y-77874280D02*
X133585779Y-77963139D01*
X133585779Y-77963139D02*
X133503300Y-78010758D01*
X133503300Y-78010758D02*
X133355773Y-78040947D01*
X133355773Y-78040947D02*
X132575187Y-77831790D01*
X132575187Y-77831790D02*
X132884711Y-78367900D01*
X133917403Y-78156576D02*
X134250736Y-78733926D01*
X134250736Y-78733926D02*
X133170425Y-78862772D01*
X127298243Y-118377193D02*
X126798243Y-117511168D01*
X126798243Y-117511168D02*
X127004439Y-117392120D01*
X127004439Y-117392120D02*
X127151967Y-117361931D01*
X127151967Y-117361931D02*
X127282064Y-117396791D01*
X127282064Y-117396791D02*
X127370923Y-117455460D01*
X127370923Y-117455460D02*
X127507400Y-117596607D01*
X127507400Y-117596607D02*
X127578829Y-117720325D01*
X127578829Y-117720325D02*
X127632827Y-117909092D01*
X127632827Y-117909092D02*
X127639207Y-118015380D01*
X127639207Y-118015380D02*
X127604348Y-118145478D01*
X127604348Y-118145478D02*
X127504439Y-118258146D01*
X127504439Y-118258146D02*
X127298243Y-118377193D01*
X127670648Y-117117456D02*
X127688078Y-117052407D01*
X127688078Y-117052407D02*
X127746747Y-116963549D01*
X127746747Y-116963549D02*
X127952943Y-116844501D01*
X127952943Y-116844501D02*
X128059231Y-116838121D01*
X128059231Y-116838121D02*
X128124280Y-116855551D01*
X128124280Y-116855551D02*
X128213139Y-116914220D01*
X128213139Y-116914220D02*
X128260758Y-116996699D01*
X128260758Y-116996699D02*
X128290947Y-117144226D01*
X128290947Y-117144226D02*
X128081790Y-117924812D01*
X128081790Y-117924812D02*
X128617900Y-117615288D01*
X129442687Y-117139098D02*
X128947815Y-117424812D01*
X129195251Y-117281955D02*
X128695251Y-116415930D01*
X128695251Y-116415930D02*
X128684201Y-116587267D01*
X128684201Y-116587267D02*
X128649341Y-116717364D01*
X128649341Y-116717364D02*
X128590672Y-116806223D01*
X158887380Y-141110513D02*
X159872187Y-140936865D01*
X159872187Y-140936865D02*
X159913532Y-141171343D01*
X159913532Y-141171343D02*
X159891443Y-141320299D01*
X159891443Y-141320299D02*
X159814190Y-141430628D01*
X159814190Y-141430628D02*
X159728668Y-141494061D01*
X159728668Y-141494061D02*
X159549354Y-141574033D01*
X159549354Y-141574033D02*
X159408668Y-141598840D01*
X159408668Y-141598840D02*
X159212816Y-141585020D01*
X159212816Y-141585020D02*
X159110756Y-141554662D01*
X159110756Y-141554662D02*
X159000427Y-141477409D01*
X159000427Y-141477409D02*
X158928724Y-141344991D01*
X158928724Y-141344991D02*
X158887380Y-141110513D01*
X160128525Y-142390629D02*
X160045836Y-141921673D01*
X160045836Y-141921673D02*
X159568611Y-141957467D01*
X159568611Y-141957467D02*
X159623775Y-141996093D01*
X159623775Y-141996093D02*
X159687209Y-142081615D01*
X159687209Y-142081615D02*
X159728553Y-142316093D01*
X159728553Y-142316093D02*
X159698196Y-142418154D01*
X159698196Y-142418154D02*
X159659569Y-142473318D01*
X159659569Y-142473318D02*
X159574047Y-142536752D01*
X159574047Y-142536752D02*
X159339569Y-142578097D01*
X159339569Y-142578097D02*
X159237509Y-142547739D01*
X159237509Y-142547739D02*
X159182344Y-142509112D01*
X159182344Y-142509112D02*
X159118911Y-142423590D01*
X159118911Y-142423590D02*
X159077566Y-142189112D01*
X159077566Y-142189112D02*
X159107923Y-142087052D01*
X159107923Y-142087052D02*
X159146550Y-142031887D01*
X160244291Y-143047167D02*
X160260829Y-143140958D01*
X160260829Y-143140958D02*
X160230471Y-143243019D01*
X160230471Y-143243019D02*
X160191844Y-143298183D01*
X160191844Y-143298183D02*
X160106322Y-143361617D01*
X160106322Y-143361617D02*
X159927009Y-143441588D01*
X159927009Y-143441588D02*
X159692530Y-143482933D01*
X159692530Y-143482933D02*
X159496679Y-143469113D01*
X159496679Y-143469113D02*
X159394619Y-143438755D01*
X159394619Y-143438755D02*
X159339454Y-143400129D01*
X159339454Y-143400129D02*
X159276021Y-143314607D01*
X159276021Y-143314607D02*
X159259483Y-143220815D01*
X159259483Y-143220815D02*
X159289841Y-143118755D01*
X159289841Y-143118755D02*
X159328467Y-143063591D01*
X159328467Y-143063591D02*
X159413989Y-143000157D01*
X159413989Y-143000157D02*
X159593303Y-142920186D01*
X159593303Y-142920186D02*
X159827781Y-142878841D01*
X159827781Y-142878841D02*
X160023632Y-142892661D01*
X160023632Y-142892661D02*
X160125693Y-142923018D01*
X160125693Y-142923018D02*
X160180857Y-142961645D01*
X160180857Y-142961645D02*
X160244291Y-143047167D01*
X135012907Y-124764139D02*
X134146882Y-124264139D01*
X134146882Y-124264139D02*
X134265930Y-124057943D01*
X134265930Y-124057943D02*
X134378598Y-123958034D01*
X134378598Y-123958034D02*
X134508695Y-123923175D01*
X134508695Y-123923175D02*
X134614983Y-123929555D01*
X134614983Y-123929555D02*
X134803750Y-123983553D01*
X134803750Y-123983553D02*
X134927468Y-124054982D01*
X134927468Y-124054982D02*
X135068616Y-124191459D01*
X135068616Y-124191459D02*
X135127285Y-124280318D01*
X135127285Y-124280318D02*
X135162144Y-124410415D01*
X135162144Y-124410415D02*
X135131955Y-124557943D01*
X135131955Y-124557943D02*
X135012907Y-124764139D01*
X134705551Y-123486972D02*
X134688121Y-123421923D01*
X134688121Y-123421923D02*
X134694501Y-123315635D01*
X134694501Y-123315635D02*
X134813549Y-123109439D01*
X134813549Y-123109439D02*
X134902407Y-123050770D01*
X134902407Y-123050770D02*
X134967456Y-123033340D01*
X134967456Y-123033340D02*
X135073744Y-123039720D01*
X135073744Y-123039720D02*
X135156223Y-123087339D01*
X135156223Y-123087339D02*
X135256131Y-123200007D01*
X135256131Y-123200007D02*
X135465288Y-123980593D01*
X135465288Y-123980593D02*
X135774812Y-123444482D01*
X135218311Y-122408371D02*
X135265930Y-122325892D01*
X135265930Y-122325892D02*
X135354788Y-122267223D01*
X135354788Y-122267223D02*
X135419837Y-122249793D01*
X135419837Y-122249793D02*
X135526125Y-122256173D01*
X135526125Y-122256173D02*
X135714892Y-122310172D01*
X135714892Y-122310172D02*
X135921088Y-122429219D01*
X135921088Y-122429219D02*
X136062236Y-122565697D01*
X136062236Y-122565697D02*
X136120905Y-122654555D01*
X136120905Y-122654555D02*
X136138335Y-122719604D01*
X136138335Y-122719604D02*
X136131955Y-122825892D01*
X136131955Y-122825892D02*
X136084336Y-122908371D01*
X136084336Y-122908371D02*
X135995478Y-122967040D01*
X135995478Y-122967040D02*
X135930429Y-122984469D01*
X135930429Y-122984469D02*
X135824141Y-122978090D01*
X135824141Y-122978090D02*
X135635374Y-122924091D01*
X135635374Y-122924091D02*
X135429177Y-122805043D01*
X135429177Y-122805043D02*
X135288030Y-122668566D01*
X135288030Y-122668566D02*
X135229361Y-122579708D01*
X135229361Y-122579708D02*
X135211931Y-122514659D01*
X135211931Y-122514659D02*
X135218311Y-122408371D01*
X183422375Y-125867689D02*
X184065162Y-125101645D01*
X184065162Y-125101645D02*
X184247554Y-125254689D01*
X184247554Y-125254689D02*
X184326380Y-125382995D01*
X184326380Y-125382995D02*
X184338118Y-125517169D01*
X184338118Y-125517169D02*
X184313379Y-125620735D01*
X184313379Y-125620735D02*
X184227421Y-125797257D01*
X184227421Y-125797257D02*
X184135595Y-125906692D01*
X184135595Y-125906692D02*
X183976681Y-126021996D01*
X183976681Y-126021996D02*
X183878984Y-126064344D01*
X183878984Y-126064344D02*
X183744810Y-126076082D01*
X183744810Y-126076082D02*
X183604766Y-126020734D01*
X183604766Y-126020734D02*
X183422375Y-125867689D01*
X185195990Y-126050522D02*
X184831207Y-125744432D01*
X184831207Y-125744432D02*
X184488639Y-126078607D01*
X184488639Y-126078607D02*
X184555726Y-126072737D01*
X184555726Y-126072737D02*
X184659292Y-126097477D01*
X184659292Y-126097477D02*
X184841683Y-126250521D01*
X184841683Y-126250521D02*
X184884031Y-126348218D01*
X184884031Y-126348218D02*
X184889900Y-126415305D01*
X184889900Y-126415305D02*
X184865161Y-126518870D01*
X184865161Y-126518870D02*
X184712116Y-126701262D01*
X184712116Y-126701262D02*
X184614420Y-126743610D01*
X184614420Y-126743610D02*
X184547333Y-126749479D01*
X184547333Y-126749479D02*
X184443767Y-126724739D01*
X184443767Y-126724739D02*
X184261376Y-126571695D01*
X184261376Y-126571695D02*
X184219028Y-126473999D01*
X184219028Y-126473999D02*
X184213159Y-126406911D01*
X185674815Y-126887440D02*
X185246290Y-127398136D01*
X185737295Y-126442569D02*
X185095769Y-126836698D01*
X185095769Y-126836698D02*
X185569987Y-127234615D01*
X127760575Y-138831447D02*
X126894550Y-138331447D01*
X126894550Y-138331447D02*
X127013598Y-138125251D01*
X127013598Y-138125251D02*
X127126266Y-138025342D01*
X127126266Y-138025342D02*
X127256363Y-137990483D01*
X127256363Y-137990483D02*
X127362651Y-137996863D01*
X127362651Y-137996863D02*
X127551418Y-138050861D01*
X127551418Y-138050861D02*
X127675136Y-138122290D01*
X127675136Y-138122290D02*
X127816284Y-138258767D01*
X127816284Y-138258767D02*
X127874953Y-138347626D01*
X127874953Y-138347626D02*
X127909812Y-138477723D01*
X127909812Y-138477723D02*
X127879623Y-138625251D01*
X127879623Y-138625251D02*
X127760575Y-138831447D01*
X127897511Y-137260935D02*
X128474861Y-137594268D01*
X127448549Y-137276655D02*
X127948091Y-137839995D01*
X127948091Y-137839995D02*
X128257615Y-137303884D01*
X128085026Y-136269482D02*
X127989788Y-136434439D01*
X127989788Y-136434439D02*
X127983408Y-136540727D01*
X127983408Y-136540727D02*
X128000838Y-136605776D01*
X128000838Y-136605776D02*
X128076937Y-136759683D01*
X128076937Y-136759683D02*
X128218085Y-136896161D01*
X128218085Y-136896161D02*
X128547999Y-137086637D01*
X128547999Y-137086637D02*
X128654287Y-137093017D01*
X128654287Y-137093017D02*
X128719336Y-137075587D01*
X128719336Y-137075587D02*
X128808195Y-137016918D01*
X128808195Y-137016918D02*
X128903433Y-136851961D01*
X128903433Y-136851961D02*
X128909812Y-136745673D01*
X128909812Y-136745673D02*
X128892383Y-136680624D01*
X128892383Y-136680624D02*
X128833714Y-136591765D01*
X128833714Y-136591765D02*
X128627517Y-136472718D01*
X128627517Y-136472718D02*
X128521229Y-136466338D01*
X128521229Y-136466338D02*
X128456180Y-136483768D01*
X128456180Y-136483768D02*
X128367322Y-136542437D01*
X128367322Y-136542437D02*
X128272084Y-136707394D01*
X128272084Y-136707394D02*
X128265704Y-136813682D01*
X128265704Y-136813682D02*
X128283134Y-136878731D01*
X128283134Y-136878731D02*
X128341803Y-136967589D01*
X172158632Y-135928372D02*
X173024657Y-135428372D01*
X173024657Y-135428372D02*
X173143705Y-135634568D01*
X173143705Y-135634568D02*
X173173894Y-135782096D01*
X173173894Y-135782096D02*
X173139034Y-135912193D01*
X173139034Y-135912193D02*
X173080365Y-136001052D01*
X173080365Y-136001052D02*
X172939218Y-136137529D01*
X172939218Y-136137529D02*
X172815500Y-136208958D01*
X172815500Y-136208958D02*
X172626733Y-136262956D01*
X172626733Y-136262956D02*
X172520445Y-136269336D01*
X172520445Y-136269336D02*
X172390347Y-136234477D01*
X172390347Y-136234477D02*
X172277679Y-136134568D01*
X172277679Y-136134568D02*
X172158632Y-135928372D01*
X173762752Y-136706790D02*
X173524657Y-136294397D01*
X173524657Y-136294397D02*
X173088455Y-136491253D01*
X173088455Y-136491253D02*
X173153503Y-136508683D01*
X173153503Y-136508683D02*
X173242362Y-136567352D01*
X173242362Y-136567352D02*
X173361409Y-136773548D01*
X173361409Y-136773548D02*
X173367789Y-136879837D01*
X173367789Y-136879837D02*
X173350359Y-136944885D01*
X173350359Y-136944885D02*
X173291690Y-137033744D01*
X173291690Y-137033744D02*
X173085494Y-137152791D01*
X173085494Y-137152791D02*
X172979206Y-137159171D01*
X172979206Y-137159171D02*
X172914157Y-137141741D01*
X172914157Y-137141741D02*
X172825298Y-137083072D01*
X172825298Y-137083072D02*
X172706251Y-136876876D01*
X172706251Y-136876876D02*
X172699871Y-136770588D01*
X172699871Y-136770588D02*
X172717301Y-136705539D01*
X173894560Y-137125563D02*
X173959608Y-137142993D01*
X173959608Y-137142993D02*
X174048467Y-137201662D01*
X174048467Y-137201662D02*
X174167514Y-137407858D01*
X174167514Y-137407858D02*
X174173894Y-137514147D01*
X174173894Y-137514147D02*
X174156464Y-137579195D01*
X174156464Y-137579195D02*
X174097795Y-137668054D01*
X174097795Y-137668054D02*
X174015317Y-137715673D01*
X174015317Y-137715673D02*
X173867789Y-137745862D01*
X173867789Y-137745862D02*
X173087203Y-137536705D01*
X173087203Y-137536705D02*
X173396727Y-138072816D01*
X122273424Y-90686741D02*
X122773424Y-89820716D01*
X122773424Y-89820716D02*
X122979620Y-89939764D01*
X122979620Y-89939764D02*
X123079529Y-90052432D01*
X123079529Y-90052432D02*
X123114388Y-90182529D01*
X123114388Y-90182529D02*
X123108008Y-90288817D01*
X123108008Y-90288817D02*
X123054010Y-90477584D01*
X123054010Y-90477584D02*
X122982581Y-90601302D01*
X122982581Y-90601302D02*
X122846104Y-90742450D01*
X122846104Y-90742450D02*
X122757245Y-90801119D01*
X122757245Y-90801119D02*
X122627148Y-90835978D01*
X122627148Y-90835978D02*
X122479620Y-90805789D01*
X122479620Y-90805789D02*
X122273424Y-90686741D01*
X123550591Y-90379385D02*
X123615640Y-90361955D01*
X123615640Y-90361955D02*
X123721928Y-90368335D01*
X123721928Y-90368335D02*
X123928124Y-90487383D01*
X123928124Y-90487383D02*
X123986793Y-90576241D01*
X123986793Y-90576241D02*
X124004223Y-90641290D01*
X124004223Y-90641290D02*
X123997843Y-90747578D01*
X123997843Y-90747578D02*
X123950224Y-90830057D01*
X123950224Y-90830057D02*
X123837556Y-90929965D01*
X123837556Y-90929965D02*
X123056970Y-91139122D01*
X123056970Y-91139122D02*
X123593081Y-91448646D01*
X124876628Y-91035002D02*
X124464235Y-90796907D01*
X124464235Y-90796907D02*
X124184901Y-91185490D01*
X124184901Y-91185490D02*
X124249949Y-91168060D01*
X124249949Y-91168060D02*
X124356238Y-91174440D01*
X124356238Y-91174440D02*
X124562434Y-91293488D01*
X124562434Y-91293488D02*
X124621103Y-91382346D01*
X124621103Y-91382346D02*
X124638533Y-91447395D01*
X124638533Y-91447395D02*
X124632153Y-91553683D01*
X124632153Y-91553683D02*
X124513106Y-91759880D01*
X124513106Y-91759880D02*
X124424247Y-91818549D01*
X124424247Y-91818549D02*
X124359198Y-91835978D01*
X124359198Y-91835978D02*
X124252910Y-91829599D01*
X124252910Y-91829599D02*
X124046714Y-91710551D01*
X124046714Y-91710551D02*
X123988045Y-91621693D01*
X123988045Y-91621693D02*
X123970615Y-91556644D01*
X113192282Y-125734738D02*
X112549494Y-124968694D01*
X112549494Y-124968694D02*
X112731886Y-124815649D01*
X112731886Y-124815649D02*
X112871929Y-124760300D01*
X112871929Y-124760300D02*
X113006104Y-124772039D01*
X113006104Y-124772039D02*
X113103800Y-124814387D01*
X113103800Y-124814387D02*
X113262714Y-124929691D01*
X113262714Y-124929691D02*
X113354541Y-125039126D01*
X113354541Y-125039126D02*
X113440498Y-125215648D01*
X113440498Y-125215648D02*
X113465238Y-125319214D01*
X113465238Y-125319214D02*
X113453499Y-125453388D01*
X113453499Y-125453388D02*
X113374673Y-125581693D01*
X113374673Y-125581693D02*
X113192282Y-125734738D01*
X113858106Y-124305774D02*
X114286631Y-124816470D01*
X113430843Y-124166992D02*
X113707585Y-124867211D01*
X113707585Y-124867211D02*
X114181803Y-124469295D01*
X113972148Y-123774945D02*
X114446366Y-123377029D01*
X114446366Y-123377029D02*
X114435889Y-123883118D01*
X114435889Y-123883118D02*
X114545324Y-123791291D01*
X114545324Y-123791291D02*
X114648890Y-123766552D01*
X114648890Y-123766552D02*
X114715977Y-123772421D01*
X114715977Y-123772421D02*
X114813673Y-123814769D01*
X114813673Y-123814769D02*
X114966718Y-123997160D01*
X114966718Y-123997160D02*
X114991458Y-124100726D01*
X114991458Y-124100726D02*
X114985588Y-124167813D01*
X114985588Y-124167813D02*
X114943240Y-124265509D01*
X114943240Y-124265509D02*
X114724371Y-124449163D01*
X114724371Y-124449163D02*
X114620805Y-124473902D01*
X114620805Y-124473902D02*
X114553718Y-124468033D01*
X124680862Y-86327081D02*
X125180862Y-85461056D01*
X125180862Y-85461056D02*
X125387058Y-85580104D01*
X125387058Y-85580104D02*
X125486967Y-85692772D01*
X125486967Y-85692772D02*
X125521826Y-85822869D01*
X125521826Y-85822869D02*
X125515446Y-85929157D01*
X125515446Y-85929157D02*
X125461448Y-86117924D01*
X125461448Y-86117924D02*
X125390019Y-86241642D01*
X125390019Y-86241642D02*
X125253542Y-86382790D01*
X125253542Y-86382790D02*
X125164683Y-86441459D01*
X125164683Y-86441459D02*
X125034586Y-86476318D01*
X125034586Y-86476318D02*
X124887058Y-86446129D01*
X124887058Y-86446129D02*
X124680862Y-86327081D01*
X125958029Y-86019725D02*
X126023078Y-86002295D01*
X126023078Y-86002295D02*
X126129366Y-86008675D01*
X126129366Y-86008675D02*
X126335562Y-86127723D01*
X126335562Y-86127723D02*
X126394231Y-86216581D01*
X126394231Y-86216581D02*
X126411661Y-86281630D01*
X126411661Y-86281630D02*
X126405281Y-86387918D01*
X126405281Y-86387918D02*
X126357662Y-86470397D01*
X126357662Y-86470397D02*
X126244994Y-86570305D01*
X126244994Y-86570305D02*
X125464408Y-86779462D01*
X125464408Y-86779462D02*
X126000519Y-87088986D01*
X127242827Y-86651532D02*
X127077870Y-86556294D01*
X127077870Y-86556294D02*
X126971582Y-86549914D01*
X126971582Y-86549914D02*
X126906533Y-86567344D01*
X126906533Y-86567344D02*
X126752626Y-86643443D01*
X126752626Y-86643443D02*
X126616148Y-86784591D01*
X126616148Y-86784591D02*
X126425672Y-87114505D01*
X126425672Y-87114505D02*
X126419292Y-87220793D01*
X126419292Y-87220793D02*
X126436722Y-87285842D01*
X126436722Y-87285842D02*
X126495391Y-87374701D01*
X126495391Y-87374701D02*
X126660348Y-87469939D01*
X126660348Y-87469939D02*
X126766636Y-87476318D01*
X126766636Y-87476318D02*
X126831685Y-87458889D01*
X126831685Y-87458889D02*
X126920544Y-87400220D01*
X126920544Y-87400220D02*
X127039591Y-87194023D01*
X127039591Y-87194023D02*
X127045971Y-87087735D01*
X127045971Y-87087735D02*
X127028541Y-87022686D01*
X127028541Y-87022686D02*
X126969872Y-86933828D01*
X126969872Y-86933828D02*
X126804915Y-86838590D01*
X126804915Y-86838590D02*
X126698627Y-86832210D01*
X126698627Y-86832210D02*
X126633578Y-86849640D01*
X126633578Y-86849640D02*
X126544720Y-86908309D01*
X121285714Y-99454819D02*
X121285714Y-98454819D01*
X121285714Y-98454819D02*
X121523809Y-98454819D01*
X121523809Y-98454819D02*
X121666666Y-98502438D01*
X121666666Y-98502438D02*
X121761904Y-98597676D01*
X121761904Y-98597676D02*
X121809523Y-98692914D01*
X121809523Y-98692914D02*
X121857142Y-98883390D01*
X121857142Y-98883390D02*
X121857142Y-99026247D01*
X121857142Y-99026247D02*
X121809523Y-99216723D01*
X121809523Y-99216723D02*
X121761904Y-99311961D01*
X121761904Y-99311961D02*
X121666666Y-99407200D01*
X121666666Y-99407200D02*
X121523809Y-99454819D01*
X121523809Y-99454819D02*
X121285714Y-99454819D01*
X122238095Y-98550057D02*
X122285714Y-98502438D01*
X122285714Y-98502438D02*
X122380952Y-98454819D01*
X122380952Y-98454819D02*
X122619047Y-98454819D01*
X122619047Y-98454819D02*
X122714285Y-98502438D01*
X122714285Y-98502438D02*
X122761904Y-98550057D01*
X122761904Y-98550057D02*
X122809523Y-98645295D01*
X122809523Y-98645295D02*
X122809523Y-98740533D01*
X122809523Y-98740533D02*
X122761904Y-98883390D01*
X122761904Y-98883390D02*
X122190476Y-99454819D01*
X122190476Y-99454819D02*
X122809523Y-99454819D01*
X123666666Y-98788152D02*
X123666666Y-99454819D01*
X123428571Y-98407200D02*
X123190476Y-99121485D01*
X123190476Y-99121485D02*
X123809523Y-99121485D01*
X149774819Y-128814285D02*
X148774819Y-128814285D01*
X148774819Y-128814285D02*
X148774819Y-128576190D01*
X148774819Y-128576190D02*
X148822438Y-128433333D01*
X148822438Y-128433333D02*
X148917676Y-128338095D01*
X148917676Y-128338095D02*
X149012914Y-128290476D01*
X149012914Y-128290476D02*
X149203390Y-128242857D01*
X149203390Y-128242857D02*
X149346247Y-128242857D01*
X149346247Y-128242857D02*
X149536723Y-128290476D01*
X149536723Y-128290476D02*
X149631961Y-128338095D01*
X149631961Y-128338095D02*
X149727200Y-128433333D01*
X149727200Y-128433333D02*
X149774819Y-128576190D01*
X149774819Y-128576190D02*
X149774819Y-128814285D01*
X149774819Y-127290476D02*
X149774819Y-127861904D01*
X149774819Y-127576190D02*
X148774819Y-127576190D01*
X148774819Y-127576190D02*
X148917676Y-127671428D01*
X148917676Y-127671428D02*
X149012914Y-127766666D01*
X149012914Y-127766666D02*
X149060533Y-127861904D01*
X149203390Y-126719047D02*
X149155771Y-126814285D01*
X149155771Y-126814285D02*
X149108152Y-126861904D01*
X149108152Y-126861904D02*
X149012914Y-126909523D01*
X149012914Y-126909523D02*
X148965295Y-126909523D01*
X148965295Y-126909523D02*
X148870057Y-126861904D01*
X148870057Y-126861904D02*
X148822438Y-126814285D01*
X148822438Y-126814285D02*
X148774819Y-126719047D01*
X148774819Y-126719047D02*
X148774819Y-126528571D01*
X148774819Y-126528571D02*
X148822438Y-126433333D01*
X148822438Y-126433333D02*
X148870057Y-126385714D01*
X148870057Y-126385714D02*
X148965295Y-126338095D01*
X148965295Y-126338095D02*
X149012914Y-126338095D01*
X149012914Y-126338095D02*
X149108152Y-126385714D01*
X149108152Y-126385714D02*
X149155771Y-126433333D01*
X149155771Y-126433333D02*
X149203390Y-126528571D01*
X149203390Y-126528571D02*
X149203390Y-126719047D01*
X149203390Y-126719047D02*
X149251009Y-126814285D01*
X149251009Y-126814285D02*
X149298628Y-126861904D01*
X149298628Y-126861904D02*
X149393866Y-126909523D01*
X149393866Y-126909523D02*
X149584342Y-126909523D01*
X149584342Y-126909523D02*
X149679580Y-126861904D01*
X149679580Y-126861904D02*
X149727200Y-126814285D01*
X149727200Y-126814285D02*
X149774819Y-126719047D01*
X149774819Y-126719047D02*
X149774819Y-126528571D01*
X149774819Y-126528571D02*
X149727200Y-126433333D01*
X149727200Y-126433333D02*
X149679580Y-126385714D01*
X149679580Y-126385714D02*
X149584342Y-126338095D01*
X149584342Y-126338095D02*
X149393866Y-126338095D01*
X149393866Y-126338095D02*
X149298628Y-126385714D01*
X149298628Y-126385714D02*
X149251009Y-126433333D01*
X149251009Y-126433333D02*
X149203390Y-126528571D01*
X126625138Y-62053371D02*
X127491163Y-61553371D01*
X127491163Y-61553371D02*
X127610211Y-61759567D01*
X127610211Y-61759567D02*
X127640400Y-61907095D01*
X127640400Y-61907095D02*
X127605540Y-62037192D01*
X127605540Y-62037192D02*
X127546871Y-62126051D01*
X127546871Y-62126051D02*
X127405724Y-62262528D01*
X127405724Y-62262528D02*
X127282006Y-62333957D01*
X127282006Y-62333957D02*
X127093239Y-62387955D01*
X127093239Y-62387955D02*
X126986951Y-62394335D01*
X126986951Y-62394335D02*
X126856853Y-62359476D01*
X126856853Y-62359476D02*
X126744185Y-62259567D01*
X126744185Y-62259567D02*
X126625138Y-62053371D01*
X127943544Y-62336918D02*
X128253068Y-62873028D01*
X128253068Y-62873028D02*
X127756487Y-62774830D01*
X127756487Y-62774830D02*
X127827915Y-62898547D01*
X127827915Y-62898547D02*
X127834295Y-63004836D01*
X127834295Y-63004836D02*
X127816865Y-63069884D01*
X127816865Y-63069884D02*
X127758196Y-63158743D01*
X127758196Y-63158743D02*
X127552000Y-63277790D01*
X127552000Y-63277790D02*
X127445712Y-63284170D01*
X127445712Y-63284170D02*
X127380663Y-63266740D01*
X127380663Y-63266740D02*
X127291804Y-63208071D01*
X127291804Y-63208071D02*
X127148947Y-62960635D01*
X127148947Y-62960635D02*
X127142568Y-62854347D01*
X127142568Y-62854347D02*
X127159997Y-62789298D01*
X128392964Y-63782003D02*
X127815614Y-64115336D01*
X128603831Y-63385330D02*
X127866194Y-63536276D01*
X127866194Y-63536276D02*
X128175718Y-64072387D01*
X146133582Y-55317100D02*
X147118389Y-55143452D01*
X147118389Y-55143452D02*
X147159734Y-55377930D01*
X147159734Y-55377930D02*
X147137645Y-55526886D01*
X147137645Y-55526886D02*
X147060392Y-55637215D01*
X147060392Y-55637215D02*
X146974870Y-55700648D01*
X146974870Y-55700648D02*
X146795556Y-55780620D01*
X146795556Y-55780620D02*
X146654870Y-55805427D01*
X146654870Y-55805427D02*
X146459018Y-55791607D01*
X146459018Y-55791607D02*
X146356958Y-55761249D01*
X146356958Y-55761249D02*
X146246629Y-55683996D01*
X146246629Y-55683996D02*
X146174926Y-55551578D01*
X146174926Y-55551578D02*
X146133582Y-55317100D01*
X147275500Y-56034468D02*
X147382996Y-56644111D01*
X147382996Y-56644111D02*
X146949949Y-56381994D01*
X146949949Y-56381994D02*
X146974755Y-56522680D01*
X146974755Y-56522680D02*
X146944398Y-56624741D01*
X146944398Y-56624741D02*
X146905771Y-56679905D01*
X146905771Y-56679905D02*
X146820249Y-56743339D01*
X146820249Y-56743339D02*
X146585771Y-56784684D01*
X146585771Y-56784684D02*
X146483711Y-56754326D01*
X146483711Y-56754326D02*
X146428546Y-56715699D01*
X146428546Y-56715699D02*
X146365113Y-56630177D01*
X146365113Y-56630177D02*
X146315499Y-56348803D01*
X146315499Y-56348803D02*
X146345856Y-56246743D01*
X146345856Y-56246743D02*
X146384483Y-56191579D01*
X146563568Y-57755672D02*
X146464340Y-57192924D01*
X146513954Y-57474298D02*
X147498762Y-57300650D01*
X147498762Y-57300650D02*
X147341537Y-57231665D01*
X147341537Y-57231665D02*
X147231208Y-57154412D01*
X147231208Y-57154412D02*
X147167774Y-57068890D01*
X176385714Y-96134819D02*
X176385714Y-95134819D01*
X176385714Y-95134819D02*
X176623809Y-95134819D01*
X176623809Y-95134819D02*
X176766666Y-95182438D01*
X176766666Y-95182438D02*
X176861904Y-95277676D01*
X176861904Y-95277676D02*
X176909523Y-95372914D01*
X176909523Y-95372914D02*
X176957142Y-95563390D01*
X176957142Y-95563390D02*
X176957142Y-95706247D01*
X176957142Y-95706247D02*
X176909523Y-95896723D01*
X176909523Y-95896723D02*
X176861904Y-95991961D01*
X176861904Y-95991961D02*
X176766666Y-96087200D01*
X176766666Y-96087200D02*
X176623809Y-96134819D01*
X176623809Y-96134819D02*
X176385714Y-96134819D01*
X177909523Y-96134819D02*
X177338095Y-96134819D01*
X177623809Y-96134819D02*
X177623809Y-95134819D01*
X177623809Y-95134819D02*
X177528571Y-95277676D01*
X177528571Y-95277676D02*
X177433333Y-95372914D01*
X177433333Y-95372914D02*
X177338095Y-95420533D01*
X178861904Y-96134819D02*
X178290476Y-96134819D01*
X178576190Y-96134819D02*
X178576190Y-95134819D01*
X178576190Y-95134819D02*
X178480952Y-95277676D01*
X178480952Y-95277676D02*
X178385714Y-95372914D01*
X178385714Y-95372914D02*
X178290476Y-95420533D01*
X189136978Y-84117384D02*
X188794958Y-83177691D01*
X188794958Y-83177691D02*
X189018695Y-83096258D01*
X189018695Y-83096258D02*
X189169223Y-83092145D01*
X189169223Y-83092145D02*
X189291291Y-83149066D01*
X189291291Y-83149066D02*
X189368612Y-83222274D01*
X189368612Y-83222274D02*
X189478506Y-83384976D01*
X189478506Y-83384976D02*
X189527366Y-83519218D01*
X189527366Y-83519218D02*
X189547765Y-83714494D01*
X189547765Y-83714494D02*
X189535591Y-83820275D01*
X189535591Y-83820275D02*
X189478670Y-83942343D01*
X189478670Y-83942343D02*
X189360715Y-84035950D01*
X189360715Y-84035950D02*
X189136978Y-84117384D01*
X190137376Y-82689091D02*
X189958387Y-82754238D01*
X189958387Y-82754238D02*
X189885179Y-82831558D01*
X189885179Y-82831558D02*
X189856719Y-82892592D01*
X189856719Y-82892592D02*
X189816084Y-83059407D01*
X189816084Y-83059407D02*
X189836484Y-83254683D01*
X189836484Y-83254683D02*
X189966777Y-83612661D01*
X189966777Y-83612661D02*
X190044098Y-83685869D01*
X190044098Y-83685869D02*
X190105132Y-83714330D01*
X190105132Y-83714330D02*
X190210913Y-83726504D01*
X190210913Y-83726504D02*
X190389902Y-83661357D01*
X190389902Y-83661357D02*
X190463110Y-83584036D01*
X190463110Y-83584036D02*
X190491570Y-83523002D01*
X190491570Y-83523002D02*
X190503744Y-83417221D01*
X190503744Y-83417221D02*
X190422311Y-83193485D01*
X190422311Y-83193485D02*
X190344990Y-83120277D01*
X190344990Y-83120277D02*
X190283956Y-83091816D01*
X190283956Y-83091816D02*
X190178175Y-83079642D01*
X190178175Y-83079642D02*
X189999186Y-83144789D01*
X189999186Y-83144789D02*
X189925978Y-83222110D01*
X189925978Y-83222110D02*
X189897518Y-83283144D01*
X189897518Y-83283144D02*
X189885344Y-83388925D01*
X190808585Y-82444791D02*
X190898080Y-82412218D01*
X190898080Y-82412218D02*
X191003861Y-82424391D01*
X191003861Y-82424391D02*
X191064895Y-82452852D01*
X191064895Y-82452852D02*
X191142216Y-82526060D01*
X191142216Y-82526060D02*
X191252110Y-82688762D01*
X191252110Y-82688762D02*
X191333543Y-82912499D01*
X191333543Y-82912499D02*
X191353942Y-83107774D01*
X191353942Y-83107774D02*
X191341768Y-83213556D01*
X191341768Y-83213556D02*
X191313308Y-83274590D01*
X191313308Y-83274590D02*
X191240100Y-83351910D01*
X191240100Y-83351910D02*
X191150605Y-83384483D01*
X191150605Y-83384483D02*
X191044824Y-83372310D01*
X191044824Y-83372310D02*
X190983790Y-83343849D01*
X190983790Y-83343849D02*
X190906470Y-83270641D01*
X190906470Y-83270641D02*
X190796576Y-83107939D01*
X190796576Y-83107939D02*
X190715142Y-82884202D01*
X190715142Y-82884202D02*
X190694743Y-82688927D01*
X190694743Y-82688927D02*
X190706917Y-82583145D01*
X190706917Y-82583145D02*
X190735377Y-82522111D01*
X190735377Y-82522111D02*
X190808585Y-82444791D01*
X192385714Y-100524819D02*
X192385714Y-99524819D01*
X192385714Y-99524819D02*
X192623809Y-99524819D01*
X192623809Y-99524819D02*
X192766666Y-99572438D01*
X192766666Y-99572438D02*
X192861904Y-99667676D01*
X192861904Y-99667676D02*
X192909523Y-99762914D01*
X192909523Y-99762914D02*
X192957142Y-99953390D01*
X192957142Y-99953390D02*
X192957142Y-100096247D01*
X192957142Y-100096247D02*
X192909523Y-100286723D01*
X192909523Y-100286723D02*
X192861904Y-100381961D01*
X192861904Y-100381961D02*
X192766666Y-100477200D01*
X192766666Y-100477200D02*
X192623809Y-100524819D01*
X192623809Y-100524819D02*
X192385714Y-100524819D01*
X193861904Y-99524819D02*
X193385714Y-99524819D01*
X193385714Y-99524819D02*
X193338095Y-100001009D01*
X193338095Y-100001009D02*
X193385714Y-99953390D01*
X193385714Y-99953390D02*
X193480952Y-99905771D01*
X193480952Y-99905771D02*
X193719047Y-99905771D01*
X193719047Y-99905771D02*
X193814285Y-99953390D01*
X193814285Y-99953390D02*
X193861904Y-100001009D01*
X193861904Y-100001009D02*
X193909523Y-100096247D01*
X193909523Y-100096247D02*
X193909523Y-100334342D01*
X193909523Y-100334342D02*
X193861904Y-100429580D01*
X193861904Y-100429580D02*
X193814285Y-100477200D01*
X193814285Y-100477200D02*
X193719047Y-100524819D01*
X193719047Y-100524819D02*
X193480952Y-100524819D01*
X193480952Y-100524819D02*
X193385714Y-100477200D01*
X193385714Y-100477200D02*
X193338095Y-100429580D01*
X194480952Y-99953390D02*
X194385714Y-99905771D01*
X194385714Y-99905771D02*
X194338095Y-99858152D01*
X194338095Y-99858152D02*
X194290476Y-99762914D01*
X194290476Y-99762914D02*
X194290476Y-99715295D01*
X194290476Y-99715295D02*
X194338095Y-99620057D01*
X194338095Y-99620057D02*
X194385714Y-99572438D01*
X194385714Y-99572438D02*
X194480952Y-99524819D01*
X194480952Y-99524819D02*
X194671428Y-99524819D01*
X194671428Y-99524819D02*
X194766666Y-99572438D01*
X194766666Y-99572438D02*
X194814285Y-99620057D01*
X194814285Y-99620057D02*
X194861904Y-99715295D01*
X194861904Y-99715295D02*
X194861904Y-99762914D01*
X194861904Y-99762914D02*
X194814285Y-99858152D01*
X194814285Y-99858152D02*
X194766666Y-99905771D01*
X194766666Y-99905771D02*
X194671428Y-99953390D01*
X194671428Y-99953390D02*
X194480952Y-99953390D01*
X194480952Y-99953390D02*
X194385714Y-100001009D01*
X194385714Y-100001009D02*
X194338095Y-100048628D01*
X194338095Y-100048628D02*
X194290476Y-100143866D01*
X194290476Y-100143866D02*
X194290476Y-100334342D01*
X194290476Y-100334342D02*
X194338095Y-100429580D01*
X194338095Y-100429580D02*
X194385714Y-100477200D01*
X194385714Y-100477200D02*
X194480952Y-100524819D01*
X194480952Y-100524819D02*
X194671428Y-100524819D01*
X194671428Y-100524819D02*
X194766666Y-100477200D01*
X194766666Y-100477200D02*
X194814285Y-100429580D01*
X194814285Y-100429580D02*
X194861904Y-100334342D01*
X194861904Y-100334342D02*
X194861904Y-100143866D01*
X194861904Y-100143866D02*
X194814285Y-100048628D01*
X194814285Y-100048628D02*
X194766666Y-100001009D01*
X194766666Y-100001009D02*
X194671428Y-99953390D01*
X192385714Y-95384819D02*
X192385714Y-94384819D01*
X192385714Y-94384819D02*
X192623809Y-94384819D01*
X192623809Y-94384819D02*
X192766666Y-94432438D01*
X192766666Y-94432438D02*
X192861904Y-94527676D01*
X192861904Y-94527676D02*
X192909523Y-94622914D01*
X192909523Y-94622914D02*
X192957142Y-94813390D01*
X192957142Y-94813390D02*
X192957142Y-94956247D01*
X192957142Y-94956247D02*
X192909523Y-95146723D01*
X192909523Y-95146723D02*
X192861904Y-95241961D01*
X192861904Y-95241961D02*
X192766666Y-95337200D01*
X192766666Y-95337200D02*
X192623809Y-95384819D01*
X192623809Y-95384819D02*
X192385714Y-95384819D01*
X193861904Y-94384819D02*
X193385714Y-94384819D01*
X193385714Y-94384819D02*
X193338095Y-94861009D01*
X193338095Y-94861009D02*
X193385714Y-94813390D01*
X193385714Y-94813390D02*
X193480952Y-94765771D01*
X193480952Y-94765771D02*
X193719047Y-94765771D01*
X193719047Y-94765771D02*
X193814285Y-94813390D01*
X193814285Y-94813390D02*
X193861904Y-94861009D01*
X193861904Y-94861009D02*
X193909523Y-94956247D01*
X193909523Y-94956247D02*
X193909523Y-95194342D01*
X193909523Y-95194342D02*
X193861904Y-95289580D01*
X193861904Y-95289580D02*
X193814285Y-95337200D01*
X193814285Y-95337200D02*
X193719047Y-95384819D01*
X193719047Y-95384819D02*
X193480952Y-95384819D01*
X193480952Y-95384819D02*
X193385714Y-95337200D01*
X193385714Y-95337200D02*
X193338095Y-95289580D01*
X194242857Y-94384819D02*
X194909523Y-94384819D01*
X194909523Y-94384819D02*
X194480952Y-95384819D01*
X151134819Y-73138094D02*
X150134819Y-73138094D01*
X150134819Y-73138094D02*
X150134819Y-72899999D01*
X150134819Y-72899999D02*
X150182438Y-72757142D01*
X150182438Y-72757142D02*
X150277676Y-72661904D01*
X150277676Y-72661904D02*
X150372914Y-72614285D01*
X150372914Y-72614285D02*
X150563390Y-72566666D01*
X150563390Y-72566666D02*
X150706247Y-72566666D01*
X150706247Y-72566666D02*
X150896723Y-72614285D01*
X150896723Y-72614285D02*
X150991961Y-72661904D01*
X150991961Y-72661904D02*
X151087200Y-72757142D01*
X151087200Y-72757142D02*
X151134819Y-72899999D01*
X151134819Y-72899999D02*
X151134819Y-73138094D01*
X150134819Y-71709523D02*
X150134819Y-71899999D01*
X150134819Y-71899999D02*
X150182438Y-71995237D01*
X150182438Y-71995237D02*
X150230057Y-72042856D01*
X150230057Y-72042856D02*
X150372914Y-72138094D01*
X150372914Y-72138094D02*
X150563390Y-72185713D01*
X150563390Y-72185713D02*
X150944342Y-72185713D01*
X150944342Y-72185713D02*
X151039580Y-72138094D01*
X151039580Y-72138094D02*
X151087200Y-72090475D01*
X151087200Y-72090475D02*
X151134819Y-71995237D01*
X151134819Y-71995237D02*
X151134819Y-71804761D01*
X151134819Y-71804761D02*
X151087200Y-71709523D01*
X151087200Y-71709523D02*
X151039580Y-71661904D01*
X151039580Y-71661904D02*
X150944342Y-71614285D01*
X150944342Y-71614285D02*
X150706247Y-71614285D01*
X150706247Y-71614285D02*
X150611009Y-71661904D01*
X150611009Y-71661904D02*
X150563390Y-71709523D01*
X150563390Y-71709523D02*
X150515771Y-71804761D01*
X150515771Y-71804761D02*
X150515771Y-71995237D01*
X150515771Y-71995237D02*
X150563390Y-72090475D01*
X150563390Y-72090475D02*
X150611009Y-72138094D01*
X150611009Y-72138094D02*
X150706247Y-72185713D01*
X184388615Y-75169836D02*
X183745827Y-74403792D01*
X183745827Y-74403792D02*
X183928219Y-74250747D01*
X183928219Y-74250747D02*
X184068262Y-74195398D01*
X184068262Y-74195398D02*
X184202437Y-74207137D01*
X184202437Y-74207137D02*
X184300133Y-74249485D01*
X184300133Y-74249485D02*
X184459047Y-74364789D01*
X184459047Y-74364789D02*
X184550874Y-74474224D01*
X184550874Y-74474224D02*
X184636831Y-74650746D01*
X184636831Y-74650746D02*
X184661571Y-74754312D01*
X184661571Y-74754312D02*
X184649832Y-74888486D01*
X184649832Y-74888486D02*
X184571006Y-75016791D01*
X184571006Y-75016791D02*
X184388615Y-75169836D01*
X184840176Y-73485523D02*
X184694263Y-73607959D01*
X184694263Y-73607959D02*
X184651915Y-73705655D01*
X184651915Y-73705655D02*
X184646046Y-73772743D01*
X184646046Y-73772743D02*
X184664916Y-73943395D01*
X184664916Y-73943395D02*
X184750874Y-74119918D01*
X184750874Y-74119918D02*
X184995745Y-74411744D01*
X184995745Y-74411744D02*
X185093441Y-74454092D01*
X185093441Y-74454092D02*
X185160529Y-74459961D01*
X185160529Y-74459961D02*
X185264094Y-74435222D01*
X185264094Y-74435222D02*
X185410007Y-74312786D01*
X185410007Y-74312786D02*
X185452355Y-74215090D01*
X185452355Y-74215090D02*
X185458224Y-74148002D01*
X185458224Y-74148002D02*
X185433485Y-74044437D01*
X185433485Y-74044437D02*
X185280440Y-73862045D01*
X185280440Y-73862045D02*
X185182744Y-73819698D01*
X185182744Y-73819698D02*
X185115657Y-73813828D01*
X185115657Y-73813828D02*
X185012091Y-73838568D01*
X185012091Y-73838568D02*
X184866178Y-73961004D01*
X184866178Y-73961004D02*
X184823830Y-74058700D01*
X184823830Y-74058700D02*
X184817961Y-74125787D01*
X184817961Y-74125787D02*
X184842700Y-74229353D01*
X186285487Y-73578171D02*
X185847747Y-73945479D01*
X186066617Y-73761825D02*
X185423829Y-72995781D01*
X185423829Y-72995781D02*
X185442699Y-73166433D01*
X185442699Y-73166433D02*
X185430961Y-73300608D01*
X185430961Y-73300608D02*
X185388613Y-73398304D01*
X162239309Y-123285933D02*
X163105334Y-122785933D01*
X163105334Y-122785933D02*
X163224382Y-122992129D01*
X163224382Y-122992129D02*
X163254571Y-123139657D01*
X163254571Y-123139657D02*
X163219711Y-123269754D01*
X163219711Y-123269754D02*
X163161042Y-123358613D01*
X163161042Y-123358613D02*
X163019895Y-123495090D01*
X163019895Y-123495090D02*
X162896177Y-123566519D01*
X162896177Y-123566519D02*
X162707410Y-123620517D01*
X162707410Y-123620517D02*
X162601122Y-123626897D01*
X162601122Y-123626897D02*
X162471024Y-123592038D01*
X162471024Y-123592038D02*
X162358356Y-123492129D01*
X162358356Y-123492129D02*
X162239309Y-123285933D01*
X163001214Y-124605590D02*
X162715499Y-124110719D01*
X162858356Y-124358155D02*
X163724382Y-123858155D01*
X163724382Y-123858155D02*
X163553045Y-123847105D01*
X163553045Y-123847105D02*
X163422947Y-123812245D01*
X163422947Y-123812245D02*
X163334089Y-123753576D01*
X164295810Y-124847898D02*
X164200572Y-124682941D01*
X164200572Y-124682941D02*
X164111714Y-124624272D01*
X164111714Y-124624272D02*
X164046665Y-124606842D01*
X164046665Y-124606842D02*
X163875328Y-124595792D01*
X163875328Y-124595792D02*
X163686561Y-124649791D01*
X163686561Y-124649791D02*
X163356647Y-124840267D01*
X163356647Y-124840267D02*
X163297978Y-124929125D01*
X163297978Y-124929125D02*
X163280548Y-124994174D01*
X163280548Y-124994174D02*
X163286928Y-125100462D01*
X163286928Y-125100462D02*
X163382166Y-125265419D01*
X163382166Y-125265419D02*
X163471024Y-125324088D01*
X163471024Y-125324088D02*
X163536073Y-125341518D01*
X163536073Y-125341518D02*
X163642361Y-125335139D01*
X163642361Y-125335139D02*
X163848558Y-125216091D01*
X163848558Y-125216091D02*
X163907227Y-125127233D01*
X163907227Y-125127233D02*
X163924657Y-125062184D01*
X163924657Y-125062184D02*
X163918277Y-124955896D01*
X163918277Y-124955896D02*
X163823039Y-124790938D01*
X163823039Y-124790938D02*
X163734180Y-124732269D01*
X163734180Y-124732269D02*
X163669132Y-124714839D01*
X163669132Y-124714839D02*
X163562843Y-124721219D01*
X166625138Y-120803371D02*
X167491163Y-120303371D01*
X167491163Y-120303371D02*
X167610211Y-120509567D01*
X167610211Y-120509567D02*
X167640400Y-120657095D01*
X167640400Y-120657095D02*
X167605540Y-120787192D01*
X167605540Y-120787192D02*
X167546871Y-120876051D01*
X167546871Y-120876051D02*
X167405724Y-121012528D01*
X167405724Y-121012528D02*
X167282006Y-121083957D01*
X167282006Y-121083957D02*
X167093239Y-121137955D01*
X167093239Y-121137955D02*
X166986951Y-121144335D01*
X166986951Y-121144335D02*
X166856853Y-121109476D01*
X166856853Y-121109476D02*
X166744185Y-121009567D01*
X166744185Y-121009567D02*
X166625138Y-120803371D01*
X167387043Y-122123028D02*
X167101328Y-121628157D01*
X167244185Y-121875593D02*
X168110211Y-121375593D01*
X168110211Y-121375593D02*
X167938874Y-121364543D01*
X167938874Y-121364543D02*
X167808776Y-121329683D01*
X167808776Y-121329683D02*
X167719918Y-121271014D01*
X168705449Y-122406575D02*
X168467354Y-121994182D01*
X168467354Y-121994182D02*
X168031151Y-122191038D01*
X168031151Y-122191038D02*
X168096200Y-122208468D01*
X168096200Y-122208468D02*
X168185058Y-122267137D01*
X168185058Y-122267137D02*
X168304106Y-122473334D01*
X168304106Y-122473334D02*
X168310486Y-122579622D01*
X168310486Y-122579622D02*
X168293056Y-122644671D01*
X168293056Y-122644671D02*
X168234387Y-122733529D01*
X168234387Y-122733529D02*
X168028190Y-122852577D01*
X168028190Y-122852577D02*
X167921902Y-122858956D01*
X167921902Y-122858956D02*
X167856853Y-122841526D01*
X167856853Y-122841526D02*
X167767995Y-122782857D01*
X167767995Y-122782857D02*
X167648947Y-122576661D01*
X167648947Y-122576661D02*
X167642568Y-122470373D01*
X167642568Y-122470373D02*
X167659997Y-122405324D01*
X130825138Y-59515807D02*
X131691163Y-59015807D01*
X131691163Y-59015807D02*
X131810211Y-59222003D01*
X131810211Y-59222003D02*
X131840400Y-59369531D01*
X131840400Y-59369531D02*
X131805540Y-59499628D01*
X131805540Y-59499628D02*
X131746871Y-59588487D01*
X131746871Y-59588487D02*
X131605724Y-59724964D01*
X131605724Y-59724964D02*
X131482006Y-59796393D01*
X131482006Y-59796393D02*
X131293239Y-59850391D01*
X131293239Y-59850391D02*
X131186951Y-59856771D01*
X131186951Y-59856771D02*
X131056853Y-59821912D01*
X131056853Y-59821912D02*
X130944185Y-59722003D01*
X130944185Y-59722003D02*
X130825138Y-59515807D01*
X132143544Y-59799354D02*
X132453068Y-60335464D01*
X132453068Y-60335464D02*
X131956487Y-60237266D01*
X131956487Y-60237266D02*
X132027915Y-60360983D01*
X132027915Y-60360983D02*
X132034295Y-60467272D01*
X132034295Y-60467272D02*
X132016865Y-60532320D01*
X132016865Y-60532320D02*
X131958196Y-60621179D01*
X131958196Y-60621179D02*
X131752000Y-60740226D01*
X131752000Y-60740226D02*
X131645712Y-60746606D01*
X131645712Y-60746606D02*
X131580663Y-60729176D01*
X131580663Y-60729176D02*
X131491804Y-60670507D01*
X131491804Y-60670507D02*
X131348947Y-60423071D01*
X131348947Y-60423071D02*
X131342568Y-60316783D01*
X131342568Y-60316783D02*
X131359997Y-60251734D01*
X132619735Y-60624140D02*
X132929258Y-61160251D01*
X132929258Y-61160251D02*
X132432677Y-61062052D01*
X132432677Y-61062052D02*
X132504106Y-61185770D01*
X132504106Y-61185770D02*
X132510486Y-61292058D01*
X132510486Y-61292058D02*
X132493056Y-61357107D01*
X132493056Y-61357107D02*
X132434387Y-61445965D01*
X132434387Y-61445965D02*
X132228190Y-61565013D01*
X132228190Y-61565013D02*
X132121902Y-61571392D01*
X132121902Y-61571392D02*
X132056853Y-61553962D01*
X132056853Y-61553962D02*
X131967995Y-61495293D01*
X131967995Y-61495293D02*
X131825138Y-61247858D01*
X131825138Y-61247858D02*
X131818758Y-61141569D01*
X131818758Y-61141569D02*
X131836188Y-61076521D01*
X181282028Y-71423043D02*
X180639240Y-70656999D01*
X180639240Y-70656999D02*
X180821632Y-70503954D01*
X180821632Y-70503954D02*
X180961675Y-70448605D01*
X180961675Y-70448605D02*
X181095850Y-70460344D01*
X181095850Y-70460344D02*
X181193546Y-70502692D01*
X181193546Y-70502692D02*
X181352460Y-70617996D01*
X181352460Y-70617996D02*
X181444287Y-70727431D01*
X181444287Y-70727431D02*
X181530244Y-70903953D01*
X181530244Y-70903953D02*
X181554984Y-71007519D01*
X181554984Y-71007519D02*
X181543245Y-71141693D01*
X181543245Y-71141693D02*
X181464419Y-71269998D01*
X181464419Y-71269998D02*
X181282028Y-71423043D01*
X181733589Y-69738730D02*
X181587676Y-69861166D01*
X181587676Y-69861166D02*
X181545328Y-69958862D01*
X181545328Y-69958862D02*
X181539459Y-70025950D01*
X181539459Y-70025950D02*
X181558329Y-70196602D01*
X181558329Y-70196602D02*
X181644287Y-70373125D01*
X181644287Y-70373125D02*
X181889158Y-70664951D01*
X181889158Y-70664951D02*
X181986854Y-70707299D01*
X181986854Y-70707299D02*
X182053942Y-70713168D01*
X182053942Y-70713168D02*
X182157507Y-70688429D01*
X182157507Y-70688429D02*
X182303420Y-70565993D01*
X182303420Y-70565993D02*
X182345768Y-70468297D01*
X182345768Y-70468297D02*
X182351637Y-70401209D01*
X182351637Y-70401209D02*
X182326898Y-70297644D01*
X182326898Y-70297644D02*
X182173853Y-70115252D01*
X182173853Y-70115252D02*
X182076157Y-70072905D01*
X182076157Y-70072905D02*
X182009070Y-70067035D01*
X182009070Y-70067035D02*
X181905504Y-70091775D01*
X181905504Y-70091775D02*
X181759591Y-70214211D01*
X181759591Y-70214211D02*
X181717243Y-70311907D01*
X181717243Y-70311907D02*
X181711374Y-70378994D01*
X181711374Y-70378994D02*
X181736113Y-70482560D01*
X182159590Y-69505598D02*
X182165460Y-69438510D01*
X182165460Y-69438510D02*
X182207807Y-69340814D01*
X182207807Y-69340814D02*
X182390199Y-69187770D01*
X182390199Y-69187770D02*
X182493764Y-69163030D01*
X182493764Y-69163030D02*
X182560852Y-69168899D01*
X182560852Y-69168899D02*
X182658548Y-69211247D01*
X182658548Y-69211247D02*
X182719766Y-69284204D01*
X182719766Y-69284204D02*
X182775114Y-69424248D01*
X182775114Y-69424248D02*
X182704682Y-70229294D01*
X182704682Y-70229294D02*
X183178900Y-69831378D01*
X173303371Y-87624861D02*
X172803371Y-86758836D01*
X172803371Y-86758836D02*
X173009567Y-86639788D01*
X173009567Y-86639788D02*
X173157095Y-86609599D01*
X173157095Y-86609599D02*
X173287192Y-86644459D01*
X173287192Y-86644459D02*
X173376051Y-86703128D01*
X173376051Y-86703128D02*
X173512528Y-86844275D01*
X173512528Y-86844275D02*
X173583957Y-86967993D01*
X173583957Y-86967993D02*
X173637955Y-87156760D01*
X173637955Y-87156760D02*
X173644335Y-87263048D01*
X173644335Y-87263048D02*
X173609476Y-87393146D01*
X173609476Y-87393146D02*
X173509567Y-87505814D01*
X173509567Y-87505814D02*
X173303371Y-87624861D01*
X174623028Y-86862956D02*
X174128157Y-87148671D01*
X174375593Y-87005814D02*
X173875593Y-86139788D01*
X173875593Y-86139788D02*
X173864543Y-86311125D01*
X173864543Y-86311125D02*
X173829683Y-86441223D01*
X173829683Y-86441223D02*
X173771014Y-86530081D01*
X174659139Y-85687407D02*
X174741618Y-85639788D01*
X174741618Y-85639788D02*
X174847906Y-85633408D01*
X174847906Y-85633408D02*
X174912955Y-85650838D01*
X174912955Y-85650838D02*
X175001813Y-85709507D01*
X175001813Y-85709507D02*
X175138291Y-85850655D01*
X175138291Y-85850655D02*
X175257338Y-86056852D01*
X175257338Y-86056852D02*
X175311337Y-86245618D01*
X175311337Y-86245618D02*
X175317717Y-86351906D01*
X175317717Y-86351906D02*
X175300287Y-86416955D01*
X175300287Y-86416955D02*
X175241618Y-86505814D01*
X175241618Y-86505814D02*
X175159139Y-86553433D01*
X175159139Y-86553433D02*
X175052851Y-86559812D01*
X175052851Y-86559812D02*
X174987803Y-86542383D01*
X174987803Y-86542383D02*
X174898944Y-86483714D01*
X174898944Y-86483714D02*
X174762467Y-86342566D01*
X174762467Y-86342566D02*
X174643419Y-86136369D01*
X174643419Y-86136369D02*
X174589420Y-85947603D01*
X174589420Y-85947603D02*
X174583041Y-85841314D01*
X174583041Y-85841314D02*
X174600470Y-85776266D01*
X174600470Y-85776266D02*
X174659139Y-85687407D01*
X107444724Y-85823010D02*
X107786744Y-84883318D01*
X107786744Y-84883318D02*
X108010480Y-84964751D01*
X108010480Y-84964751D02*
X108128435Y-85058358D01*
X108128435Y-85058358D02*
X108185357Y-85180426D01*
X108185357Y-85180426D02*
X108197531Y-85286208D01*
X108197531Y-85286208D02*
X108177131Y-85481483D01*
X108177131Y-85481483D02*
X108128271Y-85615725D01*
X108128271Y-85615725D02*
X108018377Y-85778427D01*
X108018377Y-85778427D02*
X107941057Y-85851635D01*
X107941057Y-85851635D02*
X107818989Y-85908557D01*
X107818989Y-85908557D02*
X107668460Y-85904444D01*
X107668460Y-85904444D02*
X107444724Y-85823010D01*
X108636942Y-85192765D02*
X109218657Y-85404491D01*
X109218657Y-85404491D02*
X108775132Y-85648463D01*
X108775132Y-85648463D02*
X108909374Y-85697323D01*
X108909374Y-85697323D02*
X108982582Y-85774643D01*
X108982582Y-85774643D02*
X109011043Y-85835677D01*
X109011043Y-85835677D02*
X109023216Y-85941459D01*
X109023216Y-85941459D02*
X108941783Y-86165195D01*
X108941783Y-86165195D02*
X108864462Y-86238403D01*
X108864462Y-86238403D02*
X108803429Y-86266863D01*
X108803429Y-86266863D02*
X108697647Y-86279037D01*
X108697647Y-86279037D02*
X108429164Y-86181317D01*
X108429164Y-86181317D02*
X108355956Y-86103997D01*
X108355956Y-86103997D02*
X108327495Y-86042963D01*
X109609044Y-86002657D02*
X109535836Y-85925336D01*
X109535836Y-85925336D02*
X109507375Y-85864302D01*
X109507375Y-85864302D02*
X109495201Y-85758521D01*
X109495201Y-85758521D02*
X109511488Y-85713774D01*
X109511488Y-85713774D02*
X109588809Y-85640566D01*
X109588809Y-85640566D02*
X109649843Y-85612105D01*
X109649843Y-85612105D02*
X109755624Y-85599931D01*
X109755624Y-85599931D02*
X109934613Y-85665078D01*
X109934613Y-85665078D02*
X110007821Y-85742399D01*
X110007821Y-85742399D02*
X110036281Y-85803433D01*
X110036281Y-85803433D02*
X110048455Y-85909214D01*
X110048455Y-85909214D02*
X110032169Y-85953961D01*
X110032169Y-85953961D02*
X109954848Y-86027169D01*
X109954848Y-86027169D02*
X109893814Y-86055630D01*
X109893814Y-86055630D02*
X109788033Y-86067804D01*
X109788033Y-86067804D02*
X109609044Y-86002657D01*
X109609044Y-86002657D02*
X109503263Y-86014831D01*
X109503263Y-86014831D02*
X109442229Y-86043291D01*
X109442229Y-86043291D02*
X109364908Y-86116499D01*
X109364908Y-86116499D02*
X109299761Y-86295488D01*
X109299761Y-86295488D02*
X109311935Y-86401270D01*
X109311935Y-86401270D02*
X109340396Y-86462303D01*
X109340396Y-86462303D02*
X109413604Y-86539624D01*
X109413604Y-86539624D02*
X109592593Y-86604771D01*
X109592593Y-86604771D02*
X109698374Y-86592597D01*
X109698374Y-86592597D02*
X109759408Y-86564136D01*
X109759408Y-86564136D02*
X109836729Y-86490928D01*
X109836729Y-86490928D02*
X109901875Y-86311939D01*
X109901875Y-86311939D02*
X109889701Y-86206158D01*
X109889701Y-86206158D02*
X109861241Y-86145124D01*
X109861241Y-86145124D02*
X109788033Y-86067804D01*
X146134819Y-73138094D02*
X145134819Y-73138094D01*
X145134819Y-73138094D02*
X145134819Y-72899999D01*
X145134819Y-72899999D02*
X145182438Y-72757142D01*
X145182438Y-72757142D02*
X145277676Y-72661904D01*
X145277676Y-72661904D02*
X145372914Y-72614285D01*
X145372914Y-72614285D02*
X145563390Y-72566666D01*
X145563390Y-72566666D02*
X145706247Y-72566666D01*
X145706247Y-72566666D02*
X145896723Y-72614285D01*
X145896723Y-72614285D02*
X145991961Y-72661904D01*
X145991961Y-72661904D02*
X146087200Y-72757142D01*
X146087200Y-72757142D02*
X146134819Y-72899999D01*
X146134819Y-72899999D02*
X146134819Y-73138094D01*
X145134819Y-71661904D02*
X145134819Y-72138094D01*
X145134819Y-72138094D02*
X145611009Y-72185713D01*
X145611009Y-72185713D02*
X145563390Y-72138094D01*
X145563390Y-72138094D02*
X145515771Y-72042856D01*
X145515771Y-72042856D02*
X145515771Y-71804761D01*
X145515771Y-71804761D02*
X145563390Y-71709523D01*
X145563390Y-71709523D02*
X145611009Y-71661904D01*
X145611009Y-71661904D02*
X145706247Y-71614285D01*
X145706247Y-71614285D02*
X145944342Y-71614285D01*
X145944342Y-71614285D02*
X146039580Y-71661904D01*
X146039580Y-71661904D02*
X146087200Y-71709523D01*
X146087200Y-71709523D02*
X146134819Y-71804761D01*
X146134819Y-71804761D02*
X146134819Y-72042856D01*
X146134819Y-72042856D02*
X146087200Y-72138094D01*
X146087200Y-72138094D02*
X146039580Y-72185713D01*
X160748671Y-75419054D02*
X159882646Y-74919054D01*
X159882646Y-74919054D02*
X160001693Y-74712857D01*
X160001693Y-74712857D02*
X160114361Y-74612949D01*
X160114361Y-74612949D02*
X160244459Y-74578089D01*
X160244459Y-74578089D02*
X160350747Y-74584469D01*
X160350747Y-74584469D02*
X160539514Y-74638468D01*
X160539514Y-74638468D02*
X160663232Y-74709896D01*
X160663232Y-74709896D02*
X160804379Y-74846374D01*
X160804379Y-74846374D02*
X160863048Y-74935232D01*
X160863048Y-74935232D02*
X160897908Y-75065330D01*
X160897908Y-75065330D02*
X160867719Y-75212857D01*
X160867719Y-75212857D02*
X160748671Y-75419054D01*
X160335027Y-74135507D02*
X160668360Y-73558157D01*
X160668360Y-73558157D02*
X161320100Y-74429311D01*
X167972806Y-138373371D02*
X168838831Y-137873371D01*
X168838831Y-137873371D02*
X168957879Y-138079567D01*
X168957879Y-138079567D02*
X168988068Y-138227095D01*
X168988068Y-138227095D02*
X168953208Y-138357192D01*
X168953208Y-138357192D02*
X168894539Y-138446051D01*
X168894539Y-138446051D02*
X168753392Y-138582528D01*
X168753392Y-138582528D02*
X168629674Y-138653957D01*
X168629674Y-138653957D02*
X168440907Y-138707955D01*
X168440907Y-138707955D02*
X168334619Y-138714335D01*
X168334619Y-138714335D02*
X168204521Y-138679476D01*
X168204521Y-138679476D02*
X168091853Y-138579567D01*
X168091853Y-138579567D02*
X167972806Y-138373371D01*
X169576926Y-139151789D02*
X169338831Y-138739396D01*
X169338831Y-138739396D02*
X168902629Y-138936252D01*
X168902629Y-138936252D02*
X168967677Y-138953682D01*
X168967677Y-138953682D02*
X169056536Y-139012351D01*
X169056536Y-139012351D02*
X169175583Y-139218547D01*
X169175583Y-139218547D02*
X169181963Y-139324836D01*
X169181963Y-139324836D02*
X169164533Y-139389884D01*
X169164533Y-139389884D02*
X169105864Y-139478743D01*
X169105864Y-139478743D02*
X168899668Y-139597790D01*
X168899668Y-139597790D02*
X168793380Y-139604170D01*
X168793380Y-139604170D02*
X168728331Y-139586740D01*
X168728331Y-139586740D02*
X168639472Y-139528071D01*
X168639472Y-139528071D02*
X168520425Y-139321875D01*
X168520425Y-139321875D02*
X168514045Y-139215587D01*
X168514045Y-139215587D02*
X168531475Y-139150538D01*
X169210901Y-140517815D02*
X168925187Y-140022943D01*
X169068044Y-140270379D02*
X169934069Y-139770379D01*
X169934069Y-139770379D02*
X169762732Y-139759329D01*
X169762732Y-139759329D02*
X169632635Y-139724469D01*
X169632635Y-139724469D02*
X169543776Y-139665800D01*
X106392024Y-111132459D02*
X106050004Y-110192766D01*
X106050004Y-110192766D02*
X106273741Y-110111333D01*
X106273741Y-110111333D02*
X106424269Y-110107220D01*
X106424269Y-110107220D02*
X106546337Y-110164141D01*
X106546337Y-110164141D02*
X106623658Y-110237349D01*
X106623658Y-110237349D02*
X106733552Y-110400051D01*
X106733552Y-110400051D02*
X106782412Y-110534293D01*
X106782412Y-110534293D02*
X106802811Y-110729569D01*
X106802811Y-110729569D02*
X106790637Y-110835350D01*
X106790637Y-110835350D02*
X106733716Y-110957418D01*
X106733716Y-110957418D02*
X106615761Y-111051025D01*
X106615761Y-111051025D02*
X106392024Y-111132459D01*
X107506429Y-110017397D02*
X107734442Y-110643859D01*
X107152399Y-109740852D02*
X107172963Y-110493494D01*
X107172963Y-110493494D02*
X107754678Y-110281768D01*
X108718882Y-110285552D02*
X108181915Y-110480992D01*
X108450399Y-110383272D02*
X108108379Y-109443579D01*
X108108379Y-109443579D02*
X108067744Y-109610394D01*
X108067744Y-109610394D02*
X108010823Y-109732462D01*
X108010823Y-109732462D02*
X107937615Y-109809783D01*
X180073452Y-129858780D02*
X180716239Y-129092736D01*
X180716239Y-129092736D02*
X180898631Y-129245780D01*
X180898631Y-129245780D02*
X180977457Y-129374086D01*
X180977457Y-129374086D02*
X180989195Y-129508260D01*
X180989195Y-129508260D02*
X180964456Y-129611826D01*
X180964456Y-129611826D02*
X180878498Y-129788348D01*
X180878498Y-129788348D02*
X180786672Y-129897783D01*
X180786672Y-129897783D02*
X180627758Y-130013087D01*
X180627758Y-130013087D02*
X180530061Y-130055435D01*
X180530061Y-130055435D02*
X180395887Y-130067173D01*
X180395887Y-130067173D02*
X180255843Y-130011825D01*
X180255843Y-130011825D02*
X180073452Y-129858780D01*
X181847067Y-130041613D02*
X181482284Y-129735523D01*
X181482284Y-129735523D02*
X181139716Y-130069698D01*
X181139716Y-130069698D02*
X181206803Y-130063828D01*
X181206803Y-130063828D02*
X181310369Y-130088568D01*
X181310369Y-130088568D02*
X181492760Y-130241612D01*
X181492760Y-130241612D02*
X181535108Y-130339309D01*
X181535108Y-130339309D02*
X181540977Y-130406396D01*
X181540977Y-130406396D02*
X181516238Y-130509961D01*
X181516238Y-130509961D02*
X181363193Y-130692353D01*
X181363193Y-130692353D02*
X181265497Y-130734701D01*
X181265497Y-130734701D02*
X181198410Y-130740570D01*
X181198410Y-130740570D02*
X181094844Y-130715830D01*
X181094844Y-130715830D02*
X180912453Y-130562786D01*
X180912453Y-130562786D02*
X180870105Y-130465090D01*
X180870105Y-130465090D02*
X180864236Y-130398002D01*
X182138893Y-130286484D02*
X182613111Y-130684400D01*
X182613111Y-130684400D02*
X182112892Y-130761964D01*
X182112892Y-130761964D02*
X182222326Y-130853791D01*
X182222326Y-130853791D02*
X182264674Y-130951487D01*
X182264674Y-130951487D02*
X182270544Y-131018575D01*
X182270544Y-131018575D02*
X182245804Y-131122140D01*
X182245804Y-131122140D02*
X182092759Y-131304532D01*
X182092759Y-131304532D02*
X181995063Y-131346879D01*
X181995063Y-131346879D02*
X181927976Y-131352749D01*
X181927976Y-131352749D02*
X181824410Y-131328009D01*
X181824410Y-131328009D02*
X181605541Y-131144356D01*
X181605541Y-131144356D02*
X181563193Y-131046659D01*
X181563193Y-131046659D02*
X181557323Y-130979572D01*
X143261905Y-95634819D02*
X143261905Y-94634819D01*
X143261905Y-94634819D02*
X143500000Y-94634819D01*
X143500000Y-94634819D02*
X143642857Y-94682438D01*
X143642857Y-94682438D02*
X143738095Y-94777676D01*
X143738095Y-94777676D02*
X143785714Y-94872914D01*
X143785714Y-94872914D02*
X143833333Y-95063390D01*
X143833333Y-95063390D02*
X143833333Y-95206247D01*
X143833333Y-95206247D02*
X143785714Y-95396723D01*
X143785714Y-95396723D02*
X143738095Y-95491961D01*
X143738095Y-95491961D02*
X143642857Y-95587200D01*
X143642857Y-95587200D02*
X143500000Y-95634819D01*
X143500000Y-95634819D02*
X143261905Y-95634819D01*
X144166667Y-94634819D02*
X144785714Y-94634819D01*
X144785714Y-94634819D02*
X144452381Y-95015771D01*
X144452381Y-95015771D02*
X144595238Y-95015771D01*
X144595238Y-95015771D02*
X144690476Y-95063390D01*
X144690476Y-95063390D02*
X144738095Y-95111009D01*
X144738095Y-95111009D02*
X144785714Y-95206247D01*
X144785714Y-95206247D02*
X144785714Y-95444342D01*
X144785714Y-95444342D02*
X144738095Y-95539580D01*
X144738095Y-95539580D02*
X144690476Y-95587200D01*
X144690476Y-95587200D02*
X144595238Y-95634819D01*
X144595238Y-95634819D02*
X144309524Y-95634819D01*
X144309524Y-95634819D02*
X144214286Y-95587200D01*
X144214286Y-95587200D02*
X144166667Y-95539580D01*
X157243492Y-58669085D02*
X156303800Y-58327065D01*
X156303800Y-58327065D02*
X156385233Y-58103329D01*
X156385233Y-58103329D02*
X156478840Y-57985374D01*
X156478840Y-57985374D02*
X156600908Y-57928452D01*
X156600908Y-57928452D02*
X156706690Y-57916278D01*
X156706690Y-57916278D02*
X156901965Y-57936678D01*
X156901965Y-57936678D02*
X157036207Y-57985538D01*
X157036207Y-57985538D02*
X157198909Y-58095432D01*
X157198909Y-58095432D02*
X157272117Y-58172752D01*
X157272117Y-58172752D02*
X157329039Y-58294820D01*
X157329039Y-58294820D02*
X157324926Y-58445349D01*
X157324926Y-58445349D02*
X157243492Y-58669085D01*
X156613247Y-57476867D02*
X156824973Y-56895152D01*
X156824973Y-56895152D02*
X157068945Y-57338677D01*
X157068945Y-57338677D02*
X157117805Y-57204435D01*
X157117805Y-57204435D02*
X157195125Y-57131227D01*
X157195125Y-57131227D02*
X157256159Y-57102766D01*
X157256159Y-57102766D02*
X157361941Y-57090593D01*
X157361941Y-57090593D02*
X157585677Y-57172026D01*
X157585677Y-57172026D02*
X157658885Y-57249347D01*
X157658885Y-57249347D02*
X157687345Y-57310380D01*
X157687345Y-57310380D02*
X157699519Y-57416162D01*
X157699519Y-57416162D02*
X157601799Y-57684645D01*
X157601799Y-57684645D02*
X157524479Y-57757853D01*
X157524479Y-57757853D02*
X157463445Y-57786314D01*
X157036700Y-56313438D02*
X157069273Y-56223943D01*
X157069273Y-56223943D02*
X157146594Y-56150736D01*
X157146594Y-56150736D02*
X157207628Y-56122275D01*
X157207628Y-56122275D02*
X157313409Y-56110101D01*
X157313409Y-56110101D02*
X157508685Y-56130500D01*
X157508685Y-56130500D02*
X157732421Y-56211934D01*
X157732421Y-56211934D02*
X157895124Y-56321828D01*
X157895124Y-56321828D02*
X157968332Y-56399148D01*
X157968332Y-56399148D02*
X157996792Y-56460182D01*
X157996792Y-56460182D02*
X158008966Y-56565964D01*
X158008966Y-56565964D02*
X157976393Y-56655458D01*
X157976393Y-56655458D02*
X157899072Y-56728666D01*
X157899072Y-56728666D02*
X157838038Y-56757127D01*
X157838038Y-56757127D02*
X157732257Y-56769300D01*
X157732257Y-56769300D02*
X157536981Y-56748901D01*
X157536981Y-56748901D02*
X157313245Y-56667468D01*
X157313245Y-56667468D02*
X157150542Y-56557574D01*
X157150542Y-56557574D02*
X157077335Y-56480253D01*
X157077335Y-56480253D02*
X157048874Y-56419219D01*
X157048874Y-56419219D02*
X157036700Y-56313438D01*
X175062907Y-65726575D02*
X174196882Y-65226575D01*
X174196882Y-65226575D02*
X174315930Y-65020379D01*
X174315930Y-65020379D02*
X174428598Y-64920470D01*
X174428598Y-64920470D02*
X174558695Y-64885611D01*
X174558695Y-64885611D02*
X174664983Y-64891991D01*
X174664983Y-64891991D02*
X174853750Y-64945989D01*
X174853750Y-64945989D02*
X174977468Y-65017418D01*
X174977468Y-65017418D02*
X175118616Y-65153895D01*
X175118616Y-65153895D02*
X175177285Y-65242754D01*
X175177285Y-65242754D02*
X175212144Y-65372851D01*
X175212144Y-65372851D02*
X175181955Y-65520379D01*
X175181955Y-65520379D02*
X175062907Y-65726575D01*
X174911168Y-63989396D02*
X174815930Y-64154353D01*
X174815930Y-64154353D02*
X174809550Y-64260642D01*
X174809550Y-64260642D02*
X174826980Y-64325690D01*
X174826980Y-64325690D02*
X174903079Y-64479598D01*
X174903079Y-64479598D02*
X175044226Y-64616075D01*
X175044226Y-64616075D02*
X175374141Y-64806551D01*
X175374141Y-64806551D02*
X175480429Y-64812931D01*
X175480429Y-64812931D02*
X175545478Y-64795501D01*
X175545478Y-64795501D02*
X175634336Y-64736832D01*
X175634336Y-64736832D02*
X175729574Y-64571875D01*
X175729574Y-64571875D02*
X175735954Y-64465587D01*
X175735954Y-64465587D02*
X175718524Y-64400538D01*
X175718524Y-64400538D02*
X175659855Y-64311679D01*
X175659855Y-64311679D02*
X175453658Y-64192632D01*
X175453658Y-64192632D02*
X175347370Y-64186252D01*
X175347370Y-64186252D02*
X175282322Y-64203682D01*
X175282322Y-64203682D02*
X175193463Y-64262351D01*
X175193463Y-64262351D02*
X175098225Y-64427308D01*
X175098225Y-64427308D02*
X175091845Y-64533596D01*
X175091845Y-64533596D02*
X175109275Y-64598645D01*
X175109275Y-64598645D02*
X175167944Y-64687504D01*
X175125454Y-63618242D02*
X175434977Y-63082131D01*
X175434977Y-63082131D02*
X175598225Y-63561283D01*
X175598225Y-63561283D02*
X175669654Y-63437565D01*
X175669654Y-63437565D02*
X175758512Y-63378896D01*
X175758512Y-63378896D02*
X175823561Y-63361466D01*
X175823561Y-63361466D02*
X175929849Y-63367846D01*
X175929849Y-63367846D02*
X176136046Y-63486893D01*
X176136046Y-63486893D02*
X176194715Y-63575752D01*
X176194715Y-63575752D02*
X176212144Y-63640801D01*
X176212144Y-63640801D02*
X176205765Y-63747089D01*
X176205765Y-63747089D02*
X176062907Y-63994524D01*
X176062907Y-63994524D02*
X175974049Y-64053194D01*
X175974049Y-64053194D02*
X175909000Y-64070623D01*
X108076454Y-115611287D02*
X107734434Y-114671594D01*
X107734434Y-114671594D02*
X107958171Y-114590161D01*
X107958171Y-114590161D02*
X108108699Y-114586048D01*
X108108699Y-114586048D02*
X108230767Y-114642969D01*
X108230767Y-114642969D02*
X108308088Y-114716177D01*
X108308088Y-114716177D02*
X108417982Y-114878879D01*
X108417982Y-114878879D02*
X108466842Y-115013121D01*
X108466842Y-115013121D02*
X108487241Y-115208397D01*
X108487241Y-115208397D02*
X108475067Y-115314178D01*
X108475067Y-115314178D02*
X108418146Y-115436246D01*
X108418146Y-115436246D02*
X108300191Y-115529853D01*
X108300191Y-115529853D02*
X108076454Y-115611287D01*
X109190859Y-114496225D02*
X109418872Y-115122687D01*
X108836829Y-114219680D02*
X108857393Y-114972322D01*
X108857393Y-114972322D02*
X109439108Y-114760596D01*
X109556898Y-114109622D02*
X109585359Y-114048588D01*
X109585359Y-114048588D02*
X109658567Y-113971267D01*
X109658567Y-113971267D02*
X109882303Y-113889834D01*
X109882303Y-113889834D02*
X109988084Y-113902008D01*
X109988084Y-113902008D02*
X110049118Y-113930468D01*
X110049118Y-113930468D02*
X110126439Y-114003676D01*
X110126439Y-114003676D02*
X110159012Y-114093171D01*
X110159012Y-114093171D02*
X110163125Y-114243699D01*
X110163125Y-114243699D02*
X109821598Y-114976107D01*
X109821598Y-114976107D02*
X110403312Y-114764380D01*
X172668552Y-113260575D02*
X173168552Y-112394550D01*
X173168552Y-112394550D02*
X173374748Y-112513598D01*
X173374748Y-112513598D02*
X173474657Y-112626266D01*
X173474657Y-112626266D02*
X173509516Y-112756363D01*
X173509516Y-112756363D02*
X173503136Y-112862651D01*
X173503136Y-112862651D02*
X173449138Y-113051418D01*
X173449138Y-113051418D02*
X173377709Y-113175136D01*
X173377709Y-113175136D02*
X173241232Y-113316284D01*
X173241232Y-113316284D02*
X173152373Y-113374953D01*
X173152373Y-113374953D02*
X173022276Y-113409812D01*
X173022276Y-113409812D02*
X172874748Y-113379623D01*
X172874748Y-113379623D02*
X172668552Y-113260575D01*
X173988209Y-114022480D02*
X173493338Y-113736766D01*
X173740774Y-113879623D02*
X174240774Y-113013598D01*
X174240774Y-113013598D02*
X174086866Y-113089697D01*
X174086866Y-113089697D02*
X173956769Y-113124556D01*
X173956769Y-113124556D02*
X173850481Y-113118176D01*
X175063850Y-113873701D02*
X174730517Y-114451052D01*
X175048130Y-113424739D02*
X174484791Y-113924281D01*
X174484791Y-113924281D02*
X175020902Y-114233805D01*
X109260294Y-81301838D02*
X109602314Y-80362146D01*
X109602314Y-80362146D02*
X109826050Y-80443579D01*
X109826050Y-80443579D02*
X109944005Y-80537186D01*
X109944005Y-80537186D02*
X110000927Y-80659254D01*
X110000927Y-80659254D02*
X110013101Y-80765036D01*
X110013101Y-80765036D02*
X109992701Y-80960311D01*
X109992701Y-80960311D02*
X109943841Y-81094553D01*
X109943841Y-81094553D02*
X109833947Y-81257255D01*
X109833947Y-81257255D02*
X109756627Y-81330463D01*
X109756627Y-81330463D02*
X109634559Y-81387385D01*
X109634559Y-81387385D02*
X109484030Y-81383272D01*
X109484030Y-81383272D02*
X109260294Y-81301838D01*
X110452512Y-80671593D02*
X111034227Y-80883319D01*
X111034227Y-80883319D02*
X110590702Y-81127291D01*
X110590702Y-81127291D02*
X110724944Y-81176151D01*
X110724944Y-81176151D02*
X110798152Y-81253471D01*
X110798152Y-81253471D02*
X110826613Y-81314505D01*
X110826613Y-81314505D02*
X110838786Y-81420287D01*
X110838786Y-81420287D02*
X110757353Y-81644023D01*
X110757353Y-81644023D02*
X110680032Y-81717231D01*
X110680032Y-81717231D02*
X110618999Y-81745691D01*
X110618999Y-81745691D02*
X110513217Y-81757865D01*
X110513217Y-81757865D02*
X110244734Y-81660145D01*
X110244734Y-81660145D02*
X110171526Y-81582825D01*
X110171526Y-81582825D02*
X110143065Y-81521791D01*
X111347457Y-80997326D02*
X111973919Y-81225340D01*
X111973919Y-81225340D02*
X111229174Y-82018452D01*
X188699770Y-117764664D02*
X189041790Y-116824972D01*
X189041790Y-116824972D02*
X189265526Y-116906405D01*
X189265526Y-116906405D02*
X189383481Y-117000012D01*
X189383481Y-117000012D02*
X189440403Y-117122080D01*
X189440403Y-117122080D02*
X189452577Y-117227862D01*
X189452577Y-117227862D02*
X189432177Y-117423137D01*
X189432177Y-117423137D02*
X189383317Y-117557379D01*
X189383317Y-117557379D02*
X189273423Y-117720081D01*
X189273423Y-117720081D02*
X189196103Y-117793289D01*
X189196103Y-117793289D02*
X189074035Y-117850211D01*
X189074035Y-117850211D02*
X188923506Y-117846098D01*
X188923506Y-117846098D02*
X188699770Y-117764664D01*
X190428955Y-117329859D02*
X189981483Y-117166992D01*
X189981483Y-117166992D02*
X189773869Y-117598178D01*
X189773869Y-117598178D02*
X189834903Y-117569717D01*
X189834903Y-117569717D02*
X189940684Y-117557543D01*
X189940684Y-117557543D02*
X190164420Y-117638977D01*
X190164420Y-117638977D02*
X190237628Y-117716297D01*
X190237628Y-117716297D02*
X190266089Y-117777331D01*
X190266089Y-117777331D02*
X190278262Y-117883113D01*
X190278262Y-117883113D02*
X190196829Y-118106849D01*
X190196829Y-118106849D02*
X190119508Y-118180057D01*
X190119508Y-118180057D02*
X190058475Y-118208517D01*
X190058475Y-118208517D02*
X189952693Y-118220691D01*
X189952693Y-118220691D02*
X189728957Y-118139258D01*
X189728957Y-118139258D02*
X189655749Y-118061937D01*
X189655749Y-118061937D02*
X189627289Y-118000903D01*
X191323901Y-117655592D02*
X190876428Y-117492725D01*
X190876428Y-117492725D02*
X190668814Y-117923911D01*
X190668814Y-117923911D02*
X190729848Y-117895451D01*
X190729848Y-117895451D02*
X190835629Y-117883277D01*
X190835629Y-117883277D02*
X191059366Y-117964710D01*
X191059366Y-117964710D02*
X191132573Y-118042031D01*
X191132573Y-118042031D02*
X191161034Y-118103065D01*
X191161034Y-118103065D02*
X191173208Y-118208846D01*
X191173208Y-118208846D02*
X191091775Y-118432582D01*
X191091775Y-118432582D02*
X191014454Y-118505790D01*
X191014454Y-118505790D02*
X190953420Y-118534251D01*
X190953420Y-118534251D02*
X190847639Y-118546425D01*
X190847639Y-118546425D02*
X190623902Y-118464991D01*
X190623902Y-118464991D02*
X190550695Y-118387671D01*
X190550695Y-118387671D02*
X190522234Y-118326637D01*
X190265340Y-112993492D02*
X190607360Y-112053800D01*
X190607360Y-112053800D02*
X190831096Y-112135233D01*
X190831096Y-112135233D02*
X190949051Y-112228840D01*
X190949051Y-112228840D02*
X191005973Y-112350908D01*
X191005973Y-112350908D02*
X191018147Y-112456690D01*
X191018147Y-112456690D02*
X190997747Y-112651965D01*
X190997747Y-112651965D02*
X190948887Y-112786207D01*
X190948887Y-112786207D02*
X190838993Y-112948909D01*
X190838993Y-112948909D02*
X190761673Y-113022117D01*
X190761673Y-113022117D02*
X190639605Y-113079039D01*
X190639605Y-113079039D02*
X190489076Y-113074926D01*
X190489076Y-113074926D02*
X190265340Y-112993492D01*
X191994525Y-112558687D02*
X191547053Y-112395820D01*
X191547053Y-112395820D02*
X191339439Y-112827006D01*
X191339439Y-112827006D02*
X191400473Y-112798545D01*
X191400473Y-112798545D02*
X191506254Y-112786371D01*
X191506254Y-112786371D02*
X191729990Y-112867805D01*
X191729990Y-112867805D02*
X191803198Y-112945125D01*
X191803198Y-112945125D02*
X191831659Y-113006159D01*
X191831659Y-113006159D02*
X191843832Y-113111941D01*
X191843832Y-113111941D02*
X191762399Y-113335677D01*
X191762399Y-113335677D02*
X191685078Y-113408885D01*
X191685078Y-113408885D02*
X191624045Y-113437345D01*
X191624045Y-113437345D02*
X191518263Y-113449519D01*
X191518263Y-113449519D02*
X191294527Y-113368086D01*
X191294527Y-113368086D02*
X191221319Y-113290765D01*
X191221319Y-113290765D02*
X191192859Y-113229731D01*
X192844723Y-112868133D02*
X192665734Y-112802987D01*
X192665734Y-112802987D02*
X192559953Y-112815161D01*
X192559953Y-112815161D02*
X192498919Y-112843621D01*
X192498919Y-112843621D02*
X192360565Y-112945290D01*
X192360565Y-112945290D02*
X192250671Y-113107992D01*
X192250671Y-113107992D02*
X192120377Y-113465970D01*
X192120377Y-113465970D02*
X192132551Y-113571752D01*
X192132551Y-113571752D02*
X192161012Y-113632785D01*
X192161012Y-113632785D02*
X192234220Y-113710106D01*
X192234220Y-113710106D02*
X192413209Y-113775253D01*
X192413209Y-113775253D02*
X192518990Y-113763079D01*
X192518990Y-113763079D02*
X192580024Y-113734618D01*
X192580024Y-113734618D02*
X192657345Y-113661410D01*
X192657345Y-113661410D02*
X192738778Y-113437674D01*
X192738778Y-113437674D02*
X192726604Y-113331893D01*
X192726604Y-113331893D02*
X192698143Y-113270859D01*
X192698143Y-113270859D02*
X192624936Y-113193538D01*
X192624936Y-113193538D02*
X192445946Y-113128392D01*
X192445946Y-113128392D02*
X192340165Y-113140566D01*
X192340165Y-113140566D02*
X192279131Y-113169026D01*
X192279131Y-113169026D02*
X192201811Y-113242234D01*
X170786741Y-63279011D02*
X169920716Y-62779011D01*
X169920716Y-62779011D02*
X170039764Y-62572815D01*
X170039764Y-62572815D02*
X170152432Y-62472906D01*
X170152432Y-62472906D02*
X170282529Y-62438047D01*
X170282529Y-62438047D02*
X170388817Y-62444427D01*
X170388817Y-62444427D02*
X170577584Y-62498425D01*
X170577584Y-62498425D02*
X170701302Y-62569854D01*
X170701302Y-62569854D02*
X170842450Y-62706331D01*
X170842450Y-62706331D02*
X170901119Y-62795190D01*
X170901119Y-62795190D02*
X170935978Y-62925287D01*
X170935978Y-62925287D02*
X170905789Y-63072815D01*
X170905789Y-63072815D02*
X170786741Y-63279011D01*
X170635002Y-61541832D02*
X170539764Y-61706789D01*
X170539764Y-61706789D02*
X170533384Y-61813078D01*
X170533384Y-61813078D02*
X170550814Y-61878126D01*
X170550814Y-61878126D02*
X170626913Y-62032034D01*
X170626913Y-62032034D02*
X170768060Y-62168511D01*
X170768060Y-62168511D02*
X171097975Y-62358987D01*
X171097975Y-62358987D02*
X171204263Y-62365367D01*
X171204263Y-62365367D02*
X171269312Y-62347937D01*
X171269312Y-62347937D02*
X171358170Y-62289268D01*
X171358170Y-62289268D02*
X171453408Y-62124311D01*
X171453408Y-62124311D02*
X171459788Y-62018023D01*
X171459788Y-62018023D02*
X171442358Y-61952974D01*
X171442358Y-61952974D02*
X171383689Y-61864115D01*
X171383689Y-61864115D02*
X171177492Y-61745068D01*
X171177492Y-61745068D02*
X171071204Y-61738688D01*
X171071204Y-61738688D02*
X171006156Y-61756118D01*
X171006156Y-61756118D02*
X170917297Y-61814787D01*
X170917297Y-61814787D02*
X170822059Y-61979744D01*
X170822059Y-61979744D02*
X170815679Y-62086032D01*
X170815679Y-62086032D02*
X170833109Y-62151081D01*
X170833109Y-62151081D02*
X170891778Y-62239940D01*
X171399867Y-60883713D02*
X171977218Y-61217046D01*
X170950905Y-60899433D02*
X171450447Y-61462772D01*
X171450447Y-61462772D02*
X171759971Y-60926661D01*
X154664819Y-128814285D02*
X153664819Y-128814285D01*
X153664819Y-128814285D02*
X153664819Y-128576190D01*
X153664819Y-128576190D02*
X153712438Y-128433333D01*
X153712438Y-128433333D02*
X153807676Y-128338095D01*
X153807676Y-128338095D02*
X153902914Y-128290476D01*
X153902914Y-128290476D02*
X154093390Y-128242857D01*
X154093390Y-128242857D02*
X154236247Y-128242857D01*
X154236247Y-128242857D02*
X154426723Y-128290476D01*
X154426723Y-128290476D02*
X154521961Y-128338095D01*
X154521961Y-128338095D02*
X154617200Y-128433333D01*
X154617200Y-128433333D02*
X154664819Y-128576190D01*
X154664819Y-128576190D02*
X154664819Y-128814285D01*
X154664819Y-127290476D02*
X154664819Y-127861904D01*
X154664819Y-127576190D02*
X153664819Y-127576190D01*
X153664819Y-127576190D02*
X153807676Y-127671428D01*
X153807676Y-127671428D02*
X153902914Y-127766666D01*
X153902914Y-127766666D02*
X153950533Y-127861904D01*
X153664819Y-126957142D02*
X153664819Y-126290476D01*
X153664819Y-126290476D02*
X154664819Y-126719047D01*
D11*
%TO.C,D47*%
X138221671Y-144295733D02*
X140457185Y-144689914D01*
X140457185Y-144689914D02*
X141131808Y-140863936D01*
X138896294Y-140469755D02*
X138221671Y-144295733D01*
%TO.C,D49*%
X155785922Y-145318645D02*
X158021436Y-144924464D01*
X158021436Y-144924464D02*
X157346813Y-141098486D01*
X155111299Y-141492667D02*
X155785922Y-145318645D01*
%TO.C,D36*%
X114584228Y-70861964D02*
X113125101Y-72600885D01*
X113125101Y-72600885D02*
X116101183Y-75098115D01*
X117560311Y-73359194D02*
X114584228Y-70861964D01*
%TO.C,D23*%
X124685000Y-103635000D02*
X124685000Y-101365000D01*
X124685000Y-101365000D02*
X120800000Y-101365000D01*
X120800000Y-103635000D02*
X124685000Y-103635000D01*
%TO.C,D59*%
X193719821Y-86513863D02*
X192943435Y-84380761D01*
X192943435Y-84380761D02*
X189292729Y-85709509D01*
X190069115Y-87842611D02*
X193719821Y-86513863D01*
%TO.C,D4*%
X141715000Y-100755000D02*
X141715000Y-103025000D01*
X141715000Y-103025000D02*
X145600000Y-103025000D01*
X145600000Y-100755000D02*
X141715000Y-100755000D01*
%TO.C,D44*%
X115770025Y-130349309D02*
X117229152Y-132088230D01*
X117229152Y-132088230D02*
X120205235Y-129591000D01*
X118746107Y-127852079D02*
X115770025Y-130349309D01*
%TO.C,D19*%
X140075439Y-123626196D02*
X138109561Y-122491196D01*
X138109561Y-122491196D02*
X136167061Y-125855705D01*
X138132939Y-126990705D02*
X140075439Y-123626196D01*
%TO.C,D28*%
X139309561Y-77221240D02*
X141275439Y-76086240D01*
X141275439Y-76086240D02*
X139332939Y-72721731D01*
X137367061Y-73856731D02*
X139309561Y-77221240D01*
%TO.C,D2*%
X158385000Y-103025000D02*
X158385000Y-100755000D01*
X158385000Y-100755000D02*
X154500000Y-100755000D01*
X154500000Y-103025000D02*
X158385000Y-103025000D01*
%TO.C,D13*%
X174033635Y-108688735D02*
X172898635Y-110654613D01*
X172898635Y-110654613D02*
X176263144Y-112597113D01*
X177398144Y-110631235D02*
X174033635Y-108688735D01*
%TO.C,D8*%
X164424561Y-79373804D02*
X166390439Y-80508804D01*
X166390439Y-80508804D02*
X168332939Y-77144295D01*
X166367061Y-76009295D02*
X164424561Y-79373804D01*
%TO.C,D48*%
X142978564Y-145174464D02*
X145214078Y-145568645D01*
X145214078Y-145568645D02*
X145888701Y-141742667D01*
X143653187Y-141348486D02*
X142978564Y-145174464D01*
%TO.C,R1*%
X150477064Y-94372500D02*
X149022936Y-94372500D01*
X150477064Y-92552500D02*
X149022936Y-92552500D01*
%TO.C,D1*%
X158385000Y-98135000D02*
X158385000Y-95865000D01*
X158385000Y-95865000D02*
X154500000Y-95865000D01*
X154500000Y-98135000D02*
X158385000Y-98135000D01*
%TO.C,D22*%
X127276240Y-111504613D02*
X126141240Y-109538735D01*
X126141240Y-109538735D02*
X122776731Y-111481235D01*
X123911731Y-113447113D02*
X127276240Y-111504613D01*
%TO.C,D29*%
X162075967Y-56716014D02*
X159942865Y-55939628D01*
X159942865Y-55939628D02*
X158614117Y-59590334D01*
X160747219Y-60366720D02*
X162075967Y-56716014D01*
%TO.C,D40*%
X104215000Y-101115000D02*
X104215000Y-103385000D01*
X104215000Y-103385000D02*
X108100000Y-103385000D01*
X108100000Y-101115000D02*
X104215000Y-101115000D01*
%TO.C,D35*%
X117906690Y-67011867D02*
X116447563Y-68750788D01*
X116447563Y-68750788D02*
X119423645Y-71248018D01*
X120882773Y-69509097D02*
X117906690Y-67011867D01*
%TO.C,D12*%
X175215000Y-101365000D02*
X175215000Y-103635000D01*
X175215000Y-103635000D02*
X179100000Y-103635000D01*
X179100000Y-101365000D02*
X175215000Y-101365000D01*
%TO.C,D32*%
X140977864Y-55173893D02*
X138742350Y-55568074D01*
X138742350Y-55568074D02*
X139416973Y-59394052D01*
X141652487Y-58999871D02*
X140977864Y-55173893D01*
%TO.C,D9*%
X169953632Y-84159561D02*
X171088632Y-86125439D01*
X171088632Y-86125439D02*
X174453141Y-84182939D01*
X173318141Y-82217061D02*
X169953632Y-84159561D01*
%TO.C,D39*%
X104215001Y-96115000D02*
X104215001Y-98385000D01*
X104215001Y-98385000D02*
X108100001Y-98385000D01*
X108100001Y-96115000D02*
X104215001Y-96115000D01*
%TO.C,D45*%
X123124561Y-137411368D02*
X125090439Y-138546368D01*
X125090439Y-138546368D02*
X127032939Y-135181859D01*
X125067061Y-134046859D02*
X123124561Y-137411368D01*
%TO.C,D27*%
X134859561Y-79508804D02*
X136825439Y-78373804D01*
X136825439Y-78373804D02*
X134882939Y-75009295D01*
X132917061Y-76144295D02*
X134859561Y-79508804D01*
%TO.C,D21*%
X129758804Y-115640439D02*
X128623804Y-113674561D01*
X128623804Y-113674561D02*
X125259295Y-115617061D01*
X126394295Y-117582939D02*
X129758804Y-115640439D01*
%TO.C,D50*%
X160617527Y-144358709D02*
X162853041Y-143964528D01*
X162853041Y-143964528D02*
X162178418Y-140138550D01*
X159942904Y-140532731D02*
X160617527Y-144358709D01*
%TO.C,D20*%
X135775439Y-121163760D02*
X133809561Y-120028760D01*
X133809561Y-120028760D02*
X131867061Y-123393269D01*
X133832939Y-124528269D02*
X135775439Y-121163760D01*
%TO.C,D54*%
X187093310Y-127238133D02*
X188552437Y-125499212D01*
X188552437Y-125499212D02*
X185576355Y-123001982D01*
X184117227Y-124740903D02*
X187093310Y-127238133D01*
%TO.C,D46*%
X127424561Y-139873804D02*
X129390439Y-141008804D01*
X129390439Y-141008804D02*
X131332939Y-137644295D01*
X129367061Y-136509295D02*
X127424561Y-139873804D01*
%TO.C,D52*%
X174895387Y-138388933D02*
X176861265Y-137253933D01*
X176861265Y-137253933D02*
X174918765Y-133889424D01*
X172952887Y-135024424D02*
X174895387Y-138388933D01*
%TO.C,D25*%
X125873804Y-91325439D02*
X127008804Y-89359561D01*
X127008804Y-89359561D02*
X123644295Y-87417061D01*
X122509295Y-89382939D02*
X125873804Y-91325439D01*
%TO.C,D43*%
X112520025Y-126599309D02*
X113979152Y-128338230D01*
X113979152Y-128338230D02*
X116955235Y-125841000D01*
X115496107Y-124102079D02*
X112520025Y-126599309D01*
%TO.C,D26*%
X128281242Y-87089613D02*
X129416242Y-85123735D01*
X129416242Y-85123735D02*
X126051733Y-83181235D01*
X124916733Y-85147113D02*
X128281242Y-87089613D01*
%TO.C,D24*%
X124785000Y-98135000D02*
X124785000Y-95865000D01*
X124785000Y-95865000D02*
X120900000Y-95865000D01*
X120900000Y-98135000D02*
X124785000Y-98135000D01*
%TO.C,D18*%
X148635000Y-125315000D02*
X146365000Y-125315000D01*
X146365000Y-125315000D02*
X146365000Y-129200000D01*
X148635000Y-129200000D02*
X148635000Y-125315000D01*
%TO.C,D34*%
X125890439Y-61241196D02*
X123924561Y-62376196D01*
X123924561Y-62376196D02*
X125867061Y-65740705D01*
X127832939Y-64605705D02*
X125890439Y-61241196D01*
%TO.C,D31*%
X145720971Y-54302624D02*
X143485457Y-54696805D01*
X143485457Y-54696805D02*
X144160080Y-58522783D01*
X146395594Y-58128602D02*
X145720971Y-54302624D01*
%TO.C,D11*%
X175315000Y-96365000D02*
X175315000Y-98635000D01*
X175315000Y-98635000D02*
X179200000Y-98635000D01*
X179200000Y-96365000D02*
X175315000Y-96365000D01*
%TO.C,D60*%
X192035391Y-81849478D02*
X191259005Y-79716376D01*
X191259005Y-79716376D02*
X187608299Y-81045124D01*
X188384685Y-83178226D02*
X192035391Y-81849478D01*
%TO.C,D58*%
X191315000Y-100755000D02*
X191315000Y-103025000D01*
X191315000Y-103025000D02*
X195200000Y-103025000D01*
X195200000Y-100755000D02*
X191315000Y-100755000D01*
%TO.C,D57*%
X191315000Y-95615000D02*
X191315000Y-97885000D01*
X191315000Y-97885000D02*
X195200000Y-97885000D01*
X195200000Y-95615000D02*
X191315000Y-95615000D01*
%TO.C,D6*%
X151365000Y-74685000D02*
X153635000Y-74685000D01*
X153635000Y-74685000D02*
X153635000Y-70800000D01*
X151365000Y-70800000D02*
X151365000Y-74685000D01*
%TO.C,D61*%
X186336562Y-72047387D02*
X184877435Y-70308466D01*
X184877435Y-70308466D02*
X181901352Y-72805696D01*
X183360480Y-74544617D02*
X186336562Y-72047387D01*
%TO.C,D16*%
X161504610Y-122473758D02*
X159538732Y-123608758D01*
X159538732Y-123608758D02*
X161481232Y-126973267D01*
X163447110Y-125838267D02*
X161504610Y-122473758D01*
%TO.C,D15*%
X165890439Y-119991196D02*
X163924561Y-121126196D01*
X163924561Y-121126196D02*
X165867061Y-124490705D01*
X167832939Y-123355705D02*
X165890439Y-119991196D01*
%TO.C,D33*%
X130090439Y-58703632D02*
X128124561Y-59838632D01*
X128124561Y-59838632D02*
X130067061Y-63203141D01*
X132032939Y-62068141D02*
X130090439Y-58703632D01*
%TO.C,D62*%
X183229975Y-68300594D02*
X181770848Y-66561673D01*
X181770848Y-66561673D02*
X178794765Y-69058903D01*
X180253893Y-70797824D02*
X183229975Y-68300594D01*
%TO.C,D10*%
X172491196Y-88359561D02*
X173626196Y-90325439D01*
X173626196Y-90325439D02*
X176990705Y-88382939D01*
X175855705Y-86417061D02*
X172491196Y-88359561D01*
%TO.C,D38*%
X106359855Y-85673105D02*
X105583469Y-87806207D01*
X105583469Y-87806207D02*
X109234175Y-89134955D01*
X110010561Y-87001853D02*
X106359855Y-85673105D01*
%TO.C,D5*%
X146365000Y-74685000D02*
X148635000Y-74685000D01*
X148635000Y-74685000D02*
X148635000Y-70800000D01*
X146365000Y-70800000D02*
X146365000Y-74685000D01*
%TO.C,D7*%
X160174561Y-76873804D02*
X162140439Y-78008804D01*
X162140439Y-78008804D02*
X164082939Y-74644295D01*
X162117061Y-73509295D02*
X160174561Y-76873804D01*
%TO.C,D51*%
X170709561Y-140833932D02*
X172675439Y-139698932D01*
X172675439Y-139698932D02*
X170732939Y-136334423D01*
X168767061Y-137469423D02*
X170709561Y-140833932D01*
%TO.C,D41*%
X105464609Y-111714965D02*
X106240995Y-113848067D01*
X106240995Y-113848067D02*
X109891701Y-112519319D01*
X109115315Y-110386217D02*
X105464609Y-111714965D01*
%TO.C,D53*%
X183486722Y-131234926D02*
X184945849Y-129496005D01*
X184945849Y-129496005D02*
X181969767Y-126998775D01*
X180510639Y-128737696D02*
X183486722Y-131234926D01*
%TO.C,D3*%
X141715000Y-95865000D02*
X141715000Y-98135000D01*
X141715000Y-98135000D02*
X145600000Y-98135000D01*
X145600000Y-95865000D02*
X141715000Y-95865000D01*
%TO.C,D30*%
X157369239Y-54990991D02*
X155236137Y-54214605D01*
X155236137Y-54214605D02*
X153907389Y-57865311D01*
X156040491Y-58641697D02*
X157369239Y-54990991D01*
%TO.C,D63*%
X175825439Y-62126196D02*
X173859561Y-60991196D01*
X173859561Y-60991196D02*
X171917061Y-64355705D01*
X173882939Y-65490705D02*
X175825439Y-62126196D01*
%TO.C,D42*%
X107149039Y-116193793D02*
X107925425Y-118326895D01*
X107925425Y-118326895D02*
X111576131Y-116998147D01*
X110799745Y-114865045D02*
X107149039Y-116193793D01*
%TO.C,D14*%
X171626196Y-112924561D02*
X170491196Y-114890439D01*
X170491196Y-114890439D02*
X173855705Y-116832939D01*
X174990705Y-114867061D02*
X171626196Y-112924561D01*
%TO.C,D37*%
X108175425Y-81151933D02*
X107399039Y-83285035D01*
X107399039Y-83285035D02*
X111049745Y-84613783D01*
X111826131Y-82480681D02*
X108175425Y-81151933D01*
%TO.C,D55*%
X192377865Y-117890411D02*
X193154251Y-115757309D01*
X193154251Y-115757309D02*
X189503545Y-114428561D01*
X188727159Y-116561663D02*
X192377865Y-117890411D01*
%TO.C,D56*%
X193943435Y-113119239D02*
X194719821Y-110986137D01*
X194719821Y-110986137D02*
X191069115Y-109657389D01*
X190292729Y-111790491D02*
X193943435Y-113119239D01*
%TO.C,D64*%
X171425439Y-59626196D02*
X169459561Y-58491196D01*
X169459561Y-58491196D02*
X167517061Y-61855705D01*
X169482939Y-62990705D02*
X171425439Y-59626196D01*
%TO.C,D17*%
X153525000Y-125315000D02*
X151255000Y-125315000D01*
X151255000Y-125315000D02*
X151255000Y-129200000D01*
X153525000Y-129200000D02*
X153525000Y-125315000D01*
%TD*%
M02*
