%TF.GenerationSoftware,KiCad,Pcbnew,7.0.6*%
%TF.CreationDate,2023-07-25T19:50:32+05:30*%
%TF.ProjectId,10 channel equalizer,31302063-6861-46e6-9e65-6c2065717561,rev?*%
%TF.SameCoordinates,Original*%
%TF.FileFunction,Soldermask,Top*%
%TF.FilePolarity,Negative*%
%FSLAX46Y46*%
G04 Gerber Fmt 4.6, Leading zero omitted, Abs format (unit mm)*
G04 Created by KiCad (PCBNEW 7.0.6) date 2023-07-25 19:50:32*
%MOMM*%
%LPD*%
G01*
G04 APERTURE LIST*
G04 Aperture macros list*
%AMRoundRect*
0 Rectangle with rounded corners*
0 $1 Rounding radius*
0 $2 $3 $4 $5 $6 $7 $8 $9 X,Y pos of 4 corners*
0 Add a 4 corners polygon primitive as box body*
4,1,4,$2,$3,$4,$5,$6,$7,$8,$9,$2,$3,0*
0 Add four circle primitives for the rounded corners*
1,1,$1+$1,$2,$3*
1,1,$1+$1,$4,$5*
1,1,$1+$1,$6,$7*
1,1,$1+$1,$8,$9*
0 Add four rect primitives between the rounded corners*
20,1,$1+$1,$2,$3,$4,$5,0*
20,1,$1+$1,$4,$5,$6,$7,0*
20,1,$1+$1,$6,$7,$8,$9,0*
20,1,$1+$1,$8,$9,$2,$3,0*%
G04 Aperture macros list end*
%ADD10R,1.750000X1.750000*%
%ADD11C,1.750000*%
%ADD12C,2.700000*%
%ADD13RoundRect,0.250000X0.625000X-0.312500X0.625000X0.312500X-0.625000X0.312500X-0.625000X-0.312500X0*%
%ADD14RoundRect,0.250000X-0.650000X0.325000X-0.650000X-0.325000X0.650000X-0.325000X0.650000X0.325000X0*%
%ADD15RoundRect,0.250000X0.325000X0.650000X-0.325000X0.650000X-0.325000X-0.650000X0.325000X-0.650000X0*%
%ADD16C,3.500000*%
%ADD17RoundRect,0.250000X-0.625000X0.312500X-0.625000X-0.312500X0.625000X-0.312500X0.625000X0.312500X0*%
%ADD18RoundRect,0.250000X-0.312500X-0.625000X0.312500X-0.625000X0.312500X0.625000X-0.312500X0.625000X0*%
%ADD19C,1.700000*%
%ADD20R,2.800000X2.200000*%
%ADD21R,2.800000X2.800000*%
%ADD22RoundRect,0.250000X0.650000X-0.325000X0.650000X0.325000X-0.650000X0.325000X-0.650000X-0.325000X0*%
%ADD23RoundRect,0.250000X-0.325000X-0.650000X0.325000X-0.650000X0.325000X0.650000X-0.325000X0.650000X0*%
G04 APERTURE END LIST*
D10*
%TO.C,RV9*%
X161050000Y-128350000D03*
D11*
X164550000Y-128350000D03*
X161050000Y-54850000D03*
D12*
X167000000Y-124200000D03*
X158600000Y-123000000D03*
X158600000Y-60200000D03*
X167000000Y-59000000D03*
%TD*%
D13*
%TO.C,R4*%
X202500000Y-127925000D03*
X202500000Y-125000000D03*
%TD*%
D10*
%TO.C,RV4*%
X89638000Y-128250000D03*
D11*
X93138000Y-128250000D03*
X89638000Y-54750000D03*
D12*
X95588000Y-124100000D03*
X87188000Y-122900000D03*
X87188000Y-60100000D03*
X95588000Y-58900000D03*
%TD*%
D14*
%TO.C,C5*%
X185000000Y-105000000D03*
X185000000Y-107950000D03*
%TD*%
D10*
%TO.C,RV10*%
X175050000Y-128350000D03*
D11*
X178550000Y-128350000D03*
X175050000Y-54850000D03*
D12*
X181000000Y-124200000D03*
X172600000Y-123000000D03*
X172600000Y-60200000D03*
X181000000Y-59000000D03*
%TD*%
D13*
%TO.C,R5*%
X183500000Y-80925000D03*
X183500000Y-78000000D03*
%TD*%
D15*
%TO.C,C4*%
X221250000Y-121250000D03*
X218300000Y-121250000D03*
%TD*%
D16*
%TO.C,H6*%
X46500000Y-145500000D03*
%TD*%
D17*
%TO.C,R1*%
X202000000Y-73525000D03*
X202000000Y-76450000D03*
%TD*%
D16*
%TO.C,H3*%
X144500000Y-34500000D03*
%TD*%
D10*
%TO.C,RV7*%
X132550000Y-128336000D03*
D11*
X136050000Y-128336000D03*
X132550000Y-54836000D03*
D12*
X138500000Y-124186000D03*
X130100000Y-122986000D03*
X130100000Y-60186000D03*
X138500000Y-58986000D03*
%TD*%
D10*
%TO.C,RV1*%
X212250000Y-54750000D03*
D11*
X208750000Y-54750000D03*
X212250000Y-128250000D03*
D12*
X206300000Y-58900000D03*
X214700000Y-60100000D03*
X214700000Y-122900000D03*
X206300000Y-124100000D03*
%TD*%
D16*
%TO.C,H5*%
X144500000Y-146000000D03*
%TD*%
D10*
%TO.C,RV6*%
X118550000Y-128250000D03*
D11*
X122050000Y-128250000D03*
X118550000Y-54750000D03*
D12*
X124500000Y-124100000D03*
X116100000Y-122900000D03*
X116100000Y-60100000D03*
X124500000Y-58900000D03*
%TD*%
D10*
%TO.C,RV11*%
X191550000Y-128350000D03*
D11*
X195050000Y-128350000D03*
X191550000Y-54850000D03*
D12*
X197500000Y-124200000D03*
X189100000Y-123000000D03*
X189100000Y-60200000D03*
X197500000Y-59000000D03*
%TD*%
D14*
%TO.C,C1*%
X202000000Y-65500000D03*
X202000000Y-68450000D03*
%TD*%
D16*
%TO.C,H1*%
X46500000Y-34500000D03*
%TD*%
%TO.C,H2*%
X240000000Y-34500000D03*
%TD*%
D10*
%TO.C,RV5*%
X103862000Y-128250000D03*
D11*
X107362000Y-128250000D03*
X103862000Y-54750000D03*
D12*
X109812000Y-124100000D03*
X101412000Y-122900000D03*
X101412000Y-60100000D03*
X109812000Y-58900000D03*
%TD*%
D16*
%TO.C,H4*%
X240000000Y-146000000D03*
%TD*%
D18*
%TO.C,R6*%
X222825000Y-89250000D03*
X225750000Y-89250000D03*
%TD*%
D10*
%TO.C,RV8*%
X146550000Y-128350000D03*
D11*
X150050000Y-128350000D03*
X146550000Y-54850000D03*
D12*
X152500000Y-124200000D03*
X144100000Y-123000000D03*
X144100000Y-60200000D03*
X152500000Y-59000000D03*
%TD*%
D19*
%TO.C,J2*%
X222050000Y-105350000D03*
X222050000Y-112350000D03*
D20*
X225750000Y-106250000D03*
X218350000Y-104250000D03*
D21*
X218350000Y-113650000D03*
%TD*%
D10*
%TO.C,RV3*%
X76430000Y-127996000D03*
D11*
X79930000Y-127996000D03*
X76430000Y-54496000D03*
D12*
X82380000Y-123846000D03*
X73980000Y-122646000D03*
X73980000Y-59846000D03*
X82380000Y-58646000D03*
%TD*%
D22*
%TO.C,C2*%
X202000000Y-90450000D03*
X202000000Y-87500000D03*
%TD*%
D10*
%TO.C,RV2*%
X63222000Y-127996000D03*
D11*
X66722000Y-127996000D03*
X63222000Y-54496000D03*
D12*
X69172000Y-123846000D03*
X60772000Y-122646000D03*
X60772000Y-59846000D03*
X69172000Y-58646000D03*
%TD*%
D17*
%TO.C,R3*%
X202500000Y-80950000D03*
X202500000Y-83875000D03*
%TD*%
%TO.C,R2*%
X184000000Y-70425000D03*
X184000000Y-67500000D03*
%TD*%
D19*
%TO.C,J1*%
X222050000Y-75050000D03*
X222050000Y-68050000D03*
D20*
X218350000Y-74150000D03*
X225750000Y-76150000D03*
D21*
X225750000Y-66750000D03*
%TD*%
D13*
%TO.C,R7*%
X202500000Y-111925000D03*
X202500000Y-109000000D03*
%TD*%
D23*
%TO.C,C3*%
X216800000Y-86250000D03*
X219750000Y-86250000D03*
%TD*%
M02*
