%TF.GenerationSoftware,KiCad,Pcbnew,7.0.6*%
%TF.CreationDate,2023-07-25T19:50:32+05:30*%
%TF.ProjectId,10 channel equalizer,31302063-6861-46e6-9e65-6c2065717561,rev?*%
%TF.SameCoordinates,Original*%
%TF.FileFunction,Copper,L1,Top*%
%TF.FilePolarity,Positive*%
%FSLAX46Y46*%
G04 Gerber Fmt 4.6, Leading zero omitted, Abs format (unit mm)*
G04 Created by KiCad (PCBNEW 7.0.6) date 2023-07-25 19:50:32*
%MOMM*%
%LPD*%
G01*
G04 APERTURE LIST*
G04 Aperture macros list*
%AMRoundRect*
0 Rectangle with rounded corners*
0 $1 Rounding radius*
0 $2 $3 $4 $5 $6 $7 $8 $9 X,Y pos of 4 corners*
0 Add a 4 corners polygon primitive as box body*
4,1,4,$2,$3,$4,$5,$6,$7,$8,$9,$2,$3,0*
0 Add four circle primitives for the rounded corners*
1,1,$1+$1,$2,$3*
1,1,$1+$1,$4,$5*
1,1,$1+$1,$6,$7*
1,1,$1+$1,$8,$9*
0 Add four rect primitives between the rounded corners*
20,1,$1+$1,$2,$3,$4,$5,0*
20,1,$1+$1,$4,$5,$6,$7,0*
20,1,$1+$1,$6,$7,$8,$9,0*
20,1,$1+$1,$8,$9,$2,$3,0*%
G04 Aperture macros list end*
%ADD10C,0.300000*%
%TA.AperFunction,NonConductor*%
%ADD11C,0.300000*%
%TD*%
%TA.AperFunction,ComponentPad*%
%ADD12R,1.750000X1.750000*%
%TD*%
%TA.AperFunction,ComponentPad*%
%ADD13C,1.750000*%
%TD*%
%TA.AperFunction,ComponentPad*%
%ADD14C,2.700000*%
%TD*%
%TA.AperFunction,SMDPad,CuDef*%
%ADD15RoundRect,0.250000X0.625000X-0.312500X0.625000X0.312500X-0.625000X0.312500X-0.625000X-0.312500X0*%
%TD*%
%TA.AperFunction,SMDPad,CuDef*%
%ADD16RoundRect,0.250000X-0.650000X0.325000X-0.650000X-0.325000X0.650000X-0.325000X0.650000X0.325000X0*%
%TD*%
%TA.AperFunction,SMDPad,CuDef*%
%ADD17RoundRect,0.250000X0.325000X0.650000X-0.325000X0.650000X-0.325000X-0.650000X0.325000X-0.650000X0*%
%TD*%
%TA.AperFunction,SMDPad,CuDef*%
%ADD18RoundRect,0.250000X-0.625000X0.312500X-0.625000X-0.312500X0.625000X-0.312500X0.625000X0.312500X0*%
%TD*%
%TA.AperFunction,SMDPad,CuDef*%
%ADD19RoundRect,0.250000X-0.312500X-0.625000X0.312500X-0.625000X0.312500X0.625000X-0.312500X0.625000X0*%
%TD*%
%TA.AperFunction,SMDPad,CuDef*%
%ADD20R,2.800000X2.200000*%
%TD*%
%TA.AperFunction,SMDPad,CuDef*%
%ADD21R,2.800000X2.800000*%
%TD*%
%TA.AperFunction,SMDPad,CuDef*%
%ADD22RoundRect,0.250000X0.650000X-0.325000X0.650000X0.325000X-0.650000X0.325000X-0.650000X-0.325000X0*%
%TD*%
%TA.AperFunction,SMDPad,CuDef*%
%ADD23RoundRect,0.250000X-0.325000X-0.650000X0.325000X-0.650000X0.325000X0.650000X-0.325000X0.650000X0*%
%TD*%
%TA.AperFunction,ViaPad*%
%ADD24C,0.800000*%
%TD*%
%TA.AperFunction,Conductor*%
%ADD25C,0.250000*%
%TD*%
G04 APERTURE END LIST*
D10*
D11*
X133340225Y-135885828D02*
X132483082Y-135885828D01*
X132911653Y-135885828D02*
X132911653Y-134385828D01*
X132911653Y-134385828D02*
X132768796Y-134600114D01*
X132768796Y-134600114D02*
X132625939Y-134742971D01*
X132625939Y-134742971D02*
X132483082Y-134814400D01*
X134268796Y-134385828D02*
X134411653Y-134385828D01*
X134411653Y-134385828D02*
X134554510Y-134457257D01*
X134554510Y-134457257D02*
X134625939Y-134528685D01*
X134625939Y-134528685D02*
X134697367Y-134671542D01*
X134697367Y-134671542D02*
X134768796Y-134957257D01*
X134768796Y-134957257D02*
X134768796Y-135314400D01*
X134768796Y-135314400D02*
X134697367Y-135600114D01*
X134697367Y-135600114D02*
X134625939Y-135742971D01*
X134625939Y-135742971D02*
X134554510Y-135814400D01*
X134554510Y-135814400D02*
X134411653Y-135885828D01*
X134411653Y-135885828D02*
X134268796Y-135885828D01*
X134268796Y-135885828D02*
X134125939Y-135814400D01*
X134125939Y-135814400D02*
X134054510Y-135742971D01*
X134054510Y-135742971D02*
X133983081Y-135600114D01*
X133983081Y-135600114D02*
X133911653Y-135314400D01*
X133911653Y-135314400D02*
X133911653Y-134957257D01*
X133911653Y-134957257D02*
X133983081Y-134671542D01*
X133983081Y-134671542D02*
X134054510Y-134528685D01*
X134054510Y-134528685D02*
X134125939Y-134457257D01*
X134125939Y-134457257D02*
X134268796Y-134385828D01*
X135411652Y-135314400D02*
X136554510Y-135314400D01*
X138125938Y-135742971D02*
X138054510Y-135814400D01*
X138054510Y-135814400D02*
X137840224Y-135885828D01*
X137840224Y-135885828D02*
X137697367Y-135885828D01*
X137697367Y-135885828D02*
X137483081Y-135814400D01*
X137483081Y-135814400D02*
X137340224Y-135671542D01*
X137340224Y-135671542D02*
X137268795Y-135528685D01*
X137268795Y-135528685D02*
X137197367Y-135242971D01*
X137197367Y-135242971D02*
X137197367Y-135028685D01*
X137197367Y-135028685D02*
X137268795Y-134742971D01*
X137268795Y-134742971D02*
X137340224Y-134600114D01*
X137340224Y-134600114D02*
X137483081Y-134457257D01*
X137483081Y-134457257D02*
X137697367Y-134385828D01*
X137697367Y-134385828D02*
X137840224Y-134385828D01*
X137840224Y-134385828D02*
X138054510Y-134457257D01*
X138054510Y-134457257D02*
X138125938Y-134528685D01*
X138768795Y-135885828D02*
X138768795Y-134385828D01*
X139411653Y-135885828D02*
X139411653Y-135100114D01*
X139411653Y-135100114D02*
X139340224Y-134957257D01*
X139340224Y-134957257D02*
X139197367Y-134885828D01*
X139197367Y-134885828D02*
X138983081Y-134885828D01*
X138983081Y-134885828D02*
X138840224Y-134957257D01*
X138840224Y-134957257D02*
X138768795Y-135028685D01*
X140768796Y-135885828D02*
X140768796Y-135100114D01*
X140768796Y-135100114D02*
X140697367Y-134957257D01*
X140697367Y-134957257D02*
X140554510Y-134885828D01*
X140554510Y-134885828D02*
X140268796Y-134885828D01*
X140268796Y-134885828D02*
X140125938Y-134957257D01*
X140768796Y-135814400D02*
X140625938Y-135885828D01*
X140625938Y-135885828D02*
X140268796Y-135885828D01*
X140268796Y-135885828D02*
X140125938Y-135814400D01*
X140125938Y-135814400D02*
X140054510Y-135671542D01*
X140054510Y-135671542D02*
X140054510Y-135528685D01*
X140054510Y-135528685D02*
X140125938Y-135385828D01*
X140125938Y-135385828D02*
X140268796Y-135314400D01*
X140268796Y-135314400D02*
X140625938Y-135314400D01*
X140625938Y-135314400D02*
X140768796Y-135242971D01*
X141483081Y-134885828D02*
X141483081Y-135885828D01*
X141483081Y-135028685D02*
X141554510Y-134957257D01*
X141554510Y-134957257D02*
X141697367Y-134885828D01*
X141697367Y-134885828D02*
X141911653Y-134885828D01*
X141911653Y-134885828D02*
X142054510Y-134957257D01*
X142054510Y-134957257D02*
X142125939Y-135100114D01*
X142125939Y-135100114D02*
X142125939Y-135885828D01*
X142840224Y-134885828D02*
X142840224Y-135885828D01*
X142840224Y-135028685D02*
X142911653Y-134957257D01*
X142911653Y-134957257D02*
X143054510Y-134885828D01*
X143054510Y-134885828D02*
X143268796Y-134885828D01*
X143268796Y-134885828D02*
X143411653Y-134957257D01*
X143411653Y-134957257D02*
X143483082Y-135100114D01*
X143483082Y-135100114D02*
X143483082Y-135885828D01*
X144768796Y-135814400D02*
X144625939Y-135885828D01*
X144625939Y-135885828D02*
X144340225Y-135885828D01*
X144340225Y-135885828D02*
X144197367Y-135814400D01*
X144197367Y-135814400D02*
X144125939Y-135671542D01*
X144125939Y-135671542D02*
X144125939Y-135100114D01*
X144125939Y-135100114D02*
X144197367Y-134957257D01*
X144197367Y-134957257D02*
X144340225Y-134885828D01*
X144340225Y-134885828D02*
X144625939Y-134885828D01*
X144625939Y-134885828D02*
X144768796Y-134957257D01*
X144768796Y-134957257D02*
X144840225Y-135100114D01*
X144840225Y-135100114D02*
X144840225Y-135242971D01*
X144840225Y-135242971D02*
X144125939Y-135385828D01*
X145697367Y-135885828D02*
X145554510Y-135814400D01*
X145554510Y-135814400D02*
X145483081Y-135671542D01*
X145483081Y-135671542D02*
X145483081Y-134385828D01*
X147411652Y-135100114D02*
X147911652Y-135100114D01*
X148125938Y-135885828D02*
X147411652Y-135885828D01*
X147411652Y-135885828D02*
X147411652Y-134385828D01*
X147411652Y-134385828D02*
X148125938Y-134385828D01*
X149411653Y-134885828D02*
X149411653Y-136385828D01*
X149411653Y-135814400D02*
X149268795Y-135885828D01*
X149268795Y-135885828D02*
X148983081Y-135885828D01*
X148983081Y-135885828D02*
X148840224Y-135814400D01*
X148840224Y-135814400D02*
X148768795Y-135742971D01*
X148768795Y-135742971D02*
X148697367Y-135600114D01*
X148697367Y-135600114D02*
X148697367Y-135171542D01*
X148697367Y-135171542D02*
X148768795Y-135028685D01*
X148768795Y-135028685D02*
X148840224Y-134957257D01*
X148840224Y-134957257D02*
X148983081Y-134885828D01*
X148983081Y-134885828D02*
X149268795Y-134885828D01*
X149268795Y-134885828D02*
X149411653Y-134957257D01*
X150768796Y-134885828D02*
X150768796Y-135885828D01*
X150125938Y-134885828D02*
X150125938Y-135671542D01*
X150125938Y-135671542D02*
X150197367Y-135814400D01*
X150197367Y-135814400D02*
X150340224Y-135885828D01*
X150340224Y-135885828D02*
X150554510Y-135885828D01*
X150554510Y-135885828D02*
X150697367Y-135814400D01*
X150697367Y-135814400D02*
X150768796Y-135742971D01*
X152125939Y-135885828D02*
X152125939Y-135100114D01*
X152125939Y-135100114D02*
X152054510Y-134957257D01*
X152054510Y-134957257D02*
X151911653Y-134885828D01*
X151911653Y-134885828D02*
X151625939Y-134885828D01*
X151625939Y-134885828D02*
X151483081Y-134957257D01*
X152125939Y-135814400D02*
X151983081Y-135885828D01*
X151983081Y-135885828D02*
X151625939Y-135885828D01*
X151625939Y-135885828D02*
X151483081Y-135814400D01*
X151483081Y-135814400D02*
X151411653Y-135671542D01*
X151411653Y-135671542D02*
X151411653Y-135528685D01*
X151411653Y-135528685D02*
X151483081Y-135385828D01*
X151483081Y-135385828D02*
X151625939Y-135314400D01*
X151625939Y-135314400D02*
X151983081Y-135314400D01*
X151983081Y-135314400D02*
X152125939Y-135242971D01*
X153054510Y-135885828D02*
X152911653Y-135814400D01*
X152911653Y-135814400D02*
X152840224Y-135671542D01*
X152840224Y-135671542D02*
X152840224Y-134385828D01*
X153625938Y-135885828D02*
X153625938Y-134885828D01*
X153625938Y-134385828D02*
X153554510Y-134457257D01*
X153554510Y-134457257D02*
X153625938Y-134528685D01*
X153625938Y-134528685D02*
X153697367Y-134457257D01*
X153697367Y-134457257D02*
X153625938Y-134385828D01*
X153625938Y-134385828D02*
X153625938Y-134528685D01*
X154197367Y-134885828D02*
X154983082Y-134885828D01*
X154983082Y-134885828D02*
X154197367Y-135885828D01*
X154197367Y-135885828D02*
X154983082Y-135885828D01*
X156125939Y-135814400D02*
X155983082Y-135885828D01*
X155983082Y-135885828D02*
X155697368Y-135885828D01*
X155697368Y-135885828D02*
X155554510Y-135814400D01*
X155554510Y-135814400D02*
X155483082Y-135671542D01*
X155483082Y-135671542D02*
X155483082Y-135100114D01*
X155483082Y-135100114D02*
X155554510Y-134957257D01*
X155554510Y-134957257D02*
X155697368Y-134885828D01*
X155697368Y-134885828D02*
X155983082Y-134885828D01*
X155983082Y-134885828D02*
X156125939Y-134957257D01*
X156125939Y-134957257D02*
X156197368Y-135100114D01*
X156197368Y-135100114D02*
X156197368Y-135242971D01*
X156197368Y-135242971D02*
X155483082Y-135385828D01*
X156840224Y-135885828D02*
X156840224Y-134885828D01*
X156840224Y-135171542D02*
X156911653Y-135028685D01*
X156911653Y-135028685D02*
X156983082Y-134957257D01*
X156983082Y-134957257D02*
X157125939Y-134885828D01*
X157125939Y-134885828D02*
X157268796Y-134885828D01*
X132554510Y-138300828D02*
X132554510Y-136800828D01*
X132554510Y-136800828D02*
X133125939Y-136800828D01*
X133125939Y-136800828D02*
X133268796Y-136872257D01*
X133268796Y-136872257D02*
X133340225Y-136943685D01*
X133340225Y-136943685D02*
X133411653Y-137086542D01*
X133411653Y-137086542D02*
X133411653Y-137300828D01*
X133411653Y-137300828D02*
X133340225Y-137443685D01*
X133340225Y-137443685D02*
X133268796Y-137515114D01*
X133268796Y-137515114D02*
X133125939Y-137586542D01*
X133125939Y-137586542D02*
X132554510Y-137586542D01*
X134054510Y-137515114D02*
X134554510Y-137515114D01*
X134768796Y-138300828D02*
X134054510Y-138300828D01*
X134054510Y-138300828D02*
X134054510Y-136800828D01*
X134054510Y-136800828D02*
X134768796Y-136800828D01*
X135340225Y-138229400D02*
X135554511Y-138300828D01*
X135554511Y-138300828D02*
X135911653Y-138300828D01*
X135911653Y-138300828D02*
X136054511Y-138229400D01*
X136054511Y-138229400D02*
X136125939Y-138157971D01*
X136125939Y-138157971D02*
X136197368Y-138015114D01*
X136197368Y-138015114D02*
X136197368Y-137872257D01*
X136197368Y-137872257D02*
X136125939Y-137729400D01*
X136125939Y-137729400D02*
X136054511Y-137657971D01*
X136054511Y-137657971D02*
X135911653Y-137586542D01*
X135911653Y-137586542D02*
X135625939Y-137515114D01*
X135625939Y-137515114D02*
X135483082Y-137443685D01*
X135483082Y-137443685D02*
X135411653Y-137372257D01*
X135411653Y-137372257D02*
X135340225Y-137229400D01*
X135340225Y-137229400D02*
X135340225Y-137086542D01*
X135340225Y-137086542D02*
X135411653Y-136943685D01*
X135411653Y-136943685D02*
X135483082Y-136872257D01*
X135483082Y-136872257D02*
X135625939Y-136800828D01*
X135625939Y-136800828D02*
X135983082Y-136800828D01*
X135983082Y-136800828D02*
X136197368Y-136872257D01*
X137625939Y-138300828D02*
X136768796Y-138300828D01*
X137197367Y-138300828D02*
X137197367Y-136800828D01*
X137197367Y-136800828D02*
X137054510Y-137015114D01*
X137054510Y-137015114D02*
X136911653Y-137157971D01*
X136911653Y-137157971D02*
X136768796Y-137229400D01*
X138268795Y-136800828D02*
X138268795Y-138015114D01*
X138268795Y-138015114D02*
X138340224Y-138157971D01*
X138340224Y-138157971D02*
X138411653Y-138229400D01*
X138411653Y-138229400D02*
X138554510Y-138300828D01*
X138554510Y-138300828D02*
X138840224Y-138300828D01*
X138840224Y-138300828D02*
X138983081Y-138229400D01*
X138983081Y-138229400D02*
X139054510Y-138157971D01*
X139054510Y-138157971D02*
X139125938Y-138015114D01*
X139125938Y-138015114D02*
X139125938Y-136800828D01*
X140625939Y-136872257D02*
X140483082Y-136800828D01*
X140483082Y-136800828D02*
X140268796Y-136800828D01*
X140268796Y-136800828D02*
X140054510Y-136872257D01*
X140054510Y-136872257D02*
X139911653Y-137015114D01*
X139911653Y-137015114D02*
X139840224Y-137157971D01*
X139840224Y-137157971D02*
X139768796Y-137443685D01*
X139768796Y-137443685D02*
X139768796Y-137657971D01*
X139768796Y-137657971D02*
X139840224Y-137943685D01*
X139840224Y-137943685D02*
X139911653Y-138086542D01*
X139911653Y-138086542D02*
X140054510Y-138229400D01*
X140054510Y-138229400D02*
X140268796Y-138300828D01*
X140268796Y-138300828D02*
X140411653Y-138300828D01*
X140411653Y-138300828D02*
X140625939Y-138229400D01*
X140625939Y-138229400D02*
X140697367Y-138157971D01*
X140697367Y-138157971D02*
X140697367Y-137657971D01*
X140697367Y-137657971D02*
X140411653Y-137657971D01*
X141268796Y-136943685D02*
X141340224Y-136872257D01*
X141340224Y-136872257D02*
X141483082Y-136800828D01*
X141483082Y-136800828D02*
X141840224Y-136800828D01*
X141840224Y-136800828D02*
X141983082Y-136872257D01*
X141983082Y-136872257D02*
X142054510Y-136943685D01*
X142054510Y-136943685D02*
X142125939Y-137086542D01*
X142125939Y-137086542D02*
X142125939Y-137229400D01*
X142125939Y-137229400D02*
X142054510Y-137443685D01*
X142054510Y-137443685D02*
X141197367Y-138300828D01*
X141197367Y-138300828D02*
X142125939Y-138300828D01*
X143554510Y-138300828D02*
X142697367Y-138300828D01*
X143125938Y-138300828D02*
X143125938Y-136800828D01*
X143125938Y-136800828D02*
X142983081Y-137015114D01*
X142983081Y-137015114D02*
X142840224Y-137157971D01*
X142840224Y-137157971D02*
X142697367Y-137229400D01*
X144197366Y-137515114D02*
X144697366Y-137515114D01*
X144911652Y-138300828D02*
X144197366Y-138300828D01*
X144197366Y-138300828D02*
X144197366Y-136800828D01*
X144197366Y-136800828D02*
X144911652Y-136800828D01*
X146411652Y-138157971D02*
X146340224Y-138229400D01*
X146340224Y-138229400D02*
X146125938Y-138300828D01*
X146125938Y-138300828D02*
X145983081Y-138300828D01*
X145983081Y-138300828D02*
X145768795Y-138229400D01*
X145768795Y-138229400D02*
X145625938Y-138086542D01*
X145625938Y-138086542D02*
X145554509Y-137943685D01*
X145554509Y-137943685D02*
X145483081Y-137657971D01*
X145483081Y-137657971D02*
X145483081Y-137443685D01*
X145483081Y-137443685D02*
X145554509Y-137157971D01*
X145554509Y-137157971D02*
X145625938Y-137015114D01*
X145625938Y-137015114D02*
X145768795Y-136872257D01*
X145768795Y-136872257D02*
X145983081Y-136800828D01*
X145983081Y-136800828D02*
X146125938Y-136800828D01*
X146125938Y-136800828D02*
X146340224Y-136872257D01*
X146340224Y-136872257D02*
X146411652Y-136943685D01*
X146983081Y-136943685D02*
X147054509Y-136872257D01*
X147054509Y-136872257D02*
X147197367Y-136800828D01*
X147197367Y-136800828D02*
X147554509Y-136800828D01*
X147554509Y-136800828D02*
X147697367Y-136872257D01*
X147697367Y-136872257D02*
X147768795Y-136943685D01*
X147768795Y-136943685D02*
X147840224Y-137086542D01*
X147840224Y-137086542D02*
X147840224Y-137229400D01*
X147840224Y-137229400D02*
X147768795Y-137443685D01*
X147768795Y-137443685D02*
X146911652Y-138300828D01*
X146911652Y-138300828D02*
X147840224Y-138300828D01*
X148697366Y-137443685D02*
X148554509Y-137372257D01*
X148554509Y-137372257D02*
X148483080Y-137300828D01*
X148483080Y-137300828D02*
X148411652Y-137157971D01*
X148411652Y-137157971D02*
X148411652Y-137086542D01*
X148411652Y-137086542D02*
X148483080Y-136943685D01*
X148483080Y-136943685D02*
X148554509Y-136872257D01*
X148554509Y-136872257D02*
X148697366Y-136800828D01*
X148697366Y-136800828D02*
X148983080Y-136800828D01*
X148983080Y-136800828D02*
X149125938Y-136872257D01*
X149125938Y-136872257D02*
X149197366Y-136943685D01*
X149197366Y-136943685D02*
X149268795Y-137086542D01*
X149268795Y-137086542D02*
X149268795Y-137157971D01*
X149268795Y-137157971D02*
X149197366Y-137300828D01*
X149197366Y-137300828D02*
X149125938Y-137372257D01*
X149125938Y-137372257D02*
X148983080Y-137443685D01*
X148983080Y-137443685D02*
X148697366Y-137443685D01*
X148697366Y-137443685D02*
X148554509Y-137515114D01*
X148554509Y-137515114D02*
X148483080Y-137586542D01*
X148483080Y-137586542D02*
X148411652Y-137729400D01*
X148411652Y-137729400D02*
X148411652Y-138015114D01*
X148411652Y-138015114D02*
X148483080Y-138157971D01*
X148483080Y-138157971D02*
X148554509Y-138229400D01*
X148554509Y-138229400D02*
X148697366Y-138300828D01*
X148697366Y-138300828D02*
X148983080Y-138300828D01*
X148983080Y-138300828D02*
X149125938Y-138229400D01*
X149125938Y-138229400D02*
X149197366Y-138157971D01*
X149197366Y-138157971D02*
X149268795Y-138015114D01*
X149268795Y-138015114D02*
X149268795Y-137729400D01*
X149268795Y-137729400D02*
X149197366Y-137586542D01*
X149197366Y-137586542D02*
X149125938Y-137515114D01*
X149125938Y-137515114D02*
X148983080Y-137443685D01*
X150125937Y-137443685D02*
X149983080Y-137372257D01*
X149983080Y-137372257D02*
X149911651Y-137300828D01*
X149911651Y-137300828D02*
X149840223Y-137157971D01*
X149840223Y-137157971D02*
X149840223Y-137086542D01*
X149840223Y-137086542D02*
X149911651Y-136943685D01*
X149911651Y-136943685D02*
X149983080Y-136872257D01*
X149983080Y-136872257D02*
X150125937Y-136800828D01*
X150125937Y-136800828D02*
X150411651Y-136800828D01*
X150411651Y-136800828D02*
X150554509Y-136872257D01*
X150554509Y-136872257D02*
X150625937Y-136943685D01*
X150625937Y-136943685D02*
X150697366Y-137086542D01*
X150697366Y-137086542D02*
X150697366Y-137157971D01*
X150697366Y-137157971D02*
X150625937Y-137300828D01*
X150625937Y-137300828D02*
X150554509Y-137372257D01*
X150554509Y-137372257D02*
X150411651Y-137443685D01*
X150411651Y-137443685D02*
X150125937Y-137443685D01*
X150125937Y-137443685D02*
X149983080Y-137515114D01*
X149983080Y-137515114D02*
X149911651Y-137586542D01*
X149911651Y-137586542D02*
X149840223Y-137729400D01*
X149840223Y-137729400D02*
X149840223Y-138015114D01*
X149840223Y-138015114D02*
X149911651Y-138157971D01*
X149911651Y-138157971D02*
X149983080Y-138229400D01*
X149983080Y-138229400D02*
X150125937Y-138300828D01*
X150125937Y-138300828D02*
X150411651Y-138300828D01*
X150411651Y-138300828D02*
X150554509Y-138229400D01*
X150554509Y-138229400D02*
X150625937Y-138157971D01*
X150625937Y-138157971D02*
X150697366Y-138015114D01*
X150697366Y-138015114D02*
X150697366Y-137729400D01*
X150697366Y-137729400D02*
X150625937Y-137586542D01*
X150625937Y-137586542D02*
X150554509Y-137515114D01*
X150554509Y-137515114D02*
X150411651Y-137443685D01*
D12*
%TO.P,RV9,1,1*%
%TO.N,Net-(C5-Pad2)*%
X161050000Y-128350000D03*
D13*
%TO.P,RV9,2,2*%
%TO.N,Net-(C20-Pad1)*%
X164550000Y-128350000D03*
%TO.P,RV9,3,3*%
%TO.N,Net-(U3D--)*%
X161050000Y-54850000D03*
D14*
%TO.P,RV9,MP*%
%TO.N,N/C*%
X167000000Y-124200000D03*
X158600000Y-123000000D03*
X158600000Y-60200000D03*
X167000000Y-59000000D03*
%TD*%
D15*
%TO.P,R4,1*%
%TO.N,Net-(R2-Pad1)*%
X202500000Y-127925000D03*
%TO.P,R4,2*%
%TO.N,Net-(U3D-+)*%
X202500000Y-125000000D03*
%TD*%
D12*
%TO.P,RV4,1,1*%
%TO.N,Net-(C5-Pad2)*%
X89638000Y-128250000D03*
D13*
%TO.P,RV4,2,2*%
%TO.N,Net-(C10-Pad1)*%
X93138000Y-128250000D03*
%TO.P,RV4,3,3*%
%TO.N,Net-(U3D--)*%
X89638000Y-54750000D03*
D14*
%TO.P,RV4,MP*%
%TO.N,N/C*%
X95588000Y-124100000D03*
X87188000Y-122900000D03*
X87188000Y-60100000D03*
X95588000Y-58900000D03*
%TD*%
D16*
%TO.P,C5,1*%
%TO.N,Net-(C5-Pad1)*%
X185000000Y-105000000D03*
%TO.P,C5,2*%
%TO.N,Net-(C5-Pad2)*%
X185000000Y-107950000D03*
%TD*%
D12*
%TO.P,RV10,1,1*%
%TO.N,Net-(C5-Pad2)*%
X175050000Y-128350000D03*
D13*
%TO.P,RV10,2,2*%
%TO.N,Net-(C22-Pad1)*%
X178550000Y-128350000D03*
%TO.P,RV10,3,3*%
%TO.N,Net-(U3D--)*%
X175050000Y-54850000D03*
D14*
%TO.P,RV10,MP*%
%TO.N,N/C*%
X181000000Y-124200000D03*
X172600000Y-123000000D03*
X172600000Y-60200000D03*
X181000000Y-59000000D03*
%TD*%
D15*
%TO.P,R5,1*%
%TO.N,Net-(U3D--)*%
X183500000Y-80925000D03*
%TO.P,R5,2*%
%TO.N,Net-(C5-Pad1)*%
X183500000Y-78000000D03*
%TD*%
D17*
%TO.P,C4,1*%
%TO.N,Net-(C4-Pad1)*%
X221250000Y-121250000D03*
%TO.P,C4,2*%
%TO.N,Net-(C4-Pad2)*%
X218300000Y-121250000D03*
%TD*%
D18*
%TO.P,R1,1*%
%TO.N,Net-(C1-Pad2)*%
X202000000Y-73525000D03*
%TO.P,R1,2*%
%TO.N,Net-(U3C-+)*%
X202000000Y-76450000D03*
%TD*%
D12*
%TO.P,RV7,1,1*%
%TO.N,Net-(C5-Pad2)*%
X132550000Y-128336000D03*
D13*
%TO.P,RV7,2,2*%
%TO.N,Net-(C16-Pad1)*%
X136050000Y-128336000D03*
%TO.P,RV7,3,3*%
%TO.N,Net-(U3D--)*%
X132550000Y-54836000D03*
D14*
%TO.P,RV7,MP*%
%TO.N,N/C*%
X138500000Y-124186000D03*
X130100000Y-122986000D03*
X130100000Y-60186000D03*
X138500000Y-58986000D03*
%TD*%
D12*
%TO.P,RV1,1,1*%
%TO.N,Net-(C2-Pad1)*%
X212250000Y-54750000D03*
D13*
%TO.P,RV1,2,2*%
%TO.N,Net-(R2-Pad1)*%
X208750000Y-54750000D03*
%TO.P,RV1,3,3*%
X212250000Y-128250000D03*
D14*
%TO.P,RV1,MP*%
%TO.N,N/C*%
X206300000Y-58900000D03*
X214700000Y-60100000D03*
X214700000Y-122900000D03*
X206300000Y-124100000D03*
%TD*%
D12*
%TO.P,RV6,1,1*%
%TO.N,Net-(C5-Pad2)*%
X118550000Y-128250000D03*
D13*
%TO.P,RV6,2,2*%
%TO.N,Net-(C14-Pad1)*%
X122050000Y-128250000D03*
%TO.P,RV6,3,3*%
%TO.N,Net-(U3D--)*%
X118550000Y-54750000D03*
D14*
%TO.P,RV6,MP*%
%TO.N,N/C*%
X124500000Y-124100000D03*
X116100000Y-122900000D03*
X116100000Y-60100000D03*
X124500000Y-58900000D03*
%TD*%
D12*
%TO.P,RV11,1,1*%
%TO.N,Net-(C5-Pad2)*%
X191550000Y-128350000D03*
D13*
%TO.P,RV11,2,2*%
%TO.N,Net-(C24-Pad1)*%
X195050000Y-128350000D03*
%TO.P,RV11,3,3*%
%TO.N,Net-(U3D--)*%
X191550000Y-54850000D03*
D14*
%TO.P,RV11,MP*%
%TO.N,N/C*%
X197500000Y-124200000D03*
X189100000Y-123000000D03*
X189100000Y-60200000D03*
X197500000Y-59000000D03*
%TD*%
D16*
%TO.P,C1,1*%
%TO.N,Net-(C1-Pad1)*%
X202000000Y-65500000D03*
%TO.P,C1,2*%
%TO.N,Net-(C1-Pad2)*%
X202000000Y-68450000D03*
%TD*%
D12*
%TO.P,RV5,1,1*%
%TO.N,Net-(C5-Pad2)*%
X103862000Y-128250000D03*
D13*
%TO.P,RV5,2,2*%
%TO.N,Net-(C12-Pad1)*%
X107362000Y-128250000D03*
%TO.P,RV5,3,3*%
%TO.N,Net-(U3D--)*%
X103862000Y-54750000D03*
D14*
%TO.P,RV5,MP*%
%TO.N,N/C*%
X109812000Y-124100000D03*
X101412000Y-122900000D03*
X101412000Y-60100000D03*
X109812000Y-58900000D03*
%TD*%
D19*
%TO.P,R6,1*%
%TO.N,Net-(C5-Pad1)*%
X222825000Y-89250000D03*
%TO.P,R6,2*%
%TO.N,Net-(C4-Pad1)*%
X225750000Y-89250000D03*
%TD*%
D12*
%TO.P,RV8,1,1*%
%TO.N,Net-(C5-Pad2)*%
X146550000Y-128350000D03*
D13*
%TO.P,RV8,2,2*%
%TO.N,Net-(C18-Pad1)*%
X150050000Y-128350000D03*
%TO.P,RV8,3,3*%
%TO.N,Net-(U3D--)*%
X146550000Y-54850000D03*
D14*
%TO.P,RV8,MP*%
%TO.N,N/C*%
X152500000Y-124200000D03*
X144100000Y-123000000D03*
X144100000Y-60200000D03*
X152500000Y-59000000D03*
%TD*%
D20*
%TO.P,J2,R*%
%TO.N,N/C*%
X225750000Y-106250000D03*
%TO.P,J2,S*%
%TO.N,GND*%
X218350000Y-104250000D03*
D21*
%TO.P,J2,T*%
%TO.N,Net-(C4-Pad2)*%
X218350000Y-113650000D03*
%TD*%
D12*
%TO.P,RV3,1,1*%
%TO.N,Net-(C5-Pad2)*%
X76430000Y-127996000D03*
D13*
%TO.P,RV3,2,2*%
%TO.N,Net-(C8-Pad1)*%
X79930000Y-127996000D03*
%TO.P,RV3,3,3*%
%TO.N,Net-(U3D--)*%
X76430000Y-54496000D03*
D14*
%TO.P,RV3,MP*%
%TO.N,N/C*%
X82380000Y-123846000D03*
X73980000Y-122646000D03*
X73980000Y-59846000D03*
X82380000Y-58646000D03*
%TD*%
D22*
%TO.P,C2,1*%
%TO.N,Net-(C2-Pad1)*%
X202000000Y-90450000D03*
%TO.P,C2,2*%
%TO.N,Net-(C2-Pad2)*%
X202000000Y-87500000D03*
%TD*%
D12*
%TO.P,RV2,1,1*%
%TO.N,Net-(C5-Pad2)*%
X63222000Y-127996000D03*
D13*
%TO.P,RV2,2,2*%
%TO.N,Net-(C7-Pad1)*%
X66722000Y-127996000D03*
%TO.P,RV2,3,3*%
%TO.N,Net-(U3D--)*%
X63222000Y-54496000D03*
D14*
%TO.P,RV2,MP*%
%TO.N,N/C*%
X69172000Y-123846000D03*
X60772000Y-122646000D03*
X60772000Y-59846000D03*
X69172000Y-58646000D03*
%TD*%
D18*
%TO.P,R3,1*%
%TO.N,Net-(U3C-+)*%
X202500000Y-80950000D03*
%TO.P,R3,2*%
%TO.N,Net-(C2-Pad2)*%
X202500000Y-83875000D03*
%TD*%
%TO.P,R2,2*%
%TO.N,Net-(U3C-+)*%
X184000000Y-70425000D03*
%TO.P,R2,1*%
%TO.N,Net-(R2-Pad1)*%
X184000000Y-67500000D03*
%TD*%
D20*
%TO.P,J1,R*%
%TO.N,N/C*%
X218350000Y-74150000D03*
%TO.P,J1,S*%
%TO.N,GND*%
X225750000Y-76150000D03*
D21*
%TO.P,J1,T*%
%TO.N,Net-(C1-Pad1)*%
X225750000Y-66750000D03*
%TD*%
D15*
%TO.P,R7,1*%
%TO.N,Net-(C4-Pad2)*%
X202500000Y-111925000D03*
%TO.P,R7,2*%
%TO.N,GND*%
X202500000Y-109000000D03*
%TD*%
D23*
%TO.P,C3,1*%
%TO.N,Net-(U3D-+)*%
X216800000Y-86250000D03*
%TO.P,C3,2*%
%TO.N,GND*%
X219750000Y-86250000D03*
%TD*%
D24*
%TO.N,Net-(U1D-+)*%
X92000000Y-87500000D03*
X92000000Y-89500000D03*
%TO.N,Net-(R2-Pad1)*%
X182500000Y-87500000D03*
%TO.N,GND*%
X191000000Y-91500000D03*
X185861935Y-89794086D03*
X203000000Y-103500000D03*
%TO.N,Net-(U3C-+)*%
X187262299Y-87762299D03*
X186000000Y-74500000D03*
X189000000Y-74500000D03*
%TO.N,Net-(U2B-+)*%
X143000000Y-86500000D03*
%TO.N,Net-(C5-Pad1)*%
X195275500Y-89500000D03*
X196724500Y-89500000D03*
X221250000Y-89250000D03*
%TO.N,Net-(C1-Pad1)*%
X211974500Y-66750000D03*
X210250000Y-66750000D03*
%TO.N,Net-(U3D-+)*%
X187978028Y-90775832D03*
%TO.N,Net-(U3B-+)*%
X171000000Y-90724500D03*
X169275500Y-92000000D03*
%TO.N,Net-(C5-Pad1)*%
X190000000Y-86000000D03*
%TO.N,Net-(U3D--)*%
X187500000Y-86500000D03*
X187000000Y-69500000D03*
X187000000Y-71500000D03*
%TO.N,Net-(R2-Pad1)*%
X184000000Y-54125500D03*
X184000000Y-55574500D03*
X178500000Y-88500000D03*
%TO.N,Net-(C5-Pad1)*%
X177487701Y-96512299D03*
%TO.N,Net-(U3B-+)*%
X171000000Y-79000000D03*
X168500000Y-79000000D03*
%TO.N,Net-(C24-Pad2)*%
X189000000Y-99500000D03*
X196000000Y-99500000D03*
%TO.N,Net-(U2B-+)*%
X142250250Y-91249750D03*
%TO.N,VCC*%
X185500000Y-93000000D03*
X144000000Y-93000000D03*
%TO.N,Net-(C18-Pad1)*%
X154500000Y-83500000D03*
X154500000Y-81500000D03*
%TO.N,GND*%
X180500000Y-90000000D03*
X143500000Y-90000000D03*
%TO.N,Net-(U2A-+)*%
X140000000Y-97500000D03*
X136487701Y-95487701D03*
%TO.N,GND*%
X143000000Y-92000000D03*
X88000000Y-93000000D03*
%TO.N,VCC*%
X143000000Y-93000000D03*
X83780500Y-94000000D03*
%TD*%
D25*
%TO.N,Net-(U3D--)*%
X191550000Y-54850000D02*
X188550000Y-54850000D01*
%TO.N,Net-(U1D-+)*%
X92000000Y-89500000D02*
X92000000Y-87500000D01*
%TO.N,Net-(R2-Pad1)*%
X183000000Y-87500000D02*
X182500000Y-87500000D01*
X183000000Y-91500000D02*
X183000000Y-87500000D01*
X186500000Y-91500000D02*
X183000000Y-91500000D01*
X187000000Y-92000000D02*
X186500000Y-91500000D01*
X187000000Y-101000000D02*
X187000000Y-92000000D01*
X184500000Y-103500000D02*
X187000000Y-101000000D01*
X196500000Y-103500000D02*
X184500000Y-103500000D01*
X196500000Y-111500000D02*
X196500000Y-103500000D01*
X200850000Y-115850000D02*
X196500000Y-111500000D01*
X200850000Y-126275000D02*
X200850000Y-115850000D01*
X202500000Y-127925000D02*
X200850000Y-126275000D01*
%TO.N,GND*%
X187568681Y-91500832D02*
X185861935Y-89794086D01*
X190999168Y-91500832D02*
X187568681Y-91500832D01*
X191000000Y-91500000D02*
X190999168Y-91500832D01*
X203000000Y-104000000D02*
X203000000Y-103500000D01*
X202750000Y-104250000D02*
X203000000Y-104000000D01*
%TO.N,Net-(U3C-+)*%
X191000000Y-87500000D02*
X187524598Y-87500000D01*
X187524598Y-87500000D02*
X187262299Y-87762299D01*
X191000000Y-76450000D02*
X191000000Y-87500000D01*
X191000000Y-76450000D02*
X190950000Y-76450000D01*
X202000000Y-76450000D02*
X191000000Y-76450000D01*
%TO.N,Net-(U3D-+)*%
X201500000Y-97500000D02*
X204500000Y-97500000D01*
X204500000Y-97500000D02*
X206000000Y-96000000D01*
X201300000Y-97700000D02*
X201500000Y-97500000D01*
X201300000Y-123800000D02*
X201300000Y-97700000D01*
X202500000Y-125000000D02*
X201300000Y-123800000D01*
%TO.N,GND*%
X202500000Y-104500000D02*
X202750000Y-104250000D01*
X202500000Y-109000000D02*
X202500000Y-104500000D01*
X202750000Y-104250000D02*
X218350000Y-104250000D01*
%TO.N,Net-(C4-Pad2)*%
X217500000Y-114500000D02*
X218350000Y-113650000D01*
X202500000Y-114500000D02*
X217500000Y-114500000D01*
X202500000Y-111925000D02*
X202500000Y-114500000D01*
%TO.N,Net-(R2-Pad1)*%
X212250000Y-129750000D02*
X212250000Y-128250000D01*
X204500000Y-129925000D02*
X204500000Y-130000000D01*
X204500000Y-130000000D02*
X212000000Y-130000000D01*
X202500000Y-127925000D02*
X204500000Y-129925000D01*
X212000000Y-130000000D02*
X212250000Y-129750000D01*
%TO.N,Net-(C2-Pad2)*%
X202000000Y-84375000D02*
X202500000Y-83875000D01*
X202000000Y-87500000D02*
X202000000Y-84375000D01*
%TO.N,Net-(C2-Pad1)*%
X206500000Y-90450000D02*
X211249500Y-85700500D01*
X202000000Y-90450000D02*
X206500000Y-90450000D01*
%TO.N,Net-(U3C-+)*%
X186000000Y-72425000D02*
X184000000Y-70425000D01*
X186000000Y-74500000D02*
X186000000Y-72425000D01*
X190950000Y-76450000D02*
X189000000Y-74500000D01*
%TO.N,Net-(U2B-+)*%
X142749750Y-90750250D02*
X142250250Y-91249750D01*
X142775000Y-86725000D02*
X142775000Y-90573923D01*
X143000000Y-86500000D02*
X142775000Y-86725000D01*
%TO.N,Net-(C5-Pad2)*%
X185550000Y-108500000D02*
X185000000Y-107950000D01*
X191500000Y-108500000D02*
X185550000Y-108500000D01*
X191550000Y-108550000D02*
X191500000Y-108500000D01*
X191550000Y-128350000D02*
X191550000Y-108550000D01*
X190500000Y-129400000D02*
X191550000Y-128350000D01*
X190500000Y-130500000D02*
X190500000Y-129400000D01*
X177000000Y-130500000D02*
X190500000Y-130500000D01*
X175050000Y-128550000D02*
X177000000Y-130500000D01*
%TO.N,Net-(U3D--)*%
X188550000Y-54850000D02*
X175050000Y-54850000D01*
X187425000Y-58075000D02*
X188550000Y-56950000D01*
X187500000Y-60968808D02*
X187425000Y-60893808D01*
X188550000Y-56950000D02*
X188550000Y-54850000D01*
X187500000Y-69000000D02*
X187500000Y-60968808D01*
X187425000Y-60893808D02*
X187425000Y-58075000D01*
X187000000Y-69500000D02*
X187500000Y-69000000D01*
%TO.N,Net-(C5-Pad1)*%
X185000000Y-105000000D02*
X183550000Y-105000000D01*
%TO.N,Net-(C1-Pad1)*%
X204000000Y-65500000D02*
X205250000Y-66750000D01*
X202000000Y-65500000D02*
X204000000Y-65500000D01*
%TO.N,Net-(C2-Pad1)*%
X211250000Y-54750000D02*
X212250000Y-54750000D01*
%TO.N,Net-(U3D-+)*%
X215750000Y-86250000D02*
X216800000Y-86250000D01*
X206000000Y-96000000D02*
X215750000Y-86250000D01*
X197000000Y-96000000D02*
X206000000Y-96000000D01*
%TO.N,Net-(C2-Pad1)*%
X211249500Y-85700500D02*
X211249500Y-55750500D01*
X211249500Y-55750500D02*
X212250000Y-54750000D01*
%TO.N,Net-(C1-Pad1)*%
X210250000Y-66750000D02*
X205250000Y-66750000D01*
%TO.N,Net-(R2-Pad1)*%
X201300000Y-53500000D02*
X201150000Y-53650000D01*
X206500000Y-53500000D02*
X201300000Y-53500000D01*
X206500000Y-53500000D02*
X207750000Y-54750000D01*
X207750000Y-54750000D02*
X208750000Y-54750000D01*
%TO.N,Net-(C5-Pad1)*%
X196724500Y-89500000D02*
X195275500Y-89500000D01*
X222825000Y-89250000D02*
X221250000Y-89250000D01*
%TO.N,GND*%
X218350000Y-87650000D02*
X219750000Y-86250000D01*
X218350000Y-104250000D02*
X218350000Y-87650000D01*
%TO.N,Net-(U3C-+)*%
X202000000Y-80450000D02*
X202500000Y-80950000D01*
X202000000Y-76450000D02*
X202000000Y-80450000D01*
%TO.N,Net-(C1-Pad2)*%
X202000000Y-68450000D02*
X202000000Y-73525000D01*
%TO.N,Net-(C1-Pad1)*%
X211974500Y-66750000D02*
X225750000Y-66750000D01*
%TO.N,Net-(C2-Pad1)*%
X211250000Y-54750000D02*
X211250000Y-85700000D01*
%TO.N,Net-(U3D-+)*%
X188253860Y-90500000D02*
X187978028Y-90775832D01*
X192000000Y-90500000D02*
X188253860Y-90500000D01*
X197000000Y-96000000D02*
X192000000Y-96000000D01*
X192000000Y-96000000D02*
X192000000Y-90500000D01*
%TO.N,Net-(C4-Pad2)*%
X218350000Y-121200000D02*
X218350000Y-113650000D01*
X218300000Y-121250000D02*
X218350000Y-121200000D01*
%TO.N,Net-(C4-Pad1)*%
X223275000Y-119225000D02*
X221250000Y-121250000D01*
X223275000Y-91725000D02*
X223275000Y-119225000D01*
X225750000Y-89250000D02*
X223275000Y-91725000D01*
%TO.N,GND*%
X225750000Y-86250000D02*
X219750000Y-86250000D01*
X225750000Y-76150000D02*
X225750000Y-86250000D01*
%TO.N,Net-(U3B-+)*%
X169275500Y-92000000D02*
X169724500Y-92000000D01*
X169724500Y-92000000D02*
X171000000Y-90724500D01*
%TO.N,Net-(C5-Pad1)*%
X190000000Y-78000000D02*
X190000000Y-86000000D01*
X183500000Y-78000000D02*
X190000000Y-78000000D01*
%TO.N,Net-(U3D--)*%
X186000000Y-88000000D02*
X187500000Y-86500000D01*
X183500000Y-88000000D02*
X186000000Y-88000000D01*
X183500000Y-80925000D02*
X183500000Y-88000000D01*
X187000000Y-76500000D02*
X187000000Y-71500000D01*
X181500000Y-76500000D02*
X187000000Y-76500000D01*
X181000000Y-77000000D02*
X181500000Y-76500000D01*
X181000000Y-81000000D02*
X181000000Y-77000000D01*
X181075000Y-80925000D02*
X181000000Y-81000000D01*
X183500000Y-80925000D02*
X181075000Y-80925000D01*
%TO.N,Net-(R2-Pad1)*%
X184475500Y-53650000D02*
X201150000Y-53650000D01*
X184000000Y-54125500D02*
X184475500Y-53650000D01*
X184000000Y-59931192D02*
X184000000Y-55574500D01*
X184000000Y-67500000D02*
X184000000Y-59931192D01*
X179000000Y-88000000D02*
X178500000Y-88500000D01*
X179000000Y-67500000D02*
X179000000Y-88000000D01*
X184000000Y-67500000D02*
X179000000Y-67500000D01*
%TO.N,Net-(C5-Pad1)*%
X174500000Y-105000000D02*
X183450000Y-105000000D01*
X174987701Y-96512299D02*
X174500000Y-97000000D01*
X177487701Y-96512299D02*
X174987701Y-96512299D01*
X174500000Y-97000000D02*
X174500000Y-105000000D01*
%TO.N,Net-(U3B-+)*%
X168500000Y-79000000D02*
X171000000Y-79000000D01*
%TO.N,Net-(C24-Pad2)*%
X196000000Y-99500000D02*
X189000000Y-99500000D01*
%TO.N,Net-(U3D--)*%
X161050000Y-54850000D02*
X175050000Y-54850000D01*
X146550000Y-54850000D02*
X161050000Y-54850000D01*
X146536000Y-54836000D02*
X146550000Y-54850000D01*
X132550000Y-54836000D02*
X146536000Y-54836000D01*
X118550000Y-54750000D02*
X132464000Y-54750000D01*
X132464000Y-54750000D02*
X132550000Y-54836000D01*
X103862000Y-54750000D02*
X118550000Y-54750000D01*
%TO.N,VCC*%
X144000000Y-93000000D02*
X185500000Y-93000000D01*
%TO.N,Net-(C18-Pad1)*%
X154500000Y-81500000D02*
X154500000Y-83500000D01*
%TO.N,Net-(C5-Pad2)*%
X175050000Y-128350000D02*
X175050000Y-128550000D01*
X174000000Y-130000000D02*
X175050000Y-128950000D01*
X162500000Y-130000000D02*
X174000000Y-130000000D01*
X162500000Y-129800000D02*
X162500000Y-130000000D01*
X175050000Y-128950000D02*
X175050000Y-128350000D01*
X161050000Y-128350000D02*
X162500000Y-129800000D01*
X160000000Y-130000000D02*
X161050000Y-128950000D01*
X148000000Y-130000000D02*
X160000000Y-130000000D01*
X161050000Y-128950000D02*
X161050000Y-128350000D01*
X146550000Y-128550000D02*
X148000000Y-130000000D01*
X146550000Y-128350000D02*
X146550000Y-128550000D01*
X145500000Y-130000000D02*
X145500000Y-129400000D01*
X134214000Y-130000000D02*
X145500000Y-130000000D01*
X145500000Y-129400000D02*
X146550000Y-128350000D01*
X132550000Y-128336000D02*
X134214000Y-130000000D01*
X120300000Y-130000000D02*
X131500000Y-130000000D01*
X132550000Y-128950000D02*
X132550000Y-128336000D01*
X118550000Y-128250000D02*
X120300000Y-130000000D01*
X131500000Y-130000000D02*
X132550000Y-128950000D01*
X118550000Y-129450000D02*
X118550000Y-128250000D01*
X118000000Y-130000000D02*
X118550000Y-129450000D01*
X105612000Y-130000000D02*
X118000000Y-130000000D01*
X103862000Y-128250000D02*
X105612000Y-130000000D01*
%TO.N,GND*%
X143500000Y-90000000D02*
X180500000Y-90000000D01*
%TO.N,Net-(U2A-+)*%
X138500000Y-97500000D02*
X140000000Y-97500000D01*
X136487701Y-95487701D02*
X138500000Y-97500000D01*
%TO.N,GND*%
X88000000Y-93000000D02*
X89000000Y-92000000D01*
X89000000Y-92000000D02*
X143000000Y-92000000D01*
%TO.N,VCC*%
X138500000Y-94000000D02*
X139500000Y-93000000D01*
X83780500Y-94000000D02*
X138500000Y-94000000D01*
X139500000Y-93000000D02*
X143000000Y-93000000D01*
%TO.N,Net-(U3D--)*%
X89638000Y-54750000D02*
X103862000Y-54750000D01*
X89384000Y-54496000D02*
X89638000Y-54750000D01*
X76430000Y-54496000D02*
X89384000Y-54496000D01*
X63222000Y-54496000D02*
X76430000Y-54496000D01*
%TO.N,Net-(C5-Pad2)*%
X102662000Y-129450000D02*
X90838000Y-129450000D01*
X103862000Y-128250000D02*
X102662000Y-129450000D01*
X90838000Y-129450000D02*
X89638000Y-128250000D01*
X77630000Y-129196000D02*
X88692000Y-129196000D01*
X76430000Y-127996000D02*
X77630000Y-129196000D01*
X88692000Y-129196000D02*
X89638000Y-128250000D01*
X64422000Y-129196000D02*
X75230000Y-129196000D01*
X75230000Y-129196000D02*
X76430000Y-127996000D01*
X63222000Y-127996000D02*
X64422000Y-129196000D01*
%TD*%
M02*
