%TF.GenerationSoftware,KiCad,Pcbnew,7.0.6*%
%TF.CreationDate,2023-07-25T19:50:32+05:30*%
%TF.ProjectId,10 channel equalizer,31302063-6861-46e6-9e65-6c2065717561,rev?*%
%TF.SameCoordinates,Original*%
%TF.FileFunction,Copper,L2,Bot*%
%TF.FilePolarity,Positive*%
%FSLAX46Y46*%
G04 Gerber Fmt 4.6, Leading zero omitted, Abs format (unit mm)*
G04 Created by KiCad (PCBNEW 7.0.6) date 2023-07-25 19:50:32*
%MOMM*%
%LPD*%
G01*
G04 APERTURE LIST*
G04 Aperture macros list*
%AMRoundRect*
0 Rectangle with rounded corners*
0 $1 Rounding radius*
0 $2 $3 $4 $5 $6 $7 $8 $9 X,Y pos of 4 corners*
0 Add a 4 corners polygon primitive as box body*
4,1,4,$2,$3,$4,$5,$6,$7,$8,$9,$2,$3,0*
0 Add four circle primitives for the rounded corners*
1,1,$1+$1,$2,$3*
1,1,$1+$1,$4,$5*
1,1,$1+$1,$6,$7*
1,1,$1+$1,$8,$9*
0 Add four rect primitives between the rounded corners*
20,1,$1+$1,$2,$3,$4,$5,0*
20,1,$1+$1,$4,$5,$6,$7,0*
20,1,$1+$1,$6,$7,$8,$9,0*
20,1,$1+$1,$8,$9,$2,$3,0*%
G04 Aperture macros list end*
%TA.AperFunction,ComponentPad*%
%ADD10R,1.750000X1.750000*%
%TD*%
%TA.AperFunction,ComponentPad*%
%ADD11C,1.750000*%
%TD*%
%TA.AperFunction,ComponentPad*%
%ADD12C,2.700000*%
%TD*%
%TA.AperFunction,SMDPad,CuDef*%
%ADD13RoundRect,0.250000X-0.312500X-0.625000X0.312500X-0.625000X0.312500X0.625000X-0.312500X0.625000X0*%
%TD*%
%TA.AperFunction,SMDPad,CuDef*%
%ADD14RoundRect,0.250000X-0.325000X-0.650000X0.325000X-0.650000X0.325000X0.650000X-0.325000X0.650000X0*%
%TD*%
%TA.AperFunction,SMDPad,CuDef*%
%ADD15RoundRect,0.250000X0.650000X-0.325000X0.650000X0.325000X-0.650000X0.325000X-0.650000X-0.325000X0*%
%TD*%
%TA.AperFunction,SMDPad,CuDef*%
%ADD16RoundRect,0.250000X0.325000X0.650000X-0.325000X0.650000X-0.325000X-0.650000X0.325000X-0.650000X0*%
%TD*%
%TA.AperFunction,SMDPad,CuDef*%
%ADD17RoundRect,0.150000X0.150000X-0.825000X0.150000X0.825000X-0.150000X0.825000X-0.150000X-0.825000X0*%
%TD*%
%TA.AperFunction,SMDPad,CuDef*%
%ADD18RoundRect,0.250000X0.625000X-0.312500X0.625000X0.312500X-0.625000X0.312500X-0.625000X-0.312500X0*%
%TD*%
%TA.AperFunction,SMDPad,CuDef*%
%ADD19RoundRect,0.250000X0.312500X0.625000X-0.312500X0.625000X-0.312500X-0.625000X0.312500X-0.625000X0*%
%TD*%
%TA.AperFunction,SMDPad,CuDef*%
%ADD20RoundRect,0.250000X-0.625000X0.312500X-0.625000X-0.312500X0.625000X-0.312500X0.625000X0.312500X0*%
%TD*%
%TA.AperFunction,SMDPad,CuDef*%
%ADD21RoundRect,0.150000X-0.825000X-0.150000X0.825000X-0.150000X0.825000X0.150000X-0.825000X0.150000X0*%
%TD*%
%TA.AperFunction,ViaPad*%
%ADD22C,0.800000*%
%TD*%
%TA.AperFunction,Conductor*%
%ADD23C,0.250000*%
%TD*%
G04 APERTURE END LIST*
D10*
%TO.P,RV9,1,1*%
%TO.N,Net-(C5-Pad2)*%
X161050000Y-128350000D03*
D11*
%TO.P,RV9,2,2*%
%TO.N,Net-(C20-Pad1)*%
X164550000Y-128350000D03*
%TO.P,RV9,3,3*%
%TO.N,Net-(U3D--)*%
X161050000Y-54850000D03*
D12*
%TO.P,RV9,MP*%
%TO.N,N/C*%
X167000000Y-124200000D03*
X158600000Y-123000000D03*
X158600000Y-60200000D03*
X167000000Y-59000000D03*
%TD*%
D10*
%TO.P,RV4,1,1*%
%TO.N,Net-(C5-Pad2)*%
X89638000Y-128250000D03*
D11*
%TO.P,RV4,2,2*%
%TO.N,Net-(C10-Pad1)*%
X93138000Y-128250000D03*
%TO.P,RV4,3,3*%
%TO.N,Net-(U3D--)*%
X89638000Y-54750000D03*
D12*
%TO.P,RV4,MP*%
%TO.N,N/C*%
X95588000Y-124100000D03*
X87188000Y-122900000D03*
X87188000Y-60100000D03*
X95588000Y-58900000D03*
%TD*%
D13*
%TO.P,R25,1*%
%TO.N,Net-(C22-Pad2)*%
X183075000Y-112500000D03*
%TO.P,R25,2*%
%TO.N,Net-(U3A--)*%
X186000000Y-112500000D03*
%TD*%
D10*
%TO.P,RV10,1,1*%
%TO.N,Net-(C5-Pad2)*%
X175050000Y-128350000D03*
D11*
%TO.P,RV10,2,2*%
%TO.N,Net-(C22-Pad1)*%
X178550000Y-128350000D03*
%TO.P,RV10,3,3*%
%TO.N,Net-(U3D--)*%
X175050000Y-54850000D03*
D12*
%TO.P,RV10,MP*%
%TO.N,N/C*%
X181000000Y-124200000D03*
X172600000Y-123000000D03*
X172600000Y-60200000D03*
X181000000Y-59000000D03*
%TD*%
D14*
%TO.P,C14,1*%
%TO.N,Net-(C14-Pad1)*%
X126550000Y-126500000D03*
%TO.P,C14,2*%
%TO.N,Net-(C14-Pad2)*%
X129500000Y-126500000D03*
%TD*%
D15*
%TO.P,C22,1*%
%TO.N,Net-(C22-Pad1)*%
X179500000Y-119450000D03*
%TO.P,C22,2*%
%TO.N,Net-(C22-Pad2)*%
X179500000Y-116500000D03*
%TD*%
%TO.P,C21,1*%
%TO.N,Net-(C20-Pad2)*%
X158000000Y-71950000D03*
%TO.P,C21,2*%
%TO.N,Net-(U2D-+)*%
X158000000Y-69000000D03*
%TD*%
D16*
%TO.P,C18,1*%
%TO.N,Net-(C18-Pad1)*%
X150000000Y-68000000D03*
%TO.P,C18,2*%
%TO.N,Net-(C18-Pad2)*%
X147050000Y-68000000D03*
%TD*%
D17*
%TO.P,U3,1*%
%TO.N,Net-(U3A--)*%
X190000000Y-94450000D03*
%TO.P,U3,2,-*%
X188730000Y-94450000D03*
%TO.P,U3,3,+*%
%TO.N,Net-(U3A-+)*%
X187460000Y-94450000D03*
%TO.P,U3,4,V+*%
%TO.N,VCC*%
X186190000Y-94450000D03*
%TO.P,U3,5,+*%
%TO.N,Net-(U3B-+)*%
X184920000Y-94450000D03*
%TO.P,U3,6,-*%
%TO.N,Net-(U3B--)*%
X183650000Y-94450000D03*
%TO.P,U3,7*%
X182380000Y-94450000D03*
%TO.P,U3,8*%
%TO.N,Net-(R2-Pad1)*%
X182380000Y-89500000D03*
%TO.P,U3,9,-*%
%TO.N,GND*%
X183650000Y-89500000D03*
%TO.P,U3,10,+*%
%TO.N,Net-(U3C-+)*%
X184920000Y-89500000D03*
%TO.P,U3,11,V-*%
%TO.N,GND*%
X186190000Y-89500000D03*
%TO.P,U3,12,+*%
%TO.N,Net-(U3D-+)*%
X187460000Y-89500000D03*
%TO.P,U3,13,-*%
%TO.N,Net-(U3D--)*%
X188730000Y-89500000D03*
%TO.P,U3,14*%
%TO.N,Net-(C5-Pad1)*%
X190000000Y-89500000D03*
%TD*%
D10*
%TO.P,RV7,1,1*%
%TO.N,Net-(C5-Pad2)*%
X132550000Y-128336000D03*
D11*
%TO.P,RV7,2,2*%
%TO.N,Net-(C16-Pad1)*%
X136050000Y-128336000D03*
%TO.P,RV7,3,3*%
%TO.N,Net-(U3D--)*%
X132550000Y-54836000D03*
D12*
%TO.P,RV7,MP*%
%TO.N,N/C*%
X138500000Y-124186000D03*
X130100000Y-122986000D03*
X130100000Y-60186000D03*
X138500000Y-58986000D03*
%TD*%
D18*
%TO.P,R19,1*%
%TO.N,Net-(C16-Pad2)*%
X118668000Y-115425000D03*
%TO.P,R19,2*%
%TO.N,Net-(U2B--)*%
X118668000Y-112500000D03*
%TD*%
D10*
%TO.P,RV1,1,1*%
%TO.N,Net-(C2-Pad1)*%
X212250000Y-54750000D03*
D11*
%TO.P,RV1,2,2*%
%TO.N,Net-(R2-Pad1)*%
X208750000Y-54750000D03*
%TO.P,RV1,3,3*%
X212250000Y-128250000D03*
D12*
%TO.P,RV1,MP*%
%TO.N,N/C*%
X206300000Y-58900000D03*
X214700000Y-60100000D03*
X214700000Y-122900000D03*
X206300000Y-124100000D03*
%TD*%
D15*
%TO.P,C24,1*%
%TO.N,Net-(C24-Pad1)*%
X193000000Y-100450000D03*
%TO.P,C24,2*%
%TO.N,Net-(C24-Pad2)*%
X193000000Y-97500000D03*
%TD*%
D19*
%TO.P,R26,1*%
%TO.N,Net-(U3B-+)*%
X166000000Y-79000000D03*
%TO.P,R26,2*%
%TO.N,Net-(R10-Pad2)*%
X163075000Y-79000000D03*
%TD*%
D18*
%TO.P,R27,1*%
%TO.N,Net-(C24-Pad2)*%
X176000000Y-97425000D03*
%TO.P,R27,2*%
%TO.N,Net-(U3B--)*%
X176000000Y-94500000D03*
%TD*%
D19*
%TO.P,R24,1*%
%TO.N,Net-(U3A-+)*%
X162500000Y-63500000D03*
%TO.P,R24,2*%
%TO.N,Net-(R10-Pad2)*%
X159575000Y-63500000D03*
%TD*%
%TO.P,R21,1*%
%TO.N,Net-(C18-Pad2)*%
X143668000Y-73500000D03*
%TO.P,R21,2*%
%TO.N,Net-(U2C--)*%
X140743000Y-73500000D03*
%TD*%
D10*
%TO.P,RV6,1,1*%
%TO.N,Net-(C5-Pad2)*%
X118550000Y-128250000D03*
D11*
%TO.P,RV6,2,2*%
%TO.N,Net-(C14-Pad1)*%
X122050000Y-128250000D03*
%TO.P,RV6,3,3*%
%TO.N,Net-(U3D--)*%
X118550000Y-54750000D03*
D12*
%TO.P,RV6,MP*%
%TO.N,N/C*%
X124500000Y-124100000D03*
X116100000Y-122900000D03*
X116100000Y-60100000D03*
X124500000Y-58900000D03*
%TD*%
D10*
%TO.P,RV11,1,1*%
%TO.N,Net-(C5-Pad2)*%
X191550000Y-128350000D03*
D11*
%TO.P,RV11,2,2*%
%TO.N,Net-(C24-Pad1)*%
X195050000Y-128350000D03*
%TO.P,RV11,3,3*%
%TO.N,Net-(U3D--)*%
X191550000Y-54850000D03*
D12*
%TO.P,RV11,MP*%
%TO.N,N/C*%
X197500000Y-124200000D03*
X189100000Y-123000000D03*
X189100000Y-60200000D03*
X197500000Y-59000000D03*
%TD*%
D17*
%TO.P,U2,1*%
%TO.N,Net-(U2A--)*%
X147168000Y-94450000D03*
%TO.P,U2,2,-*%
X145898000Y-94450000D03*
%TO.P,U2,3,+*%
%TO.N,Net-(U2A-+)*%
X144628000Y-94450000D03*
%TO.P,U2,4,V+*%
%TO.N,VCC*%
X143358000Y-94450000D03*
%TO.P,U2,5,+*%
%TO.N,Net-(U2B-+)*%
X142088000Y-94450000D03*
%TO.P,U2,6,-*%
%TO.N,Net-(U2B--)*%
X140818000Y-94450000D03*
%TO.P,U2,7*%
X139548000Y-94450000D03*
%TO.P,U2,8*%
%TO.N,Net-(U2C--)*%
X139548000Y-89500000D03*
%TO.P,U2,9,-*%
X140818000Y-89500000D03*
%TO.P,U2,10,+*%
%TO.N,Net-(U2C-+)*%
X142088000Y-89500000D03*
%TO.P,U2,11,V-*%
%TO.N,GND*%
X143358000Y-89500000D03*
%TO.P,U2,12,+*%
%TO.N,Net-(U2D-+)*%
X144628000Y-89500000D03*
%TO.P,U2,13,-*%
%TO.N,Net-(U2D--)*%
X145898000Y-89500000D03*
%TO.P,U2,14*%
X147168000Y-89500000D03*
%TD*%
D15*
%TO.P,C16,1*%
%TO.N,Net-(C16-Pad1)*%
X128500000Y-116950000D03*
%TO.P,C16,2*%
%TO.N,Net-(C16-Pad2)*%
X128500000Y-114000000D03*
%TD*%
D10*
%TO.P,RV5,1,1*%
%TO.N,Net-(C5-Pad2)*%
X103862000Y-128250000D03*
D11*
%TO.P,RV5,2,2*%
%TO.N,Net-(C12-Pad1)*%
X107362000Y-128250000D03*
%TO.P,RV5,3,3*%
%TO.N,Net-(U3D--)*%
X103862000Y-54750000D03*
D12*
%TO.P,RV5,MP*%
%TO.N,N/C*%
X109812000Y-124100000D03*
X101412000Y-122900000D03*
X101412000Y-60100000D03*
X109812000Y-58900000D03*
%TD*%
D15*
%TO.P,C15,1*%
%TO.N,Net-(C14-Pad2)*%
X144668000Y-104950000D03*
%TO.P,C15,2*%
%TO.N,Net-(U2A-+)*%
X144668000Y-102000000D03*
%TD*%
D19*
%TO.P,R18,1*%
%TO.N,Net-(U2B-+)*%
X145168000Y-81000000D03*
%TO.P,R18,2*%
%TO.N,Net-(R10-Pad2)*%
X142243000Y-81000000D03*
%TD*%
D20*
%TO.P,R23,1*%
%TO.N,Net-(C20-Pad2)*%
X151500000Y-82500000D03*
%TO.P,R23,2*%
%TO.N,Net-(U2D--)*%
X151500000Y-85425000D03*
%TD*%
D16*
%TO.P,C25,1*%
%TO.N,Net-(C24-Pad2)*%
X192000000Y-80000000D03*
%TO.P,C25,2*%
%TO.N,Net-(U3B-+)*%
X189050000Y-80000000D03*
%TD*%
D18*
%TO.P,R16,1*%
%TO.N,Net-(U2A-+)*%
X121168000Y-67925000D03*
%TO.P,R16,2*%
%TO.N,Net-(R10-Pad2)*%
X121168000Y-65000000D03*
%TD*%
D19*
%TO.P,R20,1*%
%TO.N,Net-(U2C-+)*%
X131500000Y-64000000D03*
%TO.P,R20,2*%
%TO.N,Net-(R10-Pad2)*%
X128575000Y-64000000D03*
%TD*%
D10*
%TO.P,RV8,1,1*%
%TO.N,Net-(C5-Pad2)*%
X146550000Y-128350000D03*
D11*
%TO.P,RV8,2,2*%
%TO.N,Net-(C18-Pad1)*%
X150050000Y-128350000D03*
%TO.P,RV8,3,3*%
%TO.N,Net-(U3D--)*%
X146550000Y-54850000D03*
D12*
%TO.P,RV8,MP*%
%TO.N,N/C*%
X152500000Y-124200000D03*
X144100000Y-123000000D03*
X144100000Y-60200000D03*
X152500000Y-59000000D03*
%TD*%
D15*
%TO.P,C23,1*%
%TO.N,Net-(C22-Pad2)*%
X180000000Y-108950000D03*
%TO.P,C23,2*%
%TO.N,Net-(U3A-+)*%
X180000000Y-106000000D03*
%TD*%
%TO.P,C17,1*%
%TO.N,Net-(C16-Pad2)*%
X136168000Y-111450000D03*
%TO.P,C17,2*%
%TO.N,Net-(U2B-+)*%
X136168000Y-108500000D03*
%TD*%
D16*
%TO.P,C19,1*%
%TO.N,Net-(C18-Pad2)*%
X143500000Y-68000000D03*
%TO.P,C19,2*%
%TO.N,Net-(U2C-+)*%
X140550000Y-68000000D03*
%TD*%
D19*
%TO.P,R22,1*%
%TO.N,Net-(U2D-+)*%
X143500000Y-64000000D03*
%TO.P,R22,2*%
%TO.N,Net-(R10-Pad2)*%
X140575000Y-64000000D03*
%TD*%
D15*
%TO.P,C20,1*%
%TO.N,Net-(C20-Pad1)*%
X158000000Y-85450000D03*
%TO.P,C20,2*%
%TO.N,Net-(C20-Pad2)*%
X158000000Y-82500000D03*
%TD*%
D10*
%TO.P,RV3,1,1*%
%TO.N,Net-(C5-Pad2)*%
X76430000Y-127996000D03*
D11*
%TO.P,RV3,2,2*%
%TO.N,Net-(C8-Pad1)*%
X79930000Y-127996000D03*
%TO.P,RV3,3,3*%
%TO.N,Net-(U3D--)*%
X76430000Y-54496000D03*
D12*
%TO.P,RV3,MP*%
%TO.N,N/C*%
X82380000Y-123846000D03*
X73980000Y-122646000D03*
X73980000Y-59846000D03*
X82380000Y-58646000D03*
%TD*%
D18*
%TO.P,R17,1*%
%TO.N,Net-(C14-Pad2)*%
X152168000Y-104925000D03*
%TO.P,R17,2*%
%TO.N,Net-(U2A--)*%
X152168000Y-102000000D03*
%TD*%
D10*
%TO.P,RV2,1,1*%
%TO.N,Net-(C5-Pad2)*%
X63222000Y-127996000D03*
D11*
%TO.P,RV2,2,2*%
%TO.N,Net-(C7-Pad1)*%
X66722000Y-127996000D03*
%TO.P,RV2,3,3*%
%TO.N,Net-(U3D--)*%
X63222000Y-54496000D03*
D12*
%TO.P,RV2,MP*%
%TO.N,N/C*%
X69172000Y-123846000D03*
X60772000Y-122646000D03*
X60772000Y-59846000D03*
X69172000Y-58646000D03*
%TD*%
D13*
%TO.P,R11,1*%
%TO.N,Net-(C8-Pad2)*%
X80217000Y-82522000D03*
%TO.P,R11,2*%
%TO.N,Net-(U1B--)*%
X83142000Y-82522000D03*
%TD*%
D20*
%TO.P,R8,1*%
%TO.N,Net-(C6-Pad1)*%
X72982000Y-98139000D03*
%TO.P,R8,2*%
%TO.N,Net-(U1A--)*%
X72982000Y-101064000D03*
%TD*%
D14*
%TO.P,C6,1*%
%TO.N,Net-(C6-Pad1)*%
X64444000Y-95222000D03*
%TO.P,C6,2*%
%TO.N,Net-(U1A-+)*%
X67394000Y-95222000D03*
%TD*%
D18*
%TO.P,R10,1*%
%TO.N,Net-(U1B-+)*%
X84920000Y-75918000D03*
%TO.P,R10,2*%
%TO.N,Net-(R10-Pad2)*%
X84920000Y-72993000D03*
%TD*%
D20*
%TO.P,R13,1*%
%TO.N,Net-(C10-Pad2)*%
X96350000Y-85570000D03*
%TO.P,R13,2*%
%TO.N,Net-(U1C--)*%
X96350000Y-88495000D03*
%TD*%
D16*
%TO.P,C11,1*%
%TO.N,Net-(C10-Pad2)*%
X89746000Y-85824000D03*
%TO.P,C11,2*%
%TO.N,Net-(U1C-+)*%
X86796000Y-85824000D03*
%TD*%
D19*
%TO.P,R15,1*%
%TO.N,Net-(C12-Pad2)*%
X95334000Y-93444000D03*
%TO.P,R15,2*%
%TO.N,Net-(U1D--)*%
X92409000Y-93444000D03*
%TD*%
D16*
%TO.P,C8,1*%
%TO.N,Net-(C8-Pad1)*%
X76997000Y-90396000D03*
%TO.P,C8,2*%
%TO.N,Net-(C8-Pad2)*%
X74047000Y-90396000D03*
%TD*%
D18*
%TO.P,R9,1*%
%TO.N,Net-(U1A-+)*%
X67140000Y-75541000D03*
%TO.P,R9,2*%
%TO.N,Net-(R10-Pad2)*%
X67140000Y-72616000D03*
%TD*%
D15*
%TO.P,C12,2*%
%TO.N,Net-(C12-Pad2)*%
X98128000Y-109036000D03*
%TO.P,C12,1*%
%TO.N,Net-(C12-Pad1)*%
X98128000Y-111986000D03*
%TD*%
D14*
%TO.P,C7,1*%
%TO.N,Net-(C7-Pad1)*%
X66730000Y-107922000D03*
%TO.P,C7,2*%
%TO.N,Net-(C6-Pad1)*%
X69680000Y-107922000D03*
%TD*%
D18*
%TO.P,R12,1*%
%TO.N,Net-(U1C-+)*%
X95588000Y-80490000D03*
%TO.P,R12,2*%
%TO.N,Net-(R10-Pad2)*%
X95588000Y-77565000D03*
%TD*%
D21*
%TO.P,U1,1*%
%TO.N,Net-(U1A--)*%
X81494000Y-97762000D03*
%TO.P,U1,2,-*%
X81494000Y-96492000D03*
%TO.P,U1,3,+*%
%TO.N,Net-(U1A-+)*%
X81494000Y-95222000D03*
%TO.P,U1,4,V+*%
%TO.N,VCC*%
X81494000Y-93952000D03*
%TO.P,U1,5,+*%
%TO.N,Net-(U1B-+)*%
X81494000Y-92682000D03*
%TO.P,U1,6,-*%
%TO.N,Net-(U1B--)*%
X81494000Y-91412000D03*
%TO.P,U1,7*%
X81494000Y-90142000D03*
%TO.P,U1,8*%
%TO.N,Net-(U1C--)*%
X86444000Y-90142000D03*
%TO.P,U1,9,-*%
X86444000Y-91412000D03*
%TO.P,U1,10,+*%
%TO.N,Net-(U1C-+)*%
X86444000Y-92682000D03*
%TO.P,U1,11,V-*%
%TO.N,GND*%
X86444000Y-93952000D03*
%TO.P,U1,12,+*%
%TO.N,Net-(U1D-+)*%
X86444000Y-95222000D03*
%TO.P,U1,13,-*%
%TO.N,Net-(U1D--)*%
X86444000Y-96492000D03*
%TO.P,U1,14*%
X86444000Y-97762000D03*
%TD*%
D18*
%TO.P,R14,1*%
%TO.N,Net-(U1D-+)*%
X89238000Y-81252000D03*
%TO.P,R14,2*%
%TO.N,Net-(R10-Pad2)*%
X89238000Y-78327000D03*
%TD*%
D16*
%TO.P,C10,1*%
%TO.N,Net-(C10-Pad1)*%
X93302000Y-110970000D03*
%TO.P,C10,2*%
%TO.N,Net-(C10-Pad2)*%
X90352000Y-110970000D03*
%TD*%
D15*
%TO.P,C9,1*%
%TO.N,Net-(C8-Pad2)*%
X73490000Y-82424000D03*
%TO.P,C9,2*%
%TO.N,Net-(U1B-+)*%
X73490000Y-79474000D03*
%TD*%
D16*
%TO.P,C13,1*%
%TO.N,Net-(C12-Pad2)*%
X108796000Y-87602000D03*
%TO.P,C13,2*%
%TO.N,Net-(U1D-+)*%
X105846000Y-87602000D03*
%TD*%
D22*
%TO.N,Net-(U1D-+)*%
X92000000Y-87500000D03*
X92000000Y-89500000D03*
%TO.N,Net-(R2-Pad1)*%
X182500000Y-87500000D03*
%TO.N,GND*%
X191000000Y-91500000D03*
X185861935Y-89794086D03*
X203000000Y-103500000D03*
%TO.N,Net-(U3C-+)*%
X187262299Y-87762299D03*
X186000000Y-74500000D03*
X189000000Y-74500000D03*
%TO.N,Net-(U2B-+)*%
X143000000Y-86500000D03*
%TO.N,Net-(C5-Pad1)*%
X195275500Y-89500000D03*
X196724500Y-89500000D03*
X221250000Y-89250000D03*
%TO.N,Net-(C1-Pad1)*%
X211974500Y-66750000D03*
X210250000Y-66750000D03*
%TO.N,Net-(U3D-+)*%
X187978028Y-90775832D03*
%TO.N,Net-(U3B-+)*%
X171000000Y-90724500D03*
X169275500Y-92000000D03*
%TO.N,Net-(C5-Pad1)*%
X190000000Y-86000000D03*
%TO.N,Net-(U3D--)*%
X187500000Y-86500000D03*
X187000000Y-69500000D03*
X187000000Y-71500000D03*
%TO.N,Net-(R2-Pad1)*%
X184000000Y-54125500D03*
X184000000Y-55574500D03*
X178500000Y-88500000D03*
%TO.N,Net-(C5-Pad1)*%
X177487701Y-96512299D03*
%TO.N,Net-(U3B-+)*%
X171000000Y-79000000D03*
X168500000Y-79000000D03*
%TO.N,Net-(C24-Pad2)*%
X189000000Y-99500000D03*
X196000000Y-99500000D03*
%TO.N,Net-(U2B-+)*%
X142250250Y-91249750D03*
%TO.N,VCC*%
X185500000Y-93000000D03*
X144000000Y-93000000D03*
%TO.N,Net-(C18-Pad1)*%
X154500000Y-83500000D03*
X154500000Y-81500000D03*
%TO.N,GND*%
X180500000Y-90000000D03*
X143500000Y-90000000D03*
%TO.N,Net-(U2A-+)*%
X140000000Y-97500000D03*
X136487701Y-95487701D03*
%TO.N,GND*%
X143000000Y-92000000D03*
X88000000Y-93000000D03*
%TO.N,VCC*%
X143000000Y-93000000D03*
X83780500Y-94000000D03*
%TD*%
D23*
%TO.N,Net-(U1D-+)*%
X92000000Y-87500000D02*
X95486000Y-87500000D01*
X89778000Y-95222000D02*
X90000000Y-95000000D01*
X90000000Y-95000000D02*
X90000000Y-91500000D01*
X86444000Y-95222000D02*
X89778000Y-95222000D01*
X90000000Y-91500000D02*
X92000000Y-89500000D01*
%TO.N,Net-(U1B--)*%
X81494000Y-91412000D02*
X81494000Y-90142000D01*
X83142000Y-89764000D02*
X81494000Y-91412000D01*
X83142000Y-82522000D02*
X83142000Y-89764000D01*
%TO.N,Net-(R2-Pad1)*%
X182500000Y-89380000D02*
X182380000Y-89500000D01*
X182500000Y-87500000D02*
X182500000Y-89380000D01*
%TO.N,GND*%
X185895914Y-89794086D02*
X186190000Y-89500000D01*
X185861935Y-89794086D02*
X185895914Y-89794086D01*
X192000000Y-92500000D02*
X191000000Y-91500000D01*
X195000000Y-92500000D02*
X192000000Y-92500000D01*
X195000000Y-100500000D02*
X195000000Y-92500000D01*
X200000000Y-100500000D02*
X195000000Y-100500000D01*
X203000000Y-103500000D02*
X200000000Y-100500000D01*
%TO.N,Net-(U3C-+)*%
X184920000Y-89876751D02*
X184920000Y-89500000D01*
X185843249Y-90800000D02*
X184920000Y-89876751D01*
X186700000Y-90800000D02*
X185843249Y-90800000D01*
X187262299Y-87762299D02*
X186835000Y-88189598D01*
X186835000Y-90665000D02*
X186700000Y-90800000D01*
X186835000Y-88189598D02*
X186835000Y-90665000D01*
X189000000Y-74500000D02*
X186000000Y-74500000D01*
%TO.N,Net-(U2B-+)*%
X143276731Y-86776731D02*
X143000000Y-86500000D01*
X144050000Y-86776731D02*
X143276731Y-86776731D01*
%TO.N,Net-(U2C-+)*%
X142000000Y-82500000D02*
X142000000Y-89412000D01*
X142000000Y-89412000D02*
X142088000Y-89500000D01*
%TO.N,Net-(C24-Pad1)*%
X195050000Y-102500000D02*
X193000000Y-100450000D01*
X195050000Y-128350000D02*
X195050000Y-102500000D01*
%TO.N,Net-(U3A--)*%
X190000000Y-112500000D02*
X186000000Y-112500000D01*
X194225000Y-96936827D02*
X194225000Y-98063173D01*
X194225000Y-98063173D02*
X193788173Y-98500000D01*
X193788173Y-98500000D02*
X190000000Y-98500000D01*
X193788173Y-96500000D02*
X194225000Y-96936827D01*
X190000000Y-96500000D02*
X193788173Y-96500000D01*
X190000000Y-98500000D02*
X190000000Y-112500000D01*
X190000000Y-94450000D02*
X190000000Y-96500000D01*
%TO.N,Net-(C22-Pad2)*%
X183075000Y-112025000D02*
X183075000Y-112500000D01*
X180000000Y-108950000D02*
X183075000Y-112025000D01*
%TO.N,Net-(C5-Pad1)*%
X190000000Y-91533249D02*
X190000000Y-89500000D01*
X188085000Y-93448249D02*
X190000000Y-91533249D01*
X187962701Y-96512299D02*
X188085000Y-96390000D01*
X177487701Y-96512299D02*
X187962701Y-96512299D01*
X188085000Y-96390000D02*
X188085000Y-93448249D01*
X221000000Y-89500000D02*
X221250000Y-89250000D01*
X196724500Y-89500000D02*
X221000000Y-89500000D01*
%TO.N,Net-(C10-Pad1)*%
X93138000Y-128250000D02*
X93138000Y-111134000D01*
X93138000Y-111134000D02*
X93302000Y-110970000D01*
%TO.N,Net-(C5-Pad1)*%
X195275500Y-89500000D02*
X190000000Y-89500000D01*
%TO.N,Net-(C1-Pad1)*%
X210250000Y-66750000D02*
X211974500Y-66750000D01*
%TO.N,Net-(U3D-+)*%
X187978028Y-90018028D02*
X187460000Y-89500000D01*
X187978028Y-90775832D02*
X187978028Y-90018028D01*
%TO.N,Net-(U3B-+)*%
X189000000Y-80050000D02*
X189050000Y-80000000D01*
X189000000Y-82500000D02*
X189000000Y-80050000D01*
X179224500Y-82500000D02*
X189000000Y-82500000D01*
X171000000Y-90724500D02*
X179224500Y-82500000D01*
X169975195Y-92699695D02*
X169275500Y-92000000D01*
X183546446Y-92699695D02*
X169975195Y-92699695D01*
X184920000Y-94073249D02*
X183546446Y-92699695D01*
X184920000Y-94450000D02*
X184920000Y-94073249D01*
%TO.N,Net-(C5-Pad1)*%
X190000000Y-86000000D02*
X190000000Y-89500000D01*
%TO.N,Net-(U3D--)*%
X188730000Y-87730000D02*
X188730000Y-89500000D01*
X187500000Y-86500000D02*
X188730000Y-87730000D01*
X187000000Y-71500000D02*
X187000000Y-69500000D01*
%TO.N,Net-(R2-Pad1)*%
X184000000Y-55574500D02*
X184000000Y-54125500D01*
X181380000Y-88500000D02*
X182380000Y-89500000D01*
X178500000Y-88500000D02*
X181380000Y-88500000D01*
%TO.N,Net-(U3B-+)*%
X188050000Y-79000000D02*
X189050000Y-80000000D01*
X166000000Y-79000000D02*
X168500000Y-79000000D01*
X171000000Y-79000000D02*
X188050000Y-79000000D01*
%TO.N,Net-(C24-Pad2)*%
X192500000Y-98000000D02*
X193000000Y-97500000D01*
X189000000Y-98000000D02*
X192500000Y-98000000D01*
X189000000Y-99500000D02*
X189000000Y-98000000D01*
X196000000Y-99000000D02*
X196000000Y-99500000D01*
X196000000Y-84000000D02*
X196000000Y-99000000D01*
X192000000Y-80000000D02*
X196000000Y-84000000D01*
%TO.N,Net-(U3A-+)*%
X187500000Y-96000000D02*
X178000000Y-96000000D01*
X187460000Y-95960000D02*
X187500000Y-96000000D01*
X187460000Y-94450000D02*
X187460000Y-95960000D01*
X178000000Y-96000000D02*
X177500000Y-95500000D01*
X177500000Y-95500000D02*
X172500000Y-95500000D01*
X172500000Y-95500000D02*
X172500000Y-106000000D01*
X172500000Y-106000000D02*
X180000000Y-106000000D01*
%TO.N,Net-(U3A--)*%
X190000000Y-94450000D02*
X188730000Y-94450000D01*
%TO.N,Net-(U3A-+)*%
X187460000Y-93934695D02*
X187460000Y-94450000D01*
X185525305Y-92000000D02*
X187460000Y-93934695D01*
X170000000Y-92000000D02*
X185525305Y-92000000D01*
X170000000Y-63500000D02*
X170000000Y-92000000D01*
X162500000Y-63500000D02*
X170000000Y-63500000D01*
%TO.N,Net-(C24-Pad2)*%
X192925000Y-97425000D02*
X193000000Y-97500000D01*
X176000000Y-97425000D02*
X192925000Y-97425000D01*
%TO.N,Net-(U3B--)*%
X176050000Y-94450000D02*
X176000000Y-94500000D01*
X183650000Y-94450000D02*
X176050000Y-94450000D01*
%TO.N,Net-(C22-Pad2)*%
X180000000Y-116000000D02*
X179500000Y-116500000D01*
X180000000Y-108950000D02*
X180000000Y-116000000D01*
%TO.N,Net-(C22-Pad1)*%
X178550000Y-120400000D02*
X178550000Y-128350000D01*
X179500000Y-119450000D02*
X178550000Y-120400000D01*
%TO.N,Net-(U2A--)*%
X147168000Y-94450000D02*
X145898000Y-94450000D01*
X152000000Y-94500000D02*
X147218000Y-94500000D01*
X152168000Y-94668000D02*
X152000000Y-94500000D01*
X152168000Y-102000000D02*
X152168000Y-94668000D01*
X147218000Y-94500000D02*
X147168000Y-94450000D01*
%TO.N,Net-(U2B-+)*%
X142250250Y-91249750D02*
X142250250Y-94438827D01*
X144050000Y-82118000D02*
X144050000Y-86776731D01*
X145168000Y-81000000D02*
X144050000Y-82118000D01*
%TO.N,Net-(R10-Pad2)*%
X142450000Y-65375000D02*
X140575000Y-63500000D01*
X142450000Y-80793000D02*
X142450000Y-65375000D01*
X142243000Y-81000000D02*
X142450000Y-80793000D01*
%TO.N,Net-(U2C-+)*%
X141500000Y-82500000D02*
X142000000Y-82500000D01*
X141355500Y-82355500D02*
X141500000Y-82500000D01*
X141355500Y-80136827D02*
X141355500Y-82355500D01*
X142000000Y-79492327D02*
X141355500Y-80136827D01*
X142000000Y-68000000D02*
X142000000Y-79492327D01*
X140550000Y-68000000D02*
X142000000Y-68000000D01*
%TO.N,Net-(U2C--)*%
X140818000Y-89500000D02*
X139548000Y-89500000D01*
X140743000Y-89425000D02*
X140818000Y-89500000D01*
X140743000Y-73500000D02*
X140743000Y-89425000D01*
%TO.N,VCC*%
X186190000Y-93690000D02*
X186190000Y-94450000D01*
X185500000Y-93000000D02*
X186190000Y-93690000D01*
X143358000Y-93642000D02*
X144000000Y-93000000D01*
X143358000Y-94450000D02*
X143358000Y-93642000D01*
%TO.N,Net-(R10-Pad2)*%
X163000000Y-66500000D02*
X163000000Y-78925000D01*
X159500000Y-66500000D02*
X163000000Y-66500000D01*
X159575000Y-66425000D02*
X159500000Y-66500000D01*
X159575000Y-63500000D02*
X159575000Y-66425000D01*
X163000000Y-78925000D02*
X163075000Y-79000000D01*
%TO.N,Net-(C18-Pad1)*%
X150050000Y-130450000D02*
X150050000Y-128350000D01*
X150000000Y-130500000D02*
X150050000Y-130450000D01*
X154500000Y-130500000D02*
X150000000Y-130500000D01*
X154500000Y-83500000D02*
X154500000Y-130500000D01*
X154500000Y-80500000D02*
X154500000Y-81500000D01*
X150000000Y-80500000D02*
X154500000Y-80500000D01*
X150000000Y-68000000D02*
X150000000Y-80500000D01*
%TO.N,Net-(R10-Pad2)*%
X140500000Y-63425000D02*
X140575000Y-63500000D01*
X141000000Y-57000000D02*
X140500000Y-57500000D01*
X160500000Y-57000000D02*
X141000000Y-57000000D01*
X160275000Y-62800000D02*
X160275000Y-57225000D01*
X160275000Y-57225000D02*
X160500000Y-57000000D01*
X140500000Y-57500000D02*
X140500000Y-63425000D01*
X159575000Y-63500000D02*
X160275000Y-62800000D01*
%TO.N,Net-(U2D-+)*%
X146500000Y-70500000D02*
X146500000Y-86500000D01*
X147950000Y-67111827D02*
X147950000Y-69050000D01*
X147338173Y-66500000D02*
X147950000Y-67111827D01*
X147950000Y-69050000D02*
X146500000Y-70500000D01*
X146500000Y-66500000D02*
X147338173Y-66500000D01*
X144500000Y-86500000D02*
X146500000Y-86500000D01*
X144628000Y-86628000D02*
X144500000Y-86500000D01*
X144628000Y-89500000D02*
X144628000Y-86628000D01*
%TO.N,Net-(U2D--)*%
X145898000Y-89500000D02*
X147168000Y-89500000D01*
X147000000Y-89332000D02*
X147168000Y-89500000D01*
X147000000Y-85500000D02*
X147000000Y-89332000D01*
X147075000Y-85425000D02*
X147000000Y-85500000D01*
X151500000Y-85425000D02*
X147075000Y-85425000D01*
%TO.N,Net-(C14-Pad2)*%
X152143000Y-104950000D02*
X152168000Y-104925000D01*
X144668000Y-104950000D02*
X152143000Y-104950000D01*
X129500000Y-131000000D02*
X129500000Y-126500000D01*
X140500000Y-130500000D02*
X130000000Y-130500000D01*
X130000000Y-130500000D02*
X129500000Y-131000000D01*
X140500000Y-117500000D02*
X140500000Y-130500000D01*
X141000000Y-117000000D02*
X140500000Y-117500000D01*
X145000000Y-117000000D02*
X141000000Y-117000000D01*
X144668000Y-104950000D02*
X144668000Y-116668000D01*
X144668000Y-116668000D02*
X145000000Y-117000000D01*
%TO.N,Net-(C16-Pad1)*%
X135950000Y-116950000D02*
X136050000Y-117050000D01*
X128500000Y-116950000D02*
X135950000Y-116950000D01*
X136050000Y-117050000D02*
X136050000Y-128336000D01*
%TO.N,Net-(C16-Pad2)*%
X122000000Y-115500000D02*
X118743000Y-115500000D01*
X122000000Y-114000000D02*
X122000000Y-115500000D01*
X128500000Y-114000000D02*
X122000000Y-114000000D01*
X118743000Y-115500000D02*
X118668000Y-115425000D01*
X136118000Y-111500000D02*
X136168000Y-111450000D01*
X128000000Y-111500000D02*
X136118000Y-111500000D01*
X128500000Y-112000000D02*
X128000000Y-111500000D01*
X128500000Y-114000000D02*
X128500000Y-112000000D01*
%TO.N,Net-(C14-Pad1)*%
X124000000Y-127500000D02*
X122800000Y-127500000D01*
X125000000Y-128500000D02*
X124000000Y-127500000D01*
X122800000Y-127500000D02*
X122050000Y-128250000D01*
X126500000Y-128500000D02*
X125000000Y-128500000D01*
X126550000Y-128450000D02*
X126500000Y-128500000D01*
X126550000Y-126500000D02*
X126550000Y-128450000D01*
%TO.N,Net-(C20-Pad1)*%
X163350000Y-129550000D02*
X164550000Y-128350000D01*
X156925000Y-128425000D02*
X158050000Y-129550000D01*
X158050000Y-129550000D02*
X163350000Y-129550000D01*
X156925000Y-86525000D02*
X156925000Y-128425000D01*
X158000000Y-85450000D02*
X156925000Y-86525000D01*
%TO.N,GND*%
X185066751Y-88000000D02*
X186190000Y-89123249D01*
X184773249Y-88000000D02*
X185066751Y-88000000D01*
X186190000Y-89123249D02*
X186190000Y-89500000D01*
X183650000Y-89123249D02*
X184773249Y-88000000D01*
X183650000Y-89500000D02*
X183650000Y-89123249D01*
X183650000Y-90350000D02*
X183650000Y-89500000D01*
X183200000Y-90800000D02*
X183650000Y-90350000D01*
X181300000Y-90800000D02*
X183200000Y-90800000D01*
X180500000Y-90000000D02*
X181300000Y-90800000D01*
X143358000Y-89858000D02*
X143500000Y-90000000D01*
X143358000Y-89500000D02*
X143358000Y-89858000D01*
%TO.N,Net-(U2A-+)*%
X144000000Y-101332000D02*
X144668000Y-102000000D01*
X144000000Y-97500000D02*
X144000000Y-101332000D01*
X144000000Y-95078000D02*
X144628000Y-94450000D01*
X140000000Y-97500000D02*
X144000000Y-97500000D01*
X144000000Y-97500000D02*
X144000000Y-95078000D01*
X138000000Y-93975402D02*
X136487701Y-95487701D01*
X138000000Y-86500000D02*
X138000000Y-93975402D01*
X138000000Y-86305249D02*
X138000000Y-86500000D01*
X121168000Y-67925000D02*
X121168000Y-69473249D01*
X121168000Y-69473249D02*
X138000000Y-86305249D01*
%TO.N,Net-(C18-Pad2)*%
X143500000Y-73332000D02*
X143668000Y-73500000D01*
X143500000Y-68000000D02*
X143500000Y-73332000D01*
X147050000Y-68000000D02*
X143500000Y-68000000D01*
%TO.N,Net-(U2D-+)*%
X158000000Y-66500000D02*
X158000000Y-69000000D01*
X146500000Y-66500000D02*
X158000000Y-66500000D01*
X143500000Y-63500000D02*
X146500000Y-66500000D01*
%TO.N,Net-(C20-Pad2)*%
X158000000Y-71950000D02*
X158000000Y-82500000D01*
X158000000Y-82500000D02*
X151500000Y-82500000D01*
%TO.N,Net-(U2B-+)*%
X142000000Y-94538000D02*
X142088000Y-94450000D01*
X139000000Y-108000000D02*
X139000000Y-96500000D01*
X136668000Y-108000000D02*
X139000000Y-108000000D01*
X142000000Y-96500000D02*
X142000000Y-94538000D01*
X139000000Y-96500000D02*
X142000000Y-96500000D01*
X136168000Y-108500000D02*
X136668000Y-108000000D01*
%TO.N,Net-(U2B--)*%
X138550000Y-94450000D02*
X120500000Y-112500000D01*
X139548000Y-94450000D02*
X138550000Y-94450000D01*
X120500000Y-112500000D02*
X118668000Y-112500000D01*
X140818000Y-94450000D02*
X139548000Y-94450000D01*
%TO.N,Net-(U2C-+)*%
X131500000Y-68000000D02*
X140550000Y-68000000D01*
X131500000Y-64000000D02*
X131500000Y-68000000D01*
%TO.N,Net-(R10-Pad2)*%
X140500000Y-61500000D02*
X140500000Y-63425000D01*
X131154808Y-61500000D02*
X140500000Y-61500000D01*
X128654808Y-64000000D02*
X131154808Y-61500000D01*
X128575000Y-64000000D02*
X128654808Y-64000000D01*
X122168000Y-64000000D02*
X128575000Y-64000000D01*
X121168000Y-65000000D02*
X122168000Y-64000000D01*
%TO.N,GND*%
X143000000Y-89858000D02*
X143358000Y-89500000D01*
X143000000Y-92000000D02*
X143000000Y-89858000D01*
X87500000Y-93500000D02*
X88000000Y-93000000D01*
X86444000Y-93556000D02*
X86500000Y-93500000D01*
X86500000Y-93500000D02*
X87500000Y-93500000D01*
X86444000Y-93952000D02*
X86444000Y-93556000D01*
%TO.N,VCC*%
X143000000Y-94092000D02*
X143358000Y-94450000D01*
X143000000Y-93000000D02*
X143000000Y-94092000D01*
X83500000Y-94000000D02*
X83780500Y-94000000D01*
X81542000Y-94000000D02*
X83500000Y-94000000D01*
X81494000Y-93952000D02*
X81542000Y-94000000D01*
%TO.N,Net-(R10-Pad2)*%
X95000000Y-65000000D02*
X121168000Y-65000000D01*
X95000000Y-76977000D02*
X95000000Y-65000000D01*
X95588000Y-77565000D02*
X95000000Y-76977000D01*
%TO.N,Net-(C10-Pad2)*%
X88038000Y-84116000D02*
X89746000Y-85824000D01*
X88038000Y-80701327D02*
X88038000Y-84116000D01*
X88374827Y-80364500D02*
X88038000Y-80701327D01*
X90101173Y-80364500D02*
X88374827Y-80364500D01*
X91675475Y-81938802D02*
X90101173Y-80364500D01*
X95889871Y-81938802D02*
X91675475Y-81938802D01*
X97000000Y-80828673D02*
X95889871Y-81938802D01*
X97000000Y-80151327D02*
X97000000Y-80828673D01*
X96313173Y-79464500D02*
X97000000Y-80151327D01*
X87849104Y-79464500D02*
X96313173Y-79464500D01*
X84505000Y-82808604D02*
X87849104Y-79464500D01*
X84505000Y-105123000D02*
X84505000Y-82808604D01*
X90352000Y-110970000D02*
X84505000Y-105123000D01*
%TO.N,Net-(U1D--)*%
X89492000Y-100810000D02*
X86444000Y-97762000D01*
X91252000Y-94601000D02*
X91252000Y-100574000D01*
X92409000Y-93444000D02*
X91252000Y-94601000D01*
X91252000Y-100574000D02*
X91016000Y-100810000D01*
X91016000Y-100810000D02*
X89492000Y-100810000D01*
%TO.N,Net-(U1C--)*%
X86444000Y-90142000D02*
X89353000Y-90142000D01*
X89353000Y-90142000D02*
X91000000Y-88495000D01*
X96350000Y-88495000D02*
X91000000Y-88495000D01*
%TO.N,Net-(C7-Pad1)*%
X66730000Y-107922000D02*
X66722000Y-107930000D01*
X66722000Y-107930000D02*
X66722000Y-127996000D01*
%TO.N,Net-(C12-Pad1)*%
X98128000Y-111986000D02*
X107362000Y-121220000D01*
X107362000Y-121220000D02*
X107362000Y-128250000D01*
%TO.N,Net-(C6-Pad1)*%
X64854000Y-95632000D02*
X64444000Y-95222000D01*
X69680000Y-101441000D02*
X72982000Y-98139000D01*
X64854000Y-98270000D02*
X64854000Y-95632000D01*
X72851000Y-98270000D02*
X64854000Y-98270000D01*
X69680000Y-107922000D02*
X69680000Y-101441000D01*
X72982000Y-98139000D02*
X72851000Y-98270000D01*
%TO.N,Net-(U1A-+)*%
X80849000Y-95867000D02*
X81494000Y-95222000D01*
X67140000Y-94968000D02*
X67394000Y-95222000D01*
X67140000Y-75541000D02*
X67140000Y-94968000D01*
X67394000Y-95222000D02*
X68039000Y-95867000D01*
X68039000Y-95867000D02*
X80849000Y-95867000D01*
%TO.N,Net-(C8-Pad1)*%
X82515751Y-94597000D02*
X84055000Y-96136249D01*
X78120000Y-94597000D02*
X82515751Y-94597000D01*
X80598808Y-127996000D02*
X79930000Y-127996000D01*
X84055000Y-96136249D02*
X84055000Y-124539808D01*
X76997000Y-90396000D02*
X76997000Y-93474000D01*
X76997000Y-93474000D02*
X78120000Y-94597000D01*
X84055000Y-124539808D02*
X80598808Y-127996000D01*
%TO.N,Net-(C8-Pad2)*%
X80119000Y-82424000D02*
X73490000Y-82424000D01*
X80217000Y-82522000D02*
X80119000Y-82424000D01*
X80217000Y-82522000D02*
X80217000Y-84226000D01*
X80217000Y-84226000D02*
X74047000Y-90396000D01*
%TO.N,Net-(U1B-+)*%
X73490000Y-79474000D02*
X77046000Y-75918000D01*
X81104500Y-81658827D02*
X81104500Y-88877500D01*
X77046000Y-75918000D02*
X84920000Y-75918000D01*
X80194000Y-89788000D02*
X80194000Y-92274000D01*
X80194000Y-92274000D02*
X80602000Y-92682000D01*
X81104500Y-88877500D02*
X80194000Y-89788000D01*
X78919673Y-79474000D02*
X81104500Y-81658827D01*
X80602000Y-92682000D02*
X81494000Y-92682000D01*
X73490000Y-79474000D02*
X78919673Y-79474000D01*
%TO.N,Net-(C10-Pad2)*%
X91144500Y-80364500D02*
X96350000Y-85570000D01*
X88374827Y-80364500D02*
X91144500Y-80364500D01*
%TO.N,Net-(U1C-+)*%
X85144000Y-92398000D02*
X85428000Y-92682000D01*
X85144000Y-87476000D02*
X85144000Y-92398000D01*
X95588000Y-80490000D02*
X95012500Y-79914500D01*
X85428000Y-92682000D02*
X86444000Y-92682000D01*
X86796000Y-85824000D02*
X85144000Y-87476000D01*
X86796000Y-81154000D02*
X86796000Y-85824000D01*
X88035500Y-79914500D02*
X86796000Y-81154000D01*
X95012500Y-79914500D02*
X88035500Y-79914500D01*
%TO.N,Net-(C12-Pad2)*%
X95334000Y-106242000D02*
X98128000Y-109036000D01*
X102954000Y-93444000D02*
X95334000Y-93444000D01*
X95334000Y-93444000D02*
X95334000Y-106242000D01*
X108796000Y-87602000D02*
X102954000Y-93444000D01*
%TO.N,Net-(U1D-+)*%
X105846000Y-87602000D02*
X95588000Y-87602000D01*
X95588000Y-87602000D02*
X89238000Y-81252000D01*
%TO.N,Net-(U1A--)*%
X81494000Y-97762000D02*
X81494000Y-96492000D01*
X78192000Y-101064000D02*
X81494000Y-97762000D01*
X72982000Y-101064000D02*
X78192000Y-101064000D01*
%TO.N,Net-(R10-Pad2)*%
X94826000Y-78327000D02*
X89238000Y-78327000D01*
X89238000Y-77311000D02*
X84920000Y-72993000D01*
X67517000Y-72993000D02*
X67140000Y-72616000D01*
X95588000Y-77565000D02*
X94826000Y-78327000D01*
X89238000Y-78327000D02*
X89238000Y-77311000D01*
X84920000Y-72993000D02*
X67517000Y-72993000D01*
%TO.N,Net-(U1C--)*%
X86444000Y-90142000D02*
X86444000Y-91412000D01*
%TO.N,Net-(U1D--)*%
X86444000Y-96492000D02*
X86444000Y-97762000D01*
%TD*%
M02*
