M48
; DRILL file {KiCad 7.0.6} date Tue Jul 25 19:50:27 2023
; FORMAT={-:-/ absolute / inch / decimal}
; #@! TF.CreationDate,2023-07-25T19:50:27+05:30
; #@! TF.GenerationSoftware,Kicad,Pcbnew,7.0.6
; #@! TF.FileFunction,Plated,1,2,PTH
FMAT,2
INCH
; #@! TA.AperFunction,Plated,PTH,ViaDrill
T1C0.0157
; #@! TA.AperFunction,Plated,PTH,ComponentDrill
T2C0.0472
; #@! TA.AperFunction,Plated,PTH,ComponentDrill
T3C0.0669
%
G90
G05
T1
X3.2984Y-3.7008
X3.4646Y-3.6614
X3.622Y-3.4449
X3.622Y-3.5236
X5.3735Y-3.7594
X5.5118Y-3.8386
X5.6004Y-3.5925
X5.6299Y-3.4055
X5.6299Y-3.622
X5.6299Y-3.6614
X5.6496Y-3.5433
X5.6693Y-3.6614
X6.0827Y-3.2087
X6.0827Y-3.2874
X6.6339Y-3.1102
X6.6644Y-3.622
X6.7323Y-3.1102
X6.7323Y-3.5718
X6.9877Y-3.7997
X7.0276Y-3.4843
X7.1063Y-3.5433
X7.185Y-3.4449
X7.2441Y-2.1309
X7.2441Y-2.188
X7.3031Y-3.6614
X7.3174Y-3.5352
X7.3228Y-2.9331
X7.3622Y-2.7362
X7.3622Y-2.815
X7.3725Y-3.4552
X7.3819Y-3.4055
X7.4007Y-3.5739
X7.4409Y-2.9331
X7.4409Y-3.9173
X7.4803Y-3.3858
X7.5197Y-3.6024
X7.688Y-3.5236
X7.7165Y-3.9173
X7.7451Y-3.5236
X7.9921Y-4.0748
X8.2776Y-2.628
X8.3455Y-2.628
X8.7106Y-3.5138
T2
X2.4891Y-2.1455
X2.4891Y-5.0392
X2.6269Y-5.0392
X3.0091Y-2.1455
X3.0091Y-5.0392
X3.1469Y-5.0392
X3.5291Y-2.1555
X3.5291Y-5.0492
X3.6669Y-5.0492
X4.0891Y-2.1555
X4.0891Y-5.0492
X4.2269Y-5.0492
X4.6673Y-2.1555
X4.6673Y-5.0492
X4.8051Y-5.0492
X5.2185Y-2.1589
X5.2185Y-5.0526
X5.3563Y-5.0526
X5.7697Y-2.1594
X5.7697Y-5.0531
X5.9075Y-5.0531
X6.3406Y-2.1594
X6.3406Y-5.0531
X6.4783Y-5.0531
X6.8917Y-2.1594
X6.8917Y-5.0531
X7.0295Y-5.0531
X7.5413Y-2.1594
X7.5413Y-5.0531
X7.6791Y-5.0531
X8.2185Y-2.1555
X8.3563Y-2.1555
X8.3563Y-5.0492
T3
X2.3926Y-2.3561
X2.3926Y-4.8286
X2.7233Y-2.3089
X2.7233Y-4.8758
X2.9126Y-2.3561
X2.9126Y-4.8286
X3.2433Y-2.3089
X3.2433Y-4.8758
X3.4326Y-2.3661
X3.4326Y-4.8386
X3.7633Y-2.3189
X3.7633Y-4.8858
X3.9926Y-2.3661
X3.9926Y-4.8386
X4.3233Y-2.3189
X4.3233Y-4.8858
X4.5709Y-2.3661
X4.5709Y-4.8386
X4.9016Y-2.3189
X4.9016Y-4.8858
X5.122Y-2.3695
X5.122Y-4.842
X5.4528Y-2.3223
X5.4528Y-4.8892
X5.6732Y-2.3701
X5.6732Y-4.8425
X6.0039Y-2.3228
X6.0039Y-4.8898
X6.2441Y-2.3701
X6.2441Y-4.8425
X6.5748Y-2.3228
X6.5748Y-4.8898
X6.7953Y-2.3701
X6.7953Y-4.8425
X7.126Y-2.3228
X7.126Y-4.8898
X7.4449Y-2.3701
X7.4449Y-4.8425
X7.7756Y-2.3228
X7.7756Y-4.8898
X8.122Y-2.3189
X8.122Y-4.8858
X8.4528Y-2.3661
X8.4528Y-4.8386
T0
M30
