%TF.GenerationSoftware,KiCad,Pcbnew,7.0.6*%
%TF.CreationDate,2023-07-25T19:50:32+05:30*%
%TF.ProjectId,10 channel equalizer,31302063-6861-46e6-9e65-6c2065717561,rev?*%
%TF.SameCoordinates,Original*%
%TF.FileFunction,Legend,Bot*%
%TF.FilePolarity,Positive*%
%FSLAX46Y46*%
G04 Gerber Fmt 4.6, Leading zero omitted, Abs format (unit mm)*
G04 Created by KiCad (PCBNEW 7.0.6) date 2023-07-25 19:50:32*
%MOMM*%
%LPD*%
G01*
G04 APERTURE LIST*
%ADD10C,0.150000*%
%ADD11C,0.120000*%
G04 APERTURE END LIST*
D10*
X185180357Y-114774819D02*
X185513690Y-114298628D01*
X185751785Y-114774819D02*
X185751785Y-113774819D01*
X185751785Y-113774819D02*
X185370833Y-113774819D01*
X185370833Y-113774819D02*
X185275595Y-113822438D01*
X185275595Y-113822438D02*
X185227976Y-113870057D01*
X185227976Y-113870057D02*
X185180357Y-113965295D01*
X185180357Y-113965295D02*
X185180357Y-114108152D01*
X185180357Y-114108152D02*
X185227976Y-114203390D01*
X185227976Y-114203390D02*
X185275595Y-114251009D01*
X185275595Y-114251009D02*
X185370833Y-114298628D01*
X185370833Y-114298628D02*
X185751785Y-114298628D01*
X184799404Y-113870057D02*
X184751785Y-113822438D01*
X184751785Y-113822438D02*
X184656547Y-113774819D01*
X184656547Y-113774819D02*
X184418452Y-113774819D01*
X184418452Y-113774819D02*
X184323214Y-113822438D01*
X184323214Y-113822438D02*
X184275595Y-113870057D01*
X184275595Y-113870057D02*
X184227976Y-113965295D01*
X184227976Y-113965295D02*
X184227976Y-114060533D01*
X184227976Y-114060533D02*
X184275595Y-114203390D01*
X184275595Y-114203390D02*
X184847023Y-114774819D01*
X184847023Y-114774819D02*
X184227976Y-114774819D01*
X183323214Y-113774819D02*
X183799404Y-113774819D01*
X183799404Y-113774819D02*
X183847023Y-114251009D01*
X183847023Y-114251009D02*
X183799404Y-114203390D01*
X183799404Y-114203390D02*
X183704166Y-114155771D01*
X183704166Y-114155771D02*
X183466071Y-114155771D01*
X183466071Y-114155771D02*
X183370833Y-114203390D01*
X183370833Y-114203390D02*
X183323214Y-114251009D01*
X183323214Y-114251009D02*
X183275595Y-114346247D01*
X183275595Y-114346247D02*
X183275595Y-114584342D01*
X183275595Y-114584342D02*
X183323214Y-114679580D01*
X183323214Y-114679580D02*
X183370833Y-114727200D01*
X183370833Y-114727200D02*
X183466071Y-114774819D01*
X183466071Y-114774819D02*
X183704166Y-114774819D01*
X183704166Y-114774819D02*
X183799404Y-114727200D01*
X183799404Y-114727200D02*
X183847023Y-114679580D01*
X128667857Y-128709580D02*
X128715476Y-128757200D01*
X128715476Y-128757200D02*
X128858333Y-128804819D01*
X128858333Y-128804819D02*
X128953571Y-128804819D01*
X128953571Y-128804819D02*
X129096428Y-128757200D01*
X129096428Y-128757200D02*
X129191666Y-128661961D01*
X129191666Y-128661961D02*
X129239285Y-128566723D01*
X129239285Y-128566723D02*
X129286904Y-128376247D01*
X129286904Y-128376247D02*
X129286904Y-128233390D01*
X129286904Y-128233390D02*
X129239285Y-128042914D01*
X129239285Y-128042914D02*
X129191666Y-127947676D01*
X129191666Y-127947676D02*
X129096428Y-127852438D01*
X129096428Y-127852438D02*
X128953571Y-127804819D01*
X128953571Y-127804819D02*
X128858333Y-127804819D01*
X128858333Y-127804819D02*
X128715476Y-127852438D01*
X128715476Y-127852438D02*
X128667857Y-127900057D01*
X127715476Y-128804819D02*
X128286904Y-128804819D01*
X128001190Y-128804819D02*
X128001190Y-127804819D01*
X128001190Y-127804819D02*
X128096428Y-127947676D01*
X128096428Y-127947676D02*
X128191666Y-128042914D01*
X128191666Y-128042914D02*
X128286904Y-128090533D01*
X126858333Y-128138152D02*
X126858333Y-128804819D01*
X127096428Y-127757200D02*
X127334523Y-128471485D01*
X127334523Y-128471485D02*
X126715476Y-128471485D01*
X181713580Y-117547142D02*
X181761200Y-117499523D01*
X181761200Y-117499523D02*
X181808819Y-117356666D01*
X181808819Y-117356666D02*
X181808819Y-117261428D01*
X181808819Y-117261428D02*
X181761200Y-117118571D01*
X181761200Y-117118571D02*
X181665961Y-117023333D01*
X181665961Y-117023333D02*
X181570723Y-116975714D01*
X181570723Y-116975714D02*
X181380247Y-116928095D01*
X181380247Y-116928095D02*
X181237390Y-116928095D01*
X181237390Y-116928095D02*
X181046914Y-116975714D01*
X181046914Y-116975714D02*
X180951676Y-117023333D01*
X180951676Y-117023333D02*
X180856438Y-117118571D01*
X180856438Y-117118571D02*
X180808819Y-117261428D01*
X180808819Y-117261428D02*
X180808819Y-117356666D01*
X180808819Y-117356666D02*
X180856438Y-117499523D01*
X180856438Y-117499523D02*
X180904057Y-117547142D01*
X180904057Y-117928095D02*
X180856438Y-117975714D01*
X180856438Y-117975714D02*
X180808819Y-118070952D01*
X180808819Y-118070952D02*
X180808819Y-118309047D01*
X180808819Y-118309047D02*
X180856438Y-118404285D01*
X180856438Y-118404285D02*
X180904057Y-118451904D01*
X180904057Y-118451904D02*
X180999295Y-118499523D01*
X180999295Y-118499523D02*
X181094533Y-118499523D01*
X181094533Y-118499523D02*
X181237390Y-118451904D01*
X181237390Y-118451904D02*
X181808819Y-117880476D01*
X181808819Y-117880476D02*
X181808819Y-118499523D01*
X180904057Y-118880476D02*
X180856438Y-118928095D01*
X180856438Y-118928095D02*
X180808819Y-119023333D01*
X180808819Y-119023333D02*
X180808819Y-119261428D01*
X180808819Y-119261428D02*
X180856438Y-119356666D01*
X180856438Y-119356666D02*
X180904057Y-119404285D01*
X180904057Y-119404285D02*
X180999295Y-119451904D01*
X180999295Y-119451904D02*
X181094533Y-119451904D01*
X181094533Y-119451904D02*
X181237390Y-119404285D01*
X181237390Y-119404285D02*
X181808819Y-118832857D01*
X181808819Y-118832857D02*
X181808819Y-119451904D01*
X160209580Y-69832142D02*
X160257200Y-69784523D01*
X160257200Y-69784523D02*
X160304819Y-69641666D01*
X160304819Y-69641666D02*
X160304819Y-69546428D01*
X160304819Y-69546428D02*
X160257200Y-69403571D01*
X160257200Y-69403571D02*
X160161961Y-69308333D01*
X160161961Y-69308333D02*
X160066723Y-69260714D01*
X160066723Y-69260714D02*
X159876247Y-69213095D01*
X159876247Y-69213095D02*
X159733390Y-69213095D01*
X159733390Y-69213095D02*
X159542914Y-69260714D01*
X159542914Y-69260714D02*
X159447676Y-69308333D01*
X159447676Y-69308333D02*
X159352438Y-69403571D01*
X159352438Y-69403571D02*
X159304819Y-69546428D01*
X159304819Y-69546428D02*
X159304819Y-69641666D01*
X159304819Y-69641666D02*
X159352438Y-69784523D01*
X159352438Y-69784523D02*
X159400057Y-69832142D01*
X159400057Y-70213095D02*
X159352438Y-70260714D01*
X159352438Y-70260714D02*
X159304819Y-70355952D01*
X159304819Y-70355952D02*
X159304819Y-70594047D01*
X159304819Y-70594047D02*
X159352438Y-70689285D01*
X159352438Y-70689285D02*
X159400057Y-70736904D01*
X159400057Y-70736904D02*
X159495295Y-70784523D01*
X159495295Y-70784523D02*
X159590533Y-70784523D01*
X159590533Y-70784523D02*
X159733390Y-70736904D01*
X159733390Y-70736904D02*
X160304819Y-70165476D01*
X160304819Y-70165476D02*
X160304819Y-70784523D01*
X160304819Y-71736904D02*
X160304819Y-71165476D01*
X160304819Y-71451190D02*
X159304819Y-71451190D01*
X159304819Y-71451190D02*
X159447676Y-71355952D01*
X159447676Y-71355952D02*
X159542914Y-71260714D01*
X159542914Y-71260714D02*
X159590533Y-71165476D01*
X149167857Y-66509580D02*
X149215476Y-66557200D01*
X149215476Y-66557200D02*
X149358333Y-66604819D01*
X149358333Y-66604819D02*
X149453571Y-66604819D01*
X149453571Y-66604819D02*
X149596428Y-66557200D01*
X149596428Y-66557200D02*
X149691666Y-66461961D01*
X149691666Y-66461961D02*
X149739285Y-66366723D01*
X149739285Y-66366723D02*
X149786904Y-66176247D01*
X149786904Y-66176247D02*
X149786904Y-66033390D01*
X149786904Y-66033390D02*
X149739285Y-65842914D01*
X149739285Y-65842914D02*
X149691666Y-65747676D01*
X149691666Y-65747676D02*
X149596428Y-65652438D01*
X149596428Y-65652438D02*
X149453571Y-65604819D01*
X149453571Y-65604819D02*
X149358333Y-65604819D01*
X149358333Y-65604819D02*
X149215476Y-65652438D01*
X149215476Y-65652438D02*
X149167857Y-65700057D01*
X148215476Y-66604819D02*
X148786904Y-66604819D01*
X148501190Y-66604819D02*
X148501190Y-65604819D01*
X148501190Y-65604819D02*
X148596428Y-65747676D01*
X148596428Y-65747676D02*
X148691666Y-65842914D01*
X148691666Y-65842914D02*
X148786904Y-65890533D01*
X147644047Y-66033390D02*
X147739285Y-65985771D01*
X147739285Y-65985771D02*
X147786904Y-65938152D01*
X147786904Y-65938152D02*
X147834523Y-65842914D01*
X147834523Y-65842914D02*
X147834523Y-65795295D01*
X147834523Y-65795295D02*
X147786904Y-65700057D01*
X147786904Y-65700057D02*
X147739285Y-65652438D01*
X147739285Y-65652438D02*
X147644047Y-65604819D01*
X147644047Y-65604819D02*
X147453571Y-65604819D01*
X147453571Y-65604819D02*
X147358333Y-65652438D01*
X147358333Y-65652438D02*
X147310714Y-65700057D01*
X147310714Y-65700057D02*
X147263095Y-65795295D01*
X147263095Y-65795295D02*
X147263095Y-65842914D01*
X147263095Y-65842914D02*
X147310714Y-65938152D01*
X147310714Y-65938152D02*
X147358333Y-65985771D01*
X147358333Y-65985771D02*
X147453571Y-66033390D01*
X147453571Y-66033390D02*
X147644047Y-66033390D01*
X147644047Y-66033390D02*
X147739285Y-66081009D01*
X147739285Y-66081009D02*
X147786904Y-66128628D01*
X147786904Y-66128628D02*
X147834523Y-66223866D01*
X147834523Y-66223866D02*
X147834523Y-66414342D01*
X147834523Y-66414342D02*
X147786904Y-66509580D01*
X147786904Y-66509580D02*
X147739285Y-66557200D01*
X147739285Y-66557200D02*
X147644047Y-66604819D01*
X147644047Y-66604819D02*
X147453571Y-66604819D01*
X147453571Y-66604819D02*
X147358333Y-66557200D01*
X147358333Y-66557200D02*
X147310714Y-66509580D01*
X147310714Y-66509580D02*
X147263095Y-66414342D01*
X147263095Y-66414342D02*
X147263095Y-66223866D01*
X147263095Y-66223866D02*
X147310714Y-66128628D01*
X147310714Y-66128628D02*
X147358333Y-66081009D01*
X147358333Y-66081009D02*
X147453571Y-66033390D01*
X190924819Y-91213095D02*
X191734342Y-91213095D01*
X191734342Y-91213095D02*
X191829580Y-91260714D01*
X191829580Y-91260714D02*
X191877200Y-91308333D01*
X191877200Y-91308333D02*
X191924819Y-91403571D01*
X191924819Y-91403571D02*
X191924819Y-91594047D01*
X191924819Y-91594047D02*
X191877200Y-91689285D01*
X191877200Y-91689285D02*
X191829580Y-91736904D01*
X191829580Y-91736904D02*
X191734342Y-91784523D01*
X191734342Y-91784523D02*
X190924819Y-91784523D01*
X190924819Y-92165476D02*
X190924819Y-92784523D01*
X190924819Y-92784523D02*
X191305771Y-92451190D01*
X191305771Y-92451190D02*
X191305771Y-92594047D01*
X191305771Y-92594047D02*
X191353390Y-92689285D01*
X191353390Y-92689285D02*
X191401009Y-92736904D01*
X191401009Y-92736904D02*
X191496247Y-92784523D01*
X191496247Y-92784523D02*
X191734342Y-92784523D01*
X191734342Y-92784523D02*
X191829580Y-92736904D01*
X191829580Y-92736904D02*
X191877200Y-92689285D01*
X191877200Y-92689285D02*
X191924819Y-92594047D01*
X191924819Y-92594047D02*
X191924819Y-92308333D01*
X191924819Y-92308333D02*
X191877200Y-92213095D01*
X191877200Y-92213095D02*
X191829580Y-92165476D01*
X120942819Y-113319642D02*
X120466628Y-112986309D01*
X120942819Y-112748214D02*
X119942819Y-112748214D01*
X119942819Y-112748214D02*
X119942819Y-113129166D01*
X119942819Y-113129166D02*
X119990438Y-113224404D01*
X119990438Y-113224404D02*
X120038057Y-113272023D01*
X120038057Y-113272023D02*
X120133295Y-113319642D01*
X120133295Y-113319642D02*
X120276152Y-113319642D01*
X120276152Y-113319642D02*
X120371390Y-113272023D01*
X120371390Y-113272023D02*
X120419009Y-113224404D01*
X120419009Y-113224404D02*
X120466628Y-113129166D01*
X120466628Y-113129166D02*
X120466628Y-112748214D01*
X120942819Y-114272023D02*
X120942819Y-113700595D01*
X120942819Y-113986309D02*
X119942819Y-113986309D01*
X119942819Y-113986309D02*
X120085676Y-113891071D01*
X120085676Y-113891071D02*
X120180914Y-113795833D01*
X120180914Y-113795833D02*
X120228533Y-113700595D01*
X120942819Y-114748214D02*
X120942819Y-114938690D01*
X120942819Y-114938690D02*
X120895200Y-115033928D01*
X120895200Y-115033928D02*
X120847580Y-115081547D01*
X120847580Y-115081547D02*
X120704723Y-115176785D01*
X120704723Y-115176785D02*
X120514247Y-115224404D01*
X120514247Y-115224404D02*
X120133295Y-115224404D01*
X120133295Y-115224404D02*
X120038057Y-115176785D01*
X120038057Y-115176785D02*
X119990438Y-115129166D01*
X119990438Y-115129166D02*
X119942819Y-115033928D01*
X119942819Y-115033928D02*
X119942819Y-114843452D01*
X119942819Y-114843452D02*
X119990438Y-114748214D01*
X119990438Y-114748214D02*
X120038057Y-114700595D01*
X120038057Y-114700595D02*
X120133295Y-114652976D01*
X120133295Y-114652976D02*
X120371390Y-114652976D01*
X120371390Y-114652976D02*
X120466628Y-114700595D01*
X120466628Y-114700595D02*
X120514247Y-114748214D01*
X120514247Y-114748214D02*
X120561866Y-114843452D01*
X120561866Y-114843452D02*
X120561866Y-115033928D01*
X120561866Y-115033928D02*
X120514247Y-115129166D01*
X120514247Y-115129166D02*
X120466628Y-115176785D01*
X120466628Y-115176785D02*
X120371390Y-115224404D01*
X195209580Y-98332142D02*
X195257200Y-98284523D01*
X195257200Y-98284523D02*
X195304819Y-98141666D01*
X195304819Y-98141666D02*
X195304819Y-98046428D01*
X195304819Y-98046428D02*
X195257200Y-97903571D01*
X195257200Y-97903571D02*
X195161961Y-97808333D01*
X195161961Y-97808333D02*
X195066723Y-97760714D01*
X195066723Y-97760714D02*
X194876247Y-97713095D01*
X194876247Y-97713095D02*
X194733390Y-97713095D01*
X194733390Y-97713095D02*
X194542914Y-97760714D01*
X194542914Y-97760714D02*
X194447676Y-97808333D01*
X194447676Y-97808333D02*
X194352438Y-97903571D01*
X194352438Y-97903571D02*
X194304819Y-98046428D01*
X194304819Y-98046428D02*
X194304819Y-98141666D01*
X194304819Y-98141666D02*
X194352438Y-98284523D01*
X194352438Y-98284523D02*
X194400057Y-98332142D01*
X194400057Y-98713095D02*
X194352438Y-98760714D01*
X194352438Y-98760714D02*
X194304819Y-98855952D01*
X194304819Y-98855952D02*
X194304819Y-99094047D01*
X194304819Y-99094047D02*
X194352438Y-99189285D01*
X194352438Y-99189285D02*
X194400057Y-99236904D01*
X194400057Y-99236904D02*
X194495295Y-99284523D01*
X194495295Y-99284523D02*
X194590533Y-99284523D01*
X194590533Y-99284523D02*
X194733390Y-99236904D01*
X194733390Y-99236904D02*
X195304819Y-98665476D01*
X195304819Y-98665476D02*
X195304819Y-99284523D01*
X194638152Y-100141666D02*
X195304819Y-100141666D01*
X194257200Y-99903571D02*
X194971485Y-99665476D01*
X194971485Y-99665476D02*
X194971485Y-100284523D01*
X165180357Y-77634819D02*
X165513690Y-77158628D01*
X165751785Y-77634819D02*
X165751785Y-76634819D01*
X165751785Y-76634819D02*
X165370833Y-76634819D01*
X165370833Y-76634819D02*
X165275595Y-76682438D01*
X165275595Y-76682438D02*
X165227976Y-76730057D01*
X165227976Y-76730057D02*
X165180357Y-76825295D01*
X165180357Y-76825295D02*
X165180357Y-76968152D01*
X165180357Y-76968152D02*
X165227976Y-77063390D01*
X165227976Y-77063390D02*
X165275595Y-77111009D01*
X165275595Y-77111009D02*
X165370833Y-77158628D01*
X165370833Y-77158628D02*
X165751785Y-77158628D01*
X164799404Y-76730057D02*
X164751785Y-76682438D01*
X164751785Y-76682438D02*
X164656547Y-76634819D01*
X164656547Y-76634819D02*
X164418452Y-76634819D01*
X164418452Y-76634819D02*
X164323214Y-76682438D01*
X164323214Y-76682438D02*
X164275595Y-76730057D01*
X164275595Y-76730057D02*
X164227976Y-76825295D01*
X164227976Y-76825295D02*
X164227976Y-76920533D01*
X164227976Y-76920533D02*
X164275595Y-77063390D01*
X164275595Y-77063390D02*
X164847023Y-77634819D01*
X164847023Y-77634819D02*
X164227976Y-77634819D01*
X163370833Y-76634819D02*
X163561309Y-76634819D01*
X163561309Y-76634819D02*
X163656547Y-76682438D01*
X163656547Y-76682438D02*
X163704166Y-76730057D01*
X163704166Y-76730057D02*
X163799404Y-76872914D01*
X163799404Y-76872914D02*
X163847023Y-77063390D01*
X163847023Y-77063390D02*
X163847023Y-77444342D01*
X163847023Y-77444342D02*
X163799404Y-77539580D01*
X163799404Y-77539580D02*
X163751785Y-77587200D01*
X163751785Y-77587200D02*
X163656547Y-77634819D01*
X163656547Y-77634819D02*
X163466071Y-77634819D01*
X163466071Y-77634819D02*
X163370833Y-77587200D01*
X163370833Y-77587200D02*
X163323214Y-77539580D01*
X163323214Y-77539580D02*
X163275595Y-77444342D01*
X163275595Y-77444342D02*
X163275595Y-77206247D01*
X163275595Y-77206247D02*
X163323214Y-77111009D01*
X163323214Y-77111009D02*
X163370833Y-77063390D01*
X163370833Y-77063390D02*
X163466071Y-77015771D01*
X163466071Y-77015771D02*
X163656547Y-77015771D01*
X163656547Y-77015771D02*
X163751785Y-77063390D01*
X163751785Y-77063390D02*
X163799404Y-77111009D01*
X163799404Y-77111009D02*
X163847023Y-77206247D01*
X178274819Y-95319642D02*
X177798628Y-94986309D01*
X178274819Y-94748214D02*
X177274819Y-94748214D01*
X177274819Y-94748214D02*
X177274819Y-95129166D01*
X177274819Y-95129166D02*
X177322438Y-95224404D01*
X177322438Y-95224404D02*
X177370057Y-95272023D01*
X177370057Y-95272023D02*
X177465295Y-95319642D01*
X177465295Y-95319642D02*
X177608152Y-95319642D01*
X177608152Y-95319642D02*
X177703390Y-95272023D01*
X177703390Y-95272023D02*
X177751009Y-95224404D01*
X177751009Y-95224404D02*
X177798628Y-95129166D01*
X177798628Y-95129166D02*
X177798628Y-94748214D01*
X177370057Y-95700595D02*
X177322438Y-95748214D01*
X177322438Y-95748214D02*
X177274819Y-95843452D01*
X177274819Y-95843452D02*
X177274819Y-96081547D01*
X177274819Y-96081547D02*
X177322438Y-96176785D01*
X177322438Y-96176785D02*
X177370057Y-96224404D01*
X177370057Y-96224404D02*
X177465295Y-96272023D01*
X177465295Y-96272023D02*
X177560533Y-96272023D01*
X177560533Y-96272023D02*
X177703390Y-96224404D01*
X177703390Y-96224404D02*
X178274819Y-95652976D01*
X178274819Y-95652976D02*
X178274819Y-96272023D01*
X177274819Y-96605357D02*
X177274819Y-97272023D01*
X177274819Y-97272023D02*
X178274819Y-96843452D01*
X161680357Y-62134819D02*
X162013690Y-61658628D01*
X162251785Y-62134819D02*
X162251785Y-61134819D01*
X162251785Y-61134819D02*
X161870833Y-61134819D01*
X161870833Y-61134819D02*
X161775595Y-61182438D01*
X161775595Y-61182438D02*
X161727976Y-61230057D01*
X161727976Y-61230057D02*
X161680357Y-61325295D01*
X161680357Y-61325295D02*
X161680357Y-61468152D01*
X161680357Y-61468152D02*
X161727976Y-61563390D01*
X161727976Y-61563390D02*
X161775595Y-61611009D01*
X161775595Y-61611009D02*
X161870833Y-61658628D01*
X161870833Y-61658628D02*
X162251785Y-61658628D01*
X161299404Y-61230057D02*
X161251785Y-61182438D01*
X161251785Y-61182438D02*
X161156547Y-61134819D01*
X161156547Y-61134819D02*
X160918452Y-61134819D01*
X160918452Y-61134819D02*
X160823214Y-61182438D01*
X160823214Y-61182438D02*
X160775595Y-61230057D01*
X160775595Y-61230057D02*
X160727976Y-61325295D01*
X160727976Y-61325295D02*
X160727976Y-61420533D01*
X160727976Y-61420533D02*
X160775595Y-61563390D01*
X160775595Y-61563390D02*
X161347023Y-62134819D01*
X161347023Y-62134819D02*
X160727976Y-62134819D01*
X159870833Y-61468152D02*
X159870833Y-62134819D01*
X160108928Y-61087200D02*
X160347023Y-61801485D01*
X160347023Y-61801485D02*
X159727976Y-61801485D01*
X142848357Y-72134819D02*
X143181690Y-71658628D01*
X143419785Y-72134819D02*
X143419785Y-71134819D01*
X143419785Y-71134819D02*
X143038833Y-71134819D01*
X143038833Y-71134819D02*
X142943595Y-71182438D01*
X142943595Y-71182438D02*
X142895976Y-71230057D01*
X142895976Y-71230057D02*
X142848357Y-71325295D01*
X142848357Y-71325295D02*
X142848357Y-71468152D01*
X142848357Y-71468152D02*
X142895976Y-71563390D01*
X142895976Y-71563390D02*
X142943595Y-71611009D01*
X142943595Y-71611009D02*
X143038833Y-71658628D01*
X143038833Y-71658628D02*
X143419785Y-71658628D01*
X142467404Y-71230057D02*
X142419785Y-71182438D01*
X142419785Y-71182438D02*
X142324547Y-71134819D01*
X142324547Y-71134819D02*
X142086452Y-71134819D01*
X142086452Y-71134819D02*
X141991214Y-71182438D01*
X141991214Y-71182438D02*
X141943595Y-71230057D01*
X141943595Y-71230057D02*
X141895976Y-71325295D01*
X141895976Y-71325295D02*
X141895976Y-71420533D01*
X141895976Y-71420533D02*
X141943595Y-71563390D01*
X141943595Y-71563390D02*
X142515023Y-72134819D01*
X142515023Y-72134819D02*
X141895976Y-72134819D01*
X140943595Y-72134819D02*
X141515023Y-72134819D01*
X141229309Y-72134819D02*
X141229309Y-71134819D01*
X141229309Y-71134819D02*
X141324547Y-71277676D01*
X141324547Y-71277676D02*
X141419785Y-71372914D01*
X141419785Y-71372914D02*
X141515023Y-71420533D01*
X148092819Y-91213095D02*
X148902342Y-91213095D01*
X148902342Y-91213095D02*
X148997580Y-91260714D01*
X148997580Y-91260714D02*
X149045200Y-91308333D01*
X149045200Y-91308333D02*
X149092819Y-91403571D01*
X149092819Y-91403571D02*
X149092819Y-91594047D01*
X149092819Y-91594047D02*
X149045200Y-91689285D01*
X149045200Y-91689285D02*
X148997580Y-91736904D01*
X148997580Y-91736904D02*
X148902342Y-91784523D01*
X148902342Y-91784523D02*
X148092819Y-91784523D01*
X148188057Y-92213095D02*
X148140438Y-92260714D01*
X148140438Y-92260714D02*
X148092819Y-92355952D01*
X148092819Y-92355952D02*
X148092819Y-92594047D01*
X148092819Y-92594047D02*
X148140438Y-92689285D01*
X148140438Y-92689285D02*
X148188057Y-92736904D01*
X148188057Y-92736904D02*
X148283295Y-92784523D01*
X148283295Y-92784523D02*
X148378533Y-92784523D01*
X148378533Y-92784523D02*
X148521390Y-92736904D01*
X148521390Y-92736904D02*
X149092819Y-92165476D01*
X149092819Y-92165476D02*
X149092819Y-92784523D01*
X130709580Y-114832142D02*
X130757200Y-114784523D01*
X130757200Y-114784523D02*
X130804819Y-114641666D01*
X130804819Y-114641666D02*
X130804819Y-114546428D01*
X130804819Y-114546428D02*
X130757200Y-114403571D01*
X130757200Y-114403571D02*
X130661961Y-114308333D01*
X130661961Y-114308333D02*
X130566723Y-114260714D01*
X130566723Y-114260714D02*
X130376247Y-114213095D01*
X130376247Y-114213095D02*
X130233390Y-114213095D01*
X130233390Y-114213095D02*
X130042914Y-114260714D01*
X130042914Y-114260714D02*
X129947676Y-114308333D01*
X129947676Y-114308333D02*
X129852438Y-114403571D01*
X129852438Y-114403571D02*
X129804819Y-114546428D01*
X129804819Y-114546428D02*
X129804819Y-114641666D01*
X129804819Y-114641666D02*
X129852438Y-114784523D01*
X129852438Y-114784523D02*
X129900057Y-114832142D01*
X130804819Y-115784523D02*
X130804819Y-115213095D01*
X130804819Y-115498809D02*
X129804819Y-115498809D01*
X129804819Y-115498809D02*
X129947676Y-115403571D01*
X129947676Y-115403571D02*
X130042914Y-115308333D01*
X130042914Y-115308333D02*
X130090533Y-115213095D01*
X129804819Y-116641666D02*
X129804819Y-116451190D01*
X129804819Y-116451190D02*
X129852438Y-116355952D01*
X129852438Y-116355952D02*
X129900057Y-116308333D01*
X129900057Y-116308333D02*
X130042914Y-116213095D01*
X130042914Y-116213095D02*
X130233390Y-116165476D01*
X130233390Y-116165476D02*
X130614342Y-116165476D01*
X130614342Y-116165476D02*
X130709580Y-116213095D01*
X130709580Y-116213095D02*
X130757200Y-116260714D01*
X130757200Y-116260714D02*
X130804819Y-116355952D01*
X130804819Y-116355952D02*
X130804819Y-116546428D01*
X130804819Y-116546428D02*
X130757200Y-116641666D01*
X130757200Y-116641666D02*
X130709580Y-116689285D01*
X130709580Y-116689285D02*
X130614342Y-116736904D01*
X130614342Y-116736904D02*
X130376247Y-116736904D01*
X130376247Y-116736904D02*
X130281009Y-116689285D01*
X130281009Y-116689285D02*
X130233390Y-116641666D01*
X130233390Y-116641666D02*
X130185771Y-116546428D01*
X130185771Y-116546428D02*
X130185771Y-116355952D01*
X130185771Y-116355952D02*
X130233390Y-116260714D01*
X130233390Y-116260714D02*
X130281009Y-116213095D01*
X130281009Y-116213095D02*
X130376247Y-116165476D01*
X146881580Y-102897142D02*
X146929200Y-102849523D01*
X146929200Y-102849523D02*
X146976819Y-102706666D01*
X146976819Y-102706666D02*
X146976819Y-102611428D01*
X146976819Y-102611428D02*
X146929200Y-102468571D01*
X146929200Y-102468571D02*
X146833961Y-102373333D01*
X146833961Y-102373333D02*
X146738723Y-102325714D01*
X146738723Y-102325714D02*
X146548247Y-102278095D01*
X146548247Y-102278095D02*
X146405390Y-102278095D01*
X146405390Y-102278095D02*
X146214914Y-102325714D01*
X146214914Y-102325714D02*
X146119676Y-102373333D01*
X146119676Y-102373333D02*
X146024438Y-102468571D01*
X146024438Y-102468571D02*
X145976819Y-102611428D01*
X145976819Y-102611428D02*
X145976819Y-102706666D01*
X145976819Y-102706666D02*
X146024438Y-102849523D01*
X146024438Y-102849523D02*
X146072057Y-102897142D01*
X146976819Y-103849523D02*
X146976819Y-103278095D01*
X146976819Y-103563809D02*
X145976819Y-103563809D01*
X145976819Y-103563809D02*
X146119676Y-103468571D01*
X146119676Y-103468571D02*
X146214914Y-103373333D01*
X146214914Y-103373333D02*
X146262533Y-103278095D01*
X145976819Y-104754285D02*
X145976819Y-104278095D01*
X145976819Y-104278095D02*
X146453009Y-104230476D01*
X146453009Y-104230476D02*
X146405390Y-104278095D01*
X146405390Y-104278095D02*
X146357771Y-104373333D01*
X146357771Y-104373333D02*
X146357771Y-104611428D01*
X146357771Y-104611428D02*
X146405390Y-104706666D01*
X146405390Y-104706666D02*
X146453009Y-104754285D01*
X146453009Y-104754285D02*
X146548247Y-104801904D01*
X146548247Y-104801904D02*
X146786342Y-104801904D01*
X146786342Y-104801904D02*
X146881580Y-104754285D01*
X146881580Y-104754285D02*
X146929200Y-104706666D01*
X146929200Y-104706666D02*
X146976819Y-104611428D01*
X146976819Y-104611428D02*
X146976819Y-104373333D01*
X146976819Y-104373333D02*
X146929200Y-104278095D01*
X146929200Y-104278095D02*
X146881580Y-104230476D01*
X144348357Y-79634819D02*
X144681690Y-79158628D01*
X144919785Y-79634819D02*
X144919785Y-78634819D01*
X144919785Y-78634819D02*
X144538833Y-78634819D01*
X144538833Y-78634819D02*
X144443595Y-78682438D01*
X144443595Y-78682438D02*
X144395976Y-78730057D01*
X144395976Y-78730057D02*
X144348357Y-78825295D01*
X144348357Y-78825295D02*
X144348357Y-78968152D01*
X144348357Y-78968152D02*
X144395976Y-79063390D01*
X144395976Y-79063390D02*
X144443595Y-79111009D01*
X144443595Y-79111009D02*
X144538833Y-79158628D01*
X144538833Y-79158628D02*
X144919785Y-79158628D01*
X143395976Y-79634819D02*
X143967404Y-79634819D01*
X143681690Y-79634819D02*
X143681690Y-78634819D01*
X143681690Y-78634819D02*
X143776928Y-78777676D01*
X143776928Y-78777676D02*
X143872166Y-78872914D01*
X143872166Y-78872914D02*
X143967404Y-78920533D01*
X142824547Y-79063390D02*
X142919785Y-79015771D01*
X142919785Y-79015771D02*
X142967404Y-78968152D01*
X142967404Y-78968152D02*
X143015023Y-78872914D01*
X143015023Y-78872914D02*
X143015023Y-78825295D01*
X143015023Y-78825295D02*
X142967404Y-78730057D01*
X142967404Y-78730057D02*
X142919785Y-78682438D01*
X142919785Y-78682438D02*
X142824547Y-78634819D01*
X142824547Y-78634819D02*
X142634071Y-78634819D01*
X142634071Y-78634819D02*
X142538833Y-78682438D01*
X142538833Y-78682438D02*
X142491214Y-78730057D01*
X142491214Y-78730057D02*
X142443595Y-78825295D01*
X142443595Y-78825295D02*
X142443595Y-78872914D01*
X142443595Y-78872914D02*
X142491214Y-78968152D01*
X142491214Y-78968152D02*
X142538833Y-79015771D01*
X142538833Y-79015771D02*
X142634071Y-79063390D01*
X142634071Y-79063390D02*
X142824547Y-79063390D01*
X142824547Y-79063390D02*
X142919785Y-79111009D01*
X142919785Y-79111009D02*
X142967404Y-79158628D01*
X142967404Y-79158628D02*
X143015023Y-79253866D01*
X143015023Y-79253866D02*
X143015023Y-79444342D01*
X143015023Y-79444342D02*
X142967404Y-79539580D01*
X142967404Y-79539580D02*
X142919785Y-79587200D01*
X142919785Y-79587200D02*
X142824547Y-79634819D01*
X142824547Y-79634819D02*
X142634071Y-79634819D01*
X142634071Y-79634819D02*
X142538833Y-79587200D01*
X142538833Y-79587200D02*
X142491214Y-79539580D01*
X142491214Y-79539580D02*
X142443595Y-79444342D01*
X142443595Y-79444342D02*
X142443595Y-79253866D01*
X142443595Y-79253866D02*
X142491214Y-79158628D01*
X142491214Y-79158628D02*
X142538833Y-79111009D01*
X142538833Y-79111009D02*
X142634071Y-79063390D01*
X150134819Y-83319642D02*
X149658628Y-82986309D01*
X150134819Y-82748214D02*
X149134819Y-82748214D01*
X149134819Y-82748214D02*
X149134819Y-83129166D01*
X149134819Y-83129166D02*
X149182438Y-83224404D01*
X149182438Y-83224404D02*
X149230057Y-83272023D01*
X149230057Y-83272023D02*
X149325295Y-83319642D01*
X149325295Y-83319642D02*
X149468152Y-83319642D01*
X149468152Y-83319642D02*
X149563390Y-83272023D01*
X149563390Y-83272023D02*
X149611009Y-83224404D01*
X149611009Y-83224404D02*
X149658628Y-83129166D01*
X149658628Y-83129166D02*
X149658628Y-82748214D01*
X149230057Y-83700595D02*
X149182438Y-83748214D01*
X149182438Y-83748214D02*
X149134819Y-83843452D01*
X149134819Y-83843452D02*
X149134819Y-84081547D01*
X149134819Y-84081547D02*
X149182438Y-84176785D01*
X149182438Y-84176785D02*
X149230057Y-84224404D01*
X149230057Y-84224404D02*
X149325295Y-84272023D01*
X149325295Y-84272023D02*
X149420533Y-84272023D01*
X149420533Y-84272023D02*
X149563390Y-84224404D01*
X149563390Y-84224404D02*
X150134819Y-83652976D01*
X150134819Y-83652976D02*
X150134819Y-84272023D01*
X149134819Y-84605357D02*
X149134819Y-85224404D01*
X149134819Y-85224404D02*
X149515771Y-84891071D01*
X149515771Y-84891071D02*
X149515771Y-85033928D01*
X149515771Y-85033928D02*
X149563390Y-85129166D01*
X149563390Y-85129166D02*
X149611009Y-85176785D01*
X149611009Y-85176785D02*
X149706247Y-85224404D01*
X149706247Y-85224404D02*
X149944342Y-85224404D01*
X149944342Y-85224404D02*
X150039580Y-85176785D01*
X150039580Y-85176785D02*
X150087200Y-85129166D01*
X150087200Y-85129166D02*
X150134819Y-85033928D01*
X150134819Y-85033928D02*
X150134819Y-84748214D01*
X150134819Y-84748214D02*
X150087200Y-84652976D01*
X150087200Y-84652976D02*
X150039580Y-84605357D01*
X191167857Y-78509580D02*
X191215476Y-78557200D01*
X191215476Y-78557200D02*
X191358333Y-78604819D01*
X191358333Y-78604819D02*
X191453571Y-78604819D01*
X191453571Y-78604819D02*
X191596428Y-78557200D01*
X191596428Y-78557200D02*
X191691666Y-78461961D01*
X191691666Y-78461961D02*
X191739285Y-78366723D01*
X191739285Y-78366723D02*
X191786904Y-78176247D01*
X191786904Y-78176247D02*
X191786904Y-78033390D01*
X191786904Y-78033390D02*
X191739285Y-77842914D01*
X191739285Y-77842914D02*
X191691666Y-77747676D01*
X191691666Y-77747676D02*
X191596428Y-77652438D01*
X191596428Y-77652438D02*
X191453571Y-77604819D01*
X191453571Y-77604819D02*
X191358333Y-77604819D01*
X191358333Y-77604819D02*
X191215476Y-77652438D01*
X191215476Y-77652438D02*
X191167857Y-77700057D01*
X190786904Y-77700057D02*
X190739285Y-77652438D01*
X190739285Y-77652438D02*
X190644047Y-77604819D01*
X190644047Y-77604819D02*
X190405952Y-77604819D01*
X190405952Y-77604819D02*
X190310714Y-77652438D01*
X190310714Y-77652438D02*
X190263095Y-77700057D01*
X190263095Y-77700057D02*
X190215476Y-77795295D01*
X190215476Y-77795295D02*
X190215476Y-77890533D01*
X190215476Y-77890533D02*
X190263095Y-78033390D01*
X190263095Y-78033390D02*
X190834523Y-78604819D01*
X190834523Y-78604819D02*
X190215476Y-78604819D01*
X189310714Y-77604819D02*
X189786904Y-77604819D01*
X189786904Y-77604819D02*
X189834523Y-78081009D01*
X189834523Y-78081009D02*
X189786904Y-78033390D01*
X189786904Y-78033390D02*
X189691666Y-77985771D01*
X189691666Y-77985771D02*
X189453571Y-77985771D01*
X189453571Y-77985771D02*
X189358333Y-78033390D01*
X189358333Y-78033390D02*
X189310714Y-78081009D01*
X189310714Y-78081009D02*
X189263095Y-78176247D01*
X189263095Y-78176247D02*
X189263095Y-78414342D01*
X189263095Y-78414342D02*
X189310714Y-78509580D01*
X189310714Y-78509580D02*
X189358333Y-78557200D01*
X189358333Y-78557200D02*
X189453571Y-78604819D01*
X189453571Y-78604819D02*
X189691666Y-78604819D01*
X189691666Y-78604819D02*
X189786904Y-78557200D01*
X189786904Y-78557200D02*
X189834523Y-78509580D01*
X123442819Y-65819642D02*
X122966628Y-65486309D01*
X123442819Y-65248214D02*
X122442819Y-65248214D01*
X122442819Y-65248214D02*
X122442819Y-65629166D01*
X122442819Y-65629166D02*
X122490438Y-65724404D01*
X122490438Y-65724404D02*
X122538057Y-65772023D01*
X122538057Y-65772023D02*
X122633295Y-65819642D01*
X122633295Y-65819642D02*
X122776152Y-65819642D01*
X122776152Y-65819642D02*
X122871390Y-65772023D01*
X122871390Y-65772023D02*
X122919009Y-65724404D01*
X122919009Y-65724404D02*
X122966628Y-65629166D01*
X122966628Y-65629166D02*
X122966628Y-65248214D01*
X123442819Y-66772023D02*
X123442819Y-66200595D01*
X123442819Y-66486309D02*
X122442819Y-66486309D01*
X122442819Y-66486309D02*
X122585676Y-66391071D01*
X122585676Y-66391071D02*
X122680914Y-66295833D01*
X122680914Y-66295833D02*
X122728533Y-66200595D01*
X122442819Y-67629166D02*
X122442819Y-67438690D01*
X122442819Y-67438690D02*
X122490438Y-67343452D01*
X122490438Y-67343452D02*
X122538057Y-67295833D01*
X122538057Y-67295833D02*
X122680914Y-67200595D01*
X122680914Y-67200595D02*
X122871390Y-67152976D01*
X122871390Y-67152976D02*
X123252342Y-67152976D01*
X123252342Y-67152976D02*
X123347580Y-67200595D01*
X123347580Y-67200595D02*
X123395200Y-67248214D01*
X123395200Y-67248214D02*
X123442819Y-67343452D01*
X123442819Y-67343452D02*
X123442819Y-67533928D01*
X123442819Y-67533928D02*
X123395200Y-67629166D01*
X123395200Y-67629166D02*
X123347580Y-67676785D01*
X123347580Y-67676785D02*
X123252342Y-67724404D01*
X123252342Y-67724404D02*
X123014247Y-67724404D01*
X123014247Y-67724404D02*
X122919009Y-67676785D01*
X122919009Y-67676785D02*
X122871390Y-67629166D01*
X122871390Y-67629166D02*
X122823771Y-67533928D01*
X122823771Y-67533928D02*
X122823771Y-67343452D01*
X122823771Y-67343452D02*
X122871390Y-67248214D01*
X122871390Y-67248214D02*
X122919009Y-67200595D01*
X122919009Y-67200595D02*
X123014247Y-67152976D01*
X130680357Y-62634819D02*
X131013690Y-62158628D01*
X131251785Y-62634819D02*
X131251785Y-61634819D01*
X131251785Y-61634819D02*
X130870833Y-61634819D01*
X130870833Y-61634819D02*
X130775595Y-61682438D01*
X130775595Y-61682438D02*
X130727976Y-61730057D01*
X130727976Y-61730057D02*
X130680357Y-61825295D01*
X130680357Y-61825295D02*
X130680357Y-61968152D01*
X130680357Y-61968152D02*
X130727976Y-62063390D01*
X130727976Y-62063390D02*
X130775595Y-62111009D01*
X130775595Y-62111009D02*
X130870833Y-62158628D01*
X130870833Y-62158628D02*
X131251785Y-62158628D01*
X130299404Y-61730057D02*
X130251785Y-61682438D01*
X130251785Y-61682438D02*
X130156547Y-61634819D01*
X130156547Y-61634819D02*
X129918452Y-61634819D01*
X129918452Y-61634819D02*
X129823214Y-61682438D01*
X129823214Y-61682438D02*
X129775595Y-61730057D01*
X129775595Y-61730057D02*
X129727976Y-61825295D01*
X129727976Y-61825295D02*
X129727976Y-61920533D01*
X129727976Y-61920533D02*
X129775595Y-62063390D01*
X129775595Y-62063390D02*
X130347023Y-62634819D01*
X130347023Y-62634819D02*
X129727976Y-62634819D01*
X129108928Y-61634819D02*
X129013690Y-61634819D01*
X129013690Y-61634819D02*
X128918452Y-61682438D01*
X128918452Y-61682438D02*
X128870833Y-61730057D01*
X128870833Y-61730057D02*
X128823214Y-61825295D01*
X128823214Y-61825295D02*
X128775595Y-62015771D01*
X128775595Y-62015771D02*
X128775595Y-62253866D01*
X128775595Y-62253866D02*
X128823214Y-62444342D01*
X128823214Y-62444342D02*
X128870833Y-62539580D01*
X128870833Y-62539580D02*
X128918452Y-62587200D01*
X128918452Y-62587200D02*
X129013690Y-62634819D01*
X129013690Y-62634819D02*
X129108928Y-62634819D01*
X129108928Y-62634819D02*
X129204166Y-62587200D01*
X129204166Y-62587200D02*
X129251785Y-62539580D01*
X129251785Y-62539580D02*
X129299404Y-62444342D01*
X129299404Y-62444342D02*
X129347023Y-62253866D01*
X129347023Y-62253866D02*
X129347023Y-62015771D01*
X129347023Y-62015771D02*
X129299404Y-61825295D01*
X129299404Y-61825295D02*
X129251785Y-61730057D01*
X129251785Y-61730057D02*
X129204166Y-61682438D01*
X129204166Y-61682438D02*
X129108928Y-61634819D01*
X182209580Y-106832142D02*
X182257200Y-106784523D01*
X182257200Y-106784523D02*
X182304819Y-106641666D01*
X182304819Y-106641666D02*
X182304819Y-106546428D01*
X182304819Y-106546428D02*
X182257200Y-106403571D01*
X182257200Y-106403571D02*
X182161961Y-106308333D01*
X182161961Y-106308333D02*
X182066723Y-106260714D01*
X182066723Y-106260714D02*
X181876247Y-106213095D01*
X181876247Y-106213095D02*
X181733390Y-106213095D01*
X181733390Y-106213095D02*
X181542914Y-106260714D01*
X181542914Y-106260714D02*
X181447676Y-106308333D01*
X181447676Y-106308333D02*
X181352438Y-106403571D01*
X181352438Y-106403571D02*
X181304819Y-106546428D01*
X181304819Y-106546428D02*
X181304819Y-106641666D01*
X181304819Y-106641666D02*
X181352438Y-106784523D01*
X181352438Y-106784523D02*
X181400057Y-106832142D01*
X181400057Y-107213095D02*
X181352438Y-107260714D01*
X181352438Y-107260714D02*
X181304819Y-107355952D01*
X181304819Y-107355952D02*
X181304819Y-107594047D01*
X181304819Y-107594047D02*
X181352438Y-107689285D01*
X181352438Y-107689285D02*
X181400057Y-107736904D01*
X181400057Y-107736904D02*
X181495295Y-107784523D01*
X181495295Y-107784523D02*
X181590533Y-107784523D01*
X181590533Y-107784523D02*
X181733390Y-107736904D01*
X181733390Y-107736904D02*
X182304819Y-107165476D01*
X182304819Y-107165476D02*
X182304819Y-107784523D01*
X181304819Y-108117857D02*
X181304819Y-108736904D01*
X181304819Y-108736904D02*
X181685771Y-108403571D01*
X181685771Y-108403571D02*
X181685771Y-108546428D01*
X181685771Y-108546428D02*
X181733390Y-108641666D01*
X181733390Y-108641666D02*
X181781009Y-108689285D01*
X181781009Y-108689285D02*
X181876247Y-108736904D01*
X181876247Y-108736904D02*
X182114342Y-108736904D01*
X182114342Y-108736904D02*
X182209580Y-108689285D01*
X182209580Y-108689285D02*
X182257200Y-108641666D01*
X182257200Y-108641666D02*
X182304819Y-108546428D01*
X182304819Y-108546428D02*
X182304819Y-108260714D01*
X182304819Y-108260714D02*
X182257200Y-108165476D01*
X182257200Y-108165476D02*
X182209580Y-108117857D01*
X138377580Y-109332142D02*
X138425200Y-109284523D01*
X138425200Y-109284523D02*
X138472819Y-109141666D01*
X138472819Y-109141666D02*
X138472819Y-109046428D01*
X138472819Y-109046428D02*
X138425200Y-108903571D01*
X138425200Y-108903571D02*
X138329961Y-108808333D01*
X138329961Y-108808333D02*
X138234723Y-108760714D01*
X138234723Y-108760714D02*
X138044247Y-108713095D01*
X138044247Y-108713095D02*
X137901390Y-108713095D01*
X137901390Y-108713095D02*
X137710914Y-108760714D01*
X137710914Y-108760714D02*
X137615676Y-108808333D01*
X137615676Y-108808333D02*
X137520438Y-108903571D01*
X137520438Y-108903571D02*
X137472819Y-109046428D01*
X137472819Y-109046428D02*
X137472819Y-109141666D01*
X137472819Y-109141666D02*
X137520438Y-109284523D01*
X137520438Y-109284523D02*
X137568057Y-109332142D01*
X138472819Y-110284523D02*
X138472819Y-109713095D01*
X138472819Y-109998809D02*
X137472819Y-109998809D01*
X137472819Y-109998809D02*
X137615676Y-109903571D01*
X137615676Y-109903571D02*
X137710914Y-109808333D01*
X137710914Y-109808333D02*
X137758533Y-109713095D01*
X137472819Y-110617857D02*
X137472819Y-111284523D01*
X137472819Y-111284523D02*
X138472819Y-110855952D01*
X142667857Y-66509580D02*
X142715476Y-66557200D01*
X142715476Y-66557200D02*
X142858333Y-66604819D01*
X142858333Y-66604819D02*
X142953571Y-66604819D01*
X142953571Y-66604819D02*
X143096428Y-66557200D01*
X143096428Y-66557200D02*
X143191666Y-66461961D01*
X143191666Y-66461961D02*
X143239285Y-66366723D01*
X143239285Y-66366723D02*
X143286904Y-66176247D01*
X143286904Y-66176247D02*
X143286904Y-66033390D01*
X143286904Y-66033390D02*
X143239285Y-65842914D01*
X143239285Y-65842914D02*
X143191666Y-65747676D01*
X143191666Y-65747676D02*
X143096428Y-65652438D01*
X143096428Y-65652438D02*
X142953571Y-65604819D01*
X142953571Y-65604819D02*
X142858333Y-65604819D01*
X142858333Y-65604819D02*
X142715476Y-65652438D01*
X142715476Y-65652438D02*
X142667857Y-65700057D01*
X141715476Y-66604819D02*
X142286904Y-66604819D01*
X142001190Y-66604819D02*
X142001190Y-65604819D01*
X142001190Y-65604819D02*
X142096428Y-65747676D01*
X142096428Y-65747676D02*
X142191666Y-65842914D01*
X142191666Y-65842914D02*
X142286904Y-65890533D01*
X141239285Y-66604819D02*
X141048809Y-66604819D01*
X141048809Y-66604819D02*
X140953571Y-66557200D01*
X140953571Y-66557200D02*
X140905952Y-66509580D01*
X140905952Y-66509580D02*
X140810714Y-66366723D01*
X140810714Y-66366723D02*
X140763095Y-66176247D01*
X140763095Y-66176247D02*
X140763095Y-65795295D01*
X140763095Y-65795295D02*
X140810714Y-65700057D01*
X140810714Y-65700057D02*
X140858333Y-65652438D01*
X140858333Y-65652438D02*
X140953571Y-65604819D01*
X140953571Y-65604819D02*
X141144047Y-65604819D01*
X141144047Y-65604819D02*
X141239285Y-65652438D01*
X141239285Y-65652438D02*
X141286904Y-65700057D01*
X141286904Y-65700057D02*
X141334523Y-65795295D01*
X141334523Y-65795295D02*
X141334523Y-66033390D01*
X141334523Y-66033390D02*
X141286904Y-66128628D01*
X141286904Y-66128628D02*
X141239285Y-66176247D01*
X141239285Y-66176247D02*
X141144047Y-66223866D01*
X141144047Y-66223866D02*
X140953571Y-66223866D01*
X140953571Y-66223866D02*
X140858333Y-66176247D01*
X140858333Y-66176247D02*
X140810714Y-66128628D01*
X140810714Y-66128628D02*
X140763095Y-66033390D01*
X142680357Y-62634819D02*
X143013690Y-62158628D01*
X143251785Y-62634819D02*
X143251785Y-61634819D01*
X143251785Y-61634819D02*
X142870833Y-61634819D01*
X142870833Y-61634819D02*
X142775595Y-61682438D01*
X142775595Y-61682438D02*
X142727976Y-61730057D01*
X142727976Y-61730057D02*
X142680357Y-61825295D01*
X142680357Y-61825295D02*
X142680357Y-61968152D01*
X142680357Y-61968152D02*
X142727976Y-62063390D01*
X142727976Y-62063390D02*
X142775595Y-62111009D01*
X142775595Y-62111009D02*
X142870833Y-62158628D01*
X142870833Y-62158628D02*
X143251785Y-62158628D01*
X142299404Y-61730057D02*
X142251785Y-61682438D01*
X142251785Y-61682438D02*
X142156547Y-61634819D01*
X142156547Y-61634819D02*
X141918452Y-61634819D01*
X141918452Y-61634819D02*
X141823214Y-61682438D01*
X141823214Y-61682438D02*
X141775595Y-61730057D01*
X141775595Y-61730057D02*
X141727976Y-61825295D01*
X141727976Y-61825295D02*
X141727976Y-61920533D01*
X141727976Y-61920533D02*
X141775595Y-62063390D01*
X141775595Y-62063390D02*
X142347023Y-62634819D01*
X142347023Y-62634819D02*
X141727976Y-62634819D01*
X141347023Y-61730057D02*
X141299404Y-61682438D01*
X141299404Y-61682438D02*
X141204166Y-61634819D01*
X141204166Y-61634819D02*
X140966071Y-61634819D01*
X140966071Y-61634819D02*
X140870833Y-61682438D01*
X140870833Y-61682438D02*
X140823214Y-61730057D01*
X140823214Y-61730057D02*
X140775595Y-61825295D01*
X140775595Y-61825295D02*
X140775595Y-61920533D01*
X140775595Y-61920533D02*
X140823214Y-62063390D01*
X140823214Y-62063390D02*
X141394642Y-62634819D01*
X141394642Y-62634819D02*
X140775595Y-62634819D01*
X160209580Y-83332142D02*
X160257200Y-83284523D01*
X160257200Y-83284523D02*
X160304819Y-83141666D01*
X160304819Y-83141666D02*
X160304819Y-83046428D01*
X160304819Y-83046428D02*
X160257200Y-82903571D01*
X160257200Y-82903571D02*
X160161961Y-82808333D01*
X160161961Y-82808333D02*
X160066723Y-82760714D01*
X160066723Y-82760714D02*
X159876247Y-82713095D01*
X159876247Y-82713095D02*
X159733390Y-82713095D01*
X159733390Y-82713095D02*
X159542914Y-82760714D01*
X159542914Y-82760714D02*
X159447676Y-82808333D01*
X159447676Y-82808333D02*
X159352438Y-82903571D01*
X159352438Y-82903571D02*
X159304819Y-83046428D01*
X159304819Y-83046428D02*
X159304819Y-83141666D01*
X159304819Y-83141666D02*
X159352438Y-83284523D01*
X159352438Y-83284523D02*
X159400057Y-83332142D01*
X159400057Y-83713095D02*
X159352438Y-83760714D01*
X159352438Y-83760714D02*
X159304819Y-83855952D01*
X159304819Y-83855952D02*
X159304819Y-84094047D01*
X159304819Y-84094047D02*
X159352438Y-84189285D01*
X159352438Y-84189285D02*
X159400057Y-84236904D01*
X159400057Y-84236904D02*
X159495295Y-84284523D01*
X159495295Y-84284523D02*
X159590533Y-84284523D01*
X159590533Y-84284523D02*
X159733390Y-84236904D01*
X159733390Y-84236904D02*
X160304819Y-83665476D01*
X160304819Y-83665476D02*
X160304819Y-84284523D01*
X159304819Y-84903571D02*
X159304819Y-84998809D01*
X159304819Y-84998809D02*
X159352438Y-85094047D01*
X159352438Y-85094047D02*
X159400057Y-85141666D01*
X159400057Y-85141666D02*
X159495295Y-85189285D01*
X159495295Y-85189285D02*
X159685771Y-85236904D01*
X159685771Y-85236904D02*
X159923866Y-85236904D01*
X159923866Y-85236904D02*
X160114342Y-85189285D01*
X160114342Y-85189285D02*
X160209580Y-85141666D01*
X160209580Y-85141666D02*
X160257200Y-85094047D01*
X160257200Y-85094047D02*
X160304819Y-84998809D01*
X160304819Y-84998809D02*
X160304819Y-84903571D01*
X160304819Y-84903571D02*
X160257200Y-84808333D01*
X160257200Y-84808333D02*
X160209580Y-84760714D01*
X160209580Y-84760714D02*
X160114342Y-84713095D01*
X160114342Y-84713095D02*
X159923866Y-84665476D01*
X159923866Y-84665476D02*
X159685771Y-84665476D01*
X159685771Y-84665476D02*
X159495295Y-84713095D01*
X159495295Y-84713095D02*
X159400057Y-84760714D01*
X159400057Y-84760714D02*
X159352438Y-84808333D01*
X159352438Y-84808333D02*
X159304819Y-84903571D01*
X154442819Y-102819642D02*
X153966628Y-102486309D01*
X154442819Y-102248214D02*
X153442819Y-102248214D01*
X153442819Y-102248214D02*
X153442819Y-102629166D01*
X153442819Y-102629166D02*
X153490438Y-102724404D01*
X153490438Y-102724404D02*
X153538057Y-102772023D01*
X153538057Y-102772023D02*
X153633295Y-102819642D01*
X153633295Y-102819642D02*
X153776152Y-102819642D01*
X153776152Y-102819642D02*
X153871390Y-102772023D01*
X153871390Y-102772023D02*
X153919009Y-102724404D01*
X153919009Y-102724404D02*
X153966628Y-102629166D01*
X153966628Y-102629166D02*
X153966628Y-102248214D01*
X154442819Y-103772023D02*
X154442819Y-103200595D01*
X154442819Y-103486309D02*
X153442819Y-103486309D01*
X153442819Y-103486309D02*
X153585676Y-103391071D01*
X153585676Y-103391071D02*
X153680914Y-103295833D01*
X153680914Y-103295833D02*
X153728533Y-103200595D01*
X153442819Y-104105357D02*
X153442819Y-104772023D01*
X153442819Y-104772023D02*
X154442819Y-104343452D01*
X82322357Y-84796819D02*
X82655690Y-84320628D01*
X82893785Y-84796819D02*
X82893785Y-83796819D01*
X82893785Y-83796819D02*
X82512833Y-83796819D01*
X82512833Y-83796819D02*
X82417595Y-83844438D01*
X82417595Y-83844438D02*
X82369976Y-83892057D01*
X82369976Y-83892057D02*
X82322357Y-83987295D01*
X82322357Y-83987295D02*
X82322357Y-84130152D01*
X82322357Y-84130152D02*
X82369976Y-84225390D01*
X82369976Y-84225390D02*
X82417595Y-84273009D01*
X82417595Y-84273009D02*
X82512833Y-84320628D01*
X82512833Y-84320628D02*
X82893785Y-84320628D01*
X81369976Y-84796819D02*
X81941404Y-84796819D01*
X81655690Y-84796819D02*
X81655690Y-83796819D01*
X81655690Y-83796819D02*
X81750928Y-83939676D01*
X81750928Y-83939676D02*
X81846166Y-84034914D01*
X81846166Y-84034914D02*
X81941404Y-84082533D01*
X80417595Y-84796819D02*
X80989023Y-84796819D01*
X80703309Y-84796819D02*
X80703309Y-83796819D01*
X80703309Y-83796819D02*
X80798547Y-83939676D01*
X80798547Y-83939676D02*
X80893785Y-84034914D01*
X80893785Y-84034914D02*
X80989023Y-84082533D01*
X71616819Y-99434833D02*
X71140628Y-99101500D01*
X71616819Y-98863405D02*
X70616819Y-98863405D01*
X70616819Y-98863405D02*
X70616819Y-99244357D01*
X70616819Y-99244357D02*
X70664438Y-99339595D01*
X70664438Y-99339595D02*
X70712057Y-99387214D01*
X70712057Y-99387214D02*
X70807295Y-99434833D01*
X70807295Y-99434833D02*
X70950152Y-99434833D01*
X70950152Y-99434833D02*
X71045390Y-99387214D01*
X71045390Y-99387214D02*
X71093009Y-99339595D01*
X71093009Y-99339595D02*
X71140628Y-99244357D01*
X71140628Y-99244357D02*
X71140628Y-98863405D01*
X71045390Y-100006262D02*
X70997771Y-99911024D01*
X70997771Y-99911024D02*
X70950152Y-99863405D01*
X70950152Y-99863405D02*
X70854914Y-99815786D01*
X70854914Y-99815786D02*
X70807295Y-99815786D01*
X70807295Y-99815786D02*
X70712057Y-99863405D01*
X70712057Y-99863405D02*
X70664438Y-99911024D01*
X70664438Y-99911024D02*
X70616819Y-100006262D01*
X70616819Y-100006262D02*
X70616819Y-100196738D01*
X70616819Y-100196738D02*
X70664438Y-100291976D01*
X70664438Y-100291976D02*
X70712057Y-100339595D01*
X70712057Y-100339595D02*
X70807295Y-100387214D01*
X70807295Y-100387214D02*
X70854914Y-100387214D01*
X70854914Y-100387214D02*
X70950152Y-100339595D01*
X70950152Y-100339595D02*
X70997771Y-100291976D01*
X70997771Y-100291976D02*
X71045390Y-100196738D01*
X71045390Y-100196738D02*
X71045390Y-100006262D01*
X71045390Y-100006262D02*
X71093009Y-99911024D01*
X71093009Y-99911024D02*
X71140628Y-99863405D01*
X71140628Y-99863405D02*
X71235866Y-99815786D01*
X71235866Y-99815786D02*
X71426342Y-99815786D01*
X71426342Y-99815786D02*
X71521580Y-99863405D01*
X71521580Y-99863405D02*
X71569200Y-99911024D01*
X71569200Y-99911024D02*
X71616819Y-100006262D01*
X71616819Y-100006262D02*
X71616819Y-100196738D01*
X71616819Y-100196738D02*
X71569200Y-100291976D01*
X71569200Y-100291976D02*
X71521580Y-100339595D01*
X71521580Y-100339595D02*
X71426342Y-100387214D01*
X71426342Y-100387214D02*
X71235866Y-100387214D01*
X71235866Y-100387214D02*
X71140628Y-100339595D01*
X71140628Y-100339595D02*
X71093009Y-100291976D01*
X71093009Y-100291976D02*
X71045390Y-100196738D01*
X66085666Y-97431580D02*
X66133285Y-97479200D01*
X66133285Y-97479200D02*
X66276142Y-97526819D01*
X66276142Y-97526819D02*
X66371380Y-97526819D01*
X66371380Y-97526819D02*
X66514237Y-97479200D01*
X66514237Y-97479200D02*
X66609475Y-97383961D01*
X66609475Y-97383961D02*
X66657094Y-97288723D01*
X66657094Y-97288723D02*
X66704713Y-97098247D01*
X66704713Y-97098247D02*
X66704713Y-96955390D01*
X66704713Y-96955390D02*
X66657094Y-96764914D01*
X66657094Y-96764914D02*
X66609475Y-96669676D01*
X66609475Y-96669676D02*
X66514237Y-96574438D01*
X66514237Y-96574438D02*
X66371380Y-96526819D01*
X66371380Y-96526819D02*
X66276142Y-96526819D01*
X66276142Y-96526819D02*
X66133285Y-96574438D01*
X66133285Y-96574438D02*
X66085666Y-96622057D01*
X65228523Y-96526819D02*
X65418999Y-96526819D01*
X65418999Y-96526819D02*
X65514237Y-96574438D01*
X65514237Y-96574438D02*
X65561856Y-96622057D01*
X65561856Y-96622057D02*
X65657094Y-96764914D01*
X65657094Y-96764914D02*
X65704713Y-96955390D01*
X65704713Y-96955390D02*
X65704713Y-97336342D01*
X65704713Y-97336342D02*
X65657094Y-97431580D01*
X65657094Y-97431580D02*
X65609475Y-97479200D01*
X65609475Y-97479200D02*
X65514237Y-97526819D01*
X65514237Y-97526819D02*
X65323761Y-97526819D01*
X65323761Y-97526819D02*
X65228523Y-97479200D01*
X65228523Y-97479200D02*
X65180904Y-97431580D01*
X65180904Y-97431580D02*
X65133285Y-97336342D01*
X65133285Y-97336342D02*
X65133285Y-97098247D01*
X65133285Y-97098247D02*
X65180904Y-97003009D01*
X65180904Y-97003009D02*
X65228523Y-96955390D01*
X65228523Y-96955390D02*
X65323761Y-96907771D01*
X65323761Y-96907771D02*
X65514237Y-96907771D01*
X65514237Y-96907771D02*
X65609475Y-96955390D01*
X65609475Y-96955390D02*
X65657094Y-97003009D01*
X65657094Y-97003009D02*
X65704713Y-97098247D01*
X87194819Y-73812642D02*
X86718628Y-73479309D01*
X87194819Y-73241214D02*
X86194819Y-73241214D01*
X86194819Y-73241214D02*
X86194819Y-73622166D01*
X86194819Y-73622166D02*
X86242438Y-73717404D01*
X86242438Y-73717404D02*
X86290057Y-73765023D01*
X86290057Y-73765023D02*
X86385295Y-73812642D01*
X86385295Y-73812642D02*
X86528152Y-73812642D01*
X86528152Y-73812642D02*
X86623390Y-73765023D01*
X86623390Y-73765023D02*
X86671009Y-73717404D01*
X86671009Y-73717404D02*
X86718628Y-73622166D01*
X86718628Y-73622166D02*
X86718628Y-73241214D01*
X87194819Y-74765023D02*
X87194819Y-74193595D01*
X87194819Y-74479309D02*
X86194819Y-74479309D01*
X86194819Y-74479309D02*
X86337676Y-74384071D01*
X86337676Y-74384071D02*
X86432914Y-74288833D01*
X86432914Y-74288833D02*
X86480533Y-74193595D01*
X86194819Y-75384071D02*
X86194819Y-75479309D01*
X86194819Y-75479309D02*
X86242438Y-75574547D01*
X86242438Y-75574547D02*
X86290057Y-75622166D01*
X86290057Y-75622166D02*
X86385295Y-75669785D01*
X86385295Y-75669785D02*
X86575771Y-75717404D01*
X86575771Y-75717404D02*
X86813866Y-75717404D01*
X86813866Y-75717404D02*
X87004342Y-75669785D01*
X87004342Y-75669785D02*
X87099580Y-75622166D01*
X87099580Y-75622166D02*
X87147200Y-75574547D01*
X87147200Y-75574547D02*
X87194819Y-75479309D01*
X87194819Y-75479309D02*
X87194819Y-75384071D01*
X87194819Y-75384071D02*
X87147200Y-75288833D01*
X87147200Y-75288833D02*
X87099580Y-75241214D01*
X87099580Y-75241214D02*
X87004342Y-75193595D01*
X87004342Y-75193595D02*
X86813866Y-75145976D01*
X86813866Y-75145976D02*
X86575771Y-75145976D01*
X86575771Y-75145976D02*
X86385295Y-75193595D01*
X86385295Y-75193595D02*
X86290057Y-75241214D01*
X86290057Y-75241214D02*
X86242438Y-75288833D01*
X86242438Y-75288833D02*
X86194819Y-75384071D01*
X94984819Y-86389642D02*
X94508628Y-86056309D01*
X94984819Y-85818214D02*
X93984819Y-85818214D01*
X93984819Y-85818214D02*
X93984819Y-86199166D01*
X93984819Y-86199166D02*
X94032438Y-86294404D01*
X94032438Y-86294404D02*
X94080057Y-86342023D01*
X94080057Y-86342023D02*
X94175295Y-86389642D01*
X94175295Y-86389642D02*
X94318152Y-86389642D01*
X94318152Y-86389642D02*
X94413390Y-86342023D01*
X94413390Y-86342023D02*
X94461009Y-86294404D01*
X94461009Y-86294404D02*
X94508628Y-86199166D01*
X94508628Y-86199166D02*
X94508628Y-85818214D01*
X94984819Y-87342023D02*
X94984819Y-86770595D01*
X94984819Y-87056309D02*
X93984819Y-87056309D01*
X93984819Y-87056309D02*
X94127676Y-86961071D01*
X94127676Y-86961071D02*
X94222914Y-86865833D01*
X94222914Y-86865833D02*
X94270533Y-86770595D01*
X93984819Y-87675357D02*
X93984819Y-88294404D01*
X93984819Y-88294404D02*
X94365771Y-87961071D01*
X94365771Y-87961071D02*
X94365771Y-88103928D01*
X94365771Y-88103928D02*
X94413390Y-88199166D01*
X94413390Y-88199166D02*
X94461009Y-88246785D01*
X94461009Y-88246785D02*
X94556247Y-88294404D01*
X94556247Y-88294404D02*
X94794342Y-88294404D01*
X94794342Y-88294404D02*
X94889580Y-88246785D01*
X94889580Y-88246785D02*
X94937200Y-88199166D01*
X94937200Y-88199166D02*
X94984819Y-88103928D01*
X94984819Y-88103928D02*
X94984819Y-87818214D01*
X94984819Y-87818214D02*
X94937200Y-87722976D01*
X94937200Y-87722976D02*
X94889580Y-87675357D01*
X88913857Y-84333580D02*
X88961476Y-84381200D01*
X88961476Y-84381200D02*
X89104333Y-84428819D01*
X89104333Y-84428819D02*
X89199571Y-84428819D01*
X89199571Y-84428819D02*
X89342428Y-84381200D01*
X89342428Y-84381200D02*
X89437666Y-84285961D01*
X89437666Y-84285961D02*
X89485285Y-84190723D01*
X89485285Y-84190723D02*
X89532904Y-84000247D01*
X89532904Y-84000247D02*
X89532904Y-83857390D01*
X89532904Y-83857390D02*
X89485285Y-83666914D01*
X89485285Y-83666914D02*
X89437666Y-83571676D01*
X89437666Y-83571676D02*
X89342428Y-83476438D01*
X89342428Y-83476438D02*
X89199571Y-83428819D01*
X89199571Y-83428819D02*
X89104333Y-83428819D01*
X89104333Y-83428819D02*
X88961476Y-83476438D01*
X88961476Y-83476438D02*
X88913857Y-83524057D01*
X87961476Y-84428819D02*
X88532904Y-84428819D01*
X88247190Y-84428819D02*
X88247190Y-83428819D01*
X88247190Y-83428819D02*
X88342428Y-83571676D01*
X88342428Y-83571676D02*
X88437666Y-83666914D01*
X88437666Y-83666914D02*
X88532904Y-83714533D01*
X87009095Y-84428819D02*
X87580523Y-84428819D01*
X87294809Y-84428819D02*
X87294809Y-83428819D01*
X87294809Y-83428819D02*
X87390047Y-83571676D01*
X87390047Y-83571676D02*
X87485285Y-83666914D01*
X87485285Y-83666914D02*
X87580523Y-83714533D01*
X94514357Y-92078819D02*
X94847690Y-91602628D01*
X95085785Y-92078819D02*
X95085785Y-91078819D01*
X95085785Y-91078819D02*
X94704833Y-91078819D01*
X94704833Y-91078819D02*
X94609595Y-91126438D01*
X94609595Y-91126438D02*
X94561976Y-91174057D01*
X94561976Y-91174057D02*
X94514357Y-91269295D01*
X94514357Y-91269295D02*
X94514357Y-91412152D01*
X94514357Y-91412152D02*
X94561976Y-91507390D01*
X94561976Y-91507390D02*
X94609595Y-91555009D01*
X94609595Y-91555009D02*
X94704833Y-91602628D01*
X94704833Y-91602628D02*
X95085785Y-91602628D01*
X93561976Y-92078819D02*
X94133404Y-92078819D01*
X93847690Y-92078819D02*
X93847690Y-91078819D01*
X93847690Y-91078819D02*
X93942928Y-91221676D01*
X93942928Y-91221676D02*
X94038166Y-91316914D01*
X94038166Y-91316914D02*
X94133404Y-91364533D01*
X92657214Y-91078819D02*
X93133404Y-91078819D01*
X93133404Y-91078819D02*
X93181023Y-91555009D01*
X93181023Y-91555009D02*
X93133404Y-91507390D01*
X93133404Y-91507390D02*
X93038166Y-91459771D01*
X93038166Y-91459771D02*
X92800071Y-91459771D01*
X92800071Y-91459771D02*
X92704833Y-91507390D01*
X92704833Y-91507390D02*
X92657214Y-91555009D01*
X92657214Y-91555009D02*
X92609595Y-91650247D01*
X92609595Y-91650247D02*
X92609595Y-91888342D01*
X92609595Y-91888342D02*
X92657214Y-91983580D01*
X92657214Y-91983580D02*
X92704833Y-92031200D01*
X92704833Y-92031200D02*
X92800071Y-92078819D01*
X92800071Y-92078819D02*
X93038166Y-92078819D01*
X93038166Y-92078819D02*
X93133404Y-92031200D01*
X93133404Y-92031200D02*
X93181023Y-91983580D01*
X75688666Y-88905580D02*
X75736285Y-88953200D01*
X75736285Y-88953200D02*
X75879142Y-89000819D01*
X75879142Y-89000819D02*
X75974380Y-89000819D01*
X75974380Y-89000819D02*
X76117237Y-88953200D01*
X76117237Y-88953200D02*
X76212475Y-88857961D01*
X76212475Y-88857961D02*
X76260094Y-88762723D01*
X76260094Y-88762723D02*
X76307713Y-88572247D01*
X76307713Y-88572247D02*
X76307713Y-88429390D01*
X76307713Y-88429390D02*
X76260094Y-88238914D01*
X76260094Y-88238914D02*
X76212475Y-88143676D01*
X76212475Y-88143676D02*
X76117237Y-88048438D01*
X76117237Y-88048438D02*
X75974380Y-88000819D01*
X75974380Y-88000819D02*
X75879142Y-88000819D01*
X75879142Y-88000819D02*
X75736285Y-88048438D01*
X75736285Y-88048438D02*
X75688666Y-88096057D01*
X75117237Y-88429390D02*
X75212475Y-88381771D01*
X75212475Y-88381771D02*
X75260094Y-88334152D01*
X75260094Y-88334152D02*
X75307713Y-88238914D01*
X75307713Y-88238914D02*
X75307713Y-88191295D01*
X75307713Y-88191295D02*
X75260094Y-88096057D01*
X75260094Y-88096057D02*
X75212475Y-88048438D01*
X75212475Y-88048438D02*
X75117237Y-88000819D01*
X75117237Y-88000819D02*
X74926761Y-88000819D01*
X74926761Y-88000819D02*
X74831523Y-88048438D01*
X74831523Y-88048438D02*
X74783904Y-88096057D01*
X74783904Y-88096057D02*
X74736285Y-88191295D01*
X74736285Y-88191295D02*
X74736285Y-88238914D01*
X74736285Y-88238914D02*
X74783904Y-88334152D01*
X74783904Y-88334152D02*
X74831523Y-88381771D01*
X74831523Y-88381771D02*
X74926761Y-88429390D01*
X74926761Y-88429390D02*
X75117237Y-88429390D01*
X75117237Y-88429390D02*
X75212475Y-88477009D01*
X75212475Y-88477009D02*
X75260094Y-88524628D01*
X75260094Y-88524628D02*
X75307713Y-88619866D01*
X75307713Y-88619866D02*
X75307713Y-88810342D01*
X75307713Y-88810342D02*
X75260094Y-88905580D01*
X75260094Y-88905580D02*
X75212475Y-88953200D01*
X75212475Y-88953200D02*
X75117237Y-89000819D01*
X75117237Y-89000819D02*
X74926761Y-89000819D01*
X74926761Y-89000819D02*
X74831523Y-88953200D01*
X74831523Y-88953200D02*
X74783904Y-88905580D01*
X74783904Y-88905580D02*
X74736285Y-88810342D01*
X74736285Y-88810342D02*
X74736285Y-88619866D01*
X74736285Y-88619866D02*
X74783904Y-88524628D01*
X74783904Y-88524628D02*
X74831523Y-88477009D01*
X74831523Y-88477009D02*
X74926761Y-88429390D01*
X69414819Y-73911833D02*
X68938628Y-73578500D01*
X69414819Y-73340405D02*
X68414819Y-73340405D01*
X68414819Y-73340405D02*
X68414819Y-73721357D01*
X68414819Y-73721357D02*
X68462438Y-73816595D01*
X68462438Y-73816595D02*
X68510057Y-73864214D01*
X68510057Y-73864214D02*
X68605295Y-73911833D01*
X68605295Y-73911833D02*
X68748152Y-73911833D01*
X68748152Y-73911833D02*
X68843390Y-73864214D01*
X68843390Y-73864214D02*
X68891009Y-73816595D01*
X68891009Y-73816595D02*
X68938628Y-73721357D01*
X68938628Y-73721357D02*
X68938628Y-73340405D01*
X69414819Y-74388024D02*
X69414819Y-74578500D01*
X69414819Y-74578500D02*
X69367200Y-74673738D01*
X69367200Y-74673738D02*
X69319580Y-74721357D01*
X69319580Y-74721357D02*
X69176723Y-74816595D01*
X69176723Y-74816595D02*
X68986247Y-74864214D01*
X68986247Y-74864214D02*
X68605295Y-74864214D01*
X68605295Y-74864214D02*
X68510057Y-74816595D01*
X68510057Y-74816595D02*
X68462438Y-74768976D01*
X68462438Y-74768976D02*
X68414819Y-74673738D01*
X68414819Y-74673738D02*
X68414819Y-74483262D01*
X68414819Y-74483262D02*
X68462438Y-74388024D01*
X68462438Y-74388024D02*
X68510057Y-74340405D01*
X68510057Y-74340405D02*
X68605295Y-74292786D01*
X68605295Y-74292786D02*
X68843390Y-74292786D01*
X68843390Y-74292786D02*
X68938628Y-74340405D01*
X68938628Y-74340405D02*
X68986247Y-74388024D01*
X68986247Y-74388024D02*
X69033866Y-74483262D01*
X69033866Y-74483262D02*
X69033866Y-74673738D01*
X69033866Y-74673738D02*
X68986247Y-74768976D01*
X68986247Y-74768976D02*
X68938628Y-74816595D01*
X68938628Y-74816595D02*
X68843390Y-74864214D01*
X100337580Y-109868142D02*
X100385200Y-109820523D01*
X100385200Y-109820523D02*
X100432819Y-109677666D01*
X100432819Y-109677666D02*
X100432819Y-109582428D01*
X100432819Y-109582428D02*
X100385200Y-109439571D01*
X100385200Y-109439571D02*
X100289961Y-109344333D01*
X100289961Y-109344333D02*
X100194723Y-109296714D01*
X100194723Y-109296714D02*
X100004247Y-109249095D01*
X100004247Y-109249095D02*
X99861390Y-109249095D01*
X99861390Y-109249095D02*
X99670914Y-109296714D01*
X99670914Y-109296714D02*
X99575676Y-109344333D01*
X99575676Y-109344333D02*
X99480438Y-109439571D01*
X99480438Y-109439571D02*
X99432819Y-109582428D01*
X99432819Y-109582428D02*
X99432819Y-109677666D01*
X99432819Y-109677666D02*
X99480438Y-109820523D01*
X99480438Y-109820523D02*
X99528057Y-109868142D01*
X100432819Y-110820523D02*
X100432819Y-110249095D01*
X100432819Y-110534809D02*
X99432819Y-110534809D01*
X99432819Y-110534809D02*
X99575676Y-110439571D01*
X99575676Y-110439571D02*
X99670914Y-110344333D01*
X99670914Y-110344333D02*
X99718533Y-110249095D01*
X99528057Y-111201476D02*
X99480438Y-111249095D01*
X99480438Y-111249095D02*
X99432819Y-111344333D01*
X99432819Y-111344333D02*
X99432819Y-111582428D01*
X99432819Y-111582428D02*
X99480438Y-111677666D01*
X99480438Y-111677666D02*
X99528057Y-111725285D01*
X99528057Y-111725285D02*
X99623295Y-111772904D01*
X99623295Y-111772904D02*
X99718533Y-111772904D01*
X99718533Y-111772904D02*
X99861390Y-111725285D01*
X99861390Y-111725285D02*
X100432819Y-111153857D01*
X100432819Y-111153857D02*
X100432819Y-111772904D01*
X68371666Y-110131580D02*
X68419285Y-110179200D01*
X68419285Y-110179200D02*
X68562142Y-110226819D01*
X68562142Y-110226819D02*
X68657380Y-110226819D01*
X68657380Y-110226819D02*
X68800237Y-110179200D01*
X68800237Y-110179200D02*
X68895475Y-110083961D01*
X68895475Y-110083961D02*
X68943094Y-109988723D01*
X68943094Y-109988723D02*
X68990713Y-109798247D01*
X68990713Y-109798247D02*
X68990713Y-109655390D01*
X68990713Y-109655390D02*
X68943094Y-109464914D01*
X68943094Y-109464914D02*
X68895475Y-109369676D01*
X68895475Y-109369676D02*
X68800237Y-109274438D01*
X68800237Y-109274438D02*
X68657380Y-109226819D01*
X68657380Y-109226819D02*
X68562142Y-109226819D01*
X68562142Y-109226819D02*
X68419285Y-109274438D01*
X68419285Y-109274438D02*
X68371666Y-109322057D01*
X68038332Y-109226819D02*
X67371666Y-109226819D01*
X67371666Y-109226819D02*
X67800237Y-110226819D01*
X97862819Y-78384642D02*
X97386628Y-78051309D01*
X97862819Y-77813214D02*
X96862819Y-77813214D01*
X96862819Y-77813214D02*
X96862819Y-78194166D01*
X96862819Y-78194166D02*
X96910438Y-78289404D01*
X96910438Y-78289404D02*
X96958057Y-78337023D01*
X96958057Y-78337023D02*
X97053295Y-78384642D01*
X97053295Y-78384642D02*
X97196152Y-78384642D01*
X97196152Y-78384642D02*
X97291390Y-78337023D01*
X97291390Y-78337023D02*
X97339009Y-78289404D01*
X97339009Y-78289404D02*
X97386628Y-78194166D01*
X97386628Y-78194166D02*
X97386628Y-77813214D01*
X97862819Y-79337023D02*
X97862819Y-78765595D01*
X97862819Y-79051309D02*
X96862819Y-79051309D01*
X96862819Y-79051309D02*
X97005676Y-78956071D01*
X97005676Y-78956071D02*
X97100914Y-78860833D01*
X97100914Y-78860833D02*
X97148533Y-78765595D01*
X96958057Y-79717976D02*
X96910438Y-79765595D01*
X96910438Y-79765595D02*
X96862819Y-79860833D01*
X96862819Y-79860833D02*
X96862819Y-80098928D01*
X96862819Y-80098928D02*
X96910438Y-80194166D01*
X96910438Y-80194166D02*
X96958057Y-80241785D01*
X96958057Y-80241785D02*
X97053295Y-80289404D01*
X97053295Y-80289404D02*
X97148533Y-80289404D01*
X97148533Y-80289404D02*
X97291390Y-80241785D01*
X97291390Y-80241785D02*
X97862819Y-79670357D01*
X97862819Y-79670357D02*
X97862819Y-80289404D01*
X84730904Y-98686819D02*
X84730904Y-99496342D01*
X84730904Y-99496342D02*
X84683285Y-99591580D01*
X84683285Y-99591580D02*
X84635666Y-99639200D01*
X84635666Y-99639200D02*
X84540428Y-99686819D01*
X84540428Y-99686819D02*
X84349952Y-99686819D01*
X84349952Y-99686819D02*
X84254714Y-99639200D01*
X84254714Y-99639200D02*
X84207095Y-99591580D01*
X84207095Y-99591580D02*
X84159476Y-99496342D01*
X84159476Y-99496342D02*
X84159476Y-98686819D01*
X83159476Y-99686819D02*
X83730904Y-99686819D01*
X83445190Y-99686819D02*
X83445190Y-98686819D01*
X83445190Y-98686819D02*
X83540428Y-98829676D01*
X83540428Y-98829676D02*
X83635666Y-98924914D01*
X83635666Y-98924914D02*
X83730904Y-98972533D01*
X91512819Y-79146642D02*
X91036628Y-78813309D01*
X91512819Y-78575214D02*
X90512819Y-78575214D01*
X90512819Y-78575214D02*
X90512819Y-78956166D01*
X90512819Y-78956166D02*
X90560438Y-79051404D01*
X90560438Y-79051404D02*
X90608057Y-79099023D01*
X90608057Y-79099023D02*
X90703295Y-79146642D01*
X90703295Y-79146642D02*
X90846152Y-79146642D01*
X90846152Y-79146642D02*
X90941390Y-79099023D01*
X90941390Y-79099023D02*
X90989009Y-79051404D01*
X90989009Y-79051404D02*
X91036628Y-78956166D01*
X91036628Y-78956166D02*
X91036628Y-78575214D01*
X91512819Y-80099023D02*
X91512819Y-79527595D01*
X91512819Y-79813309D02*
X90512819Y-79813309D01*
X90512819Y-79813309D02*
X90655676Y-79718071D01*
X90655676Y-79718071D02*
X90750914Y-79622833D01*
X90750914Y-79622833D02*
X90798533Y-79527595D01*
X90846152Y-80956166D02*
X91512819Y-80956166D01*
X90465200Y-80718071D02*
X91179485Y-80479976D01*
X91179485Y-80479976D02*
X91179485Y-81099023D01*
X92469857Y-109479580D02*
X92517476Y-109527200D01*
X92517476Y-109527200D02*
X92660333Y-109574819D01*
X92660333Y-109574819D02*
X92755571Y-109574819D01*
X92755571Y-109574819D02*
X92898428Y-109527200D01*
X92898428Y-109527200D02*
X92993666Y-109431961D01*
X92993666Y-109431961D02*
X93041285Y-109336723D01*
X93041285Y-109336723D02*
X93088904Y-109146247D01*
X93088904Y-109146247D02*
X93088904Y-109003390D01*
X93088904Y-109003390D02*
X93041285Y-108812914D01*
X93041285Y-108812914D02*
X92993666Y-108717676D01*
X92993666Y-108717676D02*
X92898428Y-108622438D01*
X92898428Y-108622438D02*
X92755571Y-108574819D01*
X92755571Y-108574819D02*
X92660333Y-108574819D01*
X92660333Y-108574819D02*
X92517476Y-108622438D01*
X92517476Y-108622438D02*
X92469857Y-108670057D01*
X91517476Y-109574819D02*
X92088904Y-109574819D01*
X91803190Y-109574819D02*
X91803190Y-108574819D01*
X91803190Y-108574819D02*
X91898428Y-108717676D01*
X91898428Y-108717676D02*
X91993666Y-108812914D01*
X91993666Y-108812914D02*
X92088904Y-108860533D01*
X90898428Y-108574819D02*
X90803190Y-108574819D01*
X90803190Y-108574819D02*
X90707952Y-108622438D01*
X90707952Y-108622438D02*
X90660333Y-108670057D01*
X90660333Y-108670057D02*
X90612714Y-108765295D01*
X90612714Y-108765295D02*
X90565095Y-108955771D01*
X90565095Y-108955771D02*
X90565095Y-109193866D01*
X90565095Y-109193866D02*
X90612714Y-109384342D01*
X90612714Y-109384342D02*
X90660333Y-109479580D01*
X90660333Y-109479580D02*
X90707952Y-109527200D01*
X90707952Y-109527200D02*
X90803190Y-109574819D01*
X90803190Y-109574819D02*
X90898428Y-109574819D01*
X90898428Y-109574819D02*
X90993666Y-109527200D01*
X90993666Y-109527200D02*
X91041285Y-109479580D01*
X91041285Y-109479580D02*
X91088904Y-109384342D01*
X91088904Y-109384342D02*
X91136523Y-109193866D01*
X91136523Y-109193866D02*
X91136523Y-108955771D01*
X91136523Y-108955771D02*
X91088904Y-108765295D01*
X91088904Y-108765295D02*
X91041285Y-108670057D01*
X91041285Y-108670057D02*
X90993666Y-108622438D01*
X90993666Y-108622438D02*
X90898428Y-108574819D01*
X75699580Y-80782333D02*
X75747200Y-80734714D01*
X75747200Y-80734714D02*
X75794819Y-80591857D01*
X75794819Y-80591857D02*
X75794819Y-80496619D01*
X75794819Y-80496619D02*
X75747200Y-80353762D01*
X75747200Y-80353762D02*
X75651961Y-80258524D01*
X75651961Y-80258524D02*
X75556723Y-80210905D01*
X75556723Y-80210905D02*
X75366247Y-80163286D01*
X75366247Y-80163286D02*
X75223390Y-80163286D01*
X75223390Y-80163286D02*
X75032914Y-80210905D01*
X75032914Y-80210905D02*
X74937676Y-80258524D01*
X74937676Y-80258524D02*
X74842438Y-80353762D01*
X74842438Y-80353762D02*
X74794819Y-80496619D01*
X74794819Y-80496619D02*
X74794819Y-80591857D01*
X74794819Y-80591857D02*
X74842438Y-80734714D01*
X74842438Y-80734714D02*
X74890057Y-80782333D01*
X75794819Y-81258524D02*
X75794819Y-81449000D01*
X75794819Y-81449000D02*
X75747200Y-81544238D01*
X75747200Y-81544238D02*
X75699580Y-81591857D01*
X75699580Y-81591857D02*
X75556723Y-81687095D01*
X75556723Y-81687095D02*
X75366247Y-81734714D01*
X75366247Y-81734714D02*
X74985295Y-81734714D01*
X74985295Y-81734714D02*
X74890057Y-81687095D01*
X74890057Y-81687095D02*
X74842438Y-81639476D01*
X74842438Y-81639476D02*
X74794819Y-81544238D01*
X74794819Y-81544238D02*
X74794819Y-81353762D01*
X74794819Y-81353762D02*
X74842438Y-81258524D01*
X74842438Y-81258524D02*
X74890057Y-81210905D01*
X74890057Y-81210905D02*
X74985295Y-81163286D01*
X74985295Y-81163286D02*
X75223390Y-81163286D01*
X75223390Y-81163286D02*
X75318628Y-81210905D01*
X75318628Y-81210905D02*
X75366247Y-81258524D01*
X75366247Y-81258524D02*
X75413866Y-81353762D01*
X75413866Y-81353762D02*
X75413866Y-81544238D01*
X75413866Y-81544238D02*
X75366247Y-81639476D01*
X75366247Y-81639476D02*
X75318628Y-81687095D01*
X75318628Y-81687095D02*
X75223390Y-81734714D01*
X107963857Y-86111580D02*
X108011476Y-86159200D01*
X108011476Y-86159200D02*
X108154333Y-86206819D01*
X108154333Y-86206819D02*
X108249571Y-86206819D01*
X108249571Y-86206819D02*
X108392428Y-86159200D01*
X108392428Y-86159200D02*
X108487666Y-86063961D01*
X108487666Y-86063961D02*
X108535285Y-85968723D01*
X108535285Y-85968723D02*
X108582904Y-85778247D01*
X108582904Y-85778247D02*
X108582904Y-85635390D01*
X108582904Y-85635390D02*
X108535285Y-85444914D01*
X108535285Y-85444914D02*
X108487666Y-85349676D01*
X108487666Y-85349676D02*
X108392428Y-85254438D01*
X108392428Y-85254438D02*
X108249571Y-85206819D01*
X108249571Y-85206819D02*
X108154333Y-85206819D01*
X108154333Y-85206819D02*
X108011476Y-85254438D01*
X108011476Y-85254438D02*
X107963857Y-85302057D01*
X107011476Y-86206819D02*
X107582904Y-86206819D01*
X107297190Y-86206819D02*
X107297190Y-85206819D01*
X107297190Y-85206819D02*
X107392428Y-85349676D01*
X107392428Y-85349676D02*
X107487666Y-85444914D01*
X107487666Y-85444914D02*
X107582904Y-85492533D01*
X106678142Y-85206819D02*
X106059095Y-85206819D01*
X106059095Y-85206819D02*
X106392428Y-85587771D01*
X106392428Y-85587771D02*
X106249571Y-85587771D01*
X106249571Y-85587771D02*
X106154333Y-85635390D01*
X106154333Y-85635390D02*
X106106714Y-85683009D01*
X106106714Y-85683009D02*
X106059095Y-85778247D01*
X106059095Y-85778247D02*
X106059095Y-86016342D01*
X106059095Y-86016342D02*
X106106714Y-86111580D01*
X106106714Y-86111580D02*
X106154333Y-86159200D01*
X106154333Y-86159200D02*
X106249571Y-86206819D01*
X106249571Y-86206819D02*
X106535285Y-86206819D01*
X106535285Y-86206819D02*
X106630523Y-86159200D01*
X106630523Y-86159200D02*
X106678142Y-86111580D01*
D11*
%TO.C,R25*%
X183810436Y-113410000D02*
X185264564Y-113410000D01*
X183810436Y-111590000D02*
X185264564Y-111590000D01*
%TO.C,C14*%
X127313748Y-127410000D02*
X128736252Y-127410000D01*
X127313748Y-125590000D02*
X128736252Y-125590000D01*
%TO.C,C22*%
X180410000Y-118686252D02*
X180410000Y-117263748D01*
X178590000Y-118686252D02*
X178590000Y-117263748D01*
%TO.C,C21*%
X158910000Y-71186252D02*
X158910000Y-69763748D01*
X157090000Y-71186252D02*
X157090000Y-69763748D01*
%TO.C,C18*%
X149236252Y-67090000D02*
X147813748Y-67090000D01*
X149236252Y-68910000D02*
X147813748Y-68910000D01*
%TO.C,U3*%
X190625000Y-91975000D02*
X190625000Y-95425000D01*
X190625000Y-91975000D02*
X190625000Y-90025000D01*
X181755000Y-91975000D02*
X181755000Y-93925000D01*
X181755000Y-91975000D02*
X181755000Y-90025000D01*
%TO.C,R19*%
X119578000Y-114689564D02*
X119578000Y-113235436D01*
X117758000Y-114689564D02*
X117758000Y-113235436D01*
%TO.C,C24*%
X193910000Y-99686252D02*
X193910000Y-98263748D01*
X192090000Y-99686252D02*
X192090000Y-98263748D01*
%TO.C,R26*%
X165264564Y-78090000D02*
X163810436Y-78090000D01*
X165264564Y-79910000D02*
X163810436Y-79910000D01*
%TO.C,R27*%
X176910000Y-96689564D02*
X176910000Y-95235436D01*
X175090000Y-96689564D02*
X175090000Y-95235436D01*
%TO.C,R24*%
X161764564Y-62590000D02*
X160310436Y-62590000D01*
X161764564Y-64410000D02*
X160310436Y-64410000D01*
%TO.C,R21*%
X142932564Y-72590000D02*
X141478436Y-72590000D01*
X142932564Y-74410000D02*
X141478436Y-74410000D01*
%TO.C,U2*%
X147793000Y-91975000D02*
X147793000Y-95425000D01*
X147793000Y-91975000D02*
X147793000Y-90025000D01*
X138923000Y-91975000D02*
X138923000Y-93925000D01*
X138923000Y-91975000D02*
X138923000Y-90025000D01*
%TO.C,C16*%
X129410000Y-116186252D02*
X129410000Y-114763748D01*
X127590000Y-116186252D02*
X127590000Y-114763748D01*
%TO.C,C15*%
X145578000Y-104186252D02*
X145578000Y-102763748D01*
X143758000Y-104186252D02*
X143758000Y-102763748D01*
%TO.C,R18*%
X144432564Y-80090000D02*
X142978436Y-80090000D01*
X144432564Y-81910000D02*
X142978436Y-81910000D01*
%TO.C,R23*%
X150590000Y-83235436D02*
X150590000Y-84689564D01*
X152410000Y-83235436D02*
X152410000Y-84689564D01*
%TO.C,C25*%
X191236252Y-79090000D02*
X189813748Y-79090000D01*
X191236252Y-80910000D02*
X189813748Y-80910000D01*
%TO.C,R16*%
X122078000Y-67189564D02*
X122078000Y-65735436D01*
X120258000Y-67189564D02*
X120258000Y-65735436D01*
%TO.C,R20*%
X130764564Y-63090000D02*
X129310436Y-63090000D01*
X130764564Y-64910000D02*
X129310436Y-64910000D01*
%TO.C,C23*%
X180910000Y-108186252D02*
X180910000Y-106763748D01*
X179090000Y-108186252D02*
X179090000Y-106763748D01*
%TO.C,C17*%
X137078000Y-110686252D02*
X137078000Y-109263748D01*
X135258000Y-110686252D02*
X135258000Y-109263748D01*
%TO.C,C19*%
X142736252Y-67090000D02*
X141313748Y-67090000D01*
X142736252Y-68910000D02*
X141313748Y-68910000D01*
%TO.C,R22*%
X142764564Y-63090000D02*
X141310436Y-63090000D01*
X142764564Y-64910000D02*
X141310436Y-64910000D01*
%TO.C,C20*%
X158910000Y-84686252D02*
X158910000Y-83263748D01*
X157090000Y-84686252D02*
X157090000Y-83263748D01*
%TO.C,R17*%
X153078000Y-104189564D02*
X153078000Y-102735436D01*
X151258000Y-104189564D02*
X151258000Y-102735436D01*
%TO.C,R11*%
X80952436Y-81612000D02*
X82406564Y-81612000D01*
X80952436Y-83432000D02*
X82406564Y-83432000D01*
%TO.C,R8*%
X73892000Y-98874436D02*
X73892000Y-100328564D01*
X72072000Y-98874436D02*
X72072000Y-100328564D01*
%TO.C,C6*%
X65207748Y-94312000D02*
X66630252Y-94312000D01*
X65207748Y-96132000D02*
X66630252Y-96132000D01*
%TO.C,R10*%
X84010000Y-75182564D02*
X84010000Y-73728436D01*
X85830000Y-75182564D02*
X85830000Y-73728436D01*
%TO.C,R13*%
X97260000Y-86305436D02*
X97260000Y-87759564D01*
X95440000Y-86305436D02*
X95440000Y-87759564D01*
%TO.C,C11*%
X88982252Y-86734000D02*
X87559748Y-86734000D01*
X88982252Y-84914000D02*
X87559748Y-84914000D01*
%TO.C,R15*%
X94598564Y-94354000D02*
X93144436Y-94354000D01*
X94598564Y-92534000D02*
X93144436Y-92534000D01*
%TO.C,C8*%
X76233252Y-91306000D02*
X74810748Y-91306000D01*
X76233252Y-89486000D02*
X74810748Y-89486000D01*
%TO.C,R9*%
X66230000Y-74805564D02*
X66230000Y-73351436D01*
X68050000Y-74805564D02*
X68050000Y-73351436D01*
%TO.C,C12*%
X99038000Y-111222252D02*
X99038000Y-109799748D01*
X97218000Y-111222252D02*
X97218000Y-109799748D01*
%TO.C,C7*%
X67493748Y-107012000D02*
X68916252Y-107012000D01*
X67493748Y-108832000D02*
X68916252Y-108832000D01*
%TO.C,R12*%
X94678000Y-79754564D02*
X94678000Y-78300436D01*
X96498000Y-79754564D02*
X96498000Y-78300436D01*
%TO.C,U1*%
X83969000Y-89517000D02*
X82019000Y-89517000D01*
X83969000Y-89517000D02*
X85919000Y-89517000D01*
X83969000Y-98387000D02*
X80519000Y-98387000D01*
X83969000Y-98387000D02*
X85919000Y-98387000D01*
%TO.C,R14*%
X88328000Y-80516564D02*
X88328000Y-79062436D01*
X90148000Y-80516564D02*
X90148000Y-79062436D01*
%TO.C,C10*%
X92538252Y-111880000D02*
X91115748Y-111880000D01*
X92538252Y-110060000D02*
X91115748Y-110060000D01*
%TO.C,C9*%
X72580000Y-81660252D02*
X72580000Y-80237748D01*
X74400000Y-81660252D02*
X74400000Y-80237748D01*
%TO.C,C13*%
X108032252Y-88512000D02*
X106609748Y-88512000D01*
X108032252Y-86692000D02*
X106609748Y-86692000D01*
%TD*%
M02*
