%TF.GenerationSoftware,KiCad,Pcbnew,7.0.6*%
%TF.CreationDate,2023-07-25T19:50:32+05:30*%
%TF.ProjectId,10 channel equalizer,31302063-6861-46e6-9e65-6c2065717561,rev?*%
%TF.SameCoordinates,Original*%
%TF.FileFunction,Legend,Top*%
%TF.FilePolarity,Positive*%
%FSLAX46Y46*%
G04 Gerber Fmt 4.6, Leading zero omitted, Abs format (unit mm)*
G04 Created by KiCad (PCBNEW 7.0.6) date 2023-07-25 19:50:32*
%MOMM*%
%LPD*%
G01*
G04 APERTURE LIST*
%ADD10C,0.150000*%
%ADD11C,0.120000*%
G04 APERTURE END LIST*
D10*
X157504819Y-92195238D02*
X157028628Y-92528571D01*
X157504819Y-92766666D02*
X156504819Y-92766666D01*
X156504819Y-92766666D02*
X156504819Y-92385714D01*
X156504819Y-92385714D02*
X156552438Y-92290476D01*
X156552438Y-92290476D02*
X156600057Y-92242857D01*
X156600057Y-92242857D02*
X156695295Y-92195238D01*
X156695295Y-92195238D02*
X156838152Y-92195238D01*
X156838152Y-92195238D02*
X156933390Y-92242857D01*
X156933390Y-92242857D02*
X156981009Y-92290476D01*
X156981009Y-92290476D02*
X157028628Y-92385714D01*
X157028628Y-92385714D02*
X157028628Y-92766666D01*
X156504819Y-91909523D02*
X157504819Y-91576190D01*
X157504819Y-91576190D02*
X156504819Y-91242857D01*
X157504819Y-90861904D02*
X157504819Y-90671428D01*
X157504819Y-90671428D02*
X157457200Y-90576190D01*
X157457200Y-90576190D02*
X157409580Y-90528571D01*
X157409580Y-90528571D02*
X157266723Y-90433333D01*
X157266723Y-90433333D02*
X157076247Y-90385714D01*
X157076247Y-90385714D02*
X156695295Y-90385714D01*
X156695295Y-90385714D02*
X156600057Y-90433333D01*
X156600057Y-90433333D02*
X156552438Y-90480952D01*
X156552438Y-90480952D02*
X156504819Y-90576190D01*
X156504819Y-90576190D02*
X156504819Y-90766666D01*
X156504819Y-90766666D02*
X156552438Y-90861904D01*
X156552438Y-90861904D02*
X156600057Y-90909523D01*
X156600057Y-90909523D02*
X156695295Y-90957142D01*
X156695295Y-90957142D02*
X156933390Y-90957142D01*
X156933390Y-90957142D02*
X157028628Y-90909523D01*
X157028628Y-90909523D02*
X157076247Y-90861904D01*
X157076247Y-90861904D02*
X157123866Y-90766666D01*
X157123866Y-90766666D02*
X157123866Y-90576190D01*
X157123866Y-90576190D02*
X157076247Y-90480952D01*
X157076247Y-90480952D02*
X157028628Y-90433333D01*
X157028628Y-90433333D02*
X156933390Y-90385714D01*
X201134819Y-126629166D02*
X200658628Y-126962499D01*
X201134819Y-127200594D02*
X200134819Y-127200594D01*
X200134819Y-127200594D02*
X200134819Y-126819642D01*
X200134819Y-126819642D02*
X200182438Y-126724404D01*
X200182438Y-126724404D02*
X200230057Y-126676785D01*
X200230057Y-126676785D02*
X200325295Y-126629166D01*
X200325295Y-126629166D02*
X200468152Y-126629166D01*
X200468152Y-126629166D02*
X200563390Y-126676785D01*
X200563390Y-126676785D02*
X200611009Y-126724404D01*
X200611009Y-126724404D02*
X200658628Y-126819642D01*
X200658628Y-126819642D02*
X200658628Y-127200594D01*
X200468152Y-125772023D02*
X201134819Y-125772023D01*
X200087200Y-126010118D02*
X200801485Y-126248213D01*
X200801485Y-126248213D02*
X200801485Y-125629166D01*
X86092819Y-92095238D02*
X85616628Y-92428571D01*
X86092819Y-92666666D02*
X85092819Y-92666666D01*
X85092819Y-92666666D02*
X85092819Y-92285714D01*
X85092819Y-92285714D02*
X85140438Y-92190476D01*
X85140438Y-92190476D02*
X85188057Y-92142857D01*
X85188057Y-92142857D02*
X85283295Y-92095238D01*
X85283295Y-92095238D02*
X85426152Y-92095238D01*
X85426152Y-92095238D02*
X85521390Y-92142857D01*
X85521390Y-92142857D02*
X85569009Y-92190476D01*
X85569009Y-92190476D02*
X85616628Y-92285714D01*
X85616628Y-92285714D02*
X85616628Y-92666666D01*
X85092819Y-91809523D02*
X86092819Y-91476190D01*
X86092819Y-91476190D02*
X85092819Y-91142857D01*
X85426152Y-90380952D02*
X86092819Y-90380952D01*
X85045200Y-90619047D02*
X85759485Y-90857142D01*
X85759485Y-90857142D02*
X85759485Y-90238095D01*
X187209580Y-106641666D02*
X187257200Y-106689285D01*
X187257200Y-106689285D02*
X187304819Y-106832142D01*
X187304819Y-106832142D02*
X187304819Y-106927380D01*
X187304819Y-106927380D02*
X187257200Y-107070237D01*
X187257200Y-107070237D02*
X187161961Y-107165475D01*
X187161961Y-107165475D02*
X187066723Y-107213094D01*
X187066723Y-107213094D02*
X186876247Y-107260713D01*
X186876247Y-107260713D02*
X186733390Y-107260713D01*
X186733390Y-107260713D02*
X186542914Y-107213094D01*
X186542914Y-107213094D02*
X186447676Y-107165475D01*
X186447676Y-107165475D02*
X186352438Y-107070237D01*
X186352438Y-107070237D02*
X186304819Y-106927380D01*
X186304819Y-106927380D02*
X186304819Y-106832142D01*
X186304819Y-106832142D02*
X186352438Y-106689285D01*
X186352438Y-106689285D02*
X186400057Y-106641666D01*
X186304819Y-105736904D02*
X186304819Y-106213094D01*
X186304819Y-106213094D02*
X186781009Y-106260713D01*
X186781009Y-106260713D02*
X186733390Y-106213094D01*
X186733390Y-106213094D02*
X186685771Y-106117856D01*
X186685771Y-106117856D02*
X186685771Y-105879761D01*
X186685771Y-105879761D02*
X186733390Y-105784523D01*
X186733390Y-105784523D02*
X186781009Y-105736904D01*
X186781009Y-105736904D02*
X186876247Y-105689285D01*
X186876247Y-105689285D02*
X187114342Y-105689285D01*
X187114342Y-105689285D02*
X187209580Y-105736904D01*
X187209580Y-105736904D02*
X187257200Y-105784523D01*
X187257200Y-105784523D02*
X187304819Y-105879761D01*
X187304819Y-105879761D02*
X187304819Y-106117856D01*
X187304819Y-106117856D02*
X187257200Y-106213094D01*
X187257200Y-106213094D02*
X187209580Y-106260713D01*
X171504819Y-92671428D02*
X171028628Y-93004761D01*
X171504819Y-93242856D02*
X170504819Y-93242856D01*
X170504819Y-93242856D02*
X170504819Y-92861904D01*
X170504819Y-92861904D02*
X170552438Y-92766666D01*
X170552438Y-92766666D02*
X170600057Y-92719047D01*
X170600057Y-92719047D02*
X170695295Y-92671428D01*
X170695295Y-92671428D02*
X170838152Y-92671428D01*
X170838152Y-92671428D02*
X170933390Y-92719047D01*
X170933390Y-92719047D02*
X170981009Y-92766666D01*
X170981009Y-92766666D02*
X171028628Y-92861904D01*
X171028628Y-92861904D02*
X171028628Y-93242856D01*
X170504819Y-92385713D02*
X171504819Y-92052380D01*
X171504819Y-92052380D02*
X170504819Y-91719047D01*
X171504819Y-90861904D02*
X171504819Y-91433332D01*
X171504819Y-91147618D02*
X170504819Y-91147618D01*
X170504819Y-91147618D02*
X170647676Y-91242856D01*
X170647676Y-91242856D02*
X170742914Y-91338094D01*
X170742914Y-91338094D02*
X170790533Y-91433332D01*
X170504819Y-90242856D02*
X170504819Y-90147618D01*
X170504819Y-90147618D02*
X170552438Y-90052380D01*
X170552438Y-90052380D02*
X170600057Y-90004761D01*
X170600057Y-90004761D02*
X170695295Y-89957142D01*
X170695295Y-89957142D02*
X170885771Y-89909523D01*
X170885771Y-89909523D02*
X171123866Y-89909523D01*
X171123866Y-89909523D02*
X171314342Y-89957142D01*
X171314342Y-89957142D02*
X171409580Y-90004761D01*
X171409580Y-90004761D02*
X171457200Y-90052380D01*
X171457200Y-90052380D02*
X171504819Y-90147618D01*
X171504819Y-90147618D02*
X171504819Y-90242856D01*
X171504819Y-90242856D02*
X171457200Y-90338094D01*
X171457200Y-90338094D02*
X171409580Y-90385713D01*
X171409580Y-90385713D02*
X171314342Y-90433332D01*
X171314342Y-90433332D02*
X171123866Y-90480951D01*
X171123866Y-90480951D02*
X170885771Y-90480951D01*
X170885771Y-90480951D02*
X170695295Y-90433332D01*
X170695295Y-90433332D02*
X170600057Y-90385713D01*
X170600057Y-90385713D02*
X170552438Y-90338094D01*
X170552438Y-90338094D02*
X170504819Y-90242856D01*
X186954819Y-79629166D02*
X186478628Y-79962499D01*
X186954819Y-80200594D02*
X185954819Y-80200594D01*
X185954819Y-80200594D02*
X185954819Y-79819642D01*
X185954819Y-79819642D02*
X186002438Y-79724404D01*
X186002438Y-79724404D02*
X186050057Y-79676785D01*
X186050057Y-79676785D02*
X186145295Y-79629166D01*
X186145295Y-79629166D02*
X186288152Y-79629166D01*
X186288152Y-79629166D02*
X186383390Y-79676785D01*
X186383390Y-79676785D02*
X186431009Y-79724404D01*
X186431009Y-79724404D02*
X186478628Y-79819642D01*
X186478628Y-79819642D02*
X186478628Y-80200594D01*
X185954819Y-78724404D02*
X185954819Y-79200594D01*
X185954819Y-79200594D02*
X186431009Y-79248213D01*
X186431009Y-79248213D02*
X186383390Y-79200594D01*
X186383390Y-79200594D02*
X186335771Y-79105356D01*
X186335771Y-79105356D02*
X186335771Y-78867261D01*
X186335771Y-78867261D02*
X186383390Y-78772023D01*
X186383390Y-78772023D02*
X186431009Y-78724404D01*
X186431009Y-78724404D02*
X186526247Y-78676785D01*
X186526247Y-78676785D02*
X186764342Y-78676785D01*
X186764342Y-78676785D02*
X186859580Y-78724404D01*
X186859580Y-78724404D02*
X186907200Y-78772023D01*
X186907200Y-78772023D02*
X186954819Y-78867261D01*
X186954819Y-78867261D02*
X186954819Y-79105356D01*
X186954819Y-79105356D02*
X186907200Y-79200594D01*
X186907200Y-79200594D02*
X186859580Y-79248213D01*
X219608333Y-123459580D02*
X219560714Y-123507200D01*
X219560714Y-123507200D02*
X219417857Y-123554819D01*
X219417857Y-123554819D02*
X219322619Y-123554819D01*
X219322619Y-123554819D02*
X219179762Y-123507200D01*
X219179762Y-123507200D02*
X219084524Y-123411961D01*
X219084524Y-123411961D02*
X219036905Y-123316723D01*
X219036905Y-123316723D02*
X218989286Y-123126247D01*
X218989286Y-123126247D02*
X218989286Y-122983390D01*
X218989286Y-122983390D02*
X219036905Y-122792914D01*
X219036905Y-122792914D02*
X219084524Y-122697676D01*
X219084524Y-122697676D02*
X219179762Y-122602438D01*
X219179762Y-122602438D02*
X219322619Y-122554819D01*
X219322619Y-122554819D02*
X219417857Y-122554819D01*
X219417857Y-122554819D02*
X219560714Y-122602438D01*
X219560714Y-122602438D02*
X219608333Y-122650057D01*
X220465476Y-122888152D02*
X220465476Y-123554819D01*
X220227381Y-122507200D02*
X219989286Y-123221485D01*
X219989286Y-123221485D02*
X220608333Y-123221485D01*
X45738095Y-141454819D02*
X45738095Y-140454819D01*
X45738095Y-140931009D02*
X46309523Y-140931009D01*
X46309523Y-141454819D02*
X46309523Y-140454819D01*
X47214285Y-140454819D02*
X47023809Y-140454819D01*
X47023809Y-140454819D02*
X46928571Y-140502438D01*
X46928571Y-140502438D02*
X46880952Y-140550057D01*
X46880952Y-140550057D02*
X46785714Y-140692914D01*
X46785714Y-140692914D02*
X46738095Y-140883390D01*
X46738095Y-140883390D02*
X46738095Y-141264342D01*
X46738095Y-141264342D02*
X46785714Y-141359580D01*
X46785714Y-141359580D02*
X46833333Y-141407200D01*
X46833333Y-141407200D02*
X46928571Y-141454819D01*
X46928571Y-141454819D02*
X47119047Y-141454819D01*
X47119047Y-141454819D02*
X47214285Y-141407200D01*
X47214285Y-141407200D02*
X47261904Y-141359580D01*
X47261904Y-141359580D02*
X47309523Y-141264342D01*
X47309523Y-141264342D02*
X47309523Y-141026247D01*
X47309523Y-141026247D02*
X47261904Y-140931009D01*
X47261904Y-140931009D02*
X47214285Y-140883390D01*
X47214285Y-140883390D02*
X47119047Y-140835771D01*
X47119047Y-140835771D02*
X46928571Y-140835771D01*
X46928571Y-140835771D02*
X46833333Y-140883390D01*
X46833333Y-140883390D02*
X46785714Y-140931009D01*
X46785714Y-140931009D02*
X46738095Y-141026247D01*
X204454819Y-74904166D02*
X203978628Y-75237499D01*
X204454819Y-75475594D02*
X203454819Y-75475594D01*
X203454819Y-75475594D02*
X203454819Y-75094642D01*
X203454819Y-75094642D02*
X203502438Y-74999404D01*
X203502438Y-74999404D02*
X203550057Y-74951785D01*
X203550057Y-74951785D02*
X203645295Y-74904166D01*
X203645295Y-74904166D02*
X203788152Y-74904166D01*
X203788152Y-74904166D02*
X203883390Y-74951785D01*
X203883390Y-74951785D02*
X203931009Y-74999404D01*
X203931009Y-74999404D02*
X203978628Y-75094642D01*
X203978628Y-75094642D02*
X203978628Y-75475594D01*
X204454819Y-73951785D02*
X204454819Y-74523213D01*
X204454819Y-74237499D02*
X203454819Y-74237499D01*
X203454819Y-74237499D02*
X203597676Y-74332737D01*
X203597676Y-74332737D02*
X203692914Y-74427975D01*
X203692914Y-74427975D02*
X203740533Y-74523213D01*
X148738095Y-34954819D02*
X148738095Y-33954819D01*
X148738095Y-34431009D02*
X149309523Y-34431009D01*
X149309523Y-34954819D02*
X149309523Y-33954819D01*
X149690476Y-33954819D02*
X150309523Y-33954819D01*
X150309523Y-33954819D02*
X149976190Y-34335771D01*
X149976190Y-34335771D02*
X150119047Y-34335771D01*
X150119047Y-34335771D02*
X150214285Y-34383390D01*
X150214285Y-34383390D02*
X150261904Y-34431009D01*
X150261904Y-34431009D02*
X150309523Y-34526247D01*
X150309523Y-34526247D02*
X150309523Y-34764342D01*
X150309523Y-34764342D02*
X150261904Y-34859580D01*
X150261904Y-34859580D02*
X150214285Y-34907200D01*
X150214285Y-34907200D02*
X150119047Y-34954819D01*
X150119047Y-34954819D02*
X149833333Y-34954819D01*
X149833333Y-34954819D02*
X149738095Y-34907200D01*
X149738095Y-34907200D02*
X149690476Y-34859580D01*
X129004819Y-92181238D02*
X128528628Y-92514571D01*
X129004819Y-92752666D02*
X128004819Y-92752666D01*
X128004819Y-92752666D02*
X128004819Y-92371714D01*
X128004819Y-92371714D02*
X128052438Y-92276476D01*
X128052438Y-92276476D02*
X128100057Y-92228857D01*
X128100057Y-92228857D02*
X128195295Y-92181238D01*
X128195295Y-92181238D02*
X128338152Y-92181238D01*
X128338152Y-92181238D02*
X128433390Y-92228857D01*
X128433390Y-92228857D02*
X128481009Y-92276476D01*
X128481009Y-92276476D02*
X128528628Y-92371714D01*
X128528628Y-92371714D02*
X128528628Y-92752666D01*
X128004819Y-91895523D02*
X129004819Y-91562190D01*
X129004819Y-91562190D02*
X128004819Y-91228857D01*
X128004819Y-90990761D02*
X128004819Y-90324095D01*
X128004819Y-90324095D02*
X129004819Y-90752666D01*
X216704819Y-92095238D02*
X216228628Y-92428571D01*
X216704819Y-92666666D02*
X215704819Y-92666666D01*
X215704819Y-92666666D02*
X215704819Y-92285714D01*
X215704819Y-92285714D02*
X215752438Y-92190476D01*
X215752438Y-92190476D02*
X215800057Y-92142857D01*
X215800057Y-92142857D02*
X215895295Y-92095238D01*
X215895295Y-92095238D02*
X216038152Y-92095238D01*
X216038152Y-92095238D02*
X216133390Y-92142857D01*
X216133390Y-92142857D02*
X216181009Y-92190476D01*
X216181009Y-92190476D02*
X216228628Y-92285714D01*
X216228628Y-92285714D02*
X216228628Y-92666666D01*
X215704819Y-91809523D02*
X216704819Y-91476190D01*
X216704819Y-91476190D02*
X215704819Y-91142857D01*
X216704819Y-90285714D02*
X216704819Y-90857142D01*
X216704819Y-90571428D02*
X215704819Y-90571428D01*
X215704819Y-90571428D02*
X215847676Y-90666666D01*
X215847676Y-90666666D02*
X215942914Y-90761904D01*
X215942914Y-90761904D02*
X215990533Y-90857142D01*
X143738095Y-141954819D02*
X143738095Y-140954819D01*
X143738095Y-141431009D02*
X144309523Y-141431009D01*
X144309523Y-141954819D02*
X144309523Y-140954819D01*
X145261904Y-140954819D02*
X144785714Y-140954819D01*
X144785714Y-140954819D02*
X144738095Y-141431009D01*
X144738095Y-141431009D02*
X144785714Y-141383390D01*
X144785714Y-141383390D02*
X144880952Y-141335771D01*
X144880952Y-141335771D02*
X145119047Y-141335771D01*
X145119047Y-141335771D02*
X145214285Y-141383390D01*
X145214285Y-141383390D02*
X145261904Y-141431009D01*
X145261904Y-141431009D02*
X145309523Y-141526247D01*
X145309523Y-141526247D02*
X145309523Y-141764342D01*
X145309523Y-141764342D02*
X145261904Y-141859580D01*
X145261904Y-141859580D02*
X145214285Y-141907200D01*
X145214285Y-141907200D02*
X145119047Y-141954819D01*
X145119047Y-141954819D02*
X144880952Y-141954819D01*
X144880952Y-141954819D02*
X144785714Y-141907200D01*
X144785714Y-141907200D02*
X144738095Y-141859580D01*
X115004819Y-92095238D02*
X114528628Y-92428571D01*
X115004819Y-92666666D02*
X114004819Y-92666666D01*
X114004819Y-92666666D02*
X114004819Y-92285714D01*
X114004819Y-92285714D02*
X114052438Y-92190476D01*
X114052438Y-92190476D02*
X114100057Y-92142857D01*
X114100057Y-92142857D02*
X114195295Y-92095238D01*
X114195295Y-92095238D02*
X114338152Y-92095238D01*
X114338152Y-92095238D02*
X114433390Y-92142857D01*
X114433390Y-92142857D02*
X114481009Y-92190476D01*
X114481009Y-92190476D02*
X114528628Y-92285714D01*
X114528628Y-92285714D02*
X114528628Y-92666666D01*
X114004819Y-91809523D02*
X115004819Y-91476190D01*
X115004819Y-91476190D02*
X114004819Y-91142857D01*
X114004819Y-90380952D02*
X114004819Y-90571428D01*
X114004819Y-90571428D02*
X114052438Y-90666666D01*
X114052438Y-90666666D02*
X114100057Y-90714285D01*
X114100057Y-90714285D02*
X114242914Y-90809523D01*
X114242914Y-90809523D02*
X114433390Y-90857142D01*
X114433390Y-90857142D02*
X114814342Y-90857142D01*
X114814342Y-90857142D02*
X114909580Y-90809523D01*
X114909580Y-90809523D02*
X114957200Y-90761904D01*
X114957200Y-90761904D02*
X115004819Y-90666666D01*
X115004819Y-90666666D02*
X115004819Y-90476190D01*
X115004819Y-90476190D02*
X114957200Y-90380952D01*
X114957200Y-90380952D02*
X114909580Y-90333333D01*
X114909580Y-90333333D02*
X114814342Y-90285714D01*
X114814342Y-90285714D02*
X114576247Y-90285714D01*
X114576247Y-90285714D02*
X114481009Y-90333333D01*
X114481009Y-90333333D02*
X114433390Y-90380952D01*
X114433390Y-90380952D02*
X114385771Y-90476190D01*
X114385771Y-90476190D02*
X114385771Y-90666666D01*
X114385771Y-90666666D02*
X114433390Y-90761904D01*
X114433390Y-90761904D02*
X114481009Y-90809523D01*
X114481009Y-90809523D02*
X114576247Y-90857142D01*
X188004819Y-92671428D02*
X187528628Y-93004761D01*
X188004819Y-93242856D02*
X187004819Y-93242856D01*
X187004819Y-93242856D02*
X187004819Y-92861904D01*
X187004819Y-92861904D02*
X187052438Y-92766666D01*
X187052438Y-92766666D02*
X187100057Y-92719047D01*
X187100057Y-92719047D02*
X187195295Y-92671428D01*
X187195295Y-92671428D02*
X187338152Y-92671428D01*
X187338152Y-92671428D02*
X187433390Y-92719047D01*
X187433390Y-92719047D02*
X187481009Y-92766666D01*
X187481009Y-92766666D02*
X187528628Y-92861904D01*
X187528628Y-92861904D02*
X187528628Y-93242856D01*
X187004819Y-92385713D02*
X188004819Y-92052380D01*
X188004819Y-92052380D02*
X187004819Y-91719047D01*
X188004819Y-90861904D02*
X188004819Y-91433332D01*
X188004819Y-91147618D02*
X187004819Y-91147618D01*
X187004819Y-91147618D02*
X187147676Y-91242856D01*
X187147676Y-91242856D02*
X187242914Y-91338094D01*
X187242914Y-91338094D02*
X187290533Y-91433332D01*
X188004819Y-89909523D02*
X188004819Y-90480951D01*
X188004819Y-90195237D02*
X187004819Y-90195237D01*
X187004819Y-90195237D02*
X187147676Y-90290475D01*
X187147676Y-90290475D02*
X187242914Y-90385713D01*
X187242914Y-90385713D02*
X187290533Y-90480951D01*
X204359580Y-67166666D02*
X204407200Y-67214285D01*
X204407200Y-67214285D02*
X204454819Y-67357142D01*
X204454819Y-67357142D02*
X204454819Y-67452380D01*
X204454819Y-67452380D02*
X204407200Y-67595237D01*
X204407200Y-67595237D02*
X204311961Y-67690475D01*
X204311961Y-67690475D02*
X204216723Y-67738094D01*
X204216723Y-67738094D02*
X204026247Y-67785713D01*
X204026247Y-67785713D02*
X203883390Y-67785713D01*
X203883390Y-67785713D02*
X203692914Y-67738094D01*
X203692914Y-67738094D02*
X203597676Y-67690475D01*
X203597676Y-67690475D02*
X203502438Y-67595237D01*
X203502438Y-67595237D02*
X203454819Y-67452380D01*
X203454819Y-67452380D02*
X203454819Y-67357142D01*
X203454819Y-67357142D02*
X203502438Y-67214285D01*
X203502438Y-67214285D02*
X203550057Y-67166666D01*
X204454819Y-66214285D02*
X204454819Y-66785713D01*
X204454819Y-66499999D02*
X203454819Y-66499999D01*
X203454819Y-66499999D02*
X203597676Y-66595237D01*
X203597676Y-66595237D02*
X203692914Y-66690475D01*
X203692914Y-66690475D02*
X203740533Y-66785713D01*
X50738095Y-34954819D02*
X50738095Y-33954819D01*
X50738095Y-34431009D02*
X51309523Y-34431009D01*
X51309523Y-34954819D02*
X51309523Y-33954819D01*
X52309523Y-34954819D02*
X51738095Y-34954819D01*
X52023809Y-34954819D02*
X52023809Y-33954819D01*
X52023809Y-33954819D02*
X51928571Y-34097676D01*
X51928571Y-34097676D02*
X51833333Y-34192914D01*
X51833333Y-34192914D02*
X51738095Y-34240533D01*
X234738095Y-34954819D02*
X234738095Y-33954819D01*
X234738095Y-34431009D02*
X235309523Y-34431009D01*
X235309523Y-34954819D02*
X235309523Y-33954819D01*
X235738095Y-34050057D02*
X235785714Y-34002438D01*
X235785714Y-34002438D02*
X235880952Y-33954819D01*
X235880952Y-33954819D02*
X236119047Y-33954819D01*
X236119047Y-33954819D02*
X236214285Y-34002438D01*
X236214285Y-34002438D02*
X236261904Y-34050057D01*
X236261904Y-34050057D02*
X236309523Y-34145295D01*
X236309523Y-34145295D02*
X236309523Y-34240533D01*
X236309523Y-34240533D02*
X236261904Y-34383390D01*
X236261904Y-34383390D02*
X235690476Y-34954819D01*
X235690476Y-34954819D02*
X236309523Y-34954819D01*
X100316819Y-92095238D02*
X99840628Y-92428571D01*
X100316819Y-92666666D02*
X99316819Y-92666666D01*
X99316819Y-92666666D02*
X99316819Y-92285714D01*
X99316819Y-92285714D02*
X99364438Y-92190476D01*
X99364438Y-92190476D02*
X99412057Y-92142857D01*
X99412057Y-92142857D02*
X99507295Y-92095238D01*
X99507295Y-92095238D02*
X99650152Y-92095238D01*
X99650152Y-92095238D02*
X99745390Y-92142857D01*
X99745390Y-92142857D02*
X99793009Y-92190476D01*
X99793009Y-92190476D02*
X99840628Y-92285714D01*
X99840628Y-92285714D02*
X99840628Y-92666666D01*
X99316819Y-91809523D02*
X100316819Y-91476190D01*
X100316819Y-91476190D02*
X99316819Y-91142857D01*
X99316819Y-90333333D02*
X99316819Y-90809523D01*
X99316819Y-90809523D02*
X99793009Y-90857142D01*
X99793009Y-90857142D02*
X99745390Y-90809523D01*
X99745390Y-90809523D02*
X99697771Y-90714285D01*
X99697771Y-90714285D02*
X99697771Y-90476190D01*
X99697771Y-90476190D02*
X99745390Y-90380952D01*
X99745390Y-90380952D02*
X99793009Y-90333333D01*
X99793009Y-90333333D02*
X99888247Y-90285714D01*
X99888247Y-90285714D02*
X100126342Y-90285714D01*
X100126342Y-90285714D02*
X100221580Y-90333333D01*
X100221580Y-90333333D02*
X100269200Y-90380952D01*
X100269200Y-90380952D02*
X100316819Y-90476190D01*
X100316819Y-90476190D02*
X100316819Y-90714285D01*
X100316819Y-90714285D02*
X100269200Y-90809523D01*
X100269200Y-90809523D02*
X100221580Y-90857142D01*
X239238095Y-141954819D02*
X239238095Y-140954819D01*
X239238095Y-141431009D02*
X239809523Y-141431009D01*
X239809523Y-141954819D02*
X239809523Y-140954819D01*
X240714285Y-141288152D02*
X240714285Y-141954819D01*
X240476190Y-140907200D02*
X240238095Y-141621485D01*
X240238095Y-141621485D02*
X240857142Y-141621485D01*
X224120833Y-87884819D02*
X223787500Y-87408628D01*
X223549405Y-87884819D02*
X223549405Y-86884819D01*
X223549405Y-86884819D02*
X223930357Y-86884819D01*
X223930357Y-86884819D02*
X224025595Y-86932438D01*
X224025595Y-86932438D02*
X224073214Y-86980057D01*
X224073214Y-86980057D02*
X224120833Y-87075295D01*
X224120833Y-87075295D02*
X224120833Y-87218152D01*
X224120833Y-87218152D02*
X224073214Y-87313390D01*
X224073214Y-87313390D02*
X224025595Y-87361009D01*
X224025595Y-87361009D02*
X223930357Y-87408628D01*
X223930357Y-87408628D02*
X223549405Y-87408628D01*
X224977976Y-86884819D02*
X224787500Y-86884819D01*
X224787500Y-86884819D02*
X224692262Y-86932438D01*
X224692262Y-86932438D02*
X224644643Y-86980057D01*
X224644643Y-86980057D02*
X224549405Y-87122914D01*
X224549405Y-87122914D02*
X224501786Y-87313390D01*
X224501786Y-87313390D02*
X224501786Y-87694342D01*
X224501786Y-87694342D02*
X224549405Y-87789580D01*
X224549405Y-87789580D02*
X224597024Y-87837200D01*
X224597024Y-87837200D02*
X224692262Y-87884819D01*
X224692262Y-87884819D02*
X224882738Y-87884819D01*
X224882738Y-87884819D02*
X224977976Y-87837200D01*
X224977976Y-87837200D02*
X225025595Y-87789580D01*
X225025595Y-87789580D02*
X225073214Y-87694342D01*
X225073214Y-87694342D02*
X225073214Y-87456247D01*
X225073214Y-87456247D02*
X225025595Y-87361009D01*
X225025595Y-87361009D02*
X224977976Y-87313390D01*
X224977976Y-87313390D02*
X224882738Y-87265771D01*
X224882738Y-87265771D02*
X224692262Y-87265771D01*
X224692262Y-87265771D02*
X224597024Y-87313390D01*
X224597024Y-87313390D02*
X224549405Y-87361009D01*
X224549405Y-87361009D02*
X224501786Y-87456247D01*
X143004819Y-92195238D02*
X142528628Y-92528571D01*
X143004819Y-92766666D02*
X142004819Y-92766666D01*
X142004819Y-92766666D02*
X142004819Y-92385714D01*
X142004819Y-92385714D02*
X142052438Y-92290476D01*
X142052438Y-92290476D02*
X142100057Y-92242857D01*
X142100057Y-92242857D02*
X142195295Y-92195238D01*
X142195295Y-92195238D02*
X142338152Y-92195238D01*
X142338152Y-92195238D02*
X142433390Y-92242857D01*
X142433390Y-92242857D02*
X142481009Y-92290476D01*
X142481009Y-92290476D02*
X142528628Y-92385714D01*
X142528628Y-92385714D02*
X142528628Y-92766666D01*
X142004819Y-91909523D02*
X143004819Y-91576190D01*
X143004819Y-91576190D02*
X142004819Y-91242857D01*
X142433390Y-90766666D02*
X142385771Y-90861904D01*
X142385771Y-90861904D02*
X142338152Y-90909523D01*
X142338152Y-90909523D02*
X142242914Y-90957142D01*
X142242914Y-90957142D02*
X142195295Y-90957142D01*
X142195295Y-90957142D02*
X142100057Y-90909523D01*
X142100057Y-90909523D02*
X142052438Y-90861904D01*
X142052438Y-90861904D02*
X142004819Y-90766666D01*
X142004819Y-90766666D02*
X142004819Y-90576190D01*
X142004819Y-90576190D02*
X142052438Y-90480952D01*
X142052438Y-90480952D02*
X142100057Y-90433333D01*
X142100057Y-90433333D02*
X142195295Y-90385714D01*
X142195295Y-90385714D02*
X142242914Y-90385714D01*
X142242914Y-90385714D02*
X142338152Y-90433333D01*
X142338152Y-90433333D02*
X142385771Y-90480952D01*
X142385771Y-90480952D02*
X142433390Y-90576190D01*
X142433390Y-90576190D02*
X142433390Y-90766666D01*
X142433390Y-90766666D02*
X142481009Y-90861904D01*
X142481009Y-90861904D02*
X142528628Y-90909523D01*
X142528628Y-90909523D02*
X142623866Y-90957142D01*
X142623866Y-90957142D02*
X142814342Y-90957142D01*
X142814342Y-90957142D02*
X142909580Y-90909523D01*
X142909580Y-90909523D02*
X142957200Y-90861904D01*
X142957200Y-90861904D02*
X143004819Y-90766666D01*
X143004819Y-90766666D02*
X143004819Y-90576190D01*
X143004819Y-90576190D02*
X142957200Y-90480952D01*
X142957200Y-90480952D02*
X142909580Y-90433333D01*
X142909580Y-90433333D02*
X142814342Y-90385714D01*
X142814342Y-90385714D02*
X142623866Y-90385714D01*
X142623866Y-90385714D02*
X142528628Y-90433333D01*
X142528628Y-90433333D02*
X142481009Y-90480952D01*
X142481009Y-90480952D02*
X142433390Y-90576190D01*
X221716666Y-97404819D02*
X221716666Y-98119104D01*
X221716666Y-98119104D02*
X221669047Y-98261961D01*
X221669047Y-98261961D02*
X221573809Y-98357200D01*
X221573809Y-98357200D02*
X221430952Y-98404819D01*
X221430952Y-98404819D02*
X221335714Y-98404819D01*
X222145238Y-97500057D02*
X222192857Y-97452438D01*
X222192857Y-97452438D02*
X222288095Y-97404819D01*
X222288095Y-97404819D02*
X222526190Y-97404819D01*
X222526190Y-97404819D02*
X222621428Y-97452438D01*
X222621428Y-97452438D02*
X222669047Y-97500057D01*
X222669047Y-97500057D02*
X222716666Y-97595295D01*
X222716666Y-97595295D02*
X222716666Y-97690533D01*
X222716666Y-97690533D02*
X222669047Y-97833390D01*
X222669047Y-97833390D02*
X222097619Y-98404819D01*
X222097619Y-98404819D02*
X222716666Y-98404819D01*
X72884819Y-91841238D02*
X72408628Y-92174571D01*
X72884819Y-92412666D02*
X71884819Y-92412666D01*
X71884819Y-92412666D02*
X71884819Y-92031714D01*
X71884819Y-92031714D02*
X71932438Y-91936476D01*
X71932438Y-91936476D02*
X71980057Y-91888857D01*
X71980057Y-91888857D02*
X72075295Y-91841238D01*
X72075295Y-91841238D02*
X72218152Y-91841238D01*
X72218152Y-91841238D02*
X72313390Y-91888857D01*
X72313390Y-91888857D02*
X72361009Y-91936476D01*
X72361009Y-91936476D02*
X72408628Y-92031714D01*
X72408628Y-92031714D02*
X72408628Y-92412666D01*
X71884819Y-91555523D02*
X72884819Y-91222190D01*
X72884819Y-91222190D02*
X71884819Y-90888857D01*
X71884819Y-90650761D02*
X71884819Y-90031714D01*
X71884819Y-90031714D02*
X72265771Y-90365047D01*
X72265771Y-90365047D02*
X72265771Y-90222190D01*
X72265771Y-90222190D02*
X72313390Y-90126952D01*
X72313390Y-90126952D02*
X72361009Y-90079333D01*
X72361009Y-90079333D02*
X72456247Y-90031714D01*
X72456247Y-90031714D02*
X72694342Y-90031714D01*
X72694342Y-90031714D02*
X72789580Y-90079333D01*
X72789580Y-90079333D02*
X72837200Y-90126952D01*
X72837200Y-90126952D02*
X72884819Y-90222190D01*
X72884819Y-90222190D02*
X72884819Y-90507904D01*
X72884819Y-90507904D02*
X72837200Y-90603142D01*
X72837200Y-90603142D02*
X72789580Y-90650761D01*
X200509580Y-89141666D02*
X200557200Y-89189285D01*
X200557200Y-89189285D02*
X200604819Y-89332142D01*
X200604819Y-89332142D02*
X200604819Y-89427380D01*
X200604819Y-89427380D02*
X200557200Y-89570237D01*
X200557200Y-89570237D02*
X200461961Y-89665475D01*
X200461961Y-89665475D02*
X200366723Y-89713094D01*
X200366723Y-89713094D02*
X200176247Y-89760713D01*
X200176247Y-89760713D02*
X200033390Y-89760713D01*
X200033390Y-89760713D02*
X199842914Y-89713094D01*
X199842914Y-89713094D02*
X199747676Y-89665475D01*
X199747676Y-89665475D02*
X199652438Y-89570237D01*
X199652438Y-89570237D02*
X199604819Y-89427380D01*
X199604819Y-89427380D02*
X199604819Y-89332142D01*
X199604819Y-89332142D02*
X199652438Y-89189285D01*
X199652438Y-89189285D02*
X199700057Y-89141666D01*
X199700057Y-88760713D02*
X199652438Y-88713094D01*
X199652438Y-88713094D02*
X199604819Y-88617856D01*
X199604819Y-88617856D02*
X199604819Y-88379761D01*
X199604819Y-88379761D02*
X199652438Y-88284523D01*
X199652438Y-88284523D02*
X199700057Y-88236904D01*
X199700057Y-88236904D02*
X199795295Y-88189285D01*
X199795295Y-88189285D02*
X199890533Y-88189285D01*
X199890533Y-88189285D02*
X200033390Y-88236904D01*
X200033390Y-88236904D02*
X200604819Y-88808332D01*
X200604819Y-88808332D02*
X200604819Y-88189285D01*
X59676819Y-91841238D02*
X59200628Y-92174571D01*
X59676819Y-92412666D02*
X58676819Y-92412666D01*
X58676819Y-92412666D02*
X58676819Y-92031714D01*
X58676819Y-92031714D02*
X58724438Y-91936476D01*
X58724438Y-91936476D02*
X58772057Y-91888857D01*
X58772057Y-91888857D02*
X58867295Y-91841238D01*
X58867295Y-91841238D02*
X59010152Y-91841238D01*
X59010152Y-91841238D02*
X59105390Y-91888857D01*
X59105390Y-91888857D02*
X59153009Y-91936476D01*
X59153009Y-91936476D02*
X59200628Y-92031714D01*
X59200628Y-92031714D02*
X59200628Y-92412666D01*
X58676819Y-91555523D02*
X59676819Y-91222190D01*
X59676819Y-91222190D02*
X58676819Y-90888857D01*
X58772057Y-90603142D02*
X58724438Y-90555523D01*
X58724438Y-90555523D02*
X58676819Y-90460285D01*
X58676819Y-90460285D02*
X58676819Y-90222190D01*
X58676819Y-90222190D02*
X58724438Y-90126952D01*
X58724438Y-90126952D02*
X58772057Y-90079333D01*
X58772057Y-90079333D02*
X58867295Y-90031714D01*
X58867295Y-90031714D02*
X58962533Y-90031714D01*
X58962533Y-90031714D02*
X59105390Y-90079333D01*
X59105390Y-90079333D02*
X59676819Y-90650761D01*
X59676819Y-90650761D02*
X59676819Y-90031714D01*
X204954819Y-82666666D02*
X204478628Y-82999999D01*
X204954819Y-83238094D02*
X203954819Y-83238094D01*
X203954819Y-83238094D02*
X203954819Y-82857142D01*
X203954819Y-82857142D02*
X204002438Y-82761904D01*
X204002438Y-82761904D02*
X204050057Y-82714285D01*
X204050057Y-82714285D02*
X204145295Y-82666666D01*
X204145295Y-82666666D02*
X204288152Y-82666666D01*
X204288152Y-82666666D02*
X204383390Y-82714285D01*
X204383390Y-82714285D02*
X204431009Y-82761904D01*
X204431009Y-82761904D02*
X204478628Y-82857142D01*
X204478628Y-82857142D02*
X204478628Y-83238094D01*
X203954819Y-82333332D02*
X203954819Y-81714285D01*
X203954819Y-81714285D02*
X204335771Y-82047618D01*
X204335771Y-82047618D02*
X204335771Y-81904761D01*
X204335771Y-81904761D02*
X204383390Y-81809523D01*
X204383390Y-81809523D02*
X204431009Y-81761904D01*
X204431009Y-81761904D02*
X204526247Y-81714285D01*
X204526247Y-81714285D02*
X204764342Y-81714285D01*
X204764342Y-81714285D02*
X204859580Y-81761904D01*
X204859580Y-81761904D02*
X204907200Y-81809523D01*
X204907200Y-81809523D02*
X204954819Y-81904761D01*
X204954819Y-81904761D02*
X204954819Y-82190475D01*
X204954819Y-82190475D02*
X204907200Y-82285713D01*
X204907200Y-82285713D02*
X204859580Y-82333332D01*
X186274819Y-69129166D02*
X185798628Y-69462499D01*
X186274819Y-69700594D02*
X185274819Y-69700594D01*
X185274819Y-69700594D02*
X185274819Y-69319642D01*
X185274819Y-69319642D02*
X185322438Y-69224404D01*
X185322438Y-69224404D02*
X185370057Y-69176785D01*
X185370057Y-69176785D02*
X185465295Y-69129166D01*
X185465295Y-69129166D02*
X185608152Y-69129166D01*
X185608152Y-69129166D02*
X185703390Y-69176785D01*
X185703390Y-69176785D02*
X185751009Y-69224404D01*
X185751009Y-69224404D02*
X185798628Y-69319642D01*
X185798628Y-69319642D02*
X185798628Y-69700594D01*
X185370057Y-68748213D02*
X185322438Y-68700594D01*
X185322438Y-68700594D02*
X185274819Y-68605356D01*
X185274819Y-68605356D02*
X185274819Y-68367261D01*
X185274819Y-68367261D02*
X185322438Y-68272023D01*
X185322438Y-68272023D02*
X185370057Y-68224404D01*
X185370057Y-68224404D02*
X185465295Y-68176785D01*
X185465295Y-68176785D02*
X185560533Y-68176785D01*
X185560533Y-68176785D02*
X185703390Y-68224404D01*
X185703390Y-68224404D02*
X186274819Y-68795832D01*
X186274819Y-68795832D02*
X186274819Y-68176785D01*
X221716666Y-81904819D02*
X221716666Y-82619104D01*
X221716666Y-82619104D02*
X221669047Y-82761961D01*
X221669047Y-82761961D02*
X221573809Y-82857200D01*
X221573809Y-82857200D02*
X221430952Y-82904819D01*
X221430952Y-82904819D02*
X221335714Y-82904819D01*
X222716666Y-82904819D02*
X222145238Y-82904819D01*
X222430952Y-82904819D02*
X222430952Y-81904819D01*
X222430952Y-81904819D02*
X222335714Y-82047676D01*
X222335714Y-82047676D02*
X222240476Y-82142914D01*
X222240476Y-82142914D02*
X222145238Y-82190533D01*
X201134819Y-110629166D02*
X200658628Y-110962499D01*
X201134819Y-111200594D02*
X200134819Y-111200594D01*
X200134819Y-111200594D02*
X200134819Y-110819642D01*
X200134819Y-110819642D02*
X200182438Y-110724404D01*
X200182438Y-110724404D02*
X200230057Y-110676785D01*
X200230057Y-110676785D02*
X200325295Y-110629166D01*
X200325295Y-110629166D02*
X200468152Y-110629166D01*
X200468152Y-110629166D02*
X200563390Y-110676785D01*
X200563390Y-110676785D02*
X200611009Y-110724404D01*
X200611009Y-110724404D02*
X200658628Y-110819642D01*
X200658628Y-110819642D02*
X200658628Y-111200594D01*
X200134819Y-110295832D02*
X200134819Y-109629166D01*
X200134819Y-109629166D02*
X201134819Y-110057737D01*
X218108333Y-84759580D02*
X218060714Y-84807200D01*
X218060714Y-84807200D02*
X217917857Y-84854819D01*
X217917857Y-84854819D02*
X217822619Y-84854819D01*
X217822619Y-84854819D02*
X217679762Y-84807200D01*
X217679762Y-84807200D02*
X217584524Y-84711961D01*
X217584524Y-84711961D02*
X217536905Y-84616723D01*
X217536905Y-84616723D02*
X217489286Y-84426247D01*
X217489286Y-84426247D02*
X217489286Y-84283390D01*
X217489286Y-84283390D02*
X217536905Y-84092914D01*
X217536905Y-84092914D02*
X217584524Y-83997676D01*
X217584524Y-83997676D02*
X217679762Y-83902438D01*
X217679762Y-83902438D02*
X217822619Y-83854819D01*
X217822619Y-83854819D02*
X217917857Y-83854819D01*
X217917857Y-83854819D02*
X218060714Y-83902438D01*
X218060714Y-83902438D02*
X218108333Y-83950057D01*
X218441667Y-83854819D02*
X219060714Y-83854819D01*
X219060714Y-83854819D02*
X218727381Y-84235771D01*
X218727381Y-84235771D02*
X218870238Y-84235771D01*
X218870238Y-84235771D02*
X218965476Y-84283390D01*
X218965476Y-84283390D02*
X219013095Y-84331009D01*
X219013095Y-84331009D02*
X219060714Y-84426247D01*
X219060714Y-84426247D02*
X219060714Y-84664342D01*
X219060714Y-84664342D02*
X219013095Y-84759580D01*
X219013095Y-84759580D02*
X218965476Y-84807200D01*
X218965476Y-84807200D02*
X218870238Y-84854819D01*
X218870238Y-84854819D02*
X218584524Y-84854819D01*
X218584524Y-84854819D02*
X218489286Y-84807200D01*
X218489286Y-84807200D02*
X218441667Y-84759580D01*
D11*
%TO.C,RV9*%
X160550000Y-130025000D02*
X161550000Y-130025000D01*
X161550000Y-130025000D02*
X161050000Y-129525000D01*
X161050000Y-129525000D02*
X160550000Y-130025000D01*
X158180000Y-129220000D02*
X159875000Y-129220000D01*
X158180000Y-129220000D02*
X158180000Y-124635000D01*
X162225000Y-129220000D02*
X163728000Y-129220000D01*
X165373000Y-129220000D02*
X167420000Y-129220000D01*
X167420000Y-129220000D02*
X167420000Y-125835000D01*
X167420000Y-122564000D02*
X167420000Y-60635000D01*
X161300000Y-121600000D02*
X164300000Y-121600000D01*
X162800000Y-121600000D02*
X163550000Y-120850000D01*
X162800000Y-121600000D02*
X162800000Y-61600000D01*
X158180000Y-121364000D02*
X158180000Y-61835000D01*
X162050000Y-120850000D02*
X162800000Y-121600000D01*
X162050000Y-62350000D02*
X162800000Y-61600000D01*
X161300000Y-61600000D02*
X164300000Y-61600000D01*
X162800000Y-61600000D02*
X163550000Y-62350000D01*
X158180000Y-58564000D02*
X158180000Y-53980000D01*
X167420000Y-57364000D02*
X167420000Y-53980000D01*
X158180000Y-53980000D02*
X160227000Y-53980000D01*
X161873000Y-53980000D02*
X167420000Y-53980000D01*
%TO.C,R4*%
X201590000Y-127189564D02*
X201590000Y-125735436D01*
X203410000Y-127189564D02*
X203410000Y-125735436D01*
%TO.C,RV4*%
X89138000Y-129925000D02*
X90138000Y-129925000D01*
X90138000Y-129925000D02*
X89638000Y-129425000D01*
X89638000Y-129425000D02*
X89138000Y-129925000D01*
X86768000Y-129120000D02*
X88463000Y-129120000D01*
X86768000Y-129120000D02*
X86768000Y-124535000D01*
X90813000Y-129120000D02*
X92316000Y-129120000D01*
X93961000Y-129120000D02*
X96008000Y-129120000D01*
X96008000Y-129120000D02*
X96008000Y-125735000D01*
X96008000Y-122464000D02*
X96008000Y-60535000D01*
X89888000Y-121500000D02*
X92888000Y-121500000D01*
X91388000Y-121500000D02*
X92138000Y-120750000D01*
X91388000Y-121500000D02*
X91388000Y-61500000D01*
X86768000Y-121264000D02*
X86768000Y-61735000D01*
X90638000Y-120750000D02*
X91388000Y-121500000D01*
X90638000Y-62250000D02*
X91388000Y-61500000D01*
X89888000Y-61500000D02*
X92888000Y-61500000D01*
X91388000Y-61500000D02*
X92138000Y-62250000D01*
X86768000Y-58464000D02*
X86768000Y-53880000D01*
X96008000Y-57264000D02*
X96008000Y-53880000D01*
X86768000Y-53880000D02*
X88815000Y-53880000D01*
X90461000Y-53880000D02*
X96008000Y-53880000D01*
%TO.C,C5*%
X185910000Y-105763748D02*
X185910000Y-107186252D01*
X184090000Y-105763748D02*
X184090000Y-107186252D01*
%TO.C,RV10*%
X174550000Y-130025000D02*
X175550000Y-130025000D01*
X175550000Y-130025000D02*
X175050000Y-129525000D01*
X175050000Y-129525000D02*
X174550000Y-130025000D01*
X172180000Y-129220000D02*
X173875000Y-129220000D01*
X172180000Y-129220000D02*
X172180000Y-124635000D01*
X176225000Y-129220000D02*
X177728000Y-129220000D01*
X179373000Y-129220000D02*
X181420000Y-129220000D01*
X181420000Y-129220000D02*
X181420000Y-125835000D01*
X181420000Y-122564000D02*
X181420000Y-60635000D01*
X175300000Y-121600000D02*
X178300000Y-121600000D01*
X176800000Y-121600000D02*
X177550000Y-120850000D01*
X176800000Y-121600000D02*
X176800000Y-61600000D01*
X172180000Y-121364000D02*
X172180000Y-61835000D01*
X176050000Y-120850000D02*
X176800000Y-121600000D01*
X176050000Y-62350000D02*
X176800000Y-61600000D01*
X175300000Y-61600000D02*
X178300000Y-61600000D01*
X176800000Y-61600000D02*
X177550000Y-62350000D01*
X172180000Y-58564000D02*
X172180000Y-53980000D01*
X181420000Y-57364000D02*
X181420000Y-53980000D01*
X172180000Y-53980000D02*
X174227000Y-53980000D01*
X175873000Y-53980000D02*
X181420000Y-53980000D01*
%TO.C,R5*%
X182590000Y-80189564D02*
X182590000Y-78735436D01*
X184410000Y-80189564D02*
X184410000Y-78735436D01*
%TO.C,C4*%
X220486252Y-122160000D02*
X219063748Y-122160000D01*
X220486252Y-120340000D02*
X219063748Y-120340000D01*
%TO.C,R1*%
X202910000Y-74260436D02*
X202910000Y-75714564D01*
X201090000Y-74260436D02*
X201090000Y-75714564D01*
%TO.C,RV7*%
X132050000Y-130011000D02*
X133050000Y-130011000D01*
X133050000Y-130011000D02*
X132550000Y-129511000D01*
X132550000Y-129511000D02*
X132050000Y-130011000D01*
X129680000Y-129206000D02*
X131375000Y-129206000D01*
X129680000Y-129206000D02*
X129680000Y-124621000D01*
X133725000Y-129206000D02*
X135228000Y-129206000D01*
X136873000Y-129206000D02*
X138920000Y-129206000D01*
X138920000Y-129206000D02*
X138920000Y-125821000D01*
X138920000Y-122550000D02*
X138920000Y-60621000D01*
X132800000Y-121586000D02*
X135800000Y-121586000D01*
X134300000Y-121586000D02*
X135050000Y-120836000D01*
X134300000Y-121586000D02*
X134300000Y-61586000D01*
X129680000Y-121350000D02*
X129680000Y-61821000D01*
X133550000Y-120836000D02*
X134300000Y-121586000D01*
X133550000Y-62336000D02*
X134300000Y-61586000D01*
X132800000Y-61586000D02*
X135800000Y-61586000D01*
X134300000Y-61586000D02*
X135050000Y-62336000D01*
X129680000Y-58550000D02*
X129680000Y-53966000D01*
X138920000Y-57350000D02*
X138920000Y-53966000D01*
X129680000Y-53966000D02*
X131727000Y-53966000D01*
X133373000Y-53966000D02*
X138920000Y-53966000D01*
%TO.C,RV1*%
X212750000Y-53075000D02*
X211750000Y-53075000D01*
X211750000Y-53075000D02*
X212250000Y-53575000D01*
X212250000Y-53575000D02*
X212750000Y-53075000D01*
X215120000Y-53880000D02*
X213425000Y-53880000D01*
X215120000Y-53880000D02*
X215120000Y-58465000D01*
X211075000Y-53880000D02*
X209572000Y-53880000D01*
X207927000Y-53880000D02*
X205880000Y-53880000D01*
X205880000Y-53880000D02*
X205880000Y-57265000D01*
X205880000Y-60536000D02*
X205880000Y-122465000D01*
X212000000Y-61500000D02*
X209000000Y-61500000D01*
X210500000Y-61500000D02*
X209750000Y-62250000D01*
X210500000Y-61500000D02*
X210500000Y-121500000D01*
X215120000Y-61736000D02*
X215120000Y-121265000D01*
X211250000Y-62250000D02*
X210500000Y-61500000D01*
X211250000Y-120750000D02*
X210500000Y-121500000D01*
X212000000Y-121500000D02*
X209000000Y-121500000D01*
X210500000Y-121500000D02*
X209750000Y-120750000D01*
X215120000Y-124536000D02*
X215120000Y-129120000D01*
X205880000Y-125736000D02*
X205880000Y-129120000D01*
X215120000Y-129120000D02*
X213073000Y-129120000D01*
X211427000Y-129120000D02*
X205880000Y-129120000D01*
%TO.C,RV6*%
X118050000Y-129925000D02*
X119050000Y-129925000D01*
X119050000Y-129925000D02*
X118550000Y-129425000D01*
X118550000Y-129425000D02*
X118050000Y-129925000D01*
X115680000Y-129120000D02*
X117375000Y-129120000D01*
X115680000Y-129120000D02*
X115680000Y-124535000D01*
X119725000Y-129120000D02*
X121228000Y-129120000D01*
X122873000Y-129120000D02*
X124920000Y-129120000D01*
X124920000Y-129120000D02*
X124920000Y-125735000D01*
X124920000Y-122464000D02*
X124920000Y-60535000D01*
X118800000Y-121500000D02*
X121800000Y-121500000D01*
X120300000Y-121500000D02*
X121050000Y-120750000D01*
X120300000Y-121500000D02*
X120300000Y-61500000D01*
X115680000Y-121264000D02*
X115680000Y-61735000D01*
X119550000Y-120750000D02*
X120300000Y-121500000D01*
X119550000Y-62250000D02*
X120300000Y-61500000D01*
X118800000Y-61500000D02*
X121800000Y-61500000D01*
X120300000Y-61500000D02*
X121050000Y-62250000D01*
X115680000Y-58464000D02*
X115680000Y-53880000D01*
X124920000Y-57264000D02*
X124920000Y-53880000D01*
X115680000Y-53880000D02*
X117727000Y-53880000D01*
X119373000Y-53880000D02*
X124920000Y-53880000D01*
%TO.C,RV11*%
X191050000Y-130025000D02*
X192050000Y-130025000D01*
X192050000Y-130025000D02*
X191550000Y-129525000D01*
X191550000Y-129525000D02*
X191050000Y-130025000D01*
X188680000Y-129220000D02*
X190375000Y-129220000D01*
X188680000Y-129220000D02*
X188680000Y-124635000D01*
X192725000Y-129220000D02*
X194228000Y-129220000D01*
X195873000Y-129220000D02*
X197920000Y-129220000D01*
X197920000Y-129220000D02*
X197920000Y-125835000D01*
X197920000Y-122564000D02*
X197920000Y-60635000D01*
X191800000Y-121600000D02*
X194800000Y-121600000D01*
X193300000Y-121600000D02*
X194050000Y-120850000D01*
X193300000Y-121600000D02*
X193300000Y-61600000D01*
X188680000Y-121364000D02*
X188680000Y-61835000D01*
X192550000Y-120850000D02*
X193300000Y-121600000D01*
X192550000Y-62350000D02*
X193300000Y-61600000D01*
X191800000Y-61600000D02*
X194800000Y-61600000D01*
X193300000Y-61600000D02*
X194050000Y-62350000D01*
X188680000Y-58564000D02*
X188680000Y-53980000D01*
X197920000Y-57364000D02*
X197920000Y-53980000D01*
X188680000Y-53980000D02*
X190727000Y-53980000D01*
X192373000Y-53980000D02*
X197920000Y-53980000D01*
%TO.C,C1*%
X202910000Y-66263748D02*
X202910000Y-67686252D01*
X201090000Y-66263748D02*
X201090000Y-67686252D01*
%TO.C,RV5*%
X103362000Y-129925000D02*
X104362000Y-129925000D01*
X104362000Y-129925000D02*
X103862000Y-129425000D01*
X103862000Y-129425000D02*
X103362000Y-129925000D01*
X100992000Y-129120000D02*
X102687000Y-129120000D01*
X100992000Y-129120000D02*
X100992000Y-124535000D01*
X105037000Y-129120000D02*
X106540000Y-129120000D01*
X108185000Y-129120000D02*
X110232000Y-129120000D01*
X110232000Y-129120000D02*
X110232000Y-125735000D01*
X110232000Y-122464000D02*
X110232000Y-60535000D01*
X104112000Y-121500000D02*
X107112000Y-121500000D01*
X105612000Y-121500000D02*
X106362000Y-120750000D01*
X105612000Y-121500000D02*
X105612000Y-61500000D01*
X100992000Y-121264000D02*
X100992000Y-61735000D01*
X104862000Y-120750000D02*
X105612000Y-121500000D01*
X104862000Y-62250000D02*
X105612000Y-61500000D01*
X104112000Y-61500000D02*
X107112000Y-61500000D01*
X105612000Y-61500000D02*
X106362000Y-62250000D01*
X100992000Y-58464000D02*
X100992000Y-53880000D01*
X110232000Y-57264000D02*
X110232000Y-53880000D01*
X100992000Y-53880000D02*
X103039000Y-53880000D01*
X104685000Y-53880000D02*
X110232000Y-53880000D01*
%TO.C,R6*%
X223560436Y-88340000D02*
X225014564Y-88340000D01*
X223560436Y-90160000D02*
X225014564Y-90160000D01*
%TO.C,RV8*%
X146050000Y-130025000D02*
X147050000Y-130025000D01*
X147050000Y-130025000D02*
X146550000Y-129525000D01*
X146550000Y-129525000D02*
X146050000Y-130025000D01*
X143680000Y-129220000D02*
X145375000Y-129220000D01*
X143680000Y-129220000D02*
X143680000Y-124635000D01*
X147725000Y-129220000D02*
X149228000Y-129220000D01*
X150873000Y-129220000D02*
X152920000Y-129220000D01*
X152920000Y-129220000D02*
X152920000Y-125835000D01*
X152920000Y-122564000D02*
X152920000Y-60635000D01*
X146800000Y-121600000D02*
X149800000Y-121600000D01*
X148300000Y-121600000D02*
X149050000Y-120850000D01*
X148300000Y-121600000D02*
X148300000Y-61600000D01*
X143680000Y-121364000D02*
X143680000Y-61835000D01*
X147550000Y-120850000D02*
X148300000Y-121600000D01*
X147550000Y-62350000D02*
X148300000Y-61600000D01*
X146800000Y-61600000D02*
X149800000Y-61600000D01*
X148300000Y-61600000D02*
X149050000Y-62350000D01*
X143680000Y-58564000D02*
X143680000Y-53980000D01*
X152920000Y-57364000D02*
X152920000Y-53980000D01*
X143680000Y-53980000D02*
X145727000Y-53980000D01*
X147373000Y-53980000D02*
X152920000Y-53980000D01*
%TO.C,J2*%
X218950000Y-101750000D02*
X219450000Y-101750000D01*
X218950000Y-102950000D02*
X216950000Y-102950000D01*
X218950000Y-102950000D02*
X218950000Y-101750000D01*
X218950000Y-105550000D02*
X216950000Y-105550000D01*
X218950000Y-112050000D02*
X218950000Y-105550000D01*
X218950000Y-116450000D02*
X218950000Y-115250000D01*
X219450000Y-99250000D02*
X224650000Y-99250000D01*
X219450000Y-101750000D02*
X219450000Y-99250000D01*
X224650000Y-99250000D02*
X224650000Y-101750000D01*
X224650000Y-101750000D02*
X225150000Y-101750000D01*
X225150000Y-101750000D02*
X225150000Y-104950000D01*
X225150000Y-107550000D02*
X225150000Y-116450000D01*
X225150000Y-116450000D02*
X218950000Y-116450000D01*
%TO.C,RV3*%
X75930000Y-129671000D02*
X76930000Y-129671000D01*
X76930000Y-129671000D02*
X76430000Y-129171000D01*
X76430000Y-129171000D02*
X75930000Y-129671000D01*
X73560000Y-128866000D02*
X75255000Y-128866000D01*
X73560000Y-128866000D02*
X73560000Y-124281000D01*
X77605000Y-128866000D02*
X79108000Y-128866000D01*
X80753000Y-128866000D02*
X82800000Y-128866000D01*
X82800000Y-128866000D02*
X82800000Y-125481000D01*
X82800000Y-122210000D02*
X82800000Y-60281000D01*
X76680000Y-121246000D02*
X79680000Y-121246000D01*
X78180000Y-121246000D02*
X78930000Y-120496000D01*
X78180000Y-121246000D02*
X78180000Y-61246000D01*
X73560000Y-121010000D02*
X73560000Y-61481000D01*
X77430000Y-120496000D02*
X78180000Y-121246000D01*
X77430000Y-61996000D02*
X78180000Y-61246000D01*
X76680000Y-61246000D02*
X79680000Y-61246000D01*
X78180000Y-61246000D02*
X78930000Y-61996000D01*
X73560000Y-58210000D02*
X73560000Y-53626000D01*
X82800000Y-57010000D02*
X82800000Y-53626000D01*
X73560000Y-53626000D02*
X75607000Y-53626000D01*
X77253000Y-53626000D02*
X82800000Y-53626000D01*
%TO.C,C2*%
X201090000Y-89686252D02*
X201090000Y-88263748D01*
X202910000Y-89686252D02*
X202910000Y-88263748D01*
%TO.C,RV2*%
X62722000Y-129671000D02*
X63722000Y-129671000D01*
X63722000Y-129671000D02*
X63222000Y-129171000D01*
X63222000Y-129171000D02*
X62722000Y-129671000D01*
X60352000Y-128866000D02*
X62047000Y-128866000D01*
X60352000Y-128866000D02*
X60352000Y-124281000D01*
X64397000Y-128866000D02*
X65900000Y-128866000D01*
X67545000Y-128866000D02*
X69592000Y-128866000D01*
X69592000Y-128866000D02*
X69592000Y-125481000D01*
X69592000Y-122210000D02*
X69592000Y-60281000D01*
X63472000Y-121246000D02*
X66472000Y-121246000D01*
X64972000Y-121246000D02*
X65722000Y-120496000D01*
X64972000Y-121246000D02*
X64972000Y-61246000D01*
X60352000Y-121010000D02*
X60352000Y-61481000D01*
X64222000Y-120496000D02*
X64972000Y-121246000D01*
X64222000Y-61996000D02*
X64972000Y-61246000D01*
X63472000Y-61246000D02*
X66472000Y-61246000D01*
X64972000Y-61246000D02*
X65722000Y-61996000D01*
X60352000Y-58210000D02*
X60352000Y-53626000D01*
X69592000Y-57010000D02*
X69592000Y-53626000D01*
X60352000Y-53626000D02*
X62399000Y-53626000D01*
X64045000Y-53626000D02*
X69592000Y-53626000D01*
%TO.C,R3*%
X203410000Y-81685436D02*
X203410000Y-83139564D01*
X201590000Y-81685436D02*
X201590000Y-83139564D01*
%TO.C,R2*%
X183090000Y-68235436D02*
X183090000Y-69689564D01*
X184910000Y-68235436D02*
X184910000Y-69689564D01*
%TO.C,J1*%
X225150000Y-78650000D02*
X224650000Y-78650000D01*
X225150000Y-77450000D02*
X227150000Y-77450000D01*
X225150000Y-77450000D02*
X225150000Y-78650000D01*
X225150000Y-74850000D02*
X227150000Y-74850000D01*
X225150000Y-68350000D02*
X225150000Y-74850000D01*
X225150000Y-63950000D02*
X225150000Y-65150000D01*
X224650000Y-81150000D02*
X219450000Y-81150000D01*
X224650000Y-78650000D02*
X224650000Y-81150000D01*
X219450000Y-81150000D02*
X219450000Y-78650000D01*
X219450000Y-78650000D02*
X218950000Y-78650000D01*
X218950000Y-78650000D02*
X218950000Y-75450000D01*
X218950000Y-72850000D02*
X218950000Y-63950000D01*
X218950000Y-63950000D02*
X225150000Y-63950000D01*
%TO.C,R7*%
X201590000Y-111189564D02*
X201590000Y-109735436D01*
X203410000Y-111189564D02*
X203410000Y-109735436D01*
%TO.C,C3*%
X217563748Y-85340000D02*
X218986252Y-85340000D01*
X217563748Y-87160000D02*
X218986252Y-87160000D01*
%TD*%
M02*
