M48
; DRILL file {KiCad 7.0.6} date Fri Jul 28 17:23:32 2023
; FORMAT={-:-/ absolute / inch / decimal}
; #@! TF.CreationDate,2023-07-28T17:23:32+05:30
; #@! TF.GenerationSoftware,Kicad,Pcbnew,7.0.6
; #@! TF.FileFunction,Plated,1,2,PTH
FMAT,2
INCH
; #@! TA.AperFunction,Plated,PTH,ComponentDrill
T1C0.0276
; #@! TA.AperFunction,Plated,PTH,ComponentDrill
T2C0.0315
; #@! TA.AperFunction,Plated,PTH,ComponentDrill
T3C0.0394
%
G90
G05
T1
X4.6244Y-5.1181
X4.6744Y-5.1681
X4.7244Y-5.1181
T2
X6.6937Y-4.0874
X6.7233Y-4.2642
X6.7233Y-4.5642
X6.7938Y-4.0874
X6.8233Y-4.2642
X6.8233Y-4.5642
X6.9233Y-4.2642
X6.9233Y-4.5642
X7.0233Y-4.2642
X7.0233Y-4.5642
X7.1233Y-4.2642
X7.1233Y-4.5642
X7.2233Y-4.2642
X7.2233Y-4.5642
X7.3233Y-4.2642
X7.3233Y-4.5642
X7.3747Y-4.0578
X7.4747Y-4.0578
T3
X5.7597Y-4.112
X5.8597Y-4.112
X6.154Y-4.1169
X6.254Y-4.1169
X6.7445Y-4.8551
X7.3351Y-4.8551
T0
M30
