%TF.GenerationSoftware,KiCad,Pcbnew,7.0.6*%
%TF.CreationDate,2023-07-28T17:23:34+05:30*%
%TF.ProjectId,ESA_5,4553415f-352e-46b6-9963-61645f706362,rev?*%
%TF.SameCoordinates,Original*%
%TF.FileFunction,Copper,L1,Top*%
%TF.FilePolarity,Positive*%
%FSLAX46Y46*%
G04 Gerber Fmt 4.6, Leading zero omitted, Abs format (unit mm)*
G04 Created by KiCad (PCBNEW 7.0.6) date 2023-07-28 17:23:34*
%MOMM*%
%LPD*%
G01*
G04 APERTURE LIST*
%ADD10C,0.150000*%
%TA.AperFunction,NonConductor*%
%ADD11C,0.150000*%
%TD*%
%TA.AperFunction,ComponentPad*%
%ADD12R,1.700000X1.700000*%
%TD*%
%TA.AperFunction,ComponentPad*%
%ADD13O,1.700000X1.700000*%
%TD*%
%TA.AperFunction,ComponentPad*%
%ADD14O,1.600000X1.200000*%
%TD*%
%TA.AperFunction,ComponentPad*%
%ADD15O,1.200000X1.200000*%
%TD*%
%TA.AperFunction,ComponentPad*%
%ADD16R,1.600000X1.600000*%
%TD*%
%TA.AperFunction,ComponentPad*%
%ADD17O,1.600000X1.600000*%
%TD*%
%TA.AperFunction,ComponentPad*%
%ADD18R,2.000000X2.000000*%
%TD*%
%TA.AperFunction,ComponentPad*%
%ADD19O,2.000000X2.000000*%
%TD*%
%TA.AperFunction,ComponentPad*%
%ADD20C,1.600000*%
%TD*%
%TA.AperFunction,Conductor*%
%ADD21C,0.500000*%
%TD*%
G04 APERTURE END LIST*
D10*
D11*
X145336779Y-87736009D02*
X145670112Y-87736009D01*
X145812969Y-88259819D02*
X145336779Y-88259819D01*
X145336779Y-88259819D02*
X145336779Y-87259819D01*
X145336779Y-87259819D02*
X145812969Y-87259819D01*
X146193922Y-88212200D02*
X146336779Y-88259819D01*
X146336779Y-88259819D02*
X146574874Y-88259819D01*
X146574874Y-88259819D02*
X146670112Y-88212200D01*
X146670112Y-88212200D02*
X146717731Y-88164580D01*
X146717731Y-88164580D02*
X146765350Y-88069342D01*
X146765350Y-88069342D02*
X146765350Y-87974104D01*
X146765350Y-87974104D02*
X146717731Y-87878866D01*
X146717731Y-87878866D02*
X146670112Y-87831247D01*
X146670112Y-87831247D02*
X146574874Y-87783628D01*
X146574874Y-87783628D02*
X146384398Y-87736009D01*
X146384398Y-87736009D02*
X146289160Y-87688390D01*
X146289160Y-87688390D02*
X146241541Y-87640771D01*
X146241541Y-87640771D02*
X146193922Y-87545533D01*
X146193922Y-87545533D02*
X146193922Y-87450295D01*
X146193922Y-87450295D02*
X146241541Y-87355057D01*
X146241541Y-87355057D02*
X146289160Y-87307438D01*
X146289160Y-87307438D02*
X146384398Y-87259819D01*
X146384398Y-87259819D02*
X146622493Y-87259819D01*
X146622493Y-87259819D02*
X146765350Y-87307438D01*
X147146303Y-87974104D02*
X147622493Y-87974104D01*
X147051065Y-88259819D02*
X147384398Y-87259819D01*
X147384398Y-87259819D02*
X147717731Y-88259819D01*
X147812970Y-88355057D02*
X148574874Y-88355057D01*
X149289160Y-87259819D02*
X148812970Y-87259819D01*
X148812970Y-87259819D02*
X148765351Y-87736009D01*
X148765351Y-87736009D02*
X148812970Y-87688390D01*
X148812970Y-87688390D02*
X148908208Y-87640771D01*
X148908208Y-87640771D02*
X149146303Y-87640771D01*
X149146303Y-87640771D02*
X149241541Y-87688390D01*
X149241541Y-87688390D02*
X149289160Y-87736009D01*
X149289160Y-87736009D02*
X149336779Y-87831247D01*
X149336779Y-87831247D02*
X149336779Y-88069342D01*
X149336779Y-88069342D02*
X149289160Y-88164580D01*
X149289160Y-88164580D02*
X149241541Y-88212200D01*
X149241541Y-88212200D02*
X149146303Y-88259819D01*
X149146303Y-88259819D02*
X148908208Y-88259819D01*
X148908208Y-88259819D02*
X148812970Y-88212200D01*
X148812970Y-88212200D02*
X148765351Y-88164580D01*
X145336779Y-89869819D02*
X145336779Y-88869819D01*
X145336779Y-88869819D02*
X145717731Y-88869819D01*
X145717731Y-88869819D02*
X145812969Y-88917438D01*
X145812969Y-88917438D02*
X145860588Y-88965057D01*
X145860588Y-88965057D02*
X145908207Y-89060295D01*
X145908207Y-89060295D02*
X145908207Y-89203152D01*
X145908207Y-89203152D02*
X145860588Y-89298390D01*
X145860588Y-89298390D02*
X145812969Y-89346009D01*
X145812969Y-89346009D02*
X145717731Y-89393628D01*
X145717731Y-89393628D02*
X145336779Y-89393628D01*
X146336779Y-89346009D02*
X146670112Y-89346009D01*
X146812969Y-89869819D02*
X146336779Y-89869819D01*
X146336779Y-89869819D02*
X146336779Y-88869819D01*
X146336779Y-88869819D02*
X146812969Y-88869819D01*
X147193922Y-89822200D02*
X147336779Y-89869819D01*
X147336779Y-89869819D02*
X147574874Y-89869819D01*
X147574874Y-89869819D02*
X147670112Y-89822200D01*
X147670112Y-89822200D02*
X147717731Y-89774580D01*
X147717731Y-89774580D02*
X147765350Y-89679342D01*
X147765350Y-89679342D02*
X147765350Y-89584104D01*
X147765350Y-89584104D02*
X147717731Y-89488866D01*
X147717731Y-89488866D02*
X147670112Y-89441247D01*
X147670112Y-89441247D02*
X147574874Y-89393628D01*
X147574874Y-89393628D02*
X147384398Y-89346009D01*
X147384398Y-89346009D02*
X147289160Y-89298390D01*
X147289160Y-89298390D02*
X147241541Y-89250771D01*
X147241541Y-89250771D02*
X147193922Y-89155533D01*
X147193922Y-89155533D02*
X147193922Y-89060295D01*
X147193922Y-89060295D02*
X147241541Y-88965057D01*
X147241541Y-88965057D02*
X147289160Y-88917438D01*
X147289160Y-88917438D02*
X147384398Y-88869819D01*
X147384398Y-88869819D02*
X147622493Y-88869819D01*
X147622493Y-88869819D02*
X147765350Y-88917438D01*
X148717731Y-89869819D02*
X148146303Y-89869819D01*
X148432017Y-89869819D02*
X148432017Y-88869819D01*
X148432017Y-88869819D02*
X148336779Y-89012676D01*
X148336779Y-89012676D02*
X148241541Y-89107914D01*
X148241541Y-89107914D02*
X148146303Y-89155533D01*
X149146303Y-88869819D02*
X149146303Y-89679342D01*
X149146303Y-89679342D02*
X149193922Y-89774580D01*
X149193922Y-89774580D02*
X149241541Y-89822200D01*
X149241541Y-89822200D02*
X149336779Y-89869819D01*
X149336779Y-89869819D02*
X149527255Y-89869819D01*
X149527255Y-89869819D02*
X149622493Y-89822200D01*
X149622493Y-89822200D02*
X149670112Y-89774580D01*
X149670112Y-89774580D02*
X149717731Y-89679342D01*
X149717731Y-89679342D02*
X149717731Y-88869819D01*
X150717731Y-88917438D02*
X150622493Y-88869819D01*
X150622493Y-88869819D02*
X150479636Y-88869819D01*
X150479636Y-88869819D02*
X150336779Y-88917438D01*
X150336779Y-88917438D02*
X150241541Y-89012676D01*
X150241541Y-89012676D02*
X150193922Y-89107914D01*
X150193922Y-89107914D02*
X150146303Y-89298390D01*
X150146303Y-89298390D02*
X150146303Y-89441247D01*
X150146303Y-89441247D02*
X150193922Y-89631723D01*
X150193922Y-89631723D02*
X150241541Y-89726961D01*
X150241541Y-89726961D02*
X150336779Y-89822200D01*
X150336779Y-89822200D02*
X150479636Y-89869819D01*
X150479636Y-89869819D02*
X150574874Y-89869819D01*
X150574874Y-89869819D02*
X150717731Y-89822200D01*
X150717731Y-89822200D02*
X150765350Y-89774580D01*
X150765350Y-89774580D02*
X150765350Y-89441247D01*
X150765350Y-89441247D02*
X150574874Y-89441247D01*
X151146303Y-88965057D02*
X151193922Y-88917438D01*
X151193922Y-88917438D02*
X151289160Y-88869819D01*
X151289160Y-88869819D02*
X151527255Y-88869819D01*
X151527255Y-88869819D02*
X151622493Y-88917438D01*
X151622493Y-88917438D02*
X151670112Y-88965057D01*
X151670112Y-88965057D02*
X151717731Y-89060295D01*
X151717731Y-89060295D02*
X151717731Y-89155533D01*
X151717731Y-89155533D02*
X151670112Y-89298390D01*
X151670112Y-89298390D02*
X151098684Y-89869819D01*
X151098684Y-89869819D02*
X151717731Y-89869819D01*
X152670112Y-89869819D02*
X152098684Y-89869819D01*
X152384398Y-89869819D02*
X152384398Y-88869819D01*
X152384398Y-88869819D02*
X152289160Y-89012676D01*
X152289160Y-89012676D02*
X152193922Y-89107914D01*
X152193922Y-89107914D02*
X152098684Y-89155533D01*
X153098684Y-89346009D02*
X153432017Y-89346009D01*
X153574874Y-89869819D02*
X153098684Y-89869819D01*
X153098684Y-89869819D02*
X153098684Y-88869819D01*
X153098684Y-88869819D02*
X153574874Y-88869819D01*
X154574874Y-89774580D02*
X154527255Y-89822200D01*
X154527255Y-89822200D02*
X154384398Y-89869819D01*
X154384398Y-89869819D02*
X154289160Y-89869819D01*
X154289160Y-89869819D02*
X154146303Y-89822200D01*
X154146303Y-89822200D02*
X154051065Y-89726961D01*
X154051065Y-89726961D02*
X154003446Y-89631723D01*
X154003446Y-89631723D02*
X153955827Y-89441247D01*
X153955827Y-89441247D02*
X153955827Y-89298390D01*
X153955827Y-89298390D02*
X154003446Y-89107914D01*
X154003446Y-89107914D02*
X154051065Y-89012676D01*
X154051065Y-89012676D02*
X154146303Y-88917438D01*
X154146303Y-88917438D02*
X154289160Y-88869819D01*
X154289160Y-88869819D02*
X154384398Y-88869819D01*
X154384398Y-88869819D02*
X154527255Y-88917438D01*
X154527255Y-88917438D02*
X154574874Y-88965057D01*
X154955827Y-88965057D02*
X155003446Y-88917438D01*
X155003446Y-88917438D02*
X155098684Y-88869819D01*
X155098684Y-88869819D02*
X155336779Y-88869819D01*
X155336779Y-88869819D02*
X155432017Y-88917438D01*
X155432017Y-88917438D02*
X155479636Y-88965057D01*
X155479636Y-88965057D02*
X155527255Y-89060295D01*
X155527255Y-89060295D02*
X155527255Y-89155533D01*
X155527255Y-89155533D02*
X155479636Y-89298390D01*
X155479636Y-89298390D02*
X154908208Y-89869819D01*
X154908208Y-89869819D02*
X155527255Y-89869819D01*
X156098684Y-89298390D02*
X156003446Y-89250771D01*
X156003446Y-89250771D02*
X155955827Y-89203152D01*
X155955827Y-89203152D02*
X155908208Y-89107914D01*
X155908208Y-89107914D02*
X155908208Y-89060295D01*
X155908208Y-89060295D02*
X155955827Y-88965057D01*
X155955827Y-88965057D02*
X156003446Y-88917438D01*
X156003446Y-88917438D02*
X156098684Y-88869819D01*
X156098684Y-88869819D02*
X156289160Y-88869819D01*
X156289160Y-88869819D02*
X156384398Y-88917438D01*
X156384398Y-88917438D02*
X156432017Y-88965057D01*
X156432017Y-88965057D02*
X156479636Y-89060295D01*
X156479636Y-89060295D02*
X156479636Y-89107914D01*
X156479636Y-89107914D02*
X156432017Y-89203152D01*
X156432017Y-89203152D02*
X156384398Y-89250771D01*
X156384398Y-89250771D02*
X156289160Y-89298390D01*
X156289160Y-89298390D02*
X156098684Y-89298390D01*
X156098684Y-89298390D02*
X156003446Y-89346009D01*
X156003446Y-89346009D02*
X155955827Y-89393628D01*
X155955827Y-89393628D02*
X155908208Y-89488866D01*
X155908208Y-89488866D02*
X155908208Y-89679342D01*
X155908208Y-89679342D02*
X155955827Y-89774580D01*
X155955827Y-89774580D02*
X156003446Y-89822200D01*
X156003446Y-89822200D02*
X156098684Y-89869819D01*
X156098684Y-89869819D02*
X156289160Y-89869819D01*
X156289160Y-89869819D02*
X156384398Y-89822200D01*
X156384398Y-89822200D02*
X156432017Y-89774580D01*
X156432017Y-89774580D02*
X156479636Y-89679342D01*
X156479636Y-89679342D02*
X156479636Y-89488866D01*
X156479636Y-89488866D02*
X156432017Y-89393628D01*
X156432017Y-89393628D02*
X156384398Y-89346009D01*
X156384398Y-89346009D02*
X156289160Y-89298390D01*
X157051065Y-89298390D02*
X156955827Y-89250771D01*
X156955827Y-89250771D02*
X156908208Y-89203152D01*
X156908208Y-89203152D02*
X156860589Y-89107914D01*
X156860589Y-89107914D02*
X156860589Y-89060295D01*
X156860589Y-89060295D02*
X156908208Y-88965057D01*
X156908208Y-88965057D02*
X156955827Y-88917438D01*
X156955827Y-88917438D02*
X157051065Y-88869819D01*
X157051065Y-88869819D02*
X157241541Y-88869819D01*
X157241541Y-88869819D02*
X157336779Y-88917438D01*
X157336779Y-88917438D02*
X157384398Y-88965057D01*
X157384398Y-88965057D02*
X157432017Y-89060295D01*
X157432017Y-89060295D02*
X157432017Y-89107914D01*
X157432017Y-89107914D02*
X157384398Y-89203152D01*
X157384398Y-89203152D02*
X157336779Y-89250771D01*
X157336779Y-89250771D02*
X157241541Y-89298390D01*
X157241541Y-89298390D02*
X157051065Y-89298390D01*
X157051065Y-89298390D02*
X156955827Y-89346009D01*
X156955827Y-89346009D02*
X156908208Y-89393628D01*
X156908208Y-89393628D02*
X156860589Y-89488866D01*
X156860589Y-89488866D02*
X156860589Y-89679342D01*
X156860589Y-89679342D02*
X156908208Y-89774580D01*
X156908208Y-89774580D02*
X156955827Y-89822200D01*
X156955827Y-89822200D02*
X157051065Y-89869819D01*
X157051065Y-89869819D02*
X157241541Y-89869819D01*
X157241541Y-89869819D02*
X157336779Y-89822200D01*
X157336779Y-89822200D02*
X157384398Y-89774580D01*
X157384398Y-89774580D02*
X157432017Y-89679342D01*
X157432017Y-89679342D02*
X157432017Y-89488866D01*
X157432017Y-89488866D02*
X157384398Y-89393628D01*
X157384398Y-89393628D02*
X157336779Y-89346009D01*
X157336779Y-89346009D02*
X157241541Y-89298390D01*
D12*
%TO.P,J2,1,Pin_1*%
%TO.N,Net-(J2-Pin_1)*%
X158851250Y-104568750D03*
D13*
%TO.P,J2,2,Pin_2*%
%TO.N,GND*%
X156311250Y-104568750D03*
%TD*%
D14*
%TO.P,Q1,1,C*%
%TO.N,Net-(J1-Pin_2)*%
X117460000Y-130000000D03*
D15*
%TO.P,Q1,2,B*%
%TO.N,Net-(Q1-B)*%
X118730000Y-131270000D03*
%TO.P,Q1,3,E*%
%TO.N,Net-(Q1-E)*%
X120000000Y-130000000D03*
%TD*%
D16*
%TO.P,U1,1*%
%TO.N,Net-(J2-Pin_1)*%
X170771250Y-115931250D03*
D17*
%TO.P,U1,2,-*%
X173311250Y-115931250D03*
%TO.P,U1,3,+*%
%TO.N,Net-(J1-Pin_2)*%
X175851250Y-115931250D03*
%TO.P,U1,4,V+*%
%TO.N,VCC*%
X178391250Y-115931250D03*
%TO.P,U1,5,+*%
%TO.N,Net-(U1B-+)*%
X180931250Y-115931250D03*
%TO.P,U1,6,-*%
%TO.N,Net-(Q1-E)*%
X183471250Y-115931250D03*
%TO.P,U1,7*%
%TO.N,Net-(Q1-B)*%
X186011250Y-115931250D03*
%TO.P,U1,8*%
%TO.N,N/C*%
X186011250Y-108311250D03*
%TO.P,U1,9*%
X183471250Y-108311250D03*
%TO.P,U1,10*%
X180931250Y-108311250D03*
%TO.P,U1,11,V-*%
%TO.N,GND*%
X178391250Y-108311250D03*
%TO.P,U1,12*%
%TO.N,N/C*%
X175851250Y-108311250D03*
%TO.P,U1,13*%
X173311250Y-108311250D03*
%TO.P,U1,14*%
X170771250Y-108311250D03*
%TD*%
D18*
%TO.P,C1,1*%
%TO.N,Net-(Q1-B)*%
X186311250Y-123318750D03*
D19*
%TO.P,C1,2*%
%TO.N,Net-(Q1-E)*%
X171311250Y-123318750D03*
%TD*%
D12*
%TO.P,J1,1,Pin_1*%
%TO.N,GND*%
X148836250Y-104443750D03*
D13*
%TO.P,J1,2,Pin_2*%
%TO.N,Net-(J1-Pin_2)*%
X146296250Y-104443750D03*
%TD*%
D20*
%TO.P,R1,1*%
%TO.N,Net-(Q1-E)*%
X189856250Y-103068750D03*
D17*
%TO.P,R1,2*%
%TO.N,GND*%
X187316250Y-103068750D03*
%TD*%
D20*
%TO.P,2R1,1*%
%TO.N,GND*%
X172561250Y-103818750D03*
D17*
%TO.P,2R1,2*%
%TO.N,Net-(U1B-+)*%
X170021250Y-103818750D03*
%TD*%
D21*
%TO.N,GND*%
X183633750Y-103068750D02*
X178391250Y-108311250D01*
X156186250Y-104443750D02*
X156311250Y-104568750D01*
X173898750Y-103818750D02*
X178391250Y-108311250D01*
X187316250Y-103068750D02*
X183633750Y-103068750D01*
X162061250Y-98818750D02*
X172561250Y-98818750D01*
X156311250Y-104568750D02*
X162061250Y-98818750D01*
X172561250Y-98818750D02*
X172561250Y-103818750D01*
X172561250Y-103818750D02*
X173898750Y-103818750D01*
X148836250Y-104443750D02*
X156186250Y-104443750D01*
%TO.N,Net-(U1B-+)*%
X166561250Y-114068750D02*
X179068750Y-114068750D01*
X166561250Y-105568750D02*
X166561250Y-114068750D01*
X179068750Y-114068750D02*
X180931250Y-115931250D01*
X168311250Y-103818750D02*
X166561250Y-105568750D01*
X170021250Y-103818750D02*
X168311250Y-103818750D01*
%TO.N,Net-(Q1-B)*%
X178360000Y-131270000D02*
X186311250Y-123318750D01*
X118730000Y-131270000D02*
X178360000Y-131270000D01*
X186311250Y-123318750D02*
X186311250Y-116231250D01*
X186311250Y-116231250D02*
X186011250Y-115931250D01*
%TO.N,Net-(Q1-E)*%
X126681250Y-123318750D02*
X171311250Y-123318750D01*
X120000000Y-130000000D02*
X126681250Y-123318750D01*
X176083750Y-123318750D02*
X183471250Y-115931250D01*
X171311250Y-123318750D02*
X176083750Y-123318750D01*
X189856250Y-103068750D02*
X189856250Y-109546250D01*
X189856250Y-109546250D02*
X183471250Y-115931250D01*
%TO.N,Net-(J1-Pin_2)*%
X174601250Y-117181250D02*
X175851250Y-115931250D01*
X141798198Y-117181250D02*
X174601250Y-117181250D01*
X117460000Y-130000000D02*
X130278750Y-117181250D01*
X146296250Y-104443750D02*
X141798198Y-108941802D01*
X141798198Y-108941802D02*
X141798198Y-117181250D01*
X130278750Y-117181250D02*
X141798198Y-117181250D01*
%TO.N,Net-(J2-Pin_1)*%
X158851250Y-104568750D02*
X158851250Y-107348699D01*
X170771250Y-115931250D02*
X173311250Y-115931250D01*
X158851250Y-107348699D02*
X167433801Y-115931250D01*
X167433801Y-115931250D02*
X170771250Y-115931250D01*
%TD*%
M02*
